<?xml version="1.0" standalone="no"?>
<!DOCTYPE svg PUBLIC "-//W3C//DTD SVG 1.1//EN" "http://www.w3.org/Graphics/SVG/1.1/DTD/svg11.dtd" >
<svg xmlns="http://www.w3.org/2000/svg" xmlns:xlink="http://www.w3.org/1999/xlink" version="1.1">
<metadata>
Created by FontForge 20170924 at Sat Sep  5 05:16:01 2015
 By www-data
(c) 2014 Adobe Systems Incorporated. All Rights Reserved.
</metadata>
<defs>
<font id="AcuminPro-Bold" horiz-adv-x="569" >
  <font-face 
    font-family="Acumin Pro"
    font-weight="700"
    font-stretch="normal"
    units-per-em="1000"
    panose-1="2 11 8 4 2 2 2 2 2 4"
    ascent="750"
    descent="-250"
    x-height="518"
    cap-height="689"
    bbox="-178 -245 934 898"
    underline-thickness="50"
    underline-position="-150"
    unicode-range="U+0020-20AC"
  />
<missing-glyph horiz-adv-x="500" 
d="M0 700h500v-700h-500v700zM420 650h-340l170 -255zM450 95v510l-170 -255zM420 50l-170 255l-170 -255h340zM50 95l170 255l-170 255v-510z" />
    <glyph glyph-name="f_f" unicode="ff" horiz-adv-x="632" 
d="M227 410v-410h-143v410h-76v108h76v46q0 80 38.5 128t129.5 48q18 0 33 -2t25 -5v-111q-18 3 -33 3q-29 0 -39.5 -17t-10.5 -48v-42h159v46q0 80 39.5 128t129.5 48q18 0 33 -2t25 -5v-111q-18 3 -33 3q-29 0 -39.5 -17t-10.5 -48v-42h90v-108h-90v-410h-144v410h-159z
" />
    <glyph glyph-name=".notdef" horiz-adv-x="500" 
d="M0 700h500v-700h-500v700zM420 650h-340l170 -255zM450 95v510l-170 -255zM420 50l-170 255l-170 -255h340zM50 95l170 255l-170 255v-510z" />
    <glyph glyph-name=".null" horiz-adv-x="0" 
 />
    <glyph glyph-name="nonmarkingreturn" horiz-adv-x="333" 
 />
    <glyph glyph-name="space" unicode=" " horiz-adv-x="242" 
 />
    <glyph glyph-name="space" unicode="&#xa0;" horiz-adv-x="242" 
 />
    <glyph glyph-name="exclam" unicode="!" horiz-adv-x="323" 
d="M131 250l-19 320v119h152v-120l-18 -319h-115zM116 0v166h141v-166h-141z" />
    <glyph glyph-name="quotedbl" unicode="&#x22;" horiz-adv-x="427" 
d="M63 437l-14 201v92h129v-93l-13 -200h-102zM263 437l-13 201v92h128v-93l-15 -200h-100z" />
    <glyph glyph-name="numbersign" unicode="#" horiz-adv-x="634" 
d="M330 174h-106l-43 -174h-99l43 174h-76v108h103l30 120h-83v107h110l40 160h96l-39 -160h107l40 160h96l-39 -160h70l-1 -107h-95l-29 -120h79v-108h-106l-42 -174h-99zM387 402h-107l-30 -120h107z" />
    <glyph glyph-name="dollar" unicode="$" horiz-adv-x="552" 
d="M214 -83v80q-87 14 -135.5 63t-54.5 122h142q8 -39 37 -61.5t74 -22.5q55 0 76 22.5t21 52.5q0 18 -5.5 32.5t-19 26t-36.5 21.5t-57 20q-63 18 -105 39t-67 46t-35.5 54.5t-10.5 64.5q0 38 13 68.5t36 54t53.5 38.5t66.5 22v65h118v-64q47 -7 79.5 -24t53 -40.5
t30.5 -52t13 -57.5h-142q-3 10 -7.5 23t-14.5 24t-28 18.5t-46 7.5q-24 0 -40 -6.5t-25.5 -16.5t-13.5 -22t-4 -24q0 -16 5.5 -28.5t20 -23t40 -20.5t65.5 -21q56 -16 95 -35.5t63.5 -44.5t35.5 -56.5t11 -71.5q0 -85 -50 -132.5t-133 -60.5v-80h-119z" />
    <glyph glyph-name="percent" unicode="%" horiz-adv-x="928" 
d="M213 670q78 0 127.5 -47.5t49.5 -141.5q0 -42 -12 -77t-34.5 -60t-56 -39t-75.5 -14q-80 0 -128.5 48t-48.5 142q0 40 11.5 74.5t34 60t56 40t76.5 14.5zM213 580q-31 0 -49 -24t-18 -75q0 -100 68 -100q32 0 50 24t18 76q0 54 -19 76.5t-50 22.5zM211 0l404 659h105
l-405 -659h-104zM719 366q78 0 127.5 -47.5t49.5 -140.5q0 -42 -12 -77.5t-34.5 -60.5t-56 -39t-75.5 -14q-81 0 -129 48t-48 142q0 40 11.5 74.5t34 60t55.5 40t77 14.5zM719 276q-31 0 -49.5 -24t-18.5 -74q0 -49 17.5 -75t50.5 -26t51 24.5t18 76.5q0 54 -19 76t-50 22z
" />
    <glyph glyph-name="ampersand" unicode="&#x26;" horiz-adv-x="782" 
d="M284 110q33 0 57 11.5t50 39.5l-142 137q-26 -19 -42 -42.5t-16 -56.5q0 -17 5.5 -33t17 -28.5t29 -20t41.5 -7.5zM738 428l-182 -246l186 -182h-184l-82 79q-38 -41 -86 -65t-122 -24q-58 0 -100.5 17t-70 44t-40.5 61.5t-13 69.5q0 28 6.5 52.5t22.5 47t42.5 45
t65.5 45.5q-29 33 -49 66t-20 78q0 39 14 72.5t39.5 58t61.5 38.5t81 14q46 0 82 -14t60.5 -37t37 -53.5t12.5 -63.5q0 -50 -29 -89.5t-99 -79.5l100 -98l120 164h146zM309 601q-30 0 -48 -20.5t-18 -54.5q0 -26 15.5 -47.5t44.5 -50.5q43 28 57 52.5t14 48.5q0 28 -15.5 50
t-49.5 22z" />
    <glyph glyph-name="quotesingle" unicode="'" horiz-adv-x="215" 
d="M49 437l-12 201v92h142v-93l-13 -200h-117z" />
    <glyph glyph-name="parenleft" unicode="(" horiz-adv-x="373" 
d="M336 728q-30 -41 -58 -90t-49.5 -105t-34.5 -119t-13 -131q0 -127 41.5 -244t113.5 -214h-137q-30 42 -57 91.5t-47 107t-31.5 122.5t-11.5 138t12 136t32 117.5t47 101.5t56 89h137z" />
    <glyph glyph-name="parenright" unicode=")" horiz-adv-x="373" 
d="M37 -175q30 41 58 90t49.5 105t34.5 119t13 131q0 127 -41.5 244t-113.5 214h137q30 -42 56.5 -91.5t47 -107t32 -122.5t11.5 -138t-12 -136t-32.5 -117.5t-47 -101.5t-55.5 -89h-137z" />
    <glyph glyph-name="asterisk" unicode="*" horiz-adv-x="437" 
d="M266 690l-17 -152l110 97l54 -88l-146 -58l145 -59l-53 -87l-110 98l17 -153h-96l17 152l-109 -97l-53 87l144 60l-145 57l54 90l108 -99l-16 152h96z" />
    <glyph glyph-name="plus" unicode="+" horiz-adv-x="710" 
d="M417 564v-220h216v-120h-216v-224h-121v224h-218v120h218v220h121z" />
    <glyph glyph-name="comma" unicode="," horiz-adv-x="271" 
d="M6 -116q22 50 35 91.5t21 77t11.5 66t6.5 57.5h147q-8 -75 -34 -152.5t-76 -139.5h-111z" />
    <glyph glyph-name="hyphen" unicode="-" horiz-adv-x="386" 
d="M332 320v-125h-278v125h278z" />
    <glyph glyph-name="period" unicode="." horiz-adv-x="251" 
d="M49 0v176h153v-176h-153z" />
    <glyph glyph-name="slash" unicode="/" horiz-adv-x="466" 
d="M35 -51l277 750h119l-276 -750h-120z" />
    <glyph glyph-name="zero" unicode="0" horiz-adv-x="591" 
d="M298 670q69 0 116.5 -26.5t77.5 -72t43 -107t13 -131.5q0 -68 -12 -130.5t-41 -110t-78 -76t-122 -28.5q-72 0 -120.5 27.5t-78 74.5t-41.5 109t-12 130q0 67 13.5 129t43.5 109t78.5 75t119.5 28zM298 556q-32 0 -52.5 -15t-33 -44t-17.5 -71t-5 -95q0 -45 3.5 -86.5
t15 -73t32.5 -50.5t56 -19q34 0 54.5 18t31 49t14 73t3.5 90t-4 89t-15 71t-31 47t-52 17z" />
    <glyph glyph-name="one" unicode="1" horiz-adv-x="399" 
d="M162 0v492q-11 -5 -26.5 -10t-32 -8.5t-32.5 -6.5t-28 -4v107q48 9 91.5 33t71.5 56h102v-659h-146z" />
    <glyph glyph-name="two" unicode="2" horiz-adv-x="554" 
d="M42 0v9q0 43 10 82.5t33 77.5t60 75.5t91 76.5q35 25 58 43.5t37 34.5t20 32.5t6 38.5q0 43 -20.5 66t-62.5 23q-49 0 -69.5 -27t-27.5 -70h-138q3 42 19 80t45 66.5t71.5 45t99.5 16.5q63 0 106.5 -17.5t70.5 -45.5t38.5 -63.5t11.5 -72.5q0 -36 -8.5 -64t-27.5 -53.5
t-50.5 -51.5t-76.5 -58q-61 -43 -89 -72.5t-36 -52.5h312l-18 -119h-465z" />
    <glyph glyph-name="three" unicode="3" horiz-adv-x="558" 
d="M42 489q3 30 16.5 62.5t40.5 58.5t69.5 43t104.5 17q57 0 98.5 -15t68.5 -39.5t40 -57t13 -67.5q0 -30 -8 -52t-20 -38t-26.5 -27t-27.5 -17v-3q16 -6 35 -17t35 -29.5t26.5 -46t10.5 -65.5q0 -36 -12 -73t-40.5 -67t-75.5 -49t-118 -19q-66 0 -111.5 18t-74 46t-42 62
t-15.5 67h139q7 -34 32 -58.5t76 -24.5q50 0 74.5 28t24.5 72q0 46 -25.5 72t-82.5 26h-60v110h53q49 0 70.5 17.5t21.5 59.5q0 34 -20.5 55t-63.5 21q-25 0 -41.5 -6.5t-26 -16.5t-14.5 -22.5t-8 -24.5h-136z" />
    <glyph glyph-name="four" unicode="4" horiz-adv-x="563" 
d="M330 0v148h-297v125l274 385h156v-394h80l-14 -116h-66v-148h-133zM330 381q0 53 0.5 87t2.5 65q-10 -21 -29.5 -53t-44 -69t-51 -75.5t-49.5 -71.5h171v117z" />
    <glyph glyph-name="five" unicode="5" horiz-adv-x="570" 
d="M493 541h-264q-2 -13 -4.5 -30.5t-5.5 -35t-5.5 -33.5t-4.5 -26q19 15 47.5 25t71.5 10q49 0 86.5 -16.5t63.5 -46t39.5 -69.5t13.5 -87q0 -48 -13.5 -92t-43.5 -77.5t-77 -54t-114 -20.5q-49 0 -90.5 12.5t-73 36t-51 57.5t-25.5 78h143q10 -34 34 -54t66 -20
q51 0 76 34t25 88q0 52 -22 85t-79 33q-46 0 -68 -18.5t-33 -47.5l-129 17q7 31 15 80t16 102t15 103t11 84h400z" />
    <glyph glyph-name="six" unicode="6" horiz-adv-x="578" 
d="M383 498q-3 12 -8.5 23.5t-15 20t-24 14t-36.5 5.5q-33 0 -54.5 -14t-34.5 -38t-19 -55t-7 -64q21 26 57 43.5t92 17.5q45 0 83 -16t65.5 -44.5t42.5 -69t15 -88.5q0 -53 -16.5 -98t-47.5 -77.5t-75.5 -51t-101.5 -18.5q-72 0 -120.5 26t-78.5 71t-43 105.5t-13 130.5
q0 64 12.5 126.5t43 112t81 80t126.5 30.5q54 0 93.5 -15.5t65.5 -40t40 -55t17 -61.5h-139zM294 102q52 0 77 34.5t25 84.5q0 24 -5 45.5t-16.5 38t-31 26t-49.5 9.5q-48 0 -74.5 -28.5t-26.5 -85.5q0 -20 5 -42t17 -40t31 -30t48 -12z" />
    <glyph glyph-name="seven" unicode="7" horiz-adv-x="494" 
d="M474 658v-106q-39 -56 -76.5 -122t-69 -138t-54 -146t-32.5 -146h-147q10 73 35 150.5t58 149.5t70 134.5t70 105.5h-310v118h456z" />
    <glyph glyph-name="eight" unicode="8" horiz-adv-x="584" 
d="M286 -12q-51 0 -95.5 13t-78 38.5t-53 63t-19.5 86.5q0 31 10 57t25.5 45.5t35 33.5t37.5 22q-38 23 -59.5 55t-21.5 82q0 85 58.5 135.5t170.5 50.5q51 0 92.5 -12.5t71 -36.5t45.5 -58t16 -77q0 -57 -25 -87.5t-59 -44.5q18 -7 36.5 -20.5t34.5 -33.5t26 -46.5
t10 -59.5q0 -51 -19 -89.5t-53.5 -64.5t-82 -39t-103.5 -13zM295 99q46 0 76 23t30 74q0 49 -30.5 72t-78.5 23q-54 0 -81 -26t-27 -68q0 -45 30 -71.5t81 -26.5zM293 560q-45 0 -68 -21t-23 -60q0 -33 23.5 -53.5t69.5 -20.5q44 0 67 17.5t23 56.5q0 38 -23.5 59.5
t-68.5 21.5z" />
    <glyph glyph-name="nine" unicode="9" horiz-adv-x="573" 
d="M189 163q10 -29 29.5 -46.5t61.5 -17.5q35 0 55.5 19t31.5 47t14.5 60.5t5.5 59.5q-20 -29 -57 -42t-80 -13q-51 0 -90.5 16.5t-67 45t-41.5 67t-14 83.5q0 48 16.5 89.5t47.5 72t76 48t102 17.5q70 0 117.5 -25t76.5 -67t42 -97.5t13 -116.5q0 -69 -10.5 -136.5
t-39 -120.5t-77.5 -85.5t-127 -32.5q-57 0 -98.5 16t-68.5 41t-42 56.5t-19 61.5h143zM280 558q-50 0 -74.5 -31.5t-24.5 -77.5q0 -51 27 -79.5t74 -28.5q48 0 73 25t25 80q0 16 -4 36t-15 36.5t-30.5 28t-50.5 11.5z" />
    <glyph glyph-name="colon" unicode=":" horiz-adv-x="295" 
d="M73 0v167h149v-167h-149zM73 346v167h149v-167h-149z" />
    <glyph glyph-name="semicolon" unicode=";" horiz-adv-x="299" 
d="M8 -116q17 37 30.5 77t22.5 78.5t14 73.5t7 63h146q-4 -48 -15 -91t-26 -80t-32.5 -68t-35.5 -53h-111zM78 338v175h154v-175h-154z" />
    <glyph glyph-name="less" unicode="&#x3c;" horiz-adv-x="616" 
d="M79 341l458 232v-128l-329 -160l329 -165v-128l-458 236v113z" />
    <glyph glyph-name="equal" unicode="=" horiz-adv-x="713" 
d="M634 217v-120h-555v120h555zM634 473v-120h-555v120h555z" />
    <glyph glyph-name="greater" unicode="&#x3e;" horiz-adv-x="616" 
d="M537 224l-458 -232v128l329 161l-329 164v128l458 -236v-113z" />
    <glyph glyph-name="question" unicode="?" horiz-adv-x="526" 
d="M190 217v19q0 25 5.5 47t17.5 44t31 44t47 47q31 28 42.5 52t11.5 50q0 29 -17 49t-53 20q-43 0 -60 -25.5t-21 -61.5h-141q2 31 14 66t38 64.5t68 48t104 18.5q61 0 102 -18t65.5 -45t34.5 -59.5t10 -61.5q0 -24 -4.5 -44.5t-15 -40.5t-28 -41.5t-44.5 -46.5
q-32 -30 -44.5 -56.5t-12.5 -57.5v-11h-150zM190 0v166h150v-166h-150z" />
    <glyph glyph-name="at" unicode="@" horiz-adv-x="941" 
d="M697 -124q-35 -22 -92 -37.5t-145 -15.5q-87 0 -161 29t-128.5 81.5t-85.5 127t-31 166.5q0 99 32.5 181t91.5 140.5t141.5 91t181.5 32.5q79 0 150 -22t125 -66t85.5 -110.5t31.5 -155.5q0 -66 -16.5 -119.5t-47.5 -91t-75.5 -57.5t-99.5 -20q-45 0 -76 15t-40 47
q-26 -31 -55.5 -46t-77.5 -15q-64 0 -105 43.5t-41 130.5q0 55 16.5 103.5t45 84t66.5 56t80 20.5q46 0 71.5 -17t33.5 -41l14 48h125l-58 -266q-8 -38 -1 -51.5t31 -13.5q22 0 41 13.5t33 38t22 59t8 75.5q0 61 -21 110t-58.5 83.5t-90.5 52.5t-117 18q-74 0 -135 -23
t-105 -68t-68 -110.5t-24 -150.5q0 -63 21 -118.5t59.5 -97t93.5 -65.5t123 -24q64 0 114 9.5t96 32.5zM491 374q-23 0 -41 -15t-31 -38.5t-19.5 -53t-6.5 -58.5q0 -79 52 -79q32 0 56 26.5t38 89.5q15 69 2.5 98.5t-50.5 29.5z" />
    <glyph glyph-name="A" unicode="A" horiz-adv-x="688" 
d="M211 159l-53 -159h-147l234 689h187l245 -689h-157l-57 159h-252zM431 281q-37 110 -60.5 182t-36.5 119h-1q-13 -51 -37 -129t-53 -172h188z" />
    <glyph glyph-name="B" unicode="B" horiz-adv-x="675" 
d="M82 689h301q63 0 106.5 -15t71 -39.5t40 -56t12.5 -65.5q0 -59 -26.5 -96t-61.5 -53q18 -7 37 -19.5t34.5 -32t26 -46t10.5 -60.5q0 -44 -17 -82t-48 -65.5t-75 -43t-99 -15.5h-312v689zM366 417q54 0 77 22t23 59q0 38 -26 57t-69 19h-143v-157h138zM228 115h135
q61 0 89 24.5t28 71.5q0 42 -28 66.5t-90 24.5h-134v-187z" />
    <glyph glyph-name="B" unicode="&#xe000;" horiz-adv-x="675" 
d="M82 689h301q63 0 106.5 -15t71 -39.5t40 -56t12.5 -65.5q0 -59 -26.5 -96t-61.5 -53q18 -7 37 -19.5t34.5 -32t26 -46t10.5 -60.5q0 -44 -17 -82t-48 -65.5t-75 -43t-99 -15.5h-312v689zM366 417q54 0 77 22t23 59q0 38 -26 57t-69 19h-143v-157h138zM228 115h135
q61 0 89 24.5t28 71.5q0 42 -28 66.5t-90 24.5h-134v-187z" />
    <glyph glyph-name="C" unicode="C" horiz-adv-x="712" 
d="M667 213q-10 -48 -33.5 -89t-60.5 -71t-87.5 -46.5t-115.5 -16.5q-82 0 -142.5 27.5t-100.5 74.5t-59.5 111t-19.5 138q0 71 20 135.5t61 114t103 79t145 29.5q69 0 120.5 -18.5t87 -49.5t56 -71.5t26.5 -83.5h-149q-6 20 -16 39.5t-27.5 34.5t-42.5 24t-60 9
q-46 0 -78.5 -19.5t-52.5 -52t-29.5 -75.5t-9.5 -90q0 -44 8.5 -86.5t28.5 -76.5t53.5 -55t83.5 -21q37 0 61.5 11t40.5 27t25 34.5t14 33.5h150z" />
    <glyph glyph-name="D" unicode="D" horiz-adv-x="736" 
d="M82 689h274q75 0 136 -24t104.5 -67.5t67.5 -106t24 -138.5q0 -75 -23.5 -140t-67 -112t-106.5 -74t-142 -27h-267v689zM231 120h112q49 0 85.5 17.5t59.5 48.5t34.5 74t11.5 93q0 42 -10.5 81t-33.5 69t-59 48t-87 18h-113v-449z" />
    <glyph glyph-name="E" unicode="E" horiz-adv-x="618" 
d="M557 297h-330v-175h364l-18 -122h-491v689h489v-122h-344v-147h330v-123z" />
    <glyph glyph-name="E" unicode="&#xe001;" horiz-adv-x="618" 
d="M557 297h-330v-175h364l-18 -122h-491v689h489v-122h-344v-147h330v-123z" />
    <glyph glyph-name="F" unicode="F" horiz-adv-x="588" 
d="M82 689h481v-122h-335v-169h314v-122h-314v-276h-146v689z" />
    <glyph glyph-name="G" unicode="G" horiz-adv-x="751" 
d="M682 0h-109q-9 31 -12 68q-58 -80 -201 -80q-75 0 -133 27t-98 73.5t-60.5 110t-20.5 137.5q0 78 22.5 144t65.5 115t106 76.5t144 27.5q66 0 119 -17.5t90.5 -47t60 -69t28.5 -83.5h-149q-5 17 -15 35t-27.5 32.5t-44 24t-64.5 9.5q-53 0 -88 -20.5t-56 -54t-29.5 -77
t-8.5 -88.5t9.5 -87.5t31 -75.5t56.5 -53t86 -20q48 0 77.5 15t46 37.5t22 48.5t5.5 49v7h-151v122h297v-386z" />
    <glyph glyph-name="H" unicode="H" horiz-adv-x="740" 
d="M82 689h149v-268h278v268h149v-689h-149v298h-278v-298h-149v689z" />
    <glyph glyph-name="I" unicode="I" horiz-adv-x="313" 
d="M231 689v-689h-149v689h149z" />
    <glyph glyph-name="J" unicode="J" horiz-adv-x="403" 
d="M326 221q0 -60 -10.5 -103.5t-34.5 -72t-62.5 -42t-95.5 -13.5q-19 0 -47 2t-46 7v118q9 -2 30.5 -3t37.5 -1q25 0 41 8t24 21.5t11 31t3 37.5v478h149v-468z" />
    <glyph glyph-name="K" unicode="K" horiz-adv-x="676" 
d="M82 689h147v-307q17 20 50 56.5t72 80t79.5 88.5t73.5 82h178l-277 -286l288 -403h-179l-212 306l-73 -69v-237h-147v689z" />
    <glyph glyph-name="L" unicode="L" horiz-adv-x="586" 
d="M82 689h149v-567h344l-17 -122h-476v689z" />
    <glyph glyph-name="M" unicode="M" horiz-adv-x="886" 
d="M660 259q0 44 0.5 89.5t1 88.5t1.5 81.5t2 67.5h-5q-12 -53 -30.5 -120.5t-40.5 -144t-46.5 -158.5t-49.5 -163h-127q-19 71 -41 152.5t-43 161t-39 151t-29 123.5h-5q2 -30 4 -70.5t3 -86t1.5 -93t0.5 -91.5v-247h-136v689h222q20 -68 41 -141t39 -142t32.5 -128
t22.5 -97h1q6 34 22.5 92.5t37.5 129t44.5 145.5t45.5 141h214v-689h-144v259z" />
    <glyph glyph-name="N" unicode="N" horiz-adv-x="755" 
d="M82 0v689h185q21 -38 48 -85.5t55 -98t55.5 -100.5t51.5 -94t41.5 -78t25.5 -53h2q-3 27 -4.5 62t-2.5 75t-1 83v85v204h135v-689h-175q-19 34 -44.5 81t-54.5 100t-58.5 107.5t-54.5 102.5t-44.5 86t-28.5 58h-2q2 -23 3.5 -59t2 -80t1 -92t0.5 -94v-210h-136z" />
    <glyph glyph-name="O" unicode="O" horiz-adv-x="765" 
d="M387 699q76 0 137 -25.5t104 -71.5t66 -111t23 -144q0 -72 -21.5 -137t-64 -113.5t-106 -77.5t-147.5 -29q-81 0 -143 27.5t-103.5 75.5t-62.5 113t-21 139q0 75 23 139.5t66.5 112.5t106.5 75t143 27zM381 578q-47 0 -81 -17t-55.5 -47.5t-32 -73t-10.5 -92.5
q0 -51 11 -94t33.5 -75t56.5 -50t80 -18q50 0 84.5 19.5t55.5 51.5t30.5 74.5t9.5 88.5q0 49 -10.5 91.5t-32.5 74t-56.5 49.5t-82.5 18z" />
    <glyph glyph-name="P" unicode="P" horiz-adv-x="653" 
d="M82 689h285q55 0 100.5 -15t77.5 -42.5t50 -67t18 -88.5q0 -56 -20 -97.5t-53.5 -68.5t-79 -40t-96.5 -13h-133v-257h-149v689zM231 376h114q52 0 85 22t33 75q0 27 -9 45.5t-25 30t-36.5 17t-44.5 5.5h-117v-195z" />
    <glyph glyph-name="Q" unicode="Q" horiz-adv-x="766" 
d="M387 699q76 0 137 -25.5t104 -71.5t66 -111t23 -144q0 -80 -26 -149.5t-78 -120.5l155 -106l-87 -99l-192 133q-50 -15 -111 -15q-81 0 -143 27.5t-103.5 75.5t-62.5 113t-21 139q0 75 23 139.5t66.5 112.5t106.5 75t143 27zM381 578q-47 0 -81 -17t-55.5 -47.5t-32 -73
t-10.5 -92.5q0 -51 11 -94t33.5 -75t56.5 -50t80 -18q50 0 84.5 19.5t55.5 51.5t30.5 74.5t9.5 88.5q0 49 -10.5 91.5t-32.5 74t-56.5 49.5t-82.5 18z" />
    <glyph glyph-name="R" unicode="R" horiz-adv-x="662" 
d="M228 276v-276h-146v689h303q56 0 99 -14.5t72.5 -40t44.5 -60t15 -74.5q0 -35 -8.5 -61.5t-22.5 -46.5t-32 -33.5t-37 -21.5q13 -5 28 -15t28 -29.5t21.5 -50.5t8.5 -77v-34q0 -35 1 -71t9 -60h-142q-9 23 -11.5 61.5t-2.5 93.5v10q0 28 -4.5 49t-18.5 34.5t-39.5 20.5
t-67.5 7h-98zM228 395h125q61 0 87 22.5t26 65.5q0 42 -27.5 65t-82.5 23h-128v-176z" />
    <glyph glyph-name="S" unicode="S" horiz-adv-x="635" 
d="M183 202q12 -52 48.5 -76t96.5 -24t87 22t27 60q0 21 -7 37t-24.5 28.5t-46.5 22.5t-73 20q-71 16 -116 37.5t-71.5 47t-36.5 56t-10 65.5q0 45 16.5 82t49 63.5t79.5 41t108 14.5q69 0 117.5 -17t80.5 -44.5t48 -63.5t20 -74h-150q-3 16 -9.5 32t-20 28.5t-35.5 20.5
t-55 8q-46 0 -71.5 -18.5t-25.5 -55.5q0 -18 6.5 -31.5t22 -24t43 -19.5t69.5 -18q75 -18 122.5 -41t74.5 -50.5t37 -59.5t10 -69q0 -47 -17.5 -86t-52.5 -67t-87 -43.5t-120 -15.5q-66 0 -116 15.5t-85.5 43.5t-56 67t-26.5 86h150z" />
    <glyph glyph-name="S" unicode="&#xe002;" horiz-adv-x="635" 
d="M183 202q12 -52 48.5 -76t96.5 -24t87 22t27 60q0 21 -7 37t-24.5 28.5t-46.5 22.5t-73 20q-71 16 -116 37.5t-71.5 47t-36.5 56t-10 65.5q0 45 16.5 82t49 63.5t79.5 41t108 14.5q69 0 117.5 -17t80.5 -44.5t48 -63.5t20 -74h-150q-3 16 -9.5 32t-20 28.5t-35.5 20.5
t-55 8q-46 0 -71.5 -18.5t-25.5 -55.5q0 -18 6.5 -31.5t22 -24t43 -19.5t69.5 -18q75 -18 122.5 -41t74.5 -50.5t37 -59.5t10 -69q0 -47 -17.5 -86t-52.5 -67t-87 -43.5t-120 -15.5q-66 0 -116 15.5t-85.5 43.5t-56 67t-26.5 86h150z" />
    <glyph glyph-name="T" unicode="T" horiz-adv-x="588" 
d="M220 567h-210v122h568v-122h-209v-567h-149v567z" />
    <glyph glyph-name="U" unicode="U" horiz-adv-x="725" 
d="M222 689v-410q0 -50 12 -83t31.5 -53t45.5 -28t54 -8q32 0 57.5 9t43.5 29.5t27.5 53.5t9.5 80v410h150v-403q0 -89 -24 -146t-64 -90.5t-92.5 -46.5t-109.5 -13q-59 0 -111.5 13.5t-92 47t-63 90t-23.5 142.5v406h149z" />
    <glyph glyph-name="V" unicode="V" horiz-adv-x="670" 
d="M244 0l-243 689h160l102 -318q24 -72 41.5 -133.5t29.5 -115.5h2q11 49 30 111t44 136l108 320h152l-250 -689h-176z" />
    <glyph glyph-name="W" unicode="W" horiz-adv-x="951" 
d="M193 0l-176 689h159q24 -119 42 -206t30.5 -150.5t19.5 -106t10 -70.5h1q10 48 26 113.5t35 138t38 146t34 135.5h134q9 -33 20.5 -76t23.5 -91l24.5 -98t24 -97.5t20.5 -89.5t15 -74h1q6 38 15 84.5t19.5 96t22 99.5t22.5 96t20.5 84.5t15.5 65.5h144l-186 -689h-155
q-14 57 -31 125t-34 135t-32 128.5t-24 105.5h-1q-9 -46 -24.5 -109.5t-33 -131.5t-35 -134.5t-31.5 -118.5h-154z" />
    <glyph glyph-name="X" unicode="X" horiz-adv-x="611" 
d="M449 0l-147 243h-1l-151 -243h-161l229 347l-222 342h173l139 -228h1l144 228h158l-222 -328l233 -361h-173z" />
    <glyph glyph-name="Y" unicode="Y" horiz-adv-x="619" 
d="M234 0v244q0 12 -6 22l-238 423h169q20 -39 42 -83t43 -86.5t40 -81t32 -66.5q11 27 29.5 66t40.5 82.5t44.5 87.5t42.5 81h156l-241 -421q-2 -4 -3.5 -7.5t-1.5 -14.5v-246h-149z" />
    <glyph glyph-name="Z" unicode="Z" horiz-adv-x="617" 
d="M29 109l379 458h-362v122h531v-120l-365 -447h385l-19 -122h-549v109z" />
    <glyph glyph-name="a" unicode="a" horiz-adv-x="559" 
d="M494 134q0 -19 0.5 -40.5t1.5 -41t2.5 -34t2.5 -18.5h-137q-3 8 -5 24.5t-2 26.5q-7 -11 -18 -22t-28 -20t-41.5 -15t-58.5 -6q-47 0 -80.5 14t-55 37t-31.5 52t-10 59q0 88 66 130.5t180 42.5h74v31q0 14 -3 27t-12 23.5t-24.5 16.5t-40.5 6q-45 0 -60.5 -17.5
t-19.5 -45.5h-136q3 34 15.5 64.5t39 53t67.5 35.5t100 13q104 -1 159 -43t55 -136v-217zM354 236h-58q-66 0 -92.5 -19.5t-26.5 -57.5q0 -28 18 -48.5t57 -20.5q34 0 54.5 11t31 29.5t13.5 42t3 49.5v14z" />
    <glyph glyph-name="b" unicode="b" horiz-adv-x="601" 
d="M64 730h144v-267q16 25 50.5 46t97.5 21q53 0 92.5 -20.5t66 -56t39.5 -83.5t13 -102q0 -56 -14 -106.5t-42.5 -89t-70.5 -61.5t-98 -23q-58 0 -87.5 16t-48.5 45q0 -13 -2 -26t-4 -23h-137q1 42 1 84.5v84.5v561zM422 265q0 33 -6.5 60.5t-20 47.5t-34 31t-49.5 11
q-62 0 -86.5 -39.5t-24.5 -119.5q0 -33 5.5 -61t18 -48.5t33.5 -32.5t52 -12q55 0 83.5 44.5t28.5 118.5z" />
    <glyph glyph-name="b" unicode="&#xe003;" horiz-adv-x="601" 
d="M64 730h144v-267q16 25 50.5 46t97.5 21q53 0 92.5 -20.5t66 -56t39.5 -83.5t13 -102q0 -56 -14 -106.5t-42.5 -89t-70.5 -61.5t-98 -23q-58 0 -87.5 16t-48.5 45q0 -13 -2 -26t-4 -23h-137q1 42 1 84.5v84.5v561zM422 265q0 33 -6.5 60.5t-20 47.5t-34 31t-49.5 11
q-62 0 -86.5 -39.5t-24.5 -119.5q0 -33 5.5 -61t18 -48.5t33.5 -32.5t52 -12q55 0 83.5 44.5t28.5 118.5z" />
    <glyph glyph-name="c" unicode="c" horiz-adv-x="539" 
d="M512 167q-6 -32 -21.5 -64t-43 -57.5t-68.5 -41.5t-99 -16q-60 0 -106 20t-76.5 55t-46 84t-15.5 108q0 57 17 107.5t49 87.5t79 58.5t106 21.5q65 0 108 -20.5t69 -49.5t36.5 -60.5t11.5 -53.5h-139q-7 32 -27 51.5t-62 19.5q-50 0 -76.5 -41t-26.5 -116
q0 -84 27.5 -122.5t74.5 -38.5q38 0 58.5 19.5t30.5 48.5h140z" />
    <glyph glyph-name="d" unicode="d" horiz-adv-x="602" 
d="M539 730v-588v-71t1 -71h-137q-2 12 -4 28.5t-3 25.5q-19 -31 -54 -48.5t-93 -17.5q-49 0 -88.5 19t-67.5 54t-43 84t-15 110q0 60 16 110t46.5 87t74 57.5t98.5 20.5q57 0 87.5 -16.5t38.5 -33.5v250h143zM182 258q0 -76 28 -115.5t82 -39.5q37 0 58.5 14t33 36.5t15 50
t3.5 55.5q0 33 -3.5 61.5t-15 49.5t-32.5 33t-56 12q-57 0 -85 -41.5t-28 -115.5z" />
    <glyph glyph-name="e" unicode="e" horiz-adv-x="555" 
d="M178 228q0 -24 6.5 -47t19 -41t32 -29t46.5 -11q22 0 37.5 4t25.5 11.5t16.5 17.5t11.5 22h143q-7 -24 -22 -53t-42.5 -54.5t-69.5 -42.5t-103 -17q-64 0 -110.5 22t-76.5 58.5t-44 84t-14 98.5q0 61 15.5 112.5t47 88.5t78 57.5t109.5 20.5q66 0 111.5 -22t73.5 -58.5
t40.5 -83t12.5 -94.5v-23.5t-2 -20.5h-342zM378 316q0 22 -5 42.5t-16.5 35.5t-29.5 24t-44 9q-51 0 -74 -31.5t-28 -79.5h197z" />
    <glyph glyph-name="f" unicode="f" horiz-adv-x="329" 
d="M84 0v410h-76v108h76v45q0 80 40.5 128.5t124.5 48.5q17 0 36.5 -1.5t29.5 -4.5v-113q-6 1 -14 1.5t-16 0.5q-32 0 -45 -14.5t-13 -56.5v-34h90v-108h-90v-410h-143z" />
    <glyph glyph-name="g" unicode="g" horiz-adv-x="598" 
d="M535 63q0 -62 -12.5 -112.5t-42.5 -85.5t-79.5 -54t-122.5 -19q-71 0 -115 17.5t-69.5 42.5t-35 53.5t-11.5 50.5h146q8 -27 28.5 -43.5t62.5 -16.5q35 0 56.5 10.5t33.5 30.5t16.5 49.5t4.5 67.5v25q-20 -34 -54.5 -53.5t-91.5 -19.5q-51 0 -91 19.5t-67 53.5t-41.5 80
t-14.5 98q0 61 17 111t47.5 86t72 56t89.5 20q33 0 57 -7t40 -17t25 -21.5t12 -20.5q1 11 3 29t3 25h135q0 -35 -0.5 -73t-0.5 -76v-306zM182 263q0 -67 30 -104t78 -37q32 0 53 10.5t33.5 30t17.5 46t5 59.5t-4 60t-15 46.5t-32 30t-55 10.5q-47 0 -79 -37t-32 -115z" />
    <glyph glyph-name="h" unicode="h" horiz-adv-x="594" 
d="M208 730v-274q8 13 20.5 26t30.5 23.5t41.5 17.5t55.5 7q36 0 67.5 -11.5t55 -35.5t37 -61.5t13.5 -89.5v-332h-142v311q0 51 -19.5 77t-64.5 26q-30 0 -48.5 -10.5t-29 -29.5t-14 -44t-3.5 -55v-275h-144v730h144z" />
    <glyph glyph-name="i" unicode="i" horiz-adv-x="272" 
d="M64 518h144v-518h-144v518zM64 602v128h144v-128h-144z" />
    <glyph glyph-name="j" unicode="j" horiz-adv-x="272" 
d="M208 518v-507q0 -56 -7 -97t-26 -68t-52.5 -40.5t-86.5 -13.5q-10 0 -22.5 0.5t-21.5 1.5v115q3 -1 6.5 -1h6.5q35 0 47 16t12 58v536h144zM64 602v128h144v-128h-144z" />
    <glyph glyph-name="k" unicode="k" horiz-adv-x="557" 
d="M208 299q29 39 76.5 96t101.5 123h164l-180 -196l197 -322h-162l-131 230l-66 -64v-166h-144v730h144v-431z" />
    <glyph glyph-name="l" unicode="l" horiz-adv-x="272" 
d="M64 0v730h144v-730h-144z" />
    <glyph glyph-name="m" unicode="m" horiz-adv-x="871" 
d="M64 384v67t-1 67h137q2 -10 3.5 -28.5t2.5 -33.5q20 29 53.5 51.5t90.5 22.5q56 0 87.5 -24.5t45.5 -54.5q12 16 26.5 30t33.5 25t43.5 17.5t56.5 6.5q34 0 63.5 -11t52 -34t35.5 -59t13 -86v-340h-140v322q0 18 -3.5 34.5t-12.5 29.5t-23.5 21t-36.5 8
q-45 0 -64.5 -29.5t-19.5 -89.5v-296h-141v317q0 20 -3 37.5t-11 31t-22.5 21t-37.5 7.5q-44 0 -65 -29t-21 -96v-289h-142v384z" />
    <glyph glyph-name="n" unicode="n" horiz-adv-x="593" 
d="M65 387v67.5t-1 63.5h139q1 -5 2 -14t1.5 -18.5t1.5 -18.5t1 -15q6 12 17.5 25.5t29.5 25.5t43.5 19.5t59.5 7.5q78 0 124.5 -51.5t46.5 -149.5v-329h-143v313q0 45 -17.5 73t-65.5 28q-46 0 -70.5 -28.5t-24.5 -97.5v-288h-144v387z" />
    <glyph glyph-name="o" unicode="o" horiz-adv-x="580" 
d="M295 530q57 0 103.5 -19.5t79 -55t50.5 -85t18 -110.5q0 -59 -17.5 -109t-50.5 -86t-81 -56.5t-109 -20.5q-60 0 -107 20.5t-80 56.5t-50 85t-17 107q0 60 17.5 110t51.5 86.5t82 56.5t110 20zM289 417q-50 0 -80 -38t-30 -120q0 -75 30 -117t82 -42q54 0 82 41.5
t28 116.5q0 81 -29 120t-83 39z" />
    <glyph glyph-name="p" unicode="p" horiz-adv-x="598" 
d="M64 -198v591v62.5t-1 62.5h139q2 -11 3.5 -31t1.5 -34q8 14 21 28t31.5 25t42.5 17.5t55 6.5q44 0 81.5 -18t65.5 -51t43.5 -81t15.5 -108q0 -69 -17.5 -122t-48 -89t-71.5 -54.5t-88 -18.5q-55 0 -85.5 17.5t-45.5 40.5v-244h-143zM418 266q0 72 -27.5 110.5t-79.5 38.5
q-61 0 -85.5 -39.5t-24.5 -117.5q0 -75 23 -115.5t81 -40.5q57 0 85 42.5t28 121.5z" />
    <glyph glyph-name="q" unicode="q" horiz-adv-x="599" 
d="M396 55q-22 -35 -57 -51t-87 -16q-43 0 -82.5 16t-69.5 49t-48 83t-18 118q0 63 17.5 114t48.5 87t73 55.5t91 19.5q31 0 53.5 -5.5t38.5 -14.5t25.5 -20t14.5 -21q1 10 2 24.5t3 24.5h135q0 -33 -0.5 -70t-0.5 -72v-574h-139v253zM181 258q0 -69 26 -112t83 -43
q33 0 54 11.5t33 32t16.5 49.5t4.5 64q0 37 -4.5 66t-16 49t-32 30t-52.5 10q-58 0 -85 -43.5t-27 -113.5z" />
    <glyph glyph-name="r" unicode="r" horiz-adv-x="394" 
d="M64 377v73.5t-1 67.5h141q1 -5 1.5 -15.5t1 -24t1 -27.5t0.5 -24q17 45 58.5 73.5t107.5 29.5v-137q-39 1 -70 -5t-52 -24t-32.5 -51.5t-11.5 -86.5v-226h-144v377z" />
    <glyph glyph-name="s" unicode="s" horiz-adv-x="516" 
d="M170 156q17 -65 98 -65q40 0 56 13.5t16 37.5q0 25 -20.5 37.5t-75.5 26.5q-63 16 -101.5 33.5t-59.5 38t-28 44.5t-7 51q0 28 10.5 56.5t35.5 50.5t64.5 36t98.5 14t99.5 -14.5t65.5 -37t36.5 -50.5t13.5 -54h-136q-2 7 -6 16.5t-13 18t-25 14.5t-41 6q-35 0 -49 -13.5
t-14 -30.5q0 -10 4 -17.5t14.5 -14t30 -13t51.5 -13.5q65 -15 104 -33.5t60 -40.5t27.5 -47.5t6.5 -53.5q0 -32 -13 -62t-40 -52.5t-69 -36t-101 -13.5t-101.5 13.5t-70.5 36t-43 53t-19 65.5h141z" />
    <glyph glyph-name="s" unicode="&#xe004;" horiz-adv-x="516" 
d="M170 156q17 -65 98 -65q40 0 56 13.5t16 37.5q0 25 -20.5 37.5t-75.5 26.5q-63 16 -101.5 33.5t-59.5 38t-28 44.5t-7 51q0 28 10.5 56.5t35.5 50.5t64.5 36t98.5 14t99.5 -14.5t65.5 -37t36.5 -50.5t13.5 -54h-136q-2 7 -6 16.5t-13 18t-25 14.5t-41 6q-35 0 -49 -13.5
t-14 -30.5q0 -10 4 -17.5t14.5 -14t30 -13t51.5 -13.5q65 -15 104 -33.5t60 -40.5t27.5 -47.5t6.5 -53.5q0 -32 -13 -62t-40 -52.5t-69 -36t-101 -13.5t-101.5 13.5t-70.5 36t-43 53t-19 65.5h141z" />
    <glyph glyph-name="t" unicode="t" horiz-adv-x="363" 
d="M14 518h80v140h143v-140h102v-108h-102v-256q0 -29 11.5 -41.5t43.5 -12.5h15t17 1v-98q-21 -8 -47.5 -9t-48.5 -1q-76 0 -105 38.5t-29 106.5v272h-80v108z" />
    <glyph glyph-name="u" unicode="u" horiz-adv-x="585" 
d="M520 150v-76t1 -74h-140q-2 11 -2.5 28.5t-1.5 31.5q-23 -39 -57.5 -55.5t-85.5 -16.5q-79 0 -125.5 47.5t-46.5 144.5v338h143v-309q0 -21 4 -40t13 -33.5t24.5 -22.5t38.5 -8q49 0 70.5 30t21.5 107v276h143v-368z" />
    <glyph glyph-name="v" unicode="v" horiz-adv-x="521" 
d="M161 518l34.5 -126.5t30 -111.5t22.5 -90.5t13 -62.5h1q6 32 17.5 76t26.5 95t32 107.5t34 112.5h143l-183 -518h-150l-176 518h155z" />
    <glyph glyph-name="w" unicode="w" horiz-adv-x="804" 
d="M168 518q18 -78 31.5 -139.5t23.5 -109.5t16.5 -83t10.5 -59h2q4 22 9.5 50t15.5 72.5t25 109t39 159.5h133q22 -96 36.5 -160t24 -107.5t14.5 -70t8 -47.5h1q4 20 9.5 46.5t15.5 70t24.5 108t37.5 160.5h142l-154 -518h-153q-16 73 -28.5 130.5t-22.5 101.5t-17 77
t-11 59h-1q-6 -49 -26.5 -138.5t-55.5 -229.5h-154l-147 518h151z" />
    <glyph glyph-name="x" unicode="x" horiz-adv-x="495" 
d="M156 518q20 -37 35 -63t25.5 -45t17.5 -32t13 -23h1q14 24 37 65.5t55 97.5h159l-168 -247l167 -271h-162q-35 66 -57 108.5t-34 65.5h-1q-10 -20 -34.5 -67t-56.5 -107h-157l161 252l-160 266h159z" />
    <glyph glyph-name="y" unicode="y" horiz-adv-x="519" 
d="M159 518q20 -67 38 -129t32.5 -113t24.5 -88.5t13 -55.5h1q4 19 12 51.5t20.5 79.5t30 110t40.5 145h143l-174 -533q-18 -56 -36.5 -93t-42.5 -59.5t-57 -31.5t-79 -9q-10 0 -29 1t-38 3v115q8 -1 18 -1.5t19 -0.5q40 0 62 16t37 59l-189 534h154z" />
    <glyph glyph-name="y" unicode="&#xe006;" horiz-adv-x="519" 
d="M159 518q20 -67 38 -129t32.5 -113t24.5 -88.5t13 -55.5h1q4 19 12 51.5t20.5 79.5t30 110t40.5 145h143l-174 -533q-18 -56 -36.5 -93t-42.5 -59.5t-57 -31.5t-79 -9q-10 0 -29 1t-38 3v115q8 -1 18 -1.5t19 -0.5q40 0 62 16t37 59l-189 534h154z" />
    <glyph glyph-name="z" unicode="z" horiz-adv-x="490" 
d="M30 108l256 297h-244v113h406v-112l-251 -293h269l-17 -113h-419v108z" />
    <glyph glyph-name="exclamdown" unicode="&#xa1;" horiz-adv-x="289" 
d="M188 268l19 -320v-120h-153v121l19 319h115zM202 518v-166h-140v166h140z" />
    <glyph glyph-name="cent" unicode="&#xa2;" horiz-adv-x="558" 
d="M531 240q-12 -63 -55 -108.5t-115 -60.5v-85h-118v82q-91 17 -144.5 84t-53.5 167q0 47 13 89.5t38.5 76.5t62.5 57t85 32v62h117v-64q48 -9 80 -28.5t51.5 -44.5t28 -51.5t10.5 -48.5h-142q-4 13 -10 25.5t-16.5 22.5t-27 16t-40.5 6q-28 0 -48 -11.5t-33 -31t-19.5 -46
t-6.5 -56.5q0 -31 6 -58t19 -47.5t33 -32t48 -11.5q45 0 65 18.5t30 46.5h142z" />
    <glyph glyph-name="sterling" unicode="&#xa3;" horiz-adv-x="542" 
d="M35 0v111q20 10 33 24.5t20.5 35t10.5 48t3 63.5h-78v100h72q-1 14 -1.5 30.5t-0.5 35.5q0 46 12 86.5t37.5 70.5t64.5 47.5t93 17.5q59 0 97.5 -18.5t61 -45.5t32 -58.5t11.5 -56.5h-137q-2 12 -5.5 23.5t-11 20.5t-19.5 15t-30 6q-38 0 -51.5 -25t-13.5 -70
q0 -23 0.5 -41.5t2.5 -37.5h139v-100h-137q-2 -53 -11 -93.5t-30 -67.5h326l-16 -121h-474z" />
    <glyph glyph-name="currency" unicode="&#xa4;" horiz-adv-x="561" 
d="M283 559q62 0 112 -31l73 75l74 -78l-75 -78q22 -46 22 -101q0 -57 -22 -106l75 -77l-74 -79l-73 75q-48 -31 -115 -31q-63 0 -111 31l-72 -75l-75 79l75 76q-23 46 -23 104q0 57 24 104l-76 78l75 78l74 -75q23 14 51.5 22.5t60.5 8.5zM281 456q-42 0 -67.5 -26.5
t-25.5 -85.5q0 -33 8.5 -54.5t21.5 -35t29.5 -19t33.5 -5.5q18 0 35 5.5t29.5 19t20 35.5t7.5 55q0 57 -25 84t-67 27z" />
    <glyph glyph-name="yen" unicode="&#xa5;" horiz-adv-x="505" 
d="M317 137v-137h-143v137h-127v84h127v58h-127v85h106l-168 294h160q30 -62 49 -102t31 -65t18 -39t10 -26h1q4 10 11 26t20 42t32 65.5t48 98.5h148l-175 -294h108v-85h-129v-58h129v-84h-129z" />
    <glyph glyph-name="brokenbar" unicode="&#xa6;" horiz-adv-x="255" 
d="M190 179v-358h-115v358h115zM190 689v-356h-115v356h115z" />
    <glyph glyph-name="section" unicode="&#xa7;" horiz-adv-x="597" 
d="M386 519q-3 10 -8.5 21.5t-15.5 20.5t-26 15t-40 6q-37 0 -56 -16t-19 -42q0 -15 6.5 -26t21.5 -20t38.5 -18.5t58.5 -22.5q51 -19 89 -39.5t63.5 -45.5t38.5 -55.5t13 -70.5q0 -52 -21.5 -88.5t-54.5 -61.5q15 -14 27 -40t12 -64q0 -43 -16 -76t-45 -56t-70 -35t-92 -12
q-105 0 -168 45.5t-72 128.5h140q6 -29 30 -49t72 -20q41 0 63 14t22 47q0 15 -5 26.5t-19.5 22t-39.5 21t-65 24.5q-56 20 -95 41t-63.5 45t-35.5 53t-11 67q0 47 23.5 86t61.5 64q-18 18 -28 42.5t-10 57.5q0 38 14.5 70.5t42 56t67 36.5t89.5 13q60 0 101 -16t66 -41
t36.5 -54t13.5 -55h-134zM168 284q0 -13 3 -25t13.5 -23.5t30 -23.5t52.5 -24q42 -15 73.5 -28.5t51.5 -24.5q14 12 22 29.5t8 38.5q0 19 -5.5 33t-17.5 26.5t-32.5 24.5t-50.5 26q-31 12 -57.5 22.5t-46.5 20.5q-18 -11 -31 -30t-13 -42z" />
    <glyph glyph-name="dieresis" unicode="&#xa8;" horiz-adv-x="400" 
d="M44 601v127h115v-127h-115zM241 601v127h115v-127h-115z" />
    <glyph glyph-name="copyright" unicode="&#xa9;" horiz-adv-x="779" 
d="M555 286q-7 -27 -19.5 -51t-32.5 -42t-48.5 -28.5t-65.5 -10.5q-40 0 -72.5 14t-56 39.5t-36.5 60.5t-13 78q0 39 11.5 74t34.5 62t56 43.5t77 16.5q42 0 72.5 -12.5t50.5 -32.5t30 -43.5t12 -44.5h-89q-7 20 -23.5 38t-53.5 18q-35 0 -59 -29t-24 -84q0 -57 23 -88.5
t62 -31.5q31 0 47.5 16t24.5 38h92zM386 698q72 0 134.5 -26t108 -73t71.5 -112t26 -143q0 -77 -26 -142t-72 -112t-108 -73.5t-134 -26.5q-74 0 -136.5 25.5t-108.5 72t-72 111.5t-26 145q0 76 26 140.5t72 112t109 74.5t136 27zM385 635q-59 0 -109 -20t-86.5 -57.5
t-57 -91.5t-20.5 -123q0 -62 20.5 -115t57 -92t86.5 -61t109 -22q58 0 107.5 19.5t86 56.5t57.5 91t21 123q0 65 -20.5 119t-57 92.5t-86.5 59.5t-108 21z" />
    <glyph glyph-name="ordfeminine" unicode="&#xaa;" horiz-adv-x="378" 
d="M335 350v-45t1 -44l-100 -1q-2 10 -2 18t-1 17q-30 -41 -95 -41q-55 0 -86.5 29.5t-31.5 76.5q0 60 42 86t120 26h46v17q0 7 -1.5 15t-6 14.5t-13.5 10.5t-24 4q-27 0 -35.5 -11.5t-10.5 -27.5h-102q2 18 9.5 36.5t24.5 34.5t45.5 26t71.5 10q48 0 77 -11t45 -28.5
t21.5 -38.5t5.5 -41v-132zM231 409h-37q-31 0 -48.5 -8t-17.5 -30q0 -15 10 -26.5t33 -11.5q29 0 44.5 16.5t15.5 50.5v9z" />
    <glyph glyph-name="guillemotleft" unicode="&#xab;" horiz-adv-x="601" 
d="M177 261l147 -198h-123l-149 198l149 197h123zM402 261l147 -198h-124l-148 198l148 197h124z" />
    <glyph glyph-name="logicalnot" unicode="&#xac;" horiz-adv-x="713" 
d="M633 420v-348h-121v230h-434v118h555z" />
    <glyph glyph-name="uni00AD" unicode="&#xad;" horiz-adv-x="386" 
d="M332 320v-125h-278v125h278z" />
    <glyph glyph-name="registered" unicode="&#xae;" horiz-adv-x="357" 
d="M113 446v166h81q13 0 25.5 -2t22.5 -7.5t16.5 -14.5t6.5 -24q0 -16 -8 -26t-19 -13q13 -5 17.5 -15.5t4.5 -27.5q0 -6 0.5 -17.5t1.5 -18.5h-53q-2 5 -2.5 17t-0.5 17q0 26 -26 26h-15v-60h-52zM167 542h21q21 0 21 18q0 11 -6 13t-17 2h-19v-33zM184 699q39 0 70 -13.5
t53.5 -37t34.5 -55t12 -67.5q0 -39 -12.5 -71t-35 -55.5t-53.5 -36t-69 -12.5q-36 0 -67 13.5t-53.5 36.5t-35 55t-12.5 70q0 37 12.5 69t34.5 55t53 36t68 13zM184 660q-30 0 -53 -10.5t-39 -28.5t-24.5 -42.5t-8.5 -52.5q0 -29 9.5 -53.5t26.5 -42.5t40 -28t49 -10
q62 0 94.5 36t32.5 97t-35 98t-92 37z" />
    <glyph glyph-name="macron" unicode="&#xaf;" horiz-adv-x="400" 
d="M349 709v-105h-299v105h299z" />
    <glyph glyph-name="degree" unicode="&#xb0;" horiz-adv-x="341" 
d="M171 679q34 0 60.5 -11t44.5 -29.5t27.5 -44t9.5 -53.5q0 -34 -11 -60.5t-30.5 -45t-45.5 -28.5t-57 -10q-32 0 -57.5 10t-44 28.5t-28.5 44t-10 56.5t11 57.5t30 45.5t45 29.5t56 10.5zM171 617q-34 0 -51.5 -23t-17.5 -56q0 -34 18.5 -56.5t50.5 -22.5q34 0 52 22.5
t18 57.5q0 29 -17.5 53.5t-52.5 24.5z" />
    <glyph glyph-name="plusminus" unicode="&#xb1;" horiz-adv-x="713" 
d="M413 687v-203h221v-109h-221v-204h-111v204h-223v109h223v203h111zM80 0v109h555v-109h-555z" />
    <glyph glyph-name="two.sups" unicode="&#xb2;" horiz-adv-x="378" 
d="M35 428v8q0 30 6.5 56.5t21 49.5t37.5 44.5t57 41.5q21 13 36 22t24 16.5t13 15.5t4 19q0 18 -10 31t-37 13q-24 0 -36.5 -15t-16.5 -38l-104 1q2 28 13.5 53t32 43.5t50 29.5t66.5 11q45 0 75 -12t47.5 -31t25 -41t7.5 -41q0 -24 -5.5 -42t-18 -33t-32.5 -28t-49 -28
q-9 -5 -21 -12.5t-23.5 -16t-21 -17.5t-13.5 -17h199l-14 -83h-313z" />
    <glyph glyph-name="three.sups" unicode="&#xb3;" horiz-adv-x="390" 
d="M152 680h29q30 0 42.5 8t12.5 24q0 38 -50 38q-32 0 -43 -13.5t-16 -30.5h-98q1 15 8.5 36.5t25 41t48.5 33t79 13.5q39 0 68 -9t48 -24t28 -35.5t9 -43.5q0 -18 -5.5 -31t-14 -22t-18 -15t-17.5 -9q9 -3 22 -9t24 -17.5t19 -28t8 -40.5q0 -20 -7.5 -41.5t-26.5 -39.5
t-51.5 -29.5t-82.5 -11.5q-54 0 -87 14.5t-51.5 35t-25 42.5t-7.5 37h105q5 -19 20 -34t47 -15q26 0 40.5 12t14.5 32q0 25 -16 34.5t-44 9.5h-37v88z" />
    <glyph glyph-name="acute" unicode="&#xb4;" horiz-adv-x="400" 
d="M407 740l-160 -148h-125l115 148h170z" />
    <glyph glyph-name="uni00B5" unicode="&#xb5;" horiz-adv-x="579" 
d="M255 -10q-12 0 -27.5 2.5t-30.5 14.5q0 -6 1 -27.5t1.5 -50.5t1.5 -63t2 -65h-142v717h143v-310q0 -20 3 -38t11 -32t23.5 -22.5t39.5 -8.5q40 0 65.5 26.5t25.5 97.5v287h144v-364v-95t2 -59h-139q-2 7 -4 26.5t-3 33.5q-20 -38 -47 -54t-70 -16z" />
    <glyph glyph-name="paragraph" unicode="&#xb6;" horiz-adv-x="638" 
d="M417 -152v281h-109q-124 -1 -192.5 64.5t-68.5 193.5q0 56 16 103.5t46.5 82t76 53.5t104.5 19h127q1 15 2.5 33.5t3.5 27.5h96q-1 -14 -1 -31.5v-31.5v-795h-101zM417 235v314h-46q-26 0 -41.5 -14t-23.5 -36t-10.5 -48t-3.5 -50q0 -23 1 -51.5t8.5 -54t24 -43
t47.5 -17.5h44z" />
    <glyph glyph-name="periodcentered" unicode="&#xb7;" horiz-adv-x="251" 
d="M49 200v176h153v-176h-153z" />
    <glyph glyph-name="cedilla" unicode="&#xb8;" horiz-adv-x="400" 
d="M268 0l-42 -46q13 -3 28.5 -9t28.5 -17t21.5 -27.5t8.5 -41.5q0 -32 -14 -52.5t-35 -32t-46 -15.5t-47 -4q-23 0 -43 2.5t-31 7.5v76q10 -2 28.5 -4t26.5 -2q26 0 35 6t9 19q0 10 -7.5 16.5t-19.5 10.5t-27.5 5.5t-31.5 2.5v34l69 81z" />
    <glyph glyph-name="one.sups" unicode="&#xb9;" horiz-adv-x="268" 
d="M96 428v275q-14 -4 -36 -5.5t-36 -0.5v81q41 5 65.5 19t42.5 33h76v-402h-112z" />
    <glyph glyph-name="ordmasculine" unicode="&#xba;" horiz-adv-x="401" 
d="M203 601q41 0 73.5 -13t54.5 -36t33 -54.5t11 -69.5q-1 -85 -51 -129t-126 -44q-38 0 -69.5 12t-54.5 34.5t-36 54t-13 70.5q0 80 47.5 127.5t130.5 47.5zM200 524q-32 0 -49 -23.5t-17 -72.5q0 -45 17.5 -71t48.5 -26q33 0 51 24t18 75q-1 44 -17.5 69t-51.5 25z" />
    <glyph glyph-name="guillemotright" unicode="&#xbb;" horiz-adv-x="601" 
d="M424 260l-147 198h123l149 -198l-149 -197h-123zM199 260l-147 198h124l148 -198l-148 -197h-124z" />
    <glyph glyph-name="onequarter" unicode="&#xbc;" horiz-adv-x="827" 
d="M119 0l418 658h96l-418 -658h-96zM105 261v275q-14 -4 -36 -5.5t-36 -0.5v81q41 5 65.5 19t42.5 33h76v-402h-112zM634 0v93h-192v81l161 222h133v-224h58l-8 -79h-50v-93h-102zM634 172v49v20t0.5 25.5t1 26.5t0.5 22q-6 -11 -17 -28t-25 -36.5t-28.5 -40t-26.5 -38.5
h95z" />
    <glyph glyph-name="onehalf" unicode="&#xbd;" horiz-adv-x="855" 
d="M120 0l418 658h96l-418 -658h-96zM108 261v275q-14 -4 -36 -5.5t-36 -0.5v81q41 5 65.5 19t42.5 33h76v-402h-112zM500 0v8q0 30 6.5 56.5t21 49.5t37.5 44.5t57 41.5q21 13 36 22t24 16.5t13 15.5t4 19q0 18 -10 31t-37 13q-24 0 -36.5 -15t-16.5 -38l-104 1
q2 28 13.5 53t32 43.5t50 29.5t66.5 11q45 0 75 -12t47.5 -31t25 -41t7.5 -41q0 -24 -5.5 -42t-18 -33t-32.5 -28t-49 -28q-9 -5 -21 -12.5t-23.5 -16t-21 -17.5t-13.5 -17h199l-14 -83h-313z" />
    <glyph glyph-name="threequarters" unicode="&#xbe;" horiz-adv-x="915" 
d="M230 0l418 658h96l-418 -658h-96zM727 0v93h-192v81l161 222h133v-224h58l-8 -79h-50v-93h-102zM727 172v49v20t0.5 25.5t1 26.5t0.5 22q-6 -11 -17 -28t-25 -36.5t-28.5 -40t-26.5 -38.5h95zM164 513h29q30 0 42.5 8t12.5 24q0 38 -50 38q-32 0 -43 -13.5t-16 -30.5h-98
q1 15 8.5 36.5t25 41t48.5 33t79 13.5q39 0 68 -9t48 -24t28 -35.5t9 -43.5q0 -18 -5.5 -31t-14 -22t-18 -15t-17.5 -9q9 -3 22 -9t24 -17.5t19 -28t8 -40.5q0 -20 -7.5 -41.5t-26.5 -39.5t-51.5 -29.5t-82.5 -11.5q-54 0 -87 14.5t-51.5 35t-25 42.5t-7.5 37h105
q5 -19 20 -34t47 -15q26 0 40.5 12t14.5 32q0 25 -16 34.5t-44 9.5h-37v88z" />
    <glyph glyph-name="questiondown" unicode="&#xbf;" horiz-adv-x="487" 
d="M26 1q0 47 19 88.5t71 90.5q33 30 46.5 54t13.5 56v10h149v-22q0 -25 -5.5 -46.5t-17.5 -42t-31 -42t-46 -47.5q-32 -30 -44.5 -51t-12.5 -47q0 -29 18.5 -51.5t56.5 -22.5q37 0 62.5 23t29.5 82h127q0 -42 -12 -81t-38.5 -69t-69.5 -47.5t-105 -17.5q-59 0 -99.5 16.5
t-65.5 42.5t-35.5 58.5t-10.5 65.5zM325 518v-166h-149v166h149z" />
    <glyph glyph-name="Agrave" unicode="&#xc0;" horiz-adv-x="688" 
d="M211 159l-53 -159h-147l234 689h187l245 -689h-157l-57 159h-252zM431 281q-37 110 -60.5 182t-36.5 119h-1q-13 -51 -37 -129t-53 -172h188zM286 887l124 -139h-132l-170 139h178z" />
    <glyph glyph-name="Aacute" unicode="&#xc1;" horiz-adv-x="688" 
d="M211 159l-53 -159h-147l234 689h187l245 -689h-157l-57 159h-252zM431 281q-37 110 -60.5 182t-36.5 119h-1q-13 -51 -37 -129t-53 -172h188zM577 887l-177 -139h-134l137 139h174z" />
    <glyph glyph-name="Adieresis" unicode="&#xc4;" horiz-adv-x="688" 
d="M211 159l-53 -159h-147l234 689h187l245 -689h-157l-57 159h-252zM431 281q-37 110 -60.5 182t-36.5 119h-1q-13 -51 -37 -129t-53 -172h188zM186 759v127h115v-127h-115zM385 759v127h115v-127h-115z" />
    <glyph glyph-name="Egrave" unicode="&#xc8;" horiz-adv-x="618" 
d="M557 297h-330v-175h364l-18 -122h-491v689h489v-122h-344v-147h330v-123zM291 889l124 -139h-132l-170 139h178z" />
    <glyph glyph-name="Eacute" unicode="&#xc9;" horiz-adv-x="618" 
d="M557 297h-330v-175h364l-18 -122h-491v689h489v-122h-344v-147h330v-123zM562 889l-177 -139h-134l137 139h174z" />
    <glyph glyph-name="Edieresis" unicode="&#xcb;" horiz-adv-x="618" 
d="M557 297h-330v-175h364l-18 -122h-491v689h489v-122h-344v-147h330v-123zM172 760v127h115v-127h-115zM371 760v127h115v-127h-115z" />
    <glyph glyph-name="Igrave" unicode="&#xcc;" horiz-adv-x="313" 
d="M231 689v-689h-149v689h149zM105 888l124 -139h-132l-170 139h178z" />
    <glyph glyph-name="Iacute" unicode="&#xcd;" horiz-adv-x="313" 
d="M231 689v-689h-149v689h149zM396 887l-177 -139h-134l137 139h174z" />
    <glyph glyph-name="Idieresis" unicode="&#xcf;" horiz-adv-x="313" 
d="M231 689v-689h-149v689h149zM1 759v127h115v-127h-115zM200 759v127h115v-127h-115z" />
    <glyph glyph-name="Ograve" unicode="&#xd2;" horiz-adv-x="765" 
d="M387 699q76 0 137 -25.5t104 -71.5t66 -111t23 -144q0 -72 -21.5 -137t-64 -113.5t-106 -77.5t-147.5 -29q-81 0 -143 27.5t-103.5 75.5t-62.5 113t-21 139q0 75 23 139.5t66.5 112.5t106.5 75t143 27zM381 578q-47 0 -81 -17t-55.5 -47.5t-32 -73t-10.5 -92.5
q0 -51 11 -94t33.5 -75t56.5 -50t80 -18q50 0 84.5 19.5t55.5 51.5t30.5 74.5t9.5 88.5q0 49 -10.5 91.5t-32.5 74t-56.5 49.5t-82.5 18zM336 898l124 -139h-132l-170 139h178z" />
    <glyph glyph-name="Oacute" unicode="&#xd3;" horiz-adv-x="765" 
d="M387 699q76 0 137 -25.5t104 -71.5t66 -111t23 -144q0 -72 -21.5 -137t-64 -113.5t-106 -77.5t-147.5 -29q-81 0 -143 27.5t-103.5 75.5t-62.5 113t-21 139q0 75 23 139.5t66.5 112.5t106.5 75t143 27zM381 578q-47 0 -81 -17t-55.5 -47.5t-32 -73t-10.5 -92.5
q0 -51 11 -94t33.5 -75t56.5 -50t80 -18q50 0 84.5 19.5t55.5 51.5t30.5 74.5t9.5 88.5q0 49 -10.5 91.5t-32.5 74t-56.5 49.5t-82.5 18zM619 896l-177 -139h-134l137 139h174z" />
    <glyph glyph-name="Odieresis" unicode="&#xd6;" horiz-adv-x="765" 
d="M387 699q76 0 137 -25.5t104 -71.5t66 -111t23 -144q0 -72 -21.5 -137t-64 -113.5t-106 -77.5t-147.5 -29q-81 0 -143 27.5t-103.5 75.5t-62.5 113t-21 139q0 75 23 139.5t66.5 112.5t106.5 75t143 27zM381 578q-47 0 -81 -17t-55.5 -47.5t-32 -73t-10.5 -92.5
q0 -51 11 -94t33.5 -75t56.5 -50t80 -18q50 0 84.5 19.5t55.5 51.5t30.5 74.5t9.5 88.5q0 49 -10.5 91.5t-32.5 74t-56.5 49.5t-82.5 18zM225 760v127h115v-127h-115zM424 760v127h115v-127h-115z" />
    <glyph glyph-name="Ugrave" unicode="&#xd9;" horiz-adv-x="725" 
d="M222 689v-410q0 -50 12 -83t31.5 -53t45.5 -28t54 -8q32 0 57.5 9t43.5 29.5t27.5 53.5t9.5 80v410h150v-403q0 -89 -24 -146t-64 -90.5t-92.5 -46.5t-109.5 -13q-59 0 -111.5 13.5t-92 47t-63 90t-23.5 142.5v406h149zM316 887l124 -139h-132l-170 139h178z" />
    <glyph glyph-name="Uacute" unicode="&#xda;" horiz-adv-x="725" 
d="M222 689v-410q0 -50 12 -83t31.5 -53t45.5 -28t54 -8q32 0 57.5 9t43.5 29.5t27.5 53.5t9.5 80v410h150v-403q0 -89 -24 -146t-64 -90.5t-92.5 -46.5t-109.5 -13q-59 0 -111.5 13.5t-92 47t-63 90t-23.5 142.5v406h149zM595 887l-177 -139h-134l137 139h174z" />
    <glyph glyph-name="Udieresis" unicode="&#xdc;" horiz-adv-x="725" 
d="M222 689v-410q0 -50 12 -83t31.5 -53t45.5 -28t54 -8q32 0 57.5 9t43.5 29.5t27.5 53.5t9.5 80v410h150v-403q0 -89 -24 -146t-64 -90.5t-92.5 -46.5t-109.5 -13q-59 0 -111.5 13.5t-92 47t-63 90t-23.5 142.5v406h149zM205 759v127h115v-127h-115zM404 759v127h115v-127
h-115z" />
    <glyph glyph-name="agrave" unicode="&#xe0;" horiz-adv-x="559" 
d="M494 134q0 -19 0.5 -40.5t1.5 -41t2.5 -34t2.5 -18.5h-137q-3 8 -5 24.5t-2 26.5q-7 -11 -18 -22t-28 -20t-41.5 -15t-58.5 -6q-47 0 -80.5 14t-55 37t-31.5 52t-10 59q0 88 66 130.5t180 42.5h74v31q0 14 -3 27t-12 23.5t-24.5 16.5t-40.5 6q-45 0 -60.5 -17.5
t-19.5 -45.5h-136q3 34 15.5 64.5t39 53t67.5 35.5t100 13q104 -1 159 -43t55 -136v-217zM354 236h-58q-66 0 -92.5 -19.5t-26.5 -57.5q0 -28 18 -48.5t57 -20.5q34 0 54.5 11t31 29.5t13.5 42t3 49.5v14zM247 740l114 -148h-126l-159 148h171z" />
    <glyph glyph-name="aacute" unicode="&#xe1;" horiz-adv-x="559" 
d="M494 134q0 -19 0.5 -40.5t1.5 -41t2.5 -34t2.5 -18.5h-137q-3 8 -5 24.5t-2 26.5q-7 -11 -18 -22t-28 -20t-41.5 -15t-58.5 -6q-47 0 -80.5 14t-55 37t-31.5 52t-10 59q0 88 66 130.5t180 42.5h74v31q0 14 -3 27t-12 23.5t-24.5 16.5t-40.5 6q-45 0 -60.5 -17.5
t-19.5 -45.5h-136q3 34 15.5 64.5t39 53t67.5 35.5t100 13q104 -1 159 -43t55 -136v-217zM354 236h-58q-66 0 -92.5 -19.5t-26.5 -57.5q0 -28 18 -48.5t57 -20.5q34 0 54.5 11t31 29.5t13.5 42t3 49.5v14zM487 740l-160 -148h-125l115 148h170z" />
    <glyph glyph-name="adieresis" unicode="&#xe4;" horiz-adv-x="559" 
d="M494 134q0 -19 0.5 -40.5t1.5 -41t2.5 -34t2.5 -18.5h-137q-3 8 -5 24.5t-2 26.5q-7 -11 -18 -22t-28 -20t-41.5 -15t-58.5 -6q-47 0 -80.5 14t-55 37t-31.5 52t-10 59q0 88 66 130.5t180 42.5h74v31q0 14 -3 27t-12 23.5t-24.5 16.5t-40.5 6q-45 0 -60.5 -17.5
t-19.5 -45.5h-136q3 34 15.5 64.5t39 53t67.5 35.5t100 13q104 -1 159 -43t55 -136v-217zM354 236h-58q-66 0 -92.5 -19.5t-26.5 -57.5q0 -28 18 -48.5t57 -20.5q34 0 54.5 11t31 29.5t13.5 42t3 49.5v14zM124 601v127h115v-127h-115zM321 601v127h115v-127h-115z" />
    <glyph glyph-name="egrave" unicode="&#xe8;" horiz-adv-x="555" 
d="M178 228q0 -24 6.5 -47t19 -41t32 -29t46.5 -11q22 0 37.5 4t25.5 11.5t16.5 17.5t11.5 22h143q-7 -24 -22 -53t-42.5 -54.5t-69.5 -42.5t-103 -17q-64 0 -110.5 22t-76.5 58.5t-44 84t-14 98.5q0 61 15.5 112.5t47 88.5t78 57.5t109.5 20.5q66 0 111.5 -22t73.5 -58.5
t40.5 -83t12.5 -94.5v-23.5t-2 -20.5h-342zM378 316q0 22 -5 42.5t-16.5 35.5t-29.5 24t-44 9q-51 0 -74 -31.5t-28 -79.5h197zM246 740l114 -148h-126l-159 148h171z" />
    <glyph glyph-name="eacute" unicode="&#xe9;" horiz-adv-x="555" 
d="M178 228q0 -24 6.5 -47t19 -41t32 -29t46.5 -11q22 0 37.5 4t25.5 11.5t16.5 17.5t11.5 22h143q-7 -24 -22 -53t-42.5 -54.5t-69.5 -42.5t-103 -17q-64 0 -110.5 22t-76.5 58.5t-44 84t-14 98.5q0 61 15.5 112.5t47 88.5t78 57.5t109.5 20.5q66 0 111.5 -22t73.5 -58.5
t40.5 -83t12.5 -94.5v-23.5t-2 -20.5h-342zM378 316q0 22 -5 42.5t-16.5 35.5t-29.5 24t-44 9q-51 0 -74 -31.5t-28 -79.5h197zM485 740l-160 -148h-125l115 148h170z" />
    <glyph glyph-name="edieresis" unicode="&#xeb;" horiz-adv-x="555" 
d="M178 228q0 -24 6.5 -47t19 -41t32 -29t46.5 -11q22 0 37.5 4t25.5 11.5t16.5 17.5t11.5 22h143q-7 -24 -22 -53t-42.5 -54.5t-69.5 -42.5t-103 -17q-64 0 -110.5 22t-76.5 58.5t-44 84t-14 98.5q0 61 15.5 112.5t47 88.5t78 57.5t109.5 20.5q66 0 111.5 -22t73.5 -58.5
t40.5 -83t12.5 -94.5v-23.5t-2 -20.5h-342zM378 316q0 22 -5 42.5t-16.5 35.5t-29.5 24t-44 9q-51 0 -74 -31.5t-28 -79.5h197zM130 601v127h115v-127h-115zM327 601v127h115v-127h-115z" />
    <glyph glyph-name="igrave" unicode="&#xec;" horiz-adv-x="272" 
d="M64 518h144v-518h-144v518zM87 740l114 -148h-126l-159 148h171z" />
    <glyph glyph-name="iacute" unicode="&#xed;" horiz-adv-x="272" 
d="M64 518h144v-518h-144v518zM356 740l-160 -148h-125l115 148h170z" />
    <glyph glyph-name="icircumflex" unicode="&#xee;" horiz-adv-x="272" 
d="M64 518h144v-518h-144v518zM197 729l116 -149h-128l-51 74l-47 -74h-129l116 149h123z" />
    <glyph glyph-name="idieresis" unicode="&#xef;" horiz-adv-x="272" 
d="M64 518h144v-518h-144v518zM-20 601v127h115v-127h-115zM177 601v127h115v-127h-115z" />
    <glyph glyph-name="ograve" unicode="&#xf2;" horiz-adv-x="580" 
d="M295 530q57 0 103.5 -19.5t79 -55t50.5 -85t18 -110.5q0 -59 -17.5 -109t-50.5 -86t-81 -56.5t-109 -20.5q-60 0 -107 20.5t-80 56.5t-50 85t-17 107q0 60 17.5 110t51.5 86.5t82 56.5t110 20zM289 417q-50 0 -80 -38t-30 -120q0 -75 30 -117t82 -42q54 0 82 41.5
t28 116.5q0 81 -29 120t-83 39zM258 740l114 -148h-126l-159 148h171z" />
    <glyph glyph-name="oacute" unicode="&#xf3;" horiz-adv-x="580" 
d="M295 530q57 0 103.5 -19.5t79 -55t50.5 -85t18 -110.5q0 -59 -17.5 -109t-50.5 -86t-81 -56.5t-109 -20.5q-60 0 -107 20.5t-80 56.5t-50 85t-17 107q0 60 17.5 110t51.5 86.5t82 56.5t110 20zM289 417q-50 0 -80 -38t-30 -120q0 -75 30 -117t82 -42q54 0 82 41.5
t28 116.5q0 81 -29 120t-83 39zM500 740l-160 -148h-125l115 148h170z" />
    <glyph glyph-name="odieresis" unicode="&#xf6;" horiz-adv-x="580" 
d="M295 530q57 0 103.5 -19.5t79 -55t50.5 -85t18 -110.5q0 -59 -17.5 -109t-50.5 -86t-81 -56.5t-109 -20.5q-60 0 -107 20.5t-80 56.5t-50 85t-17 107q0 60 17.5 110t51.5 86.5t82 56.5t110 20zM289 417q-50 0 -80 -38t-30 -120q0 -75 30 -117t82 -42q54 0 82 41.5
t28 116.5q0 81 -29 120t-83 39zM134 601v127h115v-127h-115zM331 601v127h115v-127h-115z" />
    <glyph glyph-name="ugrave" unicode="&#xf9;" horiz-adv-x="585" 
d="M520 150v-76t1 -74h-140q-2 11 -2.5 28.5t-1.5 31.5q-23 -39 -57.5 -55.5t-85.5 -16.5q-79 0 -125.5 47.5t-46.5 144.5v338h143v-309q0 -21 4 -40t13 -33.5t24.5 -22.5t38.5 -8q49 0 70.5 30t21.5 107v276h143v-368zM260 740l114 -148h-126l-159 148h171z" />
    <glyph glyph-name="uacute" unicode="&#xfa;" horiz-adv-x="585" 
d="M520 150v-76t1 -74h-140q-2 11 -2.5 28.5t-1.5 31.5q-23 -39 -57.5 -55.5t-85.5 -16.5q-79 0 -125.5 47.5t-46.5 144.5v338h143v-309q0 -21 4 -40t13 -33.5t24.5 -22.5t38.5 -8q49 0 70.5 30t21.5 107v276h143v-368zM500 740l-160 -148h-125l115 148h170z" />
    <glyph glyph-name="udieresis" unicode="&#xfc;" horiz-adv-x="585" 
d="M520 150v-76t1 -74h-140q-2 11 -2.5 28.5t-1.5 31.5q-23 -39 -57.5 -55.5t-85.5 -16.5q-79 0 -125.5 47.5t-46.5 144.5v338h143v-309q0 -21 4 -40t13 -33.5t24.5 -22.5t38.5 -8q49 0 70.5 30t21.5 107v276h143v-368zM136 601v127h115v-127h-115zM333 601v127h115v-127
h-115z" />
    <glyph glyph-name="uni02BC" unicode="&#x2bc;" horiz-adv-x="398" 
d="M100 433q10 36 18.5 75.5t14.5 78.5t9.5 76t4.5 67h151q-3 -36 -10.5 -75.5t-18 -78.5t-24.5 -76t-30 -67h-115z" />
    <glyph glyph-name="tilde" unicode="&#x2dc;" horiz-adv-x="400" 
d="M28 589v34q0 61 26 85t67 24q22 0 41.5 -6.5t36.5 -14.5t31 -14.5t26 -6.5t18.5 7.5t6.5 27.5v9h90v-27q0 -35 -7.5 -58.5t-20.5 -37.5t-31 -19.5t-39 -5.5q-23 0 -42 6.5t-35 14t-29 14t-25 6.5q-11 0 -16.5 -5t-5.5 -19v-14h-92z" />
    <glyph glyph-name="endash" unicode="&#x2013;" horiz-adv-x="491" 
d="M436 317v-119h-382v119h382z" />
    <glyph glyph-name="emdash" unicode="&#x2014;" horiz-adv-x="844" 
d="M790 317v-119h-736v119h736z" />
    <glyph glyph-name="quoteleft" unicode="&#x2018;" horiz-adv-x="276" 
d="M239 730q-11 -36 -19.5 -76t-14.5 -79t-9.5 -75.5t-4.5 -66.5h-150q3 36 10 75.5t18 78.5t25 76t30 67h115z" />
    <glyph glyph-name="quoteright" unicode="&#x2019;" horiz-adv-x="276" 
d="M38 433q10 36 18.5 75.5t14.5 78.5t9.5 76t4.5 67h151q-3 -36 -10.5 -75.5t-18 -78.5t-24.5 -76t-30 -67h-115z" />
    <glyph glyph-name="quotedblleft" unicode="&#x201c;" horiz-adv-x="486" 
d="M446 728q-22 -76 -32.5 -153.5t-12.5 -142.5h-145q2 41 10.5 82.5t20 80.5t25.5 73t27 60h107zM230 728q-10 -37 -18 -77t-14 -79t-9.5 -75t-4.5 -65h-145q2 34 9.5 73.5t19 79t25.5 76.5t29 67h108z" />
    <glyph glyph-name="quotedblright" unicode="&#x201d;" horiz-adv-x="486" 
d="M39 433q23 77 33.5 154.5t12.5 142.5h145q-2 -41 -10.5 -83t-20 -81t-25.5 -73.5t-27 -59.5h-108zM256 433q10 37 18 77.5t13.5 79.5t9 75t4.5 65h145q-2 -35 -9 -74t-18.5 -79t-25.5 -77t-29 -67h-108z" />
    <glyph glyph-name="quotedblbase" unicode="&#x201e;" horiz-adv-x="480" 
d="M38 -140q22 76 32.5 154t12.5 143h146q-3 -41 -11 -83t-20 -81t-26 -73.5t-27 -59.5h-107zM254 -140q10 37 18 77t14 79t9.5 75.5t4.5 65.5h145q-2 -35 -9.5 -74t-19 -79t-25.5 -77t-29 -67h-108z" />
    <glyph glyph-name="bullet" unicode="&#x2022;" horiz-adv-x="418" 
d="M328 379v-241h-238v241h238z" />
    <glyph glyph-name="ellipsis" unicode="&#x2026;" horiz-adv-x="916" 
d="M60 0v176h153v-176h-153zM370 0v176h153v-176h-153zM679 0v176h153v-176h-153z" />
    <glyph glyph-name="guilsinglleft" unicode="&#x2039;" horiz-adv-x="390" 
d="M176 261l162 -198h-120l-166 198l166 197h120z" />
    <glyph glyph-name="guilsinglright" unicode="&#x203a;" horiz-adv-x="390" 
d="M214 260l-162 198h120l166 -198l-166 -197h-120z" />
    <glyph glyph-name="Euro" unicode="&#x20ac;" horiz-adv-x="577" 
d="M547 167q-16 -79 -71.5 -128.5t-149.5 -49.5q-102 0 -161.5 62t-76.5 178h-58v81h51v19v17.5t1 16.5h-52v81h62q22 109 84 166.5t155 57.5q55 0 94.5 -17t66 -43.5t39.5 -58t16 -59.5h-139q-8 30 -28.5 49t-55.5 19q-77 0 -96 -114h156v-81h-164v-29v-24h164v-81h-157
q9 -62 33 -94t67 -32q38 0 55.5 19.5t25.5 44.5h139z" />
    <glyph glyph-name="dotlessi" horiz-adv-x="272" 
d="M64 518h144v-518h-144v518z" />
    <glyph glyph-name="zero.slash" horiz-adv-x="591" 
d="M298 670q67 0 114.5 -26.5t77.5 -72t44 -107t14 -131.5q0 -65 -12.5 -127t-42 -110.5t-78 -78t-120.5 -29.5q-68 0 -116 27t-78 73.5t-44 108.5t-14 132q0 69 14 130.5t45 108.5t79 74.5t117 27.5zM298 561q-64 0 -90 -61.5t-26 -168.5q0 -26 1 -49.5t4 -45.5l177 297
q-25 28 -66 28zM297 97q33 0 54 18.5t33.5 50.5t17.5 74.5t5 91.5q0 32 -2 61.5t-7 55.5l-182 -308q28 -44 81 -44z" />
    <glyph glyph-name="zero.slashtab" 
d="M288 670q67 0 114.5 -26.5t77.5 -72t44 -107t14 -131.5q0 -65 -12.5 -127t-42 -110.5t-78 -78t-120.5 -29.5q-68 0 -116 27t-78 73.5t-44 108.5t-14 132q0 69 14 130.5t45 108.5t79 74.5t117 27.5zM288 561q-64 0 -90 -61.5t-26 -168.5q0 -26 1 -49.5t4 -45.5l177 297
q-25 28 -66 28zM287 97q33 0 54 18.5t33.5 50.5t17.5 74.5t5 91.5q0 32 -2 61.5t-7 55.5l-182 -308q28 -44 81 -44z" />
    <glyph glyph-name="zero.tab" 
d="M288 670q69 0 116.5 -26.5t77.5 -72t43 -107t13 -131.5q0 -68 -12 -130.5t-41 -110t-78 -76t-122 -28.5q-72 0 -120.5 27.5t-78 74.5t-41.5 109t-12 130q0 67 13.5 129t43.5 109t78.5 75t119.5 28zM288 556q-32 0 -52.5 -15t-33 -44t-17.5 -71t-5 -95q0 -45 3.5 -86.5
t15 -73t32.5 -50.5t56 -19q34 0 54.5 18t31 49t14 73t3.5 90t-4 89t-15 71t-31 47t-52 17z" />
    <glyph glyph-name="one.tab" 
d="M84 0v119h137v374q-10 -3 -25 -5.5t-32 -4t-34 -2t-30 -0.5v100q54 7 96.5 27.5t68.5 49.5h98v-539h134v-119h-413z" />
    <glyph glyph-name="two.tab" 
d="M52 0v9q0 43 10 82.5t33 77.5t60 75.5t91 76.5q35 25 58 43.5t37 34.5t20 32.5t6 38.5q0 43 -20.5 66t-62.5 23q-49 0 -69.5 -27t-27.5 -70h-138q3 42 19 80t45 66.5t71.5 45t99.5 16.5q63 0 106.5 -17.5t70.5 -45.5t38.5 -63.5t11.5 -72.5q0 -36 -8.5 -64t-27.5 -53.5
t-50.5 -51.5t-76.5 -58q-61 -43 -89 -72.5t-36 -52.5h312l-18 -119h-465z" />
    <glyph glyph-name="three.tab" 
d="M49 489q3 30 16.5 62.5t40.5 58.5t69.5 43t104.5 17q57 0 98.5 -15t68.5 -39.5t40 -57t13 -67.5q0 -30 -8 -52t-20 -38t-26.5 -27t-27.5 -17v-3q16 -6 35 -17t35 -29.5t26.5 -46t10.5 -65.5q0 -36 -12 -73t-40.5 -67t-75.5 -49t-118 -19q-66 0 -111.5 18t-74 46t-42 62
t-15.5 67h139q7 -34 32 -58.5t76 -24.5q50 0 74.5 28t24.5 72q0 46 -25.5 72t-82.5 26h-60v110h53q49 0 70.5 17.5t21.5 59.5q0 34 -20.5 55t-63.5 21q-25 0 -41.5 -6.5t-26 -16.5t-14.5 -22.5t-8 -24.5h-136z" />
    <glyph glyph-name="four.tab" 
d="M330 0v148h-297v125l274 385h156v-394h80l-14 -116h-66v-148h-133zM330 381q0 53 0.5 87t2.5 65q-10 -21 -29.5 -53t-44 -69t-51 -75.5t-49.5 -71.5h171v117z" />
    <glyph glyph-name="five.tab" 
d="M491 541h-264q-2 -13 -4.5 -30.5t-5.5 -35t-5.5 -33.5t-4.5 -26q19 15 47.5 25t71.5 10q49 0 86.5 -16.5t63.5 -46t39.5 -69.5t13.5 -87q0 -48 -13.5 -92t-43.5 -77.5t-77 -54t-114 -20.5q-49 0 -90.5 12.5t-73 36t-51 57.5t-25.5 78h143q10 -34 34 -54t66 -20
q51 0 76 34t25 88q0 52 -22 85t-79 33q-46 0 -68 -18.5t-33 -47.5l-129 17q7 31 15 80t16 102t15 103t11 84h400z" />
    <glyph glyph-name="six.tab" 
d="M381 498q-3 12 -8.5 23.5t-15 20t-24 14t-36.5 5.5q-33 0 -54.5 -14t-34.5 -38t-19 -55t-7 -64q21 26 57 43.5t92 17.5q45 0 83 -16t65.5 -44.5t42.5 -69t15 -88.5q0 -53 -16.5 -98t-47.5 -77.5t-75.5 -51t-101.5 -18.5q-72 0 -120.5 26t-78.5 71t-43 105.5t-13 130.5
q0 64 12.5 126.5t43 112t81 80t126.5 30.5q54 0 93.5 -15.5t65.5 -40t40 -55t17 -61.5h-139zM292 102q52 0 77 34.5t25 84.5q0 24 -5 45.5t-16.5 38t-31 26t-49.5 9.5q-48 0 -74.5 -28.5t-26.5 -85.5q0 -20 5 -42t17 -40t31 -30t48 -12z" />
    <glyph glyph-name="seven.tab" 
d="M513 658v-106q-39 -56 -76.5 -122t-69 -138t-54 -146t-32.5 -146h-147q10 73 35 150.5t58 149.5t70 134.5t70 105.5h-310v118h456z" />
    <glyph glyph-name="eight.tab" 
d="M279 -12q-51 0 -95.5 13t-78 38.5t-53 63t-19.5 86.5q0 31 10 57t25.5 45.5t35 33.5t37.5 22q-38 23 -59.5 55t-21.5 82q0 85 58.5 135.5t170.5 50.5q51 0 92.5 -12.5t71 -36.5t45.5 -58t16 -77q0 -57 -25 -87.5t-59 -44.5q18 -7 36.5 -20.5t34.5 -33.5t26 -46.5
t10 -59.5q0 -51 -19 -89.5t-53.5 -64.5t-82 -39t-103.5 -13zM288 99q46 0 76 23t30 74q0 49 -30.5 72t-78.5 23q-54 0 -81 -26t-27 -68q0 -45 30 -71.5t81 -26.5zM286 560q-45 0 -68 -21t-23 -60q0 -33 23.5 -53.5t69.5 -20.5q44 0 67 17.5t23 56.5q0 38 -23.5 59.5
t-68.5 21.5z" />
    <glyph glyph-name="nine.tab" 
d="M191 163q10 -29 29.5 -46.5t61.5 -17.5q35 0 55.5 19t31.5 47t14.5 60.5t5.5 59.5q-20 -29 -57 -42t-80 -13q-51 0 -90.5 16.5t-67 45t-41.5 67t-14 83.5q0 48 16.5 89.5t47.5 72t76 48t102 17.5q70 0 117.5 -25t76.5 -67t42 -97.5t13 -116.5q0 -69 -10.5 -136.5
t-39 -120.5t-77.5 -85.5t-127 -32.5q-57 0 -98.5 16t-68.5 41t-42 56.5t-19 61.5h143zM282 558q-50 0 -74.5 -31.5t-24.5 -77.5q0 -51 27 -79.5t74 -28.5q48 0 73 25t25 80q0 16 -4 36t-15 36.5t-30.5 28t-50.5 11.5z" />
    <glyph glyph-name="zero.slashcap" horiz-adv-x="619" 
d="M313 699q72 0 121.5 -29t80.5 -77.5t45 -112t14 -131.5q0 -66 -12.5 -131t-43.5 -116t-82 -82.5t-127 -31.5q-74 0 -124.5 29.5t-81.5 78.5t-44.5 113.5t-13.5 135.5q0 65 14 128.5t45.5 113.5t83 81t125.5 31zM313 589q-66 0 -96 -65.5t-30 -177.5q0 -33 2.5 -63.5
t7.5 -56.5l188 327q-27 36 -72 36zM310 99q33 0 56 19.5t37.5 53.5t21 79.5t6.5 96.5q0 33 -2.5 63.5t-8.5 56.5l-188 -329q14 -19 33 -29.5t45 -10.5z" />
    <glyph glyph-name="zero.cap" horiz-adv-x="619" 
d="M313 699q72 0 121.5 -29t80.5 -77.5t45 -112t14 -131.5q0 -66 -12.5 -131t-43.5 -116t-82 -82.5t-127 -31.5q-74 0 -124.5 29.5t-81.5 78.5t-44.5 113.5t-13.5 135.5q0 65 14 128.5t45.5 113.5t83 81t125.5 31zM313 584q-66 0 -92.5 -63t-26.5 -175q0 -52 5.5 -96
t18.5 -76.5t35.5 -50.5t56.5 -18q33 0 55 19t35 51.5t18.5 77t5.5 95.5q0 50 -5 93.5t-17.5 75t-34 49.5t-54.5 18z" />
    <glyph glyph-name="one.cap" horiz-adv-x="405" 
d="M166 0v516q-11 -5 -28 -9.5t-35.5 -7.5t-36 -5t-29.5 -2v104q24 4 48.5 13.5t48 21.5t43.5 27t35 31h104v-689h-150z" />
    <glyph glyph-name="two.cap" horiz-adv-x="579" 
d="M43 0v9q0 43 8 83.5t31 81.5t64.5 84t109.5 91q35 25 57.5 42t36 32t18.5 30.5t5 37.5q0 43 -22 68t-64 25q-49 0 -70 -26t-29 -73h-147q4 43 20.5 82t46.5 68t74.5 46.5t104.5 17.5q67 0 112 -18.5t72.5 -48t39.5 -66t12 -72.5q0 -40 -8.5 -70t-28.5 -56t-53 -52.5
t-81 -58.5q-66 -44 -97 -77t-41 -61h336l-19 -119h-488z" />
    <glyph glyph-name="three.cap" horiz-adv-x="584" 
d="M45 505q5 34 20 68.5t43.5 62.5t72 45.5t104.5 17.5q59 0 102.5 -15t72.5 -40t43 -58.5t14 -69.5q0 -30 -7 -52t-19 -38.5t-27.5 -28t-33.5 -20.5v-2q18 -6 37.5 -18.5t36 -32t27 -48t10.5 -67.5q0 -41 -13.5 -80.5t-44.5 -71t-80 -51t-121 -18.5q-61 1 -106.5 18.5
t-77 46t-48 64.5t-19.5 75h142q4 -18 12 -34t21.5 -29t33.5 -20.5t48 -7.5q54 0 81 28.5t27 76.5q0 24 -5.5 44.5t-19.5 34.5t-37 22t-59 8h-50v110h47q52 0 77 17t25 61q0 35 -21 59.5t-69 24.5q-27 0 -45 -7.5t-29 -19.5t-17 -26.5t-9 -28.5h-139z" />
    <glyph glyph-name="four.cap" horiz-adv-x="589" 
d="M347 0v163h-313v123l289 403h162v-413h83l-14 -113h-69v-163h-138zM347 404v51v42t0.5 35t1.5 32q-10 -22 -33.5 -57.5t-51 -76t-56 -81.5t-47.5 -73h186v128z" />
    <glyph glyph-name="five.cap" horiz-adv-x="597" 
d="M517 572h-285q-4 -38 -9 -76t-9 -60q19 16 48.5 26t77.5 10t87.5 -16.5t68 -47t44.5 -73t16 -93.5q0 -54 -16 -100.5t-48.5 -80.5t-81.5 -53.5t-114 -19.5q-50 0 -93 13t-76 38.5t-54 62t-28 84.5h143q8 -33 34.5 -58.5t75.5 -25.5q60 0 86 35t26 93q0 24 -5.5 47
t-18 41.5t-34 29.5t-53.5 11q-51 0 -74 -21t-35 -52l-132 20q7 31 15 81.5t15.5 105.5t14 108t9.5 88h423z" />
    <glyph glyph-name="six.cap" horiz-adv-x="604" 
d="M407 523q-3 13 -9 25t-17 21.5t-27.5 15t-39.5 5.5q-36 0 -59.5 -17t-37.5 -44.5t-20.5 -62t-7.5 -68.5q22 27 59 47.5t100 20.5q48 0 88 -16t68.5 -46t44.5 -72t16 -93q0 -54 -16 -99.5t-48 -79.5t-79.5 -53t-110.5 -19q-74 0 -124.5 25.5t-82 71t-45.5 109.5t-14 141
q0 57 11.5 121t42 118t83.5 89.5t136 35.5q58 0 99.5 -15.5t68.5 -40.5t41.5 -56.5t19.5 -63.5h-140zM310 103q54 0 82 33.5t28 91.5q0 25 -5.5 47.5t-18.5 39.5t-34 27t-52 10q-49 0 -79 -27.5t-30 -89.5q0 -25 6 -48.5t19.5 -42t34 -30t49.5 -11.5z" />
    <glyph glyph-name="seven.cap" horiz-adv-x="517" 
d="M498 689v-107q-86 -121 -149 -265.5t-92 -316.5h-161q12 83 39 165.5t61.5 157.5t73 139t75.5 109h-326v118h479z" />
    <glyph glyph-name="eight.cap" horiz-adv-x="612" 
d="M299 -12q-53 0 -99.5 13.5t-81.5 40t-55.5 66t-20.5 92.5q0 36 10.5 62.5t26.5 46t35.5 33t37.5 22.5q-40 22 -60.5 58.5t-20.5 84.5q0 40 16 75.5t46.5 61t75 40.5t101.5 15q53 0 96.5 -14t74 -39t47 -60t16.5 -76q0 -57 -25 -90t-58 -50q18 -8 37.5 -21t35.5 -33
t26 -47.5t10 -62.5q0 -56 -20.5 -97t-56.5 -68t-85.5 -40t-108.5 -13zM308 101q54 0 85 26t31 77t-31 76.5t-87 25.5q-62 0 -89.5 -27t-27.5 -71q0 -49 31 -78t88 -29zM307 588q-51 0 -75 -22t-24 -64q0 -35 25 -58t75 -23q49 0 73.5 21t24.5 58q0 42 -25.5 65t-73.5 23z
" />
    <glyph glyph-name="nine.cap" horiz-adv-x="600" 
d="M194 165q11 -33 34 -49.5t61 -16.5q35 0 57.5 17t35.5 45t18.5 64t7.5 74q-25 -29 -62.5 -42t-83.5 -13q-51 0 -92 15.5t-70 44t-45 69.5t-16 91q0 49 17.5 92t50 74.5t78.5 50t104 18.5q70 0 120.5 -24t82 -66.5t46.5 -102t15 -129.5q0 -67 -10.5 -136t-40 -125.5
t-82.5 -92t-139 -35.5q-54 0 -95 14t-69 38t-44.5 56.5t-21.5 68.5h143zM293 590q-49 0 -78.5 -31t-29.5 -88q0 -59 30 -89t79 -30q51 0 77.5 26.5t26.5 87.5q0 22 -4 44t-15.5 40t-32 29t-53.5 11z" />
    <glyph glyph-name="zero.sups" horiz-adv-x="411" 
d="M207 830q45 0 78 -15.5t54.5 -42.5t32 -64t10.5 -79q0 -101 -48 -153.5t-130 -52.5q-44 0 -76.5 15.5t-55 43t-33.5 64.5t-11 79t12 79.5t34.5 65.5t56 44t76.5 16zM205 743q-29 0 -46 -25.5t-17 -90.5t18.5 -91t45.5 -26q32 0 48 27t16 90q0 65 -17 90.5t-48 25.5z" />
    <glyph glyph-name="four.sups" horiz-adv-x="391" 
d="M217 428v93h-192v81l161 222h133v-224h58l-8 -79h-50v-93h-102zM217 600v49v20t0.5 25.5t1 26.5t0.5 22q-6 -11 -17 -28t-25 -36.5t-28.5 -40t-26.5 -38.5h95z" />
    <glyph glyph-name="five.sups" horiz-adv-x="395" 
d="M333 740h-181q-2 -14 -5.5 -32t-5.5 -32q12 8 32 14t52 6q61 0 100.5 -33t39.5 -95q0 -30 -11 -56.5t-32.5 -46t-52.5 -30.5t-70 -11q-43 0 -73.5 11.5t-51 29t-30.5 38.5t-13 40h110q4 -13 15.5 -25.5t42.5 -12.5q29 0 41.5 16.5t12.5 41.5q0 26 -14.5 41t-44.5 15
q-24 0 -38 -8.5t-21 -20.5l-99 13q4 22 9 51t10.5 60t10 60t7.5 51h274z" />
    <glyph glyph-name="six.sups" horiz-adv-x="399" 
d="M261 718q-5 14 -17.5 24.5t-38.5 10.5q-36 0 -52 -27.5t-17 -62.5q14 14 39.5 24.5t58.5 10.5q61 -1 100.5 -34.5t39.5 -96.5q0 -32 -12.5 -58t-34.5 -45.5t-52.5 -30t-67.5 -10.5q-82 0 -130.5 52t-48.5 146q0 40 10 77.5t31.5 66.5t56 47t82.5 18q38 0 65.5 -10.5
t46 -26.5t28.5 -36t12 -39h-99zM203 502q23 0 43 13.5t19 48.5q0 61 -63 61q-29 0 -45.5 -15t-16.5 -41q0 -24 14.5 -45.5t48.5 -21.5z" />
    <glyph glyph-name="seven.sups" horiz-adv-x="364" 
d="M337 825v-77q-53 -67 -88 -146.5t-60 -173.5h-119q9 41 25 84.5t36 84.5t43.5 77.5t46.5 65.5h-189v85h305z" />
    <glyph glyph-name="eight.sups" horiz-adv-x="389" 
d="M192 423q-42 0 -73.5 9.5t-52.5 26t-31.5 39t-10.5 47.5q0 33 18.5 55.5t47.5 34.5q-22 14 -34.5 35t-12.5 47q0 22 8.5 42.5t26.5 36.5t47.5 25t71.5 9q40 0 68.5 -10t46.5 -25.5t26.5 -35.5t8.5 -40q0 -31 -14.5 -49.5t-37.5 -29.5q31 -12 50.5 -35t19.5 -58
q0 -29 -13 -52t-36 -39t-55 -24.5t-69 -8.5zM195 495q32 0 47.5 14t15.5 36q0 26 -17 39t-48 13q-30 0 -45 -13.5t-15 -36.5t16.5 -37.5t45.5 -14.5zM195 759q-27 0 -38.5 -12.5t-11.5 -30.5q0 -46 51 -46q23 0 34.5 12t11.5 33q0 20 -10 32t-37 12z" />
    <glyph glyph-name="nine.sups" horiz-adv-x="397" 
d="M140 535q6 -15 17.5 -24t35.5 -9q32 0 48.5 26t17.5 69q-16 -15 -39.5 -21.5t-54.5 -6.5q-30 0 -55.5 8t-44 23.5t-29.5 38.5t-11 54q0 28 11 53t32.5 44t53 29.5t71.5 10.5q81 0 128.5 -50.5t47.5 -143.5q0 -44 -10 -83t-31.5 -67.5t-54.5 -45t-79 -16.5q-41 0 -70 10
t-48.5 26t-30 35.5t-13.5 39.5h108zM192 750q-23 0 -41.5 -12.5t-18.5 -41.5q0 -54 64 -54q23 0 41.5 11.5t18.5 37.5t-16 42.5t-48 16.5z" />
    <glyph glyph-name="parenleft.sups" horiz-adv-x="243" 
d="M211 875q-14 -22 -28.5 -48t-26 -56.5t-19 -67t-7.5 -80.5t7 -80t18.5 -66.5t26 -56.5t29.5 -48h-97q-12 15 -26 39t-26 55.5t-19.5 71t-7.5 85.5q0 47 7.5 86t19.5 70t26 55t26 41h97z" />
    <glyph glyph-name="parenright.sups" horiz-adv-x="243" 
d="M31 383q14 22 28.5 48t26 56.5t19 67.5t7.5 81q0 43 -7 79t-18.5 67t-26 56.5t-29.5 47.5h97q12 -15 25.5 -39t25.5 -55.5t19.5 -70.5t7.5 -85q0 -47 -7.5 -86t-19 -70.5t-25.5 -55.5t-26 -41h-97z" />
    <glyph glyph-name="period.sups" horiz-adv-x="188" 
d="M38 428v126h112v-126h-112z" />
    <glyph glyph-name="comma.sups" horiz-adv-x="181" 
d="M10 356q17 43 27 94t12 104h109q-2 -28 -7 -56t-12.5 -54t-16.5 -49t-19 -39h-93z" />
    <glyph glyph-name="dollar.sups" horiz-adv-x="418" 
d="M161 367v60q-65 9 -99 41.5t-41 76.5h113q6 -21 27.5 -33t56.5 -12q32 0 46 9.5t14 26.5q0 8 -3 14.5t-12.5 12t-26 10.5t-43.5 10q-47 8 -78 20t-50 27t-26.5 34t-7.5 42q0 20 7 39.5t23 36t40.5 28t59.5 16.5v46h91v-47q33 -6 55.5 -18t37.5 -27.5t22 -32.5t9 -33h-101
q-2 6 -6 13t-12 13.5t-21.5 10.5t-34.5 4q-36 0 -50 -10t-14 -24q0 -17 19 -24t70 -17q47 -9 78 -22t50 -29.5t26.5 -36t7.5 -41.5q0 -53 -35 -84.5t-101 -39.5v-60h-91z" />
    <glyph glyph-name="cent.sups" horiz-adv-x="417" 
d="M392 582q-9 -39 -37 -70t-85 -41v-56h-92v56q-69 11 -105 53.5t-36 100.5q0 65 39 106.5t102 52.5v47h92v-47q34 -6 57 -20t37 -30.5t20 -33t7 -28.5h-105q-5 18 -20.5 30.5t-46.5 12.5q-34 0 -54.5 -23t-20.5 -63q0 -35 19.5 -62t57.5 -27q28 0 43.5 11.5t22.5 30.5h105
z" />
    <glyph glyph-name="hyphen.sups" horiz-adv-x="241" 
d="M209 672v-93h-177v93h177z" />
    <glyph glyph-name="zero.subs" horiz-adv-x="411" 
d="M207 230q45 0 78 -15.5t54.5 -42.5t32 -64t10.5 -79q0 -101 -48 -153.5t-130 -52.5q-44 0 -76.5 15.5t-55 43t-33.5 64.5t-11 79t12 79.5t34.5 65.5t56 44t76.5 16zM205 143q-29 0 -46 -25.5t-17 -90.5t18.5 -91t45.5 -26q32 0 48 27t16 90q0 65 -17 90.5t-48 25.5z" />
    <glyph glyph-name="one.subs" horiz-adv-x="268" 
d="M96 -172v275q-14 -4 -36 -5.5t-36 -0.5v81q41 5 65.5 19t42.5 33h76v-402h-112z" />
    <glyph glyph-name="two.subs" horiz-adv-x="378" 
d="M35 -172v8q0 30 6.5 56.5t21 49.5t37.5 44.5t57 41.5q21 13 36 22t24 16.5t13 15.5t4 19q0 18 -10 31t-37 13q-24 0 -36.5 -15t-16.5 -38l-104 1q2 28 13.5 53t32 43.5t50 29.5t66.5 11q45 0 75 -12t47.5 -31t25 -41t7.5 -41q0 -24 -5.5 -42t-18 -33t-32.5 -28t-49 -28
q-9 -5 -21 -12.5t-23.5 -16t-21 -17.5t-13.5 -17h199l-14 -83h-313z" />
    <glyph glyph-name="three.subs" horiz-adv-x="390" 
d="M152 80h29q30 0 42.5 8t12.5 24q0 38 -50 38q-32 0 -43 -13.5t-16 -30.5h-98q1 15 8.5 36.5t25 41t48.5 33t79 13.5q39 0 68 -9t48 -24t28 -35.5t9 -43.5q0 -18 -5.5 -31t-14 -22t-18 -15t-17.5 -9q9 -3 22 -9t24 -17.5t19 -28t8 -40.5q0 -20 -7.5 -41.5t-26.5 -39.5
t-51.5 -29.5t-82.5 -11.5q-54 0 -87 14.5t-51.5 35t-25 42.5t-7.5 37h105q5 -19 20 -34t47 -15q26 0 40.5 12t14.5 32q0 25 -16 34.5t-44 9.5h-37v88z" />
    <glyph glyph-name="four.subs" horiz-adv-x="391" 
d="M217 -172v93h-192v81l161 222h133v-224h58l-8 -79h-50v-93h-102zM217 0v49v20t0.5 25.5t1 26.5t0.5 22q-6 -11 -17 -28t-25 -36.5t-28.5 -40t-26.5 -38.5h95z" />
    <glyph glyph-name="five.subs" horiz-adv-x="395" 
d="M333 140h-181q-2 -14 -5.5 -32t-5.5 -32q12 8 32 14t52 6q61 0 100.5 -33t39.5 -95q0 -30 -11 -56.5t-32.5 -46t-52.5 -30.5t-70 -11q-43 0 -73.5 11.5t-51 29t-30.5 38.5t-13 40h110q4 -13 15.5 -25.5t42.5 -12.5q29 0 41.5 16.5t12.5 41.5q0 26 -14.5 41t-44.5 15
q-24 0 -38 -8.5t-21 -20.5l-99 13q4 22 9 51t10.5 60t10 60t7.5 51h274z" />
    <glyph glyph-name="six.subs" horiz-adv-x="399" 
d="M261 118q-5 14 -17.5 24.5t-38.5 10.5q-36 0 -52 -27.5t-17 -62.5q14 14 39.5 24.5t58.5 10.5q61 -1 100.5 -34.5t39.5 -96.5q0 -32 -12.5 -58t-34.5 -45.5t-52.5 -30t-67.5 -10.5q-82 0 -130.5 52t-48.5 146q0 40 10 77.5t31.5 66.5t56 47t82.5 18q38 0 65.5 -10.5
t46 -26.5t28.5 -36t12 -39h-99zM203 -98q23 0 43 13.5t19 48.5q0 61 -63 61q-29 0 -45.5 -15t-16.5 -41q0 -24 14.5 -45.5t48.5 -21.5z" />
    <glyph glyph-name="seven.subs" horiz-adv-x="364" 
d="M337 225v-77q-53 -67 -88 -146.5t-60 -173.5h-119q9 41 25 84.5t36 84.5t43.5 77.5t46.5 65.5h-189v85h305z" />
    <glyph glyph-name="eight.subs" horiz-adv-x="389" 
d="M192 -177q-42 0 -73.5 9.5t-52.5 26t-31.5 39t-10.5 47.5q0 33 18.5 55.5t47.5 34.5q-22 14 -34.5 35t-12.5 47q0 22 8.5 42.5t26.5 36.5t47.5 25t71.5 9q40 0 68.5 -10t46.5 -25.5t26.5 -35.5t8.5 -40q0 -31 -14.5 -49.5t-37.5 -29.5q31 -12 50.5 -35t19.5 -58
q0 -29 -13 -52t-36 -39t-55 -24.5t-69 -8.5zM195 -105q32 0 47.5 14t15.5 36q0 26 -17 39t-48 13q-30 0 -45 -13.5t-15 -36.5t16.5 -37.5t45.5 -14.5zM195 159q-27 0 -38.5 -12.5t-11.5 -30.5q0 -46 51 -46q23 0 34.5 12t11.5 33q0 20 -10 32t-37 12z" />
    <glyph glyph-name="nine.subs" horiz-adv-x="397" 
d="M140 -65q6 -15 17.5 -24t35.5 -9q32 0 48.5 26t17.5 69q-16 -15 -39.5 -21.5t-54.5 -6.5q-30 0 -55.5 8t-44 23.5t-29.5 38.5t-11 54q0 28 11 53t32.5 44t53 29.5t71.5 10.5q81 0 128.5 -50.5t47.5 -143.5q0 -44 -10 -83t-31.5 -67.5t-54.5 -45t-79 -16.5q-41 0 -70 10
t-48.5 26t-30 35.5t-13.5 39.5h108zM192 150q-23 0 -41.5 -12.5t-18.5 -41.5q0 -54 64 -54q23 0 41.5 11.5t18.5 37.5t-16 42.5t-48 16.5z" />
    <glyph glyph-name="parenleft.subs" horiz-adv-x="243" 
d="M211 275q-14 -22 -28.5 -48t-26 -56.5t-19 -67t-7.5 -80.5t7 -80t18.5 -66.5t26 -56.5t29.5 -48h-97q-12 15 -26 39t-26 55.5t-19.5 71t-7.5 85.5q0 47 7.5 86t19.5 70t26 55t26 41h97z" />
    <glyph glyph-name="parenright.subs" horiz-adv-x="243" 
d="M31 -217q14 22 28.5 48t26 56.5t19 67.5t7.5 81q0 43 -7 79t-18.5 67t-26 56.5t-29.5 47.5h97q12 -15 25.5 -39t25.5 -55.5t19.5 -70.5t7.5 -85q0 -47 -7.5 -86t-19 -70.5t-25.5 -55.5t-26 -41h-97z" />
    <glyph glyph-name="period.subs" horiz-adv-x="188" 
d="M38 -172v126h112v-126h-112z" />
    <glyph glyph-name="comma.subs" horiz-adv-x="181" 
d="M10 -244q17 43 27 94t12 104h109q-2 -28 -7 -56t-12.5 -54t-16.5 -49t-19 -39h-93z" />
    <glyph glyph-name="dollar.subs" horiz-adv-x="418" 
d="M161 -233v60q-65 9 -99 41.5t-41 76.5h113q6 -21 27.5 -33t56.5 -12q32 0 46 9.5t14 26.5q0 8 -3 14.5t-12.5 12t-26 10.5t-43.5 10q-47 8 -78 20t-50 27t-26.5 34t-7.5 42q0 20 7 39.5t23 36t40.5 28t59.5 16.5v46h91v-47q33 -6 55.5 -18t37.5 -27.5t22 -32.5t9 -33
h-101q-2 6 -6 13t-12 13.5t-21.5 10.5t-34.5 4q-36 0 -50 -10t-14 -24q0 -17 19 -24t70 -17q47 -9 78 -22t50 -29.5t26.5 -36t7.5 -41.5q0 -53 -35 -84.5t-101 -39.5v-60h-91z" />
    <glyph glyph-name="cent.subs" horiz-adv-x="417" 
d="M392 -18q-9 -39 -37 -70t-85 -41v-56h-92v56q-69 11 -105 53.5t-36 100.5q0 65 39 106.5t102 52.5v47h92v-47q34 -6 57 -20t37 -30.5t20 -33t7 -28.5h-105q-5 18 -20.5 30.5t-46.5 12.5q-34 0 -54.5 -23t-20.5 -63q0 -35 19.5 -62t57.5 -27q28 0 43.5 11.5t22.5 30.5h105
z" />
    <glyph glyph-name="hyphen.subs" horiz-adv-x="241" 
d="M209 72v-93h-177v93h177z" />
    <glyph glyph-name="zero.numr" horiz-adv-x="411" 
d="M207 663q45 0 78 -15.5t54.5 -42.5t32 -64t10.5 -79q0 -101 -48 -153.5t-130 -52.5q-44 0 -76.5 15.5t-55 43t-33.5 64.5t-11 79t12 79.5t34.5 65.5t56 44t76.5 16zM205 576q-29 0 -46 -25.5t-17 -90.5t18.5 -91t45.5 -26q32 0 48 27t16 90q0 65 -17 90.5t-48 25.5z" />
    <glyph glyph-name="one.numr" horiz-adv-x="268" 
d="M96 261v275q-14 -4 -36 -5.5t-36 -0.5v81q41 5 65.5 19t42.5 33h76v-402h-112z" />
    <glyph glyph-name="two.numr" horiz-adv-x="378" 
d="M35 261v8q0 30 6.5 56.5t21 49.5t37.5 44.5t57 41.5q21 13 36 22t24 16.5t13 15.5t4 19q0 18 -10 31t-37 13q-24 0 -36.5 -15t-16.5 -38l-104 1q2 28 13.5 53t32 43.5t50 29.5t66.5 11q45 0 75 -12t47.5 -31t25 -41t7.5 -41q0 -24 -5.5 -42t-18 -33t-32.5 -28t-49 -28
q-9 -5 -21 -12.5t-23.5 -16t-21 -17.5t-13.5 -17h199l-14 -83h-313z" />
    <glyph glyph-name="three.numr" horiz-adv-x="390" 
d="M152 513h29q30 0 42.5 8t12.5 24q0 38 -50 38q-32 0 -43 -13.5t-16 -30.5h-98q1 15 8.5 36.5t25 41t48.5 33t79 13.5q39 0 68 -9t48 -24t28 -35.5t9 -43.5q0 -18 -5.5 -31t-14 -22t-18 -15t-17.5 -9q9 -3 22 -9t24 -17.5t19 -28t8 -40.5q0 -20 -7.5 -41.5t-26.5 -39.5
t-51.5 -29.5t-82.5 -11.5q-54 0 -87 14.5t-51.5 35t-25 42.5t-7.5 37h105q5 -19 20 -34t47 -15q26 0 40.5 12t14.5 32q0 25 -16 34.5t-44 9.5h-37v88z" />
    <glyph glyph-name="four.numr" horiz-adv-x="391" 
d="M217 261v93h-192v81l161 222h133v-224h58l-8 -79h-50v-93h-102zM217 433v49v20t0.5 25.5t1 26.5t0.5 22q-6 -11 -17 -28t-25 -36.5t-28.5 -40t-26.5 -38.5h95z" />
    <glyph glyph-name="five.numr" horiz-adv-x="395" 
d="M333 573h-181q-2 -14 -5.5 -32t-5.5 -32q12 8 32 14t52 6q61 0 100.5 -33t39.5 -95q0 -30 -11 -56.5t-32.5 -46t-52.5 -30.5t-70 -11q-43 0 -73.5 11.5t-51 29t-30.5 38.5t-13 40h110q4 -13 15.5 -25.5t42.5 -12.5q29 0 41.5 16.5t12.5 41.5q0 26 -14.5 41t-44.5 15
q-24 0 -38 -8.5t-21 -20.5l-99 13q4 22 9 51t10.5 60t10 60t7.5 51h274z" />
    <glyph glyph-name="six.numr" horiz-adv-x="399" 
d="M261 551q-5 14 -17.5 24.5t-38.5 10.5q-36 0 -52 -27.5t-17 -62.5q14 14 39.5 24.5t58.5 10.5q61 -1 100.5 -34.5t39.5 -96.5q0 -32 -12.5 -58t-34.5 -45.5t-52.5 -30t-67.5 -10.5q-82 0 -130.5 52t-48.5 146q0 40 10 77.5t31.5 66.5t56 47t82.5 18q38 0 65.5 -10.5
t46 -26.5t28.5 -36t12 -39h-99zM203 335q23 0 43 13.5t19 48.5q0 61 -63 61q-29 0 -45.5 -15t-16.5 -41q0 -24 14.5 -45.5t48.5 -21.5z" />
    <glyph glyph-name="seven.numr" horiz-adv-x="364" 
d="M337 658v-77q-53 -67 -88 -146.5t-60 -173.5h-119q9 41 25 84.5t36 84.5t43.5 77.5t46.5 65.5h-189v85h305z" />
    <glyph glyph-name="eight.numr" horiz-adv-x="389" 
d="M192 256q-42 0 -73.5 9.5t-52.5 26t-31.5 39t-10.5 47.5q0 33 18.5 55.5t47.5 34.5q-22 14 -34.5 35t-12.5 47q0 22 8.5 42.5t26.5 36.5t47.5 25t71.5 9q40 0 68.5 -10t46.5 -25.5t26.5 -35.5t8.5 -40q0 -31 -14.5 -49.5t-37.5 -29.5q31 -12 50.5 -35t19.5 -58
q0 -29 -13 -52t-36 -39t-55 -24.5t-69 -8.5zM195 328q32 0 47.5 14t15.5 36q0 26 -17 39t-48 13q-30 0 -45 -13.5t-15 -36.5t16.5 -37.5t45.5 -14.5zM195 592q-27 0 -38.5 -12.5t-11.5 -30.5q0 -46 51 -46q23 0 34.5 12t11.5 33q0 20 -10 32t-37 12z" />
    <glyph glyph-name="nine.numr" horiz-adv-x="397" 
d="M140 368q6 -15 17.5 -24t35.5 -9q32 0 48.5 26t17.5 69q-16 -15 -39.5 -21.5t-54.5 -6.5q-30 0 -55.5 8t-44 23.5t-29.5 38.5t-11 54q0 28 11 53t32.5 44t53 29.5t71.5 10.5q81 0 128.5 -50.5t47.5 -143.5q0 -44 -10 -83t-31.5 -67.5t-54.5 -45t-79 -16.5q-41 0 -70 10
t-48.5 26t-30 35.5t-13.5 39.5h108zM192 583q-23 0 -41.5 -12.5t-18.5 -41.5q0 -54 64 -54q23 0 41.5 11.5t18.5 37.5t-16 42.5t-48 16.5z" />
    <glyph glyph-name="parenleft.numr" horiz-adv-x="243" 
d="M211 708q-14 -22 -28.5 -48t-26 -56.5t-19 -67t-7.5 -80.5t7 -80t18.5 -66.5t26 -56.5t29.5 -48h-97q-12 15 -26 39t-26 55.5t-19.5 71t-7.5 85.5q0 47 7.5 86t19.5 70t26 55t26 41h97z" />
    <glyph glyph-name="parenright.numr" horiz-adv-x="243" 
d="M31 216q14 22 28.5 48t26 56.5t19 67.5t7.5 81q0 43 -7 79t-18.5 67t-26 56.5t-29.5 47.5h97q12 -15 25.5 -39t25.5 -55.5t19.5 -70.5t7.5 -85q0 -47 -7.5 -86t-19 -70.5t-25.5 -55.5t-26 -41h-97z" />
    <glyph glyph-name="period.numr" horiz-adv-x="188" 
d="M38 261v126h112v-126h-112z" />
    <glyph glyph-name="comma.numr" horiz-adv-x="181" 
d="M10 189q17 43 27 94t12 104h109q-2 -28 -7 -56t-12.5 -54t-16.5 -49t-19 -39h-93z" />
    <glyph glyph-name="dollar.numr" horiz-adv-x="418" 
d="M161 200v60q-65 9 -99 41.5t-41 76.5h113q6 -21 27.5 -33t56.5 -12q32 0 46 9.5t14 26.5q0 8 -3 14.5t-12.5 12t-26 10.5t-43.5 10q-47 8 -78 20t-50 27t-26.5 34t-7.5 42q0 20 7 39.5t23 36t40.5 28t59.5 16.5v46h91v-47q33 -6 55.5 -18t37.5 -27.5t22 -32.5t9 -33h-101
q-2 6 -6 13t-12 13.5t-21.5 10.5t-34.5 4q-36 0 -50 -10t-14 -24q0 -17 19 -24t70 -17q47 -9 78 -22t50 -29.5t26.5 -36t7.5 -41.5q0 -53 -35 -84.5t-101 -39.5v-60h-91z" />
    <glyph glyph-name="cent.numr" horiz-adv-x="417" 
d="M392 415q-9 -39 -37 -70t-85 -41v-56h-92v56q-69 11 -105 53.5t-36 100.5q0 65 39 106.5t102 52.5v47h92v-47q34 -6 57 -20t37 -30.5t20 -33t7 -28.5h-105q-5 18 -20.5 30.5t-46.5 12.5q-34 0 -54.5 -23t-20.5 -63q0 -35 19.5 -62t57.5 -27q28 0 43.5 11.5t22.5 30.5h105
z" />
    <glyph glyph-name="hyphen.numr" horiz-adv-x="241" 
d="M209 505v-93h-177v93h177z" />
    <glyph glyph-name="zero.dnom" horiz-adv-x="411" 
d="M207 402q45 0 78 -15.5t54.5 -42.5t32 -64t10.5 -79q0 -101 -48 -153.5t-130 -52.5q-44 0 -76.5 15.5t-55 43t-33.5 64.5t-11 79t12 79.5t34.5 65.5t56 44t76.5 16zM205 315q-29 0 -46 -25.5t-17 -90.5t18.5 -91t45.5 -26q32 0 48 27t16 90q0 65 -17 90.5t-48 25.5z" />
    <glyph glyph-name="one.dnom" horiz-adv-x="268" 
d="M96 0v275q-14 -4 -36 -5.5t-36 -0.5v81q41 5 65.5 19t42.5 33h76v-402h-112z" />
    <glyph glyph-name="two.dnom" horiz-adv-x="378" 
d="M35 0v8q0 30 6.5 56.5t21 49.5t37.5 44.5t57 41.5q21 13 36 22t24 16.5t13 15.5t4 19q0 18 -10 31t-37 13q-24 0 -36.5 -15t-16.5 -38l-104 1q2 28 13.5 53t32 43.5t50 29.5t66.5 11q45 0 75 -12t47.5 -31t25 -41t7.5 -41q0 -24 -5.5 -42t-18 -33t-32.5 -28t-49 -28
q-9 -5 -21 -12.5t-23.5 -16t-21 -17.5t-13.5 -17h199l-14 -83h-313z" />
    <glyph glyph-name="three.dnom" horiz-adv-x="390" 
d="M152 252h29q30 0 42.5 8t12.5 24q0 38 -50 38q-32 0 -43 -13.5t-16 -30.5h-98q1 15 8.5 36.5t25 41t48.5 33t79 13.5q39 0 68 -9t48 -24t28 -35.5t9 -43.5q0 -18 -5.5 -31t-14 -22t-18 -15t-17.5 -9q9 -3 22 -9t24 -17.5t19 -28t8 -40.5q0 -20 -7.5 -41.5t-26.5 -39.5
t-51.5 -29.5t-82.5 -11.5q-54 0 -87 14.5t-51.5 35t-25 42.5t-7.5 37h105q5 -19 20 -34t47 -15q26 0 40.5 12t14.5 32q0 25 -16 34.5t-44 9.5h-37v88z" />
    <glyph glyph-name="four.dnom" horiz-adv-x="391" 
d="M217 0v93h-192v81l161 222h133v-224h58l-8 -79h-50v-93h-102zM217 172v49v20t0.5 25.5t1 26.5t0.5 22q-6 -11 -17 -28t-25 -36.5t-28.5 -40t-26.5 -38.5h95z" />
    <glyph glyph-name="five.dnom" horiz-adv-x="395" 
d="M333 312h-181q-2 -14 -5.5 -32t-5.5 -32q12 8 32 14t52 6q61 0 100.5 -33t39.5 -95q0 -30 -11 -56.5t-32.5 -46t-52.5 -30.5t-70 -11q-43 0 -73.5 11.5t-51 29t-30.5 38.5t-13 40h110q4 -13 15.5 -25.5t42.5 -12.5q29 0 41.5 16.5t12.5 41.5q0 26 -14.5 41t-44.5 15
q-24 0 -38 -8.5t-21 -20.5l-99 13q4 22 9 51t10.5 60t10 60t7.5 51h274z" />
    <glyph glyph-name="six.dnom" horiz-adv-x="399" 
d="M261 290q-5 14 -17.5 24.5t-38.5 10.5q-36 0 -52 -27.5t-17 -62.5q14 14 39.5 24.5t58.5 10.5q61 -1 100.5 -34.5t39.5 -96.5q0 -32 -12.5 -58t-34.5 -45.5t-52.5 -30t-67.5 -10.5q-82 0 -130.5 52t-48.5 146q0 40 10 77.5t31.5 66.5t56 47t82.5 18q38 0 65.5 -10.5
t46 -26.5t28.5 -36t12 -39h-99zM203 74q23 0 43 13.5t19 48.5q0 61 -63 61q-29 0 -45.5 -15t-16.5 -41q0 -24 14.5 -45.5t48.5 -21.5z" />
    <glyph glyph-name="seven.dnom" horiz-adv-x="364" 
d="M337 397v-77q-53 -67 -88 -146.5t-60 -173.5h-119q9 41 25 84.5t36 84.5t43.5 77.5t46.5 65.5h-189v85h305z" />
    <glyph glyph-name="eight.dnom" horiz-adv-x="389" 
d="M192 -5q-42 0 -73.5 9.5t-52.5 26t-31.5 39t-10.5 47.5q0 33 18.5 55.5t47.5 34.5q-22 14 -34.5 35t-12.5 47q0 22 8.5 42.5t26.5 36.5t47.5 25t71.5 9q40 0 68.5 -10t46.5 -25.5t26.5 -35.5t8.5 -40q0 -31 -14.5 -49.5t-37.5 -29.5q31 -12 50.5 -35t19.5 -58
q0 -29 -13 -52t-36 -39t-55 -24.5t-69 -8.5zM195 67q32 0 47.5 14t15.5 36q0 26 -17 39t-48 13q-30 0 -45 -13.5t-15 -36.5t16.5 -37.5t45.5 -14.5zM195 331q-27 0 -38.5 -12.5t-11.5 -30.5q0 -46 51 -46q23 0 34.5 12t11.5 33q0 20 -10 32t-37 12z" />
    <glyph glyph-name="nine.dnom" horiz-adv-x="397" 
d="M140 107q6 -15 17.5 -24t35.5 -9q32 0 48.5 26t17.5 69q-16 -15 -39.5 -21.5t-54.5 -6.5q-30 0 -55.5 8t-44 23.5t-29.5 38.5t-11 54q0 28 11 53t32.5 44t53 29.5t71.5 10.5q81 0 128.5 -50.5t47.5 -143.5q0 -44 -10 -83t-31.5 -67.5t-54.5 -45t-79 -16.5q-41 0 -70 10
t-48.5 26t-30 35.5t-13.5 39.5h108zM192 322q-23 0 -41.5 -12.5t-18.5 -41.5q0 -54 64 -54q23 0 41.5 11.5t18.5 37.5t-16 42.5t-48 16.5z" />
    <glyph glyph-name="parenleft.dnom" horiz-adv-x="243" 
d="M211 447q-14 -22 -28.5 -48t-26 -56.5t-19 -67t-7.5 -80.5t7 -80t18.5 -66.5t26 -56.5t29.5 -48h-97q-12 15 -26 39t-26 55.5t-19.5 71t-7.5 85.5q0 47 7.5 86t19.5 70t26 55t26 41h97z" />
    <glyph glyph-name="parenright.dnom" horiz-adv-x="243" 
d="M31 -45q14 22 28.5 48t26 56.5t19 67.5t7.5 81q0 43 -7 79t-18.5 67t-26 56.5t-29.5 47.5h97q12 -15 25.5 -39t25.5 -55.5t19.5 -70.5t7.5 -85q0 -47 -7.5 -86t-19 -70.5t-25.5 -55.5t-26 -41h-97z" />
    <glyph glyph-name="period.dnom" horiz-adv-x="188" 
d="M38 0v126h112v-126h-112z" />
    <glyph glyph-name="comma.dnom" horiz-adv-x="181" 
d="M10 -72q17 43 27 94t12 104h109q-2 -28 -7 -56t-12.5 -54t-16.5 -49t-19 -39h-93z" />
    <glyph glyph-name="dollar.dnom" horiz-adv-x="418" 
d="M161 -61v60q-65 9 -99 41.5t-41 76.5h113q6 -21 27.5 -33t56.5 -12q32 0 46 9.5t14 26.5q0 8 -3 14.5t-12.5 12t-26 10.5t-43.5 10q-47 8 -78 20t-50 27t-26.5 34t-7.5 42q0 20 7 39.5t23 36t40.5 28t59.5 16.5v46h91v-47q33 -6 55.5 -18t37.5 -27.5t22 -32.5t9 -33h-101
q-2 6 -6 13t-12 13.5t-21.5 10.5t-34.5 4q-36 0 -50 -10t-14 -24q0 -17 19 -24t70 -17q47 -9 78 -22t50 -29.5t26.5 -36t7.5 -41.5q0 -53 -35 -84.5t-101 -39.5v-60h-91z" />
    <glyph glyph-name="cent.dnom" horiz-adv-x="417" 
d="M392 154q-9 -39 -37 -70t-85 -41v-56h-92v56q-69 11 -105 53.5t-36 100.5q0 65 39 106.5t102 52.5v47h92v-47q34 -6 57 -20t37 -30.5t20 -33t7 -28.5h-105q-5 18 -20.5 30.5t-46.5 12.5q-34 0 -54.5 -23t-20.5 -63q0 -35 19.5 -62t57.5 -27q28 0 43.5 11.5t22.5 30.5h105
z" />
    <glyph glyph-name="hyphen.dnom" horiz-adv-x="241" 
d="M209 244v-93h-177v93h177z" />
    <glyph glyph-name="a.sups" horiz-adv-x="378" 
d="M335 350v-45t1 -44l-100 -1q-2 10 -2 18t-1 17q-30 -41 -95 -41q-55 0 -86.5 29.5t-31.5 76.5q0 60 42 86t120 26h46v17q0 7 -1.5 15t-6 14.5t-13.5 10.5t-24 4q-27 0 -35.5 -11.5t-10.5 -27.5h-102q2 18 9.5 36.5t24.5 34.5t45.5 26t71.5 10q48 0 77 -11t45 -28.5
t21.5 -38.5t5.5 -41v-132zM231 409h-37q-31 0 -48.5 -8t-17.5 -30q0 -15 10 -26.5t33 -11.5q29 0 44.5 16.5t15.5 50.5v9z" />
    <glyph glyph-name="b.sups" horiz-adv-x="406" 
d="M40 733h105v-175q4 6 11 13t19 14t29 11.5t40 4.5q25 0 49 -9.5t43.5 -30t31.5 -51.5t12 -74q0 -49 -13.5 -83t-34.5 -55.5t-47.5 -31.5t-53.5 -10q-38 0 -57 12t-29 25v-32h-105v472zM272 432q0 46 -17.5 65.5t-47.5 19.5q-35 0 -50 -22t-15 -67q0 -40 14 -65t49 -25
q33 0 50 25.5t17 68.5z" />
    <glyph glyph-name="c.sups" horiz-adv-x="367" 
d="M350 376q-5 -25 -16.5 -47t-30.5 -38.5t-46.5 -26t-63.5 -9.5q-43 0 -74.5 14t-52.5 38t-31 55t-10 64q0 37 11.5 69.5t33.5 55.5t53.5 36.5t71.5 13.5q41 0 70 -12.5t47.5 -31t27 -40t9.5 -40.5h-100q-5 23 -17 35t-38 12q-29 0 -44.5 -24.5t-15.5 -70.5q0 -17 3 -34.5
t10.5 -31.5t19.5 -23t31 -9q22 0 34.5 11t20.5 34h97z" />
    <glyph glyph-name="d.sups" horiz-adv-x="412" 
d="M367 733v-378q0 -30 0.5 -54t0.5 -40h-98q-1 7 -1.5 19.5t-0.5 22.5q-29 -48 -99 -48q-31 0 -57 11.5t-45.5 33.5t-30.5 54t-11 72q0 42 12.5 74.5t34 55t49.5 34t60 11.5q34 0 53 -8t28 -19v159h105zM134 426q0 -39 17.5 -63t47.5 -24q29 0 47.5 19t18.5 72
q0 27 -4.5 44t-13 26.5t-20 13t-25.5 3.5q-32 0 -50 -23t-18 -68z" />
    <glyph glyph-name="e.sups" horiz-adv-x="379" 
d="M131 406q2 -30 18 -51t50 -21q25 0 38.5 8t20.5 22h96q-13 -47 -51.5 -77.5t-108.5 -30.5q-45 0 -77 14.5t-52.5 38.5t-30 54.5t-9.5 62.5q0 33 10.5 64.5t31.5 56.5t53 40t74 15q43 0 74 -14t50.5 -37t28.5 -52t9 -58v-19t-2 -16h-223zM254 465q0 13 -3 25t-10 21
t-18.5 14.5t-28.5 5.5q-30 0 -45 -19t-17 -47h122z" />
    <glyph glyph-name="f.sups" horiz-adv-x="205" 
d="M48 261v257h-45v76h45v23q0 54 29.5 88t90.5 34q16 0 26 -1t18 -3v-80q-7 2 -13.5 2h-11.5q-20 0 -28 -10.5t-8 -33.5v-19h57v-76h-57v-257h-103z" />
    <glyph glyph-name="g.sups" horiz-adv-x="409" 
d="M365 295q0 -86 -40.5 -129.5t-133.5 -43.5q-44 0 -73.5 10.5t-48 27t-27 36.5t-11.5 38h105q5 -13 16 -24.5t40 -11.5q38 0 54 19t16 57v27q-27 -37 -92 -37q-30 0 -56.5 11.5t-45.5 32.5t-30 51t-11 68t11.5 69.5t31 54t45.5 35t56 13.5q34 1 60 -8.5t38 -29.5
q0 6 0.5 16t1.5 15h96q-1 -16 -1.5 -39.5t-0.5 -58.5v-199zM135 430q0 -34 16 -59t48 -25q37 0 51 23t14 66q0 47 -17 65t-47 18q-65 0 -65 -88z" />
    <glyph glyph-name="h.sups" horiz-adv-x="404" 
d="M40 733h105v-173q17 18 39.5 29.5t60.5 11.5q24 0 45 -7.5t37.5 -23.5t26 -41t9.5 -60v-208h-104v189q0 29 -10.5 47t-40.5 18q-32 0 -47.5 -19t-15.5 -62v-173h-105v472z" />
    <glyph glyph-name="i.sups" horiz-adv-x="186" 
d="M40 261v333h105v-333h-105zM40 649v84h105v-84h-105z" />
    <glyph glyph-name="j.sups" horiz-adv-x="188" 
d="M0 211h4q23 0 31.5 13.5t8.5 37.5v332h104v-324q0 -70 -29.5 -109t-103.5 -39h-15v89zM44 649v84h104v-84h-104z" />
    <glyph glyph-name="k.sups" horiz-adv-x="376" 
d="M143 456q10 13 24 30.5t29 36.5t29.5 37.5t26.5 33.5h118q-30 -33 -58.5 -65t-57.5 -64l128 -204h-119l-82 146q-8 -10 -19 -21.5t-19 -20.5v-104h-103v472h103v-277z" />
    <glyph glyph-name="l.sups" horiz-adv-x="185" 
d="M40 261v472h105v-472h-105z" />
    <glyph glyph-name="m.sups" horiz-adv-x="602" 
d="M463 261v192q0 24 -10 43t-41 19q-29 0 -43.5 -18t-14.5 -57v-179h-105v198q0 21 -9 38.5t-38 17.5q-30 0 -43.5 -20t-13.5 -58v-176h-105v228v41v27t-0.5 19t-0.5 18h104q1 -4 1.5 -18.5t0.5 -22.5q12 19 36.5 33.5t62.5 14.5t60 -15t33 -39q6 9 16 18.5t23.5 17.5
t30.5 13t39 5q49 0 82 -30t33 -102v-208h-98z" />
    <glyph glyph-name="n.sups" horiz-adv-x="403" 
d="M40 486q0 42 -0.5 68.5t-1.5 39.5h102q1 -5 2 -16.5t2 -26.5l12.5 15t19.5 16.5t28.5 13t39.5 5.5q19 0 40.5 -5.5t38.5 -20.5t28.5 -40.5t11.5 -64.5v-209h-104v191q0 26 -11 44.5t-41 18.5q-27 0 -44.5 -16t-17.5 -61v-177h-105v225z" />
    <glyph glyph-name="o.sups" horiz-adv-x="401" 
d="M203 601q41 0 73.5 -13t54.5 -36t33 -54.5t11 -69.5q-1 -85 -51 -129t-126 -44q-38 0 -69.5 12t-54.5 34.5t-36 54t-13 70.5q0 80 47.5 127.5t130.5 47.5zM200 524q-32 0 -49 -23.5t-17 -72.5q0 -45 17.5 -71t48.5 -26q33 0 51 24t18 75q-1 44 -17.5 69t-51.5 25z" />
    <glyph glyph-name="p.sups" horiz-adv-x="406" 
d="M40 133v366v57t-1 38h101q0 -5 1.5 -17.5t2.5 -24.5q13 20 35.5 34.5t65.5 14.5q25 0 49.5 -10.5t43.5 -31.5t30.5 -52t11.5 -72q0 -45 -13.5 -78.5t-35 -56t-49 -33.5t-55.5 -11q-35 0 -53 10t-29 23v-156h-105zM272 432q0 50 -18 67.5t-47 17.5q-37 0 -51 -23t-14 -66
q0 -39 12.5 -64.5t50.5 -25.5q33 0 50 22.5t17 71.5z" />
    <glyph glyph-name="q.sups" horiz-adv-x="408" 
d="M264 295q-30 -40 -97 -40q-28 0 -53.5 10.5t-45 32t-31.5 53.5t-12 75q0 40 13 72.5t34.5 55t49.5 35t58 12.5q38 0 60.5 -13t30.5 -28q0 5 0.5 16t1.5 18h96q-1 -13 -1.5 -44t-0.5 -82v-335h-103v162zM134 428q0 -40 17 -64.5t49 -24.5q30 0 47.5 20.5t17.5 68.5
q0 52 -16 70.5t-48 18.5q-31 0 -49 -22t-18 -67z" />
    <glyph glyph-name="r.sups" horiz-adv-x="268" 
d="M40 482v70t-1 42h102q1 -8 1.5 -23t0.5 -31q17 29 44 45t70 16v-102q-57 2 -84.5 -21.5t-27.5 -86.5v-130h-105v221z" />
    <glyph glyph-name="s.sups" horiz-adv-x="337" 
d="M117 367q5 -18 19.5 -28.5t33.5 -10.5q45 0 45 27q0 14 -14 21.5t-49 15.5q-39 8 -63 19.5t-37 25t-17 29t-4 31.5q0 46 36.5 75.5t100.5 29.5q69 0 103 -30.5t37 -75.5h-89q-4 14 -15 25.5t-37 11.5q-37 0 -37 -24q0 -11 9 -17.5t41 -13.5q42 -9 68.5 -20.5t41.5 -25.5
t20.5 -30.5t5.5 -36.5q0 -47 -36.5 -78t-108.5 -31q-35 0 -62 9.5t-45.5 25.5t-29 36t-12.5 40h95z" />
    <glyph glyph-name="t.sups" horiz-adv-x="226" 
d="M50 594v92h101v-92h67v-76h-67v-140q0 -20 6.5 -30t28.5 -10q6 0 12 0.5t14 1.5v-75q-13 -5 -31.5 -7t-35.5 -2q-54 0 -75.5 24.5t-21.5 75.5v162h-53v76h55z" />
    <glyph glyph-name="u.sups" horiz-adv-x="401" 
d="M361 362q0 -37 0.5 -62.5t1.5 -38.5h-99q-1 3 -2 8.5t-1.5 12.5t-0.5 13v9q-17 -23 -39 -35.5t-63 -12.5q-51 0 -84.5 30.5t-33.5 95.5v212h105v-184q0 -28 10.5 -46.5t41.5 -18.5q23 0 40.5 17t17.5 59v173h106v-232z" />
    <glyph glyph-name="v.sups" horiz-adv-x="363" 
d="M116 594q25 -78 43.5 -145t26.5 -110h1q5 24 14 57.5t19.5 69.5t20.5 70t18 58h103l-115 -333h-129l-113 333h111z" />
    <glyph glyph-name="w.sups" horiz-adv-x="541" 
d="M117 594q13 -58 22.5 -97t15.5 -65t9.5 -42.5t5.5 -29.5h1l6 32t8.5 41t15 63l24.5 98h99q14 -60 23 -98.5t14.5 -64t8 -41.5t4.5 -31h1q2 12 5 27t9 40.5t15.5 65t23.5 102.5h108l-100 -333h-116q-9 43 -17 75.5t-14 58t-11 45t-9 36.5h-1q-3 -19 -7.5 -36.5t-10.5 -41
t-14.5 -56.5t-20.5 -81h-117l-92 333h111z" />
    <glyph glyph-name="x.sups" horiz-adv-x="333" 
d="M112 594q23 -39 38 -64.5t22 -39.5h1q8 17 23 44.5t35 59.5h110l-114 -159l116 -174h-118q-25 42 -40.5 67.5t-21.5 38.5h-1q-9 -17 -22.5 -39.5t-39.5 -66.5h-110l116 166l-114 167h120z" />
    <glyph glyph-name="y.sups" horiz-adv-x="358" 
d="M118 594q32 -96 47 -151.5t20 -78.5h1q6 29 22.5 87t41.5 143h109l-119 -332q-14 -43 -29 -70t-32.5 -42.5t-39.5 -21t-50 -5.5q-27 0 -51 3v92q10 -1 20.5 -1h12.5q23 0 37 11.5t24 35.5l-133 330h119z" />
    <glyph glyph-name="z.sups" horiz-adv-x="330" 
d="M18 331q9 9 29 30.5t44.5 48t50.5 53.5t46 48h-161v83h281v-69q-5 -7 -25 -30t-45.5 -51t-52 -56t-44.5 -44h180l-14 -83h-289v70z" />
    <glyph glyph-name="egrave.sups" horiz-adv-x="379" 
d="M175 730l78 -96h-96l-104 96h122zM131 406q2 -30 18 -51t50 -21q25 0 38.5 8t20.5 22h96q-13 -47 -51.5 -77.5t-108.5 -30.5q-45 0 -77 14.5t-52.5 38.5t-30 54.5t-9.5 62.5q0 33 10.5 64.5t31.5 56.5t53 40t74 15q43 0 74 -14t50.5 -37t28.5 -52t9 -58v-19t-2 -16h-223z
M254 465q0 13 -3 25t-10 21t-18.5 14.5t-28.5 5.5q-30 0 -45 -19t-17 -47h122z" />
    <glyph glyph-name="eacute.sups" horiz-adv-x="379" 
d="M340 730l-107 -96h-98l81 96h124zM131 406q2 -30 18 -51t50 -21q25 0 38.5 8t20.5 22h96q-13 -47 -51.5 -77.5t-108.5 -30.5q-45 0 -77 14.5t-52.5 38.5t-30 54.5t-9.5 62.5q0 33 10.5 64.5t31.5 56.5t53 40t74 15q43 0 74 -14t50.5 -37t28.5 -52t9 -58v-19t-2 -16h-223z
M254 465q0 13 -3 25t-10 21t-18.5 14.5t-28.5 5.5q-30 0 -45 -19t-17 -47h122z" />
    <glyph glyph-name="currency.cap" horiz-adv-x="562" 
d="M283 569q62 0 112 -31l73 75l74 -78l-75 -78q22 -46 22 -101q0 -57 -22 -106l75 -77l-74 -79l-73 75q-48 -31 -115 -31q-63 0 -111 31l-72 -75l-75 79l75 76q-23 46 -23 105q0 58 24 103l-76 78l75 78l73 -75q24 14 52.5 22.5t60.5 8.5zM281 466q-42 0 -67.5 -26.5
t-25.5 -84.5q0 -33 8 -55t21.5 -35.5t30 -19t33.5 -5.5q18 0 35 5.5t29.5 19t20 35.5t7.5 55q0 57 -25 84t-67 27z" />
    <glyph glyph-name="dollar.cap" horiz-adv-x="578" 
d="M225 -91v85q-91 13 -141 62.5t-59 126.5h144q10 -44 41 -66t81 -22q58 0 82 24t24 60q0 20 -6.5 35.5t-21.5 28.5t-40 23.5t-61 21.5q-67 19 -111 41.5t-70 49.5t-36.5 58t-10.5 69q0 40 13.5 72.5t37.5 56t56.5 38.5t69.5 21v71h122v-70q49 -8 83 -25.5t55.5 -41.5
t32.5 -52t15 -56h-149q-2 9 -7 21.5t-16.5 24t-30.5 19.5t-50 8q-27 0 -44 -7t-26.5 -18t-13.5 -24t-4 -25q0 -18 6.5 -31t22 -24.5t42.5 -22.5t69 -23q63 -19 104.5 -42t66.5 -51t35.5 -60.5t10.5 -69.5q0 -42 -14 -76t-39.5 -59.5t-61 -41.5t-78.5 -23v-86h-123z" />
    <glyph glyph-name="sterling.cap" horiz-adv-x="568" 
d="M38 0v108q40 29 57.5 73t17.5 104v10h-93v102h86q-3 37 -3 80q0 47 13.5 87.5t40.5 70.5t68 47t95 17q61 0 101 -19t64.5 -46.5t35 -58.5t12.5 -56h-141q-5 28 -21 47t-51 19q-74 0 -74 -103q0 -23 0.5 -43.5t1.5 -41.5h143v-102h-140q-1 -60 -14.5 -103.5t-35.5 -71.5
h350l-17 -120h-496z" />
    <glyph glyph-name="yen.cap" horiz-adv-x="528" 
d="M332 144v-144h-142v144h-133v86h133v63h-133v88h111l-176 308h159q30 -62 50.5 -103.5t33 -68.5t19.5 -43.5t12 -28.5h1q4 10 12 27.5t22.5 46t35.5 70t51 100.5h149l-182 -308h111v-88h-134v-63h134v-86h-134z" />
    <glyph glyph-name="Euro.cap" horiz-adv-x="597" 
d="M566 171q-18 -85 -74.5 -133.5t-155.5 -48.5q-107 0 -169.5 63t-80.5 186h-61v85h54v21v17.5t1 16.5h-55v85h64q12 61 35.5 106t56 73.5t73 42.5t86.5 14q55 0 96.5 -16.5t69 -42.5t42.5 -58.5t18 -64.5h-139q-18 71 -93 71q-44 0 -68.5 -30.5t-34.5 -94.5h166v-85h-173
v-28v-27h173v-85h-166q10 -69 35.5 -102.5t70.5 -33.5q41 0 61.5 20t27.5 49h140z" />
    <glyph glyph-name="cent.cap" horiz-adv-x="584" 
d="M555 247q-13 -68 -58.5 -113.5t-123.5 -59.5v-83h-120v82q-47 8 -85 30t-65 56t-41.5 78t-14.5 97q0 108 55 178.5t152 87.5v66h119v-66q51 -9 85.5 -31t55.5 -48t30 -53t11 -47h-144q-3 13 -10 26.5t-19.5 24t-30.5 17.5t-44 7q-59 0 -87 -43t-28 -113q0 -35 6.5 -64.5
t21 -51.5t36.5 -34t53 -12q24 0 41.5 6t29.5 15.5t19.5 22t12.5 25.5h143z" />
    <glyph glyph-name="at.cap" horiz-adv-x="941" 
d="M697 -66q-35 -22 -92 -37.5t-145 -15.5q-87 0 -161 29t-128.5 81.5t-85.5 127t-31 166.5q0 99 32.5 181t91.5 140.5t141.5 91t181.5 32.5q79 0 150 -22t125 -66t85.5 -110.5t31.5 -155.5q0 -66 -16.5 -119.5t-47.5 -91t-75.5 -57.5t-99.5 -20q-45 0 -76 15t-40 47
q-26 -31 -55.5 -46t-77.5 -15q-64 0 -105 43.5t-41 130.5q0 55 16.5 103.5t45 84t66.5 56t80 20.5q46 0 71.5 -17t33.5 -41l14 48h125l-58 -266q-8 -38 -1 -51.5t31 -13.5q22 0 41 13.5t33 38t22 59t8 75.5q0 61 -21 110t-58.5 83.5t-90.5 52.5t-117 18q-74 0 -135 -23
t-105 -68t-68 -110.5t-24 -150.5q0 -63 21 -118.5t59.5 -97t93.5 -65.5t123 -24q64 0 114 9.5t96 32.5zM491 432q-23 0 -41 -15t-31 -38.5t-19.5 -53t-6.5 -58.5q0 -79 52 -79q32 0 56 26.5t38 89.5q15 69 2.5 98.5t-50.5 29.5z" />
    <glyph glyph-name="emdash.cap" horiz-adv-x="844" 
d="M790 417v-119h-736v119h736z" />
    <glyph glyph-name="endash.cap" horiz-adv-x="491" 
d="M436 417v-119h-382v119h382z" />
    <glyph glyph-name="hyphen.cap" horiz-adv-x="386" 
d="M332 420v-125h-278v125h278z" />
    <glyph glyph-name="uni00AD.cap" horiz-adv-x="386" 
d="M332 420v-125h-278v125h278z" />
    <glyph glyph-name="exclamdown.cap" horiz-adv-x="289" 
d="M188 441l19 -320v-120h-153v121l19 319h115zM202 691v-166h-140v166h140z" />
    <glyph glyph-name="questiondown.cap" horiz-adv-x="487" 
d="M26 25q0 47 19 88.5t71 90.5q33 30 46.5 54t13.5 56v10h149v-22q0 -25 -5.5 -46.5t-17.5 -42t-31 -42t-46 -47.5q-32 -30 -44.5 -51t-12.5 -47q0 -29 18.5 -51.5t56.5 -22.5q37 0 62.5 23t29.5 82h127q0 -42 -12 -81t-38.5 -69t-69.5 -47.5t-105 -17.5q-59 0 -99.5 16.5
t-65.5 42.5t-35.5 58.5t-10.5 65.5zM325 542v-166h-149v166h149z" />
    <glyph glyph-name="guillemotleft.cap" horiz-adv-x="601" 
d="M177 343l147 -198h-123l-149 198l149 197h123zM402 343l147 -198h-124l-148 198l148 197h124z" />
    <glyph glyph-name="guillemotright.cap" horiz-adv-x="601" 
d="M424 344l-147 198h123l149 -198l-149 -197h-123zM199 344l-147 198h124l148 -198l-148 -197h-124z" />
    <glyph glyph-name="guilsinglleft.cap" horiz-adv-x="390" 
d="M176 343l162 -198h-120l-166 198l166 197h120z" />
    <glyph glyph-name="guilsinglright.cap" horiz-adv-x="390" 
d="M214 342l-162 198h120l166 -198l-166 -197h-120z" />
    <glyph glyph-name="parenleft.cap" horiz-adv-x="373" 
d="M336 787q-30 -41 -58 -90t-49.5 -105t-34.5 -119t-13 -131q0 -127 41.5 -244t113.5 -214h-137q-30 42 -57 91.5t-47 107t-31.5 122.5t-11.5 138t12 136t32 117.5t47 101.5t56 89h137z" />
    <glyph glyph-name="parenright.cap" horiz-adv-x="373" 
d="M37 -115q30 41 58 90t49.5 105t34.5 119t13 131q0 127 -41.5 244t-113.5 214h137q30 -42 56.5 -91.5t47 -107t32 -122.5t11.5 -138t-12 -136t-32.5 -117.5t-47 -101.5t-55.5 -89h-137z" />
    <glyph glyph-name="bullet.cap" horiz-adv-x="418" 
d="M328 470v-241h-238v241h238z" />
    <glyph glyph-name="periodcentered.cap" horiz-adv-x="251" 
d="M49 289v176h153v-176h-153z" />
    <glyph glyph-name="fraction" horiz-adv-x="188" 
d="M-162 0l418 658h96l-418 -658h-96z" />
    <glyph glyph-name="slash.frac" horiz-adv-x="188" 
d="M-162 0l418 658h96l-418 -658h-96z" />
    <glyph glyph-name="percent.alt" horiz-adv-x="540" 
d="M130 393q-49 0 -78.5 33t-29.5 86q0 51 29.5 85t78.5 34q50 0 78.5 -34t28.5 -85t-27.5 -85t-79.5 -34zM130 571q-18 0 -28.5 -14.5t-10.5 -44.5q0 -26 10.5 -42.5t28.5 -16.5t28.5 16t10.5 43q0 30 -11 44.5t-28 14.5zM384 625h54l-270 -402h-57zM417 216
q-48 0 -78 33.5t-30 85.5q0 51 30 85t78 34q50 0 78.5 -34t28.5 -85t-27.5 -85t-79.5 -34zM417 394q-17 0 -27.5 -14.5t-10.5 -44.5q0 -26 10 -42t29 -16q18 0 28 15.5t10 42.5q0 30 -11 44.5t-28 14.5z" />
    <glyph glyph-name="grave.cap" horiz-adv-x="400" 
d="M154 887l124 -139h-132l-170 139h178z" />
    <glyph glyph-name="acute.cap" horiz-adv-x="400" 
d="M437 887l-177 -139h-134l137 139h174z" />
    <glyph glyph-name="tilde.cap" horiz-adv-x="400" 
d="M17 756v35q0 61 26 84t70 23q25 0 47.5 -7t42 -15.5t35.5 -15.5t28 -7q11 0 18.5 7t7.5 27v9h90v-25q0 -35 -7 -58.5t-20 -37.5t-31.5 -19.5t-41.5 -5.5q-20 0 -41.5 7t-41 15.5t-36.5 15.5t-29 7q-24 0 -24 -24v-15h-93z" />
    <glyph glyph-name="dieresis.cap" horiz-adv-x="400" 
d="M43 759v127h115v-127h-115zM242 759v127h115v-127h-115z" />
    <glyph glyph-name="macron.cap" horiz-adv-x="400" 
d="M354 861v-101h-308v101h308z" />
    <glyph glyph-name="uni0300" horiz-adv-x="0" 
d="M14 740l114 -148h-126l-159 148h171z" />
    <glyph glyph-name="uni0301" horiz-adv-x="0" 
d="M157 740l-160 -148h-125l115 148h170z" />
    <glyph glyph-name="uni0302" horiz-adv-x="0" 
d="M61 729l116 -149h-128l-51 74l-47 -74h-129l116 149h123z" />
    <glyph glyph-name="uni0303" horiz-adv-x="0" 
d="M-172 589v34q0 61 26 85t67 24q22 0 41.5 -6.5t36.5 -14.5t31 -14.5t26 -6.5t18.5 7.5t6.5 27.5v9h90v-27q0 -35 -7.5 -58.5t-20.5 -37.5t-31 -19.5t-39 -5.5q-23 0 -42 6.5t-35 14t-29 14t-25 6.5q-11 0 -16.5 -5t-5.5 -19v-14h-92z" />
    <glyph glyph-name="uni0304" horiz-adv-x="0" 
d="M149 709v-105h-299v105h299z" />
    <glyph glyph-name="uni0308" horiz-adv-x="0" 
d="M-156 601v127h115v-127h-115zM41 601v127h115v-127h-115z" />
    <glyph glyph-name="uni0327" horiz-adv-x="0" 
d="M68 0l-42 -46q13 -3 28.5 -9t28.5 -17t21.5 -27.5t8.5 -41.5q0 -32 -14 -52.5t-35 -32t-46 -15.5t-47 -4q-23 0 -43 2.5t-31 7.5v76q10 -2 28.5 -4t26.5 -2q26 0 35 6t9 19q0 10 -7.5 16.5t-19.5 10.5t-27.5 5.5t-31.5 2.5v34l69 81z" />
    <glyph glyph-name="uni0331" horiz-adv-x="0" 
d="M149 -75v-105h-299v105h299z" />
    </font>
</defs>
</svg>
