<?xml version="1.0" standalone="no"?>
<!DOCTYPE svg PUBLIC "-//W3C//DTD SVG 1.1//EN" "http://www.w3.org/Graphics/SVG/1.1/DTD/svg11.dtd" >
<svg xmlns="http://www.w3.org/2000/svg" xmlns:xlink="http://www.w3.org/1999/xlink" version="1.1">
<metadata>
Created by FontForge 20170924 at Thu Jun 15 08:19:25 2017
 By www-data
copyright missing
</metadata>
<defs>
<font id="AcuminPro-Regular" horiz-adv-x="408" >
  <font-face 
    font-family="Acumin Pro"
    font-weight="400"
    font-stretch="normal"
    units-per-em="1000"
    panose-1="2 11 5 4 2 2 2 2 2 4"
    ascent="735"
    descent="-265"
    x-height="517"
    cap-height="710"
    bbox="-187 -267 1250 1063"
    underline-thickness="50"
    underline-position="-300"
    unicode-range="U+0020-FB02"
  />
<missing-glyph horiz-adv-x="510" 
d="M0 714h510v-714h-510v714zM428 663h-346l173 -260zM51 97l173 260l-173 260v-520zM459 97v520l-173 -260zM428 51l-173 260l-173 -260h346z" />
    <glyph glyph-name="f_f" unicode="ff" horiz-adv-x="566" 
d="M182 445v-445h-90v445h-83v72h83v61q0 181 150 181q32 0 51 -7v-75q-20 6 -43 6q-37 0 -52.5 -24.5t-15.5 -77.5v-64h187v61q0 181 150 181q33 0 51 -7v-75q-20 6 -43 6q-36 0 -52 -24.5t-16 -77.5v-64h102v-72h-102v-445h-90v445h-187z" />
    <glyph glyph-name=".notdef" horiz-adv-x="510" 
d="M0 714h510v-714h-510v714zM428 663h-346l173 -260zM51 97l173 260l-173 260v-520zM459 97v520l-173 -260zM428 51l-173 260l-173 -260h346z" />
    <glyph glyph-name=".null" horiz-adv-x="0" 
 />
    <glyph glyph-name="nonmarkingreturn" horiz-adv-x="333" 
 />
    <glyph glyph-name="space" unicode=" " horiz-adv-x="258" 
 />
    <glyph glyph-name="exclam" unicode="!" horiz-adv-x="309" 
d="M146 239l-10 346v125h96v-126l-11 -345h-75zM138 -1v141h88v-141h-88z" />
    <glyph glyph-name="quotedbl" unicode="&#x22;" horiz-adv-x="351" 
d="M60 474l-9 188v87h85v-87l-10 -188h-66zM225 474l-8 188v87h85v-87l-10 -188h-67z" />
    <glyph glyph-name="numbersign" unicode="#" horiz-adv-x="602" 
d="M334 202h-135l-48 -202h-69l49 202h-90v74h108l39 159h-98v73h115l44 180h66l-43 -180h136l44 180h65l-43 -180h85l-1 -73h-101l-38 -159h93v-74h-110l-48 -202h-69zM391 435h-136l-38 -159h135z" />
    <glyph glyph-name="dollar" unicode="$" horiz-adv-x="530" 
d="M230 -99v93q-90 7 -143.5 56t-60.5 124h89q10 -46 40 -74t75 -35v247q-52 16 -87.5 33.5t-58.5 40t-33 50t-10 63.5q0 76 52.5 124.5t136.5 53.5v70h58v-71q24 -2 46 -8t39 -14.5t31.5 -18.5t25 -22t18.5 -24.5t13 -26t8 -26t4 -24.5h-87q-22 80 -98 94v-222
q111 -33 156 -81t45 -120q0 -85 -53 -133.5t-148 -55.5v-93h-58zM130 509q0 -39 22 -64t78 -44v207q-52 -4 -76 -31.5t-24 -67.5zM396 173q0 43 -24 72t-84 50v-231q108 11 108 109z" />
    <glyph glyph-name="percent" unicode="%" horiz-adv-x="895" 
d="M210 683q79 0 124.5 -51t45.5 -139q0 -85 -44.5 -139t-127.5 -54q-79 0 -123.5 51.5t-44.5 140.5q0 81 45 136t125 55zM196 0l436 671h77l-437 -671h-76zM209 618q-43 0 -68 -33t-25 -92t24.5 -93.5t70.5 -34.5q30 0 51.5 15.5t32.5 44t11 68.5q0 59 -25.5 92t-71.5 33z
M694 370q79 0 125 -51t46 -139q0 -85 -45 -139t-127 -54q-80 0 -125 52.5t-45 138.5q0 83 45 137.5t126 54.5zM694 305q-42 0 -68 -33.5t-26 -92t24.5 -93t71.5 -34.5q44 0 68.5 34t24.5 94q0 59 -25 92t-70 33z" />
    <glyph glyph-name="ampersand" unicode="&#x26;" horiz-adv-x="759" 
d="M710 450l-181 -265l188 -185h-121l-117 114q-50 -64 -101 -94t-125 -30q-94 0 -148 56.5t-54 130.5q0 63 33.5 110t119.5 100q-44 45 -64.5 80t-20.5 81q0 72 48 122t131 50q77 0 124 -47t47 -116q0 -52 -32 -92t-107 -85l144 -141l140 211h96zM297 651q-42 0 -67 -26
t-25 -72q0 -30 18.5 -58.5t60.5 -69.5q59 40 80.5 68t21.5 63q0 39 -23.5 67t-65.5 28zM260 69q49 0 85 21t80 77l-173 171q-63 -41 -85.5 -74t-22.5 -77q0 -48 33.5 -83t82.5 -35z" />
    <glyph glyph-name="quotesingle" unicode="'" horiz-adv-x="181" 
d="M54 474l-8 188v87h90v-87l-8 -188h-74z" />
    <glyph glyph-name="parenleft" unicode="(" horiz-adv-x="343" 
d="M304 749q-161 -211 -161 -456q0 -256 161 -468h-91q-42 56 -74.5 121t-56 157.5t-23.5 190.5q0 253 154 455h91z" />
    <glyph glyph-name="parenright" unicode=")" horiz-adv-x="343" 
d="M40 -175q161 211 161 455q0 256 -161 469h92q66 -90 109.5 -208.5t43.5 -261.5q0 -251 -153 -454h-92z" />
    <glyph glyph-name="asterisk" unicode="*" horiz-adv-x="409" 
d="M241 710l-14 -151l118 94l40 -67l-144 -65l143 -66l-39 -67l-119 95l16 -153h-76l15 153l-117 -95l-38 67l142 66l-144 65l40 67l116 -94l-13 151h74z" />
    <glyph glyph-name="plus" unicode="+" horiz-adv-x="712" 
d="M397 567v-241h238v-79h-238v-247h-81v247h-240v79h240v241h81z" />
    <glyph glyph-name="comma" unicode="," horiz-adv-x="214" 
d="M3 -117q63 132 73 267h91q-7 -71 -31 -143.5t-60 -123.5h-73z" />
    <glyph glyph-name="hyphen" unicode="-" horiz-adv-x="385" 
d="M326 302v-82h-267v82h267z" />
    <glyph glyph-name="period" unicode="." horiz-adv-x="207" 
d="M56 0v151h94v-151h-94z" />
    <glyph glyph-name="slash" unicode="/" horiz-adv-x="455" 
d="M46 -52l284 772h81l-286 -772h-79z" />
    <glyph glyph-name="zero" unicode="0" horiz-adv-x="570" 
d="M288 683q52 0 93 -19.5t66.5 -51.5t42 -77t23 -92.5t6.5 -101.5t-6 -101.5t-22.5 -94.5t-42 -81t-67.5 -55t-96 -21q-34 0 -63 7.5t-51.5 22t-41 34.5t-31.5 45t-22.5 52.5t-15 59t-8 62.5t-2.5 65q0 54 7 102.5t24.5 94t44 78.5t68 52.5t94.5 19.5zM289 607
q-43 0 -72 -21t-44.5 -60t-21.5 -84.5t-6 -105.5q0 -272 141 -272q34 0 59.5 16t40.5 41t24 62.5t12 74t3 82.5q0 267 -136 267z" />
    <glyph glyph-name="one" unicode="1" horiz-adv-x="371" 
d="M180 0v564q-16 -11 -42 -23.5t-52 -22t-45 -12.5v72q39 11 84 37.5t79 58.5h67v-674h-91z" />
    <glyph glyph-name="two" unicode="2" horiz-adv-x="535" 
d="M46 0v5q0 150 202 303q46 35 68 53.5t40 40t23.5 41t5.5 48.5q0 53 -29.5 85t-87.5 32q-60 0 -91 -30.5t-42 -94.5h-88q10 90 66.5 145t154.5 55q55 0 96.5 -16t65.5 -44t35.5 -61t11.5 -69q0 -39 -7.5 -66.5t-30.5 -56t-49.5 -51.5t-79.5 -64q-70 -54 -108 -96t-50 -80
h352l-13 -79h-445z" />
    <glyph glyph-name="three" unicode="3" horiz-adv-x="561" 
d="M64 511q5 33 18.5 62t38 54.5t65 40.5t91.5 15q99 0 150.5 -50.5t51.5 -123.5q0 -56 -26 -90.5t-62 -48.5v-2q51 -16 84 -58t33 -111q0 -33 -8 -63t-26 -57.5t-44.5 -47.5t-66 -31.5t-88.5 -11.5q-55 0 -98.5 16t-70 43.5t-41.5 59t-19 66.5h89q11 -48 47 -79.5t97 -31.5
q68 0 102.5 38.5t34.5 97.5q0 66 -38 98t-108 32h-48v74h40q66 0 96.5 25.5t30.5 78.5q0 47 -30 74.5t-85 27.5q-38 0 -64.5 -13.5t-39 -33.5t-19.5 -50h-87z" />
    <glyph glyph-name="four" unicode="4" horiz-adv-x="549" 
d="M352 0v172h-315v82l305 417h96v-421h86l-9 -78h-77v-172h-86zM352 419q0 75 2 162q-25 -49 -230 -331h228v169z" />
    <glyph glyph-name="five" unicode="5" horiz-adv-x="555" 
d="M476 594h-280q-12 -101 -30 -192q49 54 141 54t147 -60.5t55 -162.5q0 -40 -8.5 -76t-26.5 -67t-44.5 -53.5t-65.5 -35.5t-87 -13q-90 0 -150 47.5t-73 132.5h91q8 -31 24.5 -54.5t45 -37.5t65.5 -14q68 0 102.5 44t34.5 120q0 34 -7 61t-22 48t-40.5 32.5t-59.5 11.5
q-57 0 -88 -21.5t-50 -65.5l-84 15q30 126 55 364h369z" />
    <glyph glyph-name="six" unicode="6" horiz-adv-x="559" 
d="M406 525q-23 85 -113 85q-148 0 -153 -248q54 94 170 94q95 0 150.5 -62.5t55.5 -160.5q0 -105 -60 -175t-166 -70q-240 0 -240 338q0 58 7.5 109t25.5 97t46 79t70.5 52.5t97.5 19.5q49 0 87 -14.5t60.5 -38.5t34.5 -50.5t16 -54.5h-89zM289 63q46 0 77 24t44 59t13 79
q0 31 -6 57t-20.5 49t-41 36t-63.5 13q-65 0 -103.5 -40t-38.5 -114q0 -23 6.5 -48.5t21 -52.5t43 -44.5t68.5 -17.5z" />
    <glyph glyph-name="seven" unicode="7" horiz-adv-x="485" 
d="M462 671v-73q-89 -120 -162 -286t-98 -312h-93q22 139 98 310.5t160 282.5h-346v78h441z" />
    <glyph glyph-name="eight" unicode="8" horiz-adv-x="562" 
d="M277 -12q-100 0 -165.5 55t-65.5 147q0 44 19 81t45 58t58 33q-94 45 -94 142q0 80 55.5 129.5t157.5 49.5q92 0 147.5 -49.5t55.5 -127.5q0 -52 -25.5 -88t-67.5 -52q50 -16 84.5 -62.5t34.5 -110.5q0 -95 -66.5 -150t-172.5 -55zM284 609q-32 0 -55.5 -7.5t-37.5 -21.5
t-21 -33t-7 -43q0 -45 30.5 -74.5t91.5 -29.5q39 0 65.5 12.5t38.5 34.5t12 54q0 47 -30 77.5t-87 30.5zM282 62q65 0 103.5 34t38.5 98q0 63 -37.5 96t-104.5 33q-71 0 -107 -35.5t-36 -93.5q0 -38 16.5 -67.5t49 -47t77.5 -17.5z" />
    <glyph glyph-name="nine" unicode="9" horiz-adv-x="551" 
d="M146 147q15 -42 43.5 -63t75.5 -21q31 0 55.5 13t39.5 37t25 48.5t15 58t7 55.5t3 49q-45 -79 -160 -79q-94 0 -150 59.5t-56 153.5q0 96 61 160.5t165 64.5q61 0 106 -23t71.5 -65t39.5 -97t13 -124q0 -385 -238 -385q-93 0 -143.5 45t-64.5 113h92zM268 608
q-44 0 -74.5 -20t-43.5 -52t-13 -74q0 -65 34.5 -104t93.5 -39q135 0 135 139q0 15 -2.5 31.5t-11 38.5t-21.5 39t-38.5 29t-58.5 12z" />
    <glyph glyph-name="colon" unicode=":" horiz-adv-x="255" 
d="M83 368v147h90v-147h-90zM83 0v148h90v-148h-90z" />
    <glyph glyph-name="semicolon" unicode=";" horiz-adv-x="257" 
d="M85 365v150h91v-150h-91zM14 -117q66 140 73 267h90q-5 -72 -31.5 -147.5t-58.5 -119.5h-73z" />
    <glyph glyph-name="less" unicode="&#x3c;" horiz-adv-x="627" 
d="M85 323l458 248v-89l-371 -195l371 -202v-89l-458 253v74z" />
    <glyph glyph-name="equal" unicode="=" horiz-adv-x="727" 
d="M643 455v-80h-558v80h558zM643 201v-80h-558v80h558z" />
    <glyph glyph-name="greater" unicode="&#x3e;" horiz-adv-x="627" 
d="M543 244l-458 -248v89l369 195l-369 203v88l458 -253v-74z" />
    <glyph glyph-name="question" unicode="?" horiz-adv-x="506" 
d="M208 214v16q0 45 20.5 85.5t76.5 90.5q40 37 54 68t14 67q0 41 -27.5 73t-81.5 32q-102 0 -121 -117h-88q1 21 7 44t21.5 50t38 48t60 35t84.5 14q53 0 93.5 -17.5t62.5 -45t32.5 -57.5t10.5 -61q0 -37 -9 -65.5t-30 -57t-59 -63.5q-37 -34 -52 -63.5t-15 -67.5v-8h-92z
M208 0v141h92v-141h-92z" />
    <glyph glyph-name="at" unicode="@" horiz-adv-x="953" 
d="M712 -115q-91 -63 -250 -63q-175 0 -286 111.5t-111 297.5q0 128 54 230t155.5 161t233.5 59q79 0 148 -23.5t121.5 -67.5t82.5 -112t30 -153q0 -135 -63.5 -215t-163.5 -80q-98 0 -102 79q-27 -39 -61 -58.5t-84 -19.5q-64 0 -104.5 45.5t-40.5 131.5q0 116 61 195.5
t149 79.5q55 0 84 -23t38 -55l17 68h81l-61 -286q-11 -48 -0.5 -67.5t39.5 -19.5q59 0 96.5 61t37.5 160q0 88 -38.5 154.5t-108 102t-161.5 35.5q-163 0 -260.5 -105.5t-98.5 -277.5q-1 -146 87.5 -241.5t232.5 -95.5q135 0 227 55zM491 415q-60 0 -96.5 -60t-36.5 -142
q0 -54 21 -83t59 -29q48 0 81 36t51 117q35 161 -79 161z" />
    <glyph glyph-name="A" unicode="A" horiz-adv-x="673" 
d="M191 213l-77 -213h-94l253 710h116l264 -710h-101l-79 213h-282zM450 294q-107 291 -121 339h-1q-12 -42 -113 -339h235z" />
    <glyph glyph-name="B" unicode="B" horiz-adv-x="658" 
d="M94 710h272q108 0 163.5 -50t55.5 -128q0 -58 -28.5 -98.5t-73.5 -56.5q21 -6 41.5 -18.5t40 -32t32 -50.5t12.5 -68q0 -97 -66.5 -152.5t-170.5 -55.5h-278v710zM348 414q143 0 143 110q0 49 -34 78t-95 29h-176v-217h162zM186 78h175q69 0 110 33t41 97q0 40 -17 68
t-55.5 44.5t-96.5 16.5h-157v-259z" />
    <glyph glyph-name="C" unicode="C" horiz-adv-x="699" 
d="M656 201q-25 -96 -96 -153t-187 -57q-102 0 -175.5 49t-108.5 129.5t-35 183.5q0 73 20.5 138.5t59.5 117t101.5 81.5t140.5 30q120 0 191.5 -59.5t88.5 -154.5h-94q-21 64 -65.5 100t-123.5 36q-56 0 -100 -24.5t-69.5 -65.5t-38 -90.5t-12.5 -105.5q0 -36 5.5 -70
t16 -66.5t29 -59.5t42.5 -47.5t57.5 -32t73.5 -11.5q75 0 118 36t66 96h95z" />
    <glyph glyph-name="D" unicode="D" horiz-adv-x="735" 
d="M94 710h253q150 0 242 -95t92 -253q0 -159 -92.5 -260.5t-244.5 -101.5h-250v710zM188 80h149q81 0 137 37t82 99t26 144q0 54 -14 101.5t-43 85.5t-77.5 60t-110.5 22h-149v-549z" />
    <glyph glyph-name="E" unicode="E" horiz-adv-x="608" 
d="M539 332h-353v-251h387l-12 -81h-467v710h462v-81h-370v-217h353v-80z" />
    <glyph glyph-name="F" unicode="F" horiz-adv-x="575" 
d="M94 710h456v-81h-363v-230h339v-81h-339v-318h-93v710z" />
    <glyph glyph-name="G" unicode="G" horiz-adv-x="742" 
d="M669 0h-72q-8 20 -9 96q-65 -105 -221 -105q-99 0 -171 47.5t-107 127t-35 182.5q0 107 37.5 190.5t113 132.5t180.5 49q121 0 196.5 -59.5t91.5 -156.5h-94q-42 138 -197 138q-59 0 -104 -23t-72 -63.5t-40 -91.5t-13 -112q0 -57 13 -106.5t39 -89.5t70.5 -63.5
t102.5 -23.5q199 0 199 226v8h-200v81h292v-384z" />
    <glyph glyph-name="H" unicode="H" horiz-adv-x="744" 
d="M94 710h94v-297h369v297h95v-710h-95v333h-369v-333h-94v710z" />
    <glyph glyph-name="I" unicode="I" horiz-adv-x="281" 
d="M188 710v-710h-94v710h94z" />
    <glyph glyph-name="J" unicode="J" horiz-adv-x="375" 
d="M287 207q0 -117 -45 -167t-138 -50q-39 0 -74 7v78q22 -5 65 -5q31 0 51 10.5t29.5 31t13 41.5t3.5 51v506h95v-503z" />
    <glyph glyph-name="K" unicode="K" horiz-adv-x="651" 
d="M94 710h93v-349q20 21 151 152.5t193 196.5h118l-305 -300l320 -410h-114l-273 350l-90 -83v-267h-93v710z" />
    <glyph glyph-name="L" unicode="L" horiz-adv-x="572" 
d="M94 710h94v-629h370l-13 -81h-451v710z" />
    <glyph glyph-name="M" unicode="M" horiz-adv-x="885" 
d="M700 302q0 217 5 341h-4q-9 -33 -26 -86t-45 -130.5t-48 -133t-57 -156t-51 -137.5h-84q-13 38 -53.5 156t-66 193.5t-54 164t-39.5 131.5h-3q9 -133 9 -362v-283h-89v710h140q164 -450 204 -595h1q26 103 217 595h136v-710h-92v302z" />
    <glyph glyph-name="N" unicode="N" horiz-adv-x="758" 
d="M94 0v710h124q23 -37 122 -197t161.5 -262.5t79.5 -136.5h1q-6 78 -6 318v278h89v-710h-117q-112 183 -226 372t-142 241h-3q6 -81 6 -329v-284h-89z" />
    <glyph glyph-name="O" unicode="O" horiz-adv-x="766" 
d="M388 720q148 0 236 -100.5t88 -260.5q0 -75 -21 -140.5t-61 -117t-104.5 -81.5t-146.5 -30q-76 0 -138 28t-102.5 77.5t-62.5 116t-22 143.5q0 103 38 184.5t114.5 131t181.5 49.5zM384 640q-59 0 -104 -23t-72 -62t-41 -89t-14 -108q0 -79 25 -143t78.5 -104.5
t127.5 -40.5q59 0 104.5 23.5t72 64t40 90.5t13.5 109q0 79 -24.5 141.5t-77.5 102t-128 39.5z" />
    <glyph glyph-name="P" unicode="P" horiz-adv-x="641" 
d="M94 710h269q105 0 169 -55.5t64 -151.5q0 -101 -66 -156t-173 -55h-168v-292h-95v710zM189 371h164q72 0 109 33.5t37 96.5t-39 96t-104 33h-167v-259z" />
    <glyph glyph-name="Q" unicode="Q" horiz-adv-x="773" 
d="M388 720q148 0 236 -100.5t88 -260.5q0 -92 -32 -171.5t-94 -129.5l173 -122l-57 -66l-199 140q-57 -20 -124 -20q-76 0 -138 28t-102.5 77.5t-62.5 116t-22 143.5q0 103 38 184.5t114.5 131t181.5 49.5zM384 640q-59 0 -104 -23t-72 -62t-41 -89t-14 -108q0 -79 25 -143
t78.5 -104.5t127.5 -40.5q59 0 104.5 23.5t72 64t40 90.5t13.5 109q0 79 -24.5 141.5t-77.5 102t-128 39.5z" />
    <glyph glyph-name="R" unicode="R" horiz-adv-x="654" 
d="M187 312v-312h-93v710h277q107 0 165.5 -52.5t58.5 -137.5q0 -45 -16.5 -80t-43.5 -56.5t-62 -30.5q108 -29 108 -182v-30v-19v-20t0.5 -19t0.5 -20t1 -18t2 -17.5t2.5 -15t4.5 -12.5h-92q-13 29 -12 140v13v14q0 80 -32 112.5t-124 32.5h-145zM187 392h154
q80 0 118 29.5t38 90.5q0 57 -37 87.5t-108 30.5h-165v-238z" />
    <glyph glyph-name="S" unicode="S" horiz-adv-x="618" 
d="M138 198q29 -132 180 -132q53 0 88.5 16.5t50.5 42.5t15 61q0 56 -37 88t-139 56q-84 21 -133.5 48t-71 63t-21.5 87q0 84 61 138t175 54q61 0 108.5 -16.5t76 -44.5t44.5 -60.5t20 -69.5h-96q-24 115 -156 115q-65 0 -100 -28t-35 -78t35 -75.5t130 -48.5
q73 -18 121.5 -41.5t73 -52.5t33.5 -58t9 -67q0 -90 -66.5 -147t-191.5 -57q-64 0 -114.5 16.5t-82 46t-49.5 65.5t-24 79h96z" />
    <glyph glyph-name="T" unicode="T" horiz-adv-x="569" 
d="M237 629h-229v81h553v-81h-229v-629h-95v629z" />
    <glyph glyph-name="U" unicode="U" horiz-adv-x="728" 
d="M183 710v-427q0 -49 10 -86.5t27.5 -61t41.5 -39t49 -21.5t54 -6q87 0 134.5 48.5t47.5 165.5v427h95v-422q0 -297 -279 -297q-58 0 -106 15t-87 47.5t-61 90t-22 136.5v430h96z" />
    <glyph glyph-name="V" unicode="V" horiz-adv-x="654" 
d="M267 0l-258 710h101l125 -354q72 -206 88 -274h2q17 63 93 271l131 357h97l-268 -710h-111z" />
    <glyph glyph-name="W" unicode="W" horiz-adv-x="954" 
d="M213 0l-191 710h100q21 -85 57.5 -232.5t59 -243t28.5 -131.5h1q10 50 76.5 289.5t85.5 317.5h92q140 -519 155 -604h1q7 35 22 95t34.5 130t38 137t38 136t28.5 106h93l-207 -710h-101q-140 535 -151 586h-1q-9 -47 -35.5 -146t-70.5 -255.5t-52 -184.5h-101z" />
    <glyph glyph-name="X" unicode="X" horiz-adv-x="589" 
d="M481 0l-188 292h-1l-190 -292h-104l240 359l-231 351h109l179 -276h1l183 276h104l-235 -343l244 -367h-111z" />
    <glyph glyph-name="Y" unicode="Y" horiz-adv-x="602" 
d="M250 0v260q0 13 -5 19l-250 431h108q178 -319 200 -361q31 63 203 361h101l-258 -433q-4 -8 -4 -18v-259h-95z" />
    <glyph glyph-name="Z" unicode="Z" horiz-adv-x="608" 
d="M31 72l432 557h-411v81h519v-79l-424 -550h438l-13 -81h-541v72z" />
    <glyph glyph-name="bracketleft" unicode="[" horiz-adv-x="348" 
d="M88 -175v924h221v-72h-142v-780h142v-72h-221z" />
    <glyph glyph-name="backslash" unicode="\" horiz-adv-x="455" 
d="M46 720h79l286 -772h-81z" />
    <glyph glyph-name="bracketright" unicode="]" horiz-adv-x="348" 
d="M261 749v-924h-221v71h142v780h-142v73h221z" />
    <glyph glyph-name="asciicircum" unicode="^" horiz-adv-x="489" 
d="M377 319l-134 293l-130 -293h-76l172 363h74l170 -363h-76z" />
    <glyph glyph-name="underscore" unicode="_" horiz-adv-x="541" 
d="M542 -80v-52h-541v52h541z" />
    <glyph glyph-name="grave" unicode="`" 
d="M138 759l130 -156h-84l-157 156h111z" />
    <glyph glyph-name="a" unicode="a" horiz-adv-x="539" 
d="M462 113q0 -77 7 -113h-85q-7 18 -9 67q-43 -79 -160 -79q-86 0 -130 46.5t-44 111.5q0 85 63 126.5t182 41.5h87v44q0 20 -4 35.5t-14.5 31.5t-34 25t-58.5 9q-30 0 -51.5 -6.5t-32.5 -20t-16.5 -25.5t-9.5 -31h-87q3 30 14 55t32.5 48.5t61 36.5t92.5 13
q197 0 197 -169v-247zM374 252h-83q-80 0 -119 -24t-39 -77q0 -27 11.5 -48t34.5 -33t55 -12q36 0 62 10t41 25.5t23.5 39.5t11 47.5t2.5 55.5v16z" />
    <glyph glyph-name="b" unicode="b" horiz-adv-x="582" 
d="M76 749h90v-305q44 85 164 85q97 0 155 -72t58 -188q0 -122 -60 -201.5t-166 -79.5q-111 0 -152 80q0 -39 -4 -68h-86q1 58 1 173v576zM451 267q0 86 -37.5 136.5t-103.5 50.5q-79 0 -114 -50t-35 -147q0 -194 144 -194q68 0 107 55t39 149z" />
    <glyph glyph-name="c" unicode="c" horiz-adv-x="516" 
d="M484 158q-18 -75 -69.5 -122.5t-143.5 -47.5q-107 0 -168.5 71.5t-61.5 196.5q0 75 26.5 136t81 99t128.5 38q53 0 94 -17t64 -44.5t35 -55t14 -55.5h-88q-23 98 -121 98q-67 0 -104.5 -53.5t-37.5 -142.5q0 -90 36.5 -143.5t102.5 -53.5q90 0 124 96h88z" />
    <glyph glyph-name="d" unicode="d" horiz-adv-x="582" 
d="M507 749v-603q0 -96 1 -146h-86q-5 22 -5 73q-40 -85 -162 -85q-99 0 -157 73t-58 192q0 121 63 198.5t168 77.5q63 0 98.5 -19.5t47.5 -46.5v286h90zM133 256q0 -91 38.5 -142t101.5 -51q44 0 74 15.5t45.5 44.5t22 63t6.5 80q0 95 -29.5 141.5t-111.5 46.5
q-69 0 -108 -52t-39 -146z" />
    <glyph glyph-name="e" unicode="e" horiz-adv-x="533" 
d="M130 243q0 -80 38.5 -130.5t102.5 -50.5q55 0 82 22t43 59h91q-9 -28 -24 -53t-39.5 -49.5t-64.5 -38.5t-91 -14q-58 0 -103.5 22.5t-72 60.5t-39.5 84t-13 98q0 121 60.5 198.5t173.5 77.5q49 0 87.5 -14.5t63 -39t41 -57t23.5 -65.5t7 -67q0 -30 -1 -43h-365zM405 305
q-1 68 -35 111t-97 43q-125 0 -140 -154h272z" />
    <glyph glyph-name="f" unicode="f" horiz-adv-x="288" 
d="M92 0v445h-83v72h83v62q0 38 7.5 69t24.5 56.5t47 40t72 14.5q39 0 57 -6v-77q-21 5 -45 5q-27 0 -43 -11.5t-23 -34.5t-7 -62v-56h104v-72h-104v-445h-90z" />
    <glyph glyph-name="g" unicode="g" horiz-adv-x="578" 
d="M503 47q0 -128 -57 -194t-181 -66q-56 0 -98 14t-65 38.5t-35 50.5t-16 55h91q11 -43 44 -65t83 -22q83 0 114.5 48.5t31.5 144.5v42q-44 -91 -161 -91q-96 0 -155 71t-59 185q0 123 63.5 197t159.5 74q67 0 104.5 -24t47.5 -56q1 31 5 68h84q0 -12 -0.5 -39t-0.5 -58
v-52v-321zM133 262q0 -82 39 -132.5t102 -50.5q79 0 111.5 48.5t32.5 140.5q0 93 -31 139.5t-110 46.5q-69 0 -106.5 -53t-37.5 -139z" />
    <glyph glyph-name="h" unicode="h" horiz-adv-x="577" 
d="M166 749v-308q50 88 161 88q34 0 63 -9.5t55 -31t41.5 -62t15.5 -96.5v-330h-90v315q0 137 -112 137q-134 0 -134 -169v-283h-90v749h90z" />
    <glyph glyph-name="i" unicode="i" horiz-adv-x="241" 
d="M76 638v111h90v-111h-90zM76 517h90v-517h-90v517z" />
    <glyph glyph-name="j" unicode="j" horiz-adv-x="241" 
d="M76 638v111h90v-111h-90zM166 517v-534q0 -109 -31.5 -152.5t-114.5 -43.5q-18 0 -34 2v75q6 -1 19 -1q44 0 57.5 23t13.5 81v550h90z" />
    <glyph glyph-name="k" unicode="k" horiz-adv-x="515" 
d="M166 270q25 30 115 127t112 120h107l-195 -201l217 -316h-105l-173 258l-78 -74v-184h-90v749h90v-479z" />
    <glyph glyph-name="l" unicode="l" horiz-adv-x="241" 
d="M76 0v749h90v-749h-90z" />
    <glyph glyph-name="m" unicode="m" horiz-adv-x="862" 
d="M76 384q0 91 -1 133h86q4 -30 4 -79q47 91 150 91q54 0 91 -24.5t53 -67.5q52 92 164 92q71 0 117 -46t46 -143v-340h-87v329q0 24 -5 44.5t-16 39t-31.5 29t-49.5 10.5q-62 0 -92 -41.5t-30 -113.5v-297h-87v326q0 27 -4.5 48t-15 39.5t-31 28.5t-49.5 10
q-61 0 -92 -44.5t-31 -120.5v-287h-89v384z" />
    <glyph glyph-name="n" unicode="n" horiz-adv-x="577" 
d="M76 387q0 90 -1 130h87q4 -20 4 -85q45 97 162 97q78 0 126 -49t48 -147v-333h-90v321q0 131 -109 131q-70 0 -103.5 -48t-33.5 -131v-273h-90v387z" />
    <glyph glyph-name="o" unicode="o" horiz-adv-x="561" 
d="M284 529q107 0 172 -73.5t65 -195.5q0 -117 -64.5 -194.5t-179.5 -77.5q-72 0 -126.5 35t-82.5 96t-28 139q0 119 65 195t179 76zM279 455q-71 0 -109 -53t-38 -143q0 -87 40.5 -142t109.5 -55t108 53.5t39 142.5q0 59 -17 103t-51 69t-82 25z" />
    <glyph glyph-name="p" unicode="p" horiz-adv-x="581" 
d="M76 -203v594q0 86 -1 126h87q3 -26 3 -81q51 93 170 93q90 0 148 -70t58 -187q0 -134 -63.5 -209t-161.5 -75q-108 0 -151 76v-267h-89zM449 268q0 84 -36.5 134.5t-101.5 50.5q-79 0 -114.5 -48.5t-35.5 -145.5q0 -47 7.5 -82t23.5 -61t44 -39.5t68 -13.5q70 0 107.5 54
t37.5 151z" />
    <glyph glyph-name="q" unicode="q" horiz-adv-x="581" 
d="M418 74q-42 -86 -164 -86q-35 0 -67 11t-59 33t-46.5 53t-30.5 74t-11 94q0 126 65.5 201t161.5 75q65 0 102.5 -23t48.5 -54q-1 21 3 65h85q-1 -54 -1 -143v-577h-87v277zM133 257q0 -84 36 -139t106 -55q80 0 112.5 50.5t32.5 147.5t-30.5 144.5t-110.5 47.5
q-70 0 -108 -53.5t-38 -142.5z" />
    <glyph glyph-name="r" unicode="r" horiz-adv-x="359" 
d="M76 376q0 42 -0.5 87.5t-0.5 53.5h88q3 -43 3 -105q21 53 66 84.5t108 32.5v-88q-174 -5 -174 -190v-251h-90v376z" />
    <glyph glyph-name="s" unicode="s" horiz-adv-x="482" 
d="M120 148q23 -90 127 -90q105 0 105 80q0 25 -10 41t-36.5 29t-75.5 25q-72 17 -112 40t-53.5 48.5t-13.5 63.5q0 60 47 102t140 42q92 0 140.5 -44t53.5 -105h-85q-4 15 -10.5 27t-19 25t-34 20.5t-48.5 7.5q-50 0 -72.5 -19.5t-22.5 -48.5q0 -30 23.5 -47.5t92.5 -33.5
q58 -14 95.5 -31t58 -38t28 -43.5t7.5 -53.5q0 -70 -53.5 -113.5t-147.5 -43.5q-96 0 -149.5 43.5t-63.5 116.5h89z" />
    <glyph glyph-name="t" unicode="t" horiz-adv-x="325" 
d="M10 517h90v153h89v-153h114v-72h-114v-303q0 -40 12.5 -58.5t46.5 -18.5q26 0 45 4v-67q-24 -9 -78 -9q-60 0 -87.5 31t-27.5 96v325h-90v72z" />
    <glyph glyph-name="u" unicode="u" horiz-adv-x="568" 
d="M492 151q0 -28 0.5 -83t0.5 -68h-87q-2 14 -4 78q-40 -90 -156 -90q-35 0 -64 9.5t-54 30t-39.5 59t-14.5 90.5v340h89v-321q0 -131 107 -131q71 0 101.5 42.5t30.5 140.5v269h90v-366z" />
    <glyph glyph-name="v" unicode="v" horiz-adv-x="493" 
d="M108 517q117 -357 137 -433h1q11 51 145 433h90l-189 -517h-99l-181 517h96z" />
    <glyph glyph-name="w" unicode="w" horiz-adv-x="782" 
d="M119 517q101 -381 111 -434h1q9 51 119 434h88q11 -42 24.5 -90t21.5 -76.5t17 -62.5t14.5 -53.5t11.5 -41.5t9 -35t6.5 -26t5 -22t3.5 -17h1q20 83 114 424h91l-159 -517h-97q-18 69 -46.5 172.5t-44 162.5t-20.5 84h-1q-8 -47 -114 -419h-100l-149 517h93z" />
    <glyph glyph-name="x" unicode="x" horiz-adv-x="462" 
d="M108 517l123 -193h1q9 14 26.5 41t46.5 71t53 81h100l-174 -249l176 -268h-103q-120 191 -127 204h-2q-66 -109 -126 -204h-100l173 258l-168 259h101z" />
    <glyph glyph-name="y" unicode="y" horiz-adv-x="490" 
d="M107 517q129 -381 144 -437h1q26 95 138 437h89l-185 -540q-39 -114 -78.5 -152t-118.5 -38q-26 0 -56 3v77q26 -2 43 -2q47 0 71.5 24.5t48.5 90.5l-194 537h97z" />
    <glyph glyph-name="z" unicode="z" horiz-adv-x="460" 
d="M26 72l297 370h-282v75h384v-74l-293 -368h308l-15 -75h-399v72z" />
    <glyph glyph-name="braceleft" unicode="{" horiz-adv-x="377" 
d="M28 324q35 0 58 8t34.5 24.5t15.5 35t4 47.5v132q0 87 48 132.5t128 45.5h22v-69h-17q-98 0 -98 -113v-126q0 -133 -99 -152q36 -8 57.5 -28t31.5 -50.5t10 -75.5v-127q0 -56 27 -86t73 -30h15v-68h-22q-35 0 -65.5 9.5t-56 30t-40 55.5t-14.5 82v135q0 27 -3.5 45
t-14.5 35t-34.5 25.5t-59.5 8.5v74z" />
    <glyph glyph-name="bar" unicode="|" horiz-adv-x="289" 
d="M186 797v-1064h-82v1064h82z" />
    <glyph glyph-name="braceright" unicode="}" horiz-adv-x="377" 
d="M338 248q-68 0 -90.5 -28t-22.5 -86v-133q0 -87 -48 -132t-128 -45h-21v68h16q98 0 98 113v127q0 132 99 152q-52 12 -75.5 49t-23.5 105v126q0 56 -27 86t-73 30h-14v69h21q28 0 53 -6t48 -19.5t39.5 -33.5t26 -50.5t9.5 -68.5v-134q0 -28 4 -46t14.5 -35t34 -25.5
t60.5 -8.5v-74z" />
    <glyph glyph-name="asciitilde" unicode="~" horiz-adv-x="683" 
d="M89 207v31q-1 69 31.5 101t84.5 32q35 0 76 -14.5t72 -32t65 -32t56 -14.5q28 0 39.5 17.5t11.5 54.5v17h70v-21q0 -143 -117 -143q-41 0 -93.5 23t-99.5 46.5t-75 23.5q-52 0 -52 -70v-19h-69z" />
    <glyph glyph-name="uni00A0" unicode="&#xa0;" horiz-adv-x="258" 
 />
    <glyph glyph-name="exclamdown" unicode="&#xa1;" horiz-adv-x="251" 
d="M155 517v-141h-89v141h89zM146 277l12 -345v-125h-97v125l11 345h74z" />
    <glyph glyph-name="cent" unicode="&#xa2;" horiz-adv-x="542" 
d="M504 237q-14 -65 -63 -107t-127 -48v-93h-59v94q-62 6 -108.5 39.5t-71 87.5t-24.5 123q0 65 23 118.5t70 89.5t111 43v72h59v-71q28 -1 52.5 -8t43 -17t34 -22.5t25.5 -26t18 -28t12 -27.5t5 -26h-89q-23 72 -101 82v-357q41 5 64.5 25t36.5 57h89zM143 336
q0 -69 28.5 -118t83.5 -61v353q-56 -10 -84 -55.5t-28 -118.5z" />
    <glyph glyph-name="sterling" unicode="&#xa3;" horiz-adv-x="524" 
d="M36 0v72q79 42 79 205v31h-93v70h90q-2 47 -2 82q0 102 47.5 162t142.5 60q38 0 69 -10t51 -26.5t34 -39t21 -45t8 -46.5h-86q-16 91 -99 91q-55 0 -76.5 -34.5t-21.5 -104.5q0 -33 2 -89h154v-70h-152v-25q0 -139 -54 -203h357l-12 -80h-459z" />
    <glyph glyph-name="currency" unicode="&#xa4;" horiz-adv-x="548" 
d="M276 567q70 0 123 -40l69 73l51 -53l-70 -75q29 -52 29 -118q0 -69 -30 -121l71 -74l-51 -55l-69 71q-53 -39 -125 -39q-70 0 -121 39l-67 -71l-52 55l70 72q-32 52 -32 122q0 67 33 120l-71 74l52 53l69 -73q51 39 121 40zM275 496q-60 0 -93 -39.5t-33 -102.5
q0 -72 37 -110.5t89 -38.5q57 0 91.5 36.5t34.5 111.5q0 64 -32 103.5t-94 39.5z" />
    <glyph glyph-name="yen" unicode="&#xa5;" horiz-adv-x="490" 
d="M288 170v-170h-91v170h-133v63h133v64h-133v62h119l-185 312h103q130 -232 146 -269h1q9 21 148 269h95l-189 -312h120v-62h-134v-64h134v-63h-134z" />
    <glyph glyph-name="brokenbar" unicode="&#xa6;" horiz-adv-x="238" 
d="M160 703v-363h-76v363h76zM160 183v-366h-76v366h76z" />
    <glyph glyph-name="section" unicode="&#xa7;" horiz-adv-x="571" 
d="M401 546q-9 35 -37.5 60t-81.5 25q-56 0 -82 -23.5t-26 -62.5q0 -13 4 -24.5t9 -20t17.5 -18t21 -15t28.5 -14.5t32 -13.5t38 -15.5q101 -41 146 -87.5t45 -118.5q0 -90 -76 -149q40 -39 40 -107q0 -51 -25 -89.5t-72 -59.5t-111 -21q-99 0 -156.5 44t-68.5 123h89
q10 -44 44.5 -70.5t93.5 -26.5q119 0 119 93q0 44 -31.5 71t-127.5 62q-107 38 -149 82.5t-42 114.5q0 45 24.5 85t64.5 64q-42 38 -42 103q0 71 51.5 117.5t145.5 46.5q54 0 94.5 -15.5t61.5 -41t31.5 -49.5t13.5 -49h-86zM124 298q0 -41 25.5 -69t102.5 -58
q97 -35 134 -59q19 15 31 40.5t12 52.5q0 45 -26 75t-101 64q-75 31 -115 52q-63 -41 -63 -98z" />
    <glyph glyph-name="dieresis" unicode="&#xa8;" 
d="M71 638v111h79v-111h-79zM258 638v111h78v-111h-78z" />
    <glyph glyph-name="copyright" unicode="&#xa9;" horiz-adv-x="806" 
d="M400 719q151 0 250 -102.5t99 -260.5q0 -159 -99.5 -262.5t-249.5 -103.5q-153 0 -252 101.5t-99 264.5q0 156 100.5 259.5t250.5 103.5zM399 666q-127 0 -209.5 -84t-82.5 -229q0 -134 83.5 -222t208.5 -88q127 0 209.5 85.5t82.5 227.5q0 89 -37.5 160t-104.5 110.5
t-150 39.5zM572 284q-15 -63 -57.5 -98.5t-110.5 -35.5q-82 0 -133.5 57.5t-51.5 148.5q0 90 51.5 149t135.5 59q74 1 117 -39.5t50 -96.5h-64q-24 79 -104 79q-53 0 -85 -39t-32 -110q0 -46 15 -80.5t41.5 -52t60.5 -17.5q77 0 103 76h64z" />
    <glyph glyph-name="ordfeminine" unicode="&#xaa;" horiz-adv-x="359" 
d="M311 341q0 -58 1 -76h-66q-1 7 -2 25.5t-1 21.5q-29 -51 -104 -51q-56 0 -86.5 30t-30.5 75q0 55 40.5 82.5t112.5 27.5h66v27q0 60 -67 60q-22 0 -36.5 -6.5t-21 -18t-9.5 -28.5h-68q12 104 138 104q39 0 66.5 -10t41.5 -27.5t20 -36.5t6 -41v-158zM243 427h-62
q-87 0 -87 -54q0 -25 16 -40t49 -15q42 0 63 27t21 73v9z" />
    <glyph glyph-name="guillemotleft" unicode="&#xab;" horiz-adv-x="556" 
d="M146 265l154 -200h-85l-157 200l157 197h85zM343 265l156 -200h-87l-156 200l156 197h87z" />
    <glyph glyph-name="logicalnot" unicode="&#xac;" horiz-adv-x="727" 
d="M635 413v-327h-80v248h-479v79h559z" />
    <glyph glyph-name="uni00AD" unicode="&#xad;" horiz-adv-x="385" 
d="M326 302v-82h-267v82h267z" />
    <glyph glyph-name="registered" unicode="&#xae;" horiz-adv-x="358" 
d="M189 720q73 0 119.5 -50.5t46.5 -121.5q0 -74 -46.5 -124t-119.5 -50q-72 0 -120 50t-48 124q0 73 47.5 122.5t120.5 49.5zM189 685q-61 0 -95.5 -40t-34.5 -97q0 -29 10 -54t27 -43.5t41 -29.5t52 -11q40 0 69.5 18t43.5 48.5t14 70.5q0 38 -15.5 69.5t-45 50
t-66.5 18.5zM121 465v170h73q30 0 48.5 -11.5t18.5 -37.5q0 -10 -4.5 -18.5t-11 -13.5t-12.5 -7q23 -9 23 -45q0 -25 2 -37h-40q-4 12 -4 36q0 17 -5.5 23.5t-21.5 6.5h-25v-66h-41zM162 561h29q27 0 27 23t-27 23h-29v-46z" />
    <glyph glyph-name="macron" unicode="&#xaf;" 
d="M345 713v-72h-283v72h283z" />
    <glyph glyph-name="degree" unicode="&#xb0;" horiz-adv-x="330" 
d="M170 699q42 0 74 -19t48 -49.5t16 -67.5q0 -63 -40.5 -102t-99.5 -39q-60 0 -97.5 38.5t-37.5 97.5q0 61 39 101t98 40zM169 650q-25 0 -43.5 -12.5t-27 -32.5t-8.5 -45t9.5 -45t28 -31.5t41.5 -11.5q37 0 59.5 25t22.5 64q0 35 -21 62t-61 27z" />
    <glyph glyph-name="plusminus" unicode="&#xb1;" horiz-adv-x="727" 
d="M401 681v-229h242v-73h-242v-233h-75v233h-241v73h241v229h75zM85 0v73h559v-73h-559z" />
    <glyph glyph-name="two.sups" unicode="&#xb2;" horiz-adv-x="369" 
d="M38 438v5q0 54 31.5 100.5t101.5 88.5q52 32 67 48.5t15 41.5q0 30 -17.5 47.5t-50.5 17.5q-67 0 -79 -73h-70q6 61 46.5 97.5t105.5 36.5q37 0 66 -12t44.5 -31t23 -39t7.5 -41q0 -46 -23.5 -72.5t-83.5 -60.5q-84 -50 -99 -94h223l-11 -60h-297z" />
    <glyph glyph-name="three.sups" unicode="&#xb3;" horiz-adv-x="379" 
d="M150 682h34q68 0 68 50q0 25 -16.5 41t-52.5 16q-62 0 -78 -58h-66q2 17 9 34.5t22.5 37t45.5 32t70 12.5q67 0 102.5 -31t35.5 -80q0 -16 -5 -30t-14 -24t-18.5 -16.5t-20.5 -10.5q32 -9 54 -34.5t22 -62.5q0 -52 -38.5 -89t-117.5 -37q-43 0 -75 13t-48 34t-23.5 39
t-9.5 36h70q4 -18 15 -32.5t30 -23t43 -8.5q38 0 58 18t20 48q0 65 -78 65h-38v61z" />
    <glyph glyph-name="acute" unicode="&#xb4;" 
d="M382 759l-157 -156h-83l130 156h110z" />
    <glyph glyph-name="uni00B5" unicode="&#xb5;" horiz-adv-x="564" 
d="M253 -10q-61 0 -95 45q5 -79 5 -244h-89q1 36 1 108t-0.5 161.5t-0.5 116.5v340h89v-321q0 -27 4.5 -48t15 -40.5t32 -30t52.5 -10.5q41 0 69.5 17t45.5 55.5t17 96.5v281h90v-368q0 -100 2 -149h-87q-3 19 -5 82q-21 -46 -55 -69t-91 -23z" />
    <glyph glyph-name="paragraph" unicode="&#xb6;" horiz-adv-x="613" 
d="M414 -160v302h-129q-118 0 -179.5 68t-61.5 189q0 119 61.5 186.5t179.5 67.5h130q0 34 4 57h68q-1 -19 -1 -85v-785h-72zM414 215v367h-47q-24 0 -41.5 -9.5t-27 -24t-14.5 -40t-6.5 -47.5t-2.5 -57v-6q0 -21 0.5 -32.5t1.5 -32t3.5 -31.5t6.5 -27t10.5 -25t16 -18
t23 -13t29.5 -4h48z" />
    <glyph glyph-name="periodcentered" unicode="&#xb7;" horiz-adv-x="207" 
d="M56 204v151h94v-151h-94z" />
    <glyph glyph-name="cedilla" unicode="&#xb8;" 
d="M252 0l-42 -52q17 -3 31.5 -8.5t31 -15.5t26.5 -28.5t10 -43.5q0 -29 -11.5 -49.5t-31.5 -30.5t-40.5 -14.5t-42.5 -4.5q-47 0 -74 12v62q26 -12 66 -12q55 0 55 36q0 44 -106 46v29l65 84z" />
    <glyph glyph-name="one.sups" unicode="&#xb9;" horiz-adv-x="253" 
d="M109 437v320q-15 -9 -43 -15.5t-43 -6.5v57q62 10 110 56h50v-411h-74z" />
    <glyph glyph-name="ordmasculine" unicode="&#xba;" horiz-adv-x="384" 
d="M195 614q49 0 86 -21.5t56.5 -61.5t19.5 -93q0 -57 -22 -97.5t-59.5 -60t-85.5 -19.5q-36 0 -66 12.5t-51.5 35.5t-33 55.5t-11.5 72.5q0 81 47 129t120 48zM192 559q-44 0 -68.5 -32t-24.5 -89q0 -55 25 -88.5t68 -33.5q45 0 69.5 31t24.5 91q-1 57 -25 89t-69 32z" />
    <glyph glyph-name="guillemotright" unicode="&#xbb;" horiz-adv-x="556" 
d="M214 263l-156 199h87l156 -199l-156 -198h-87zM411 263l-154 199h86l156 -199l-156 -198h-85z" />
    <glyph glyph-name="onequarter" unicode="&#xbc;" horiz-adv-x="792" 
d="M119 266v320q-15 -8 -43 -14.5t-42 -6.5v56q61 11 109 56h50v-411h-74zM110 1l440 671h71l-438 -671h-73zM633 0v105h-202v56l185 242h86v-241h62l-6 -57h-56v-105h-69zM633 162v83q0 63 3 98q-7 -12 -30 -43.5t-56.5 -76t-45.5 -61.5h129z" />
    <glyph glyph-name="onehalf" unicode="&#xbd;" horiz-adv-x="829" 
d="M122 266v320q-15 -8 -43 -14.5t-42 -6.5v56q61 11 109 56h50v-411h-74zM108 0l440 671h71l-438 -671h-73zM489 0v5q0 55 31.5 101t101.5 89q52 32 67 48t15 42q0 30 -17.5 47.5t-51.5 17.5q-66 0 -78 -74h-70q4 41 23.5 71t52.5 46.5t76 16.5q37 0 66 -11.5t44.5 -30.5
t23 -39.5t7.5 -40.5q0 -25 -6 -43t-21.5 -34t-32.5 -27.5t-47 -29.5q-84 -50 -99 -94h223l-12 -60h-296z" />
    <glyph glyph-name="threequarters" unicode="&#xbe;" horiz-adv-x="877" 
d="M165 512h34q68 0 68 50q0 16 -6 28t-22 20.5t-41 8.5q-61 0 -78 -58h-66q2 17 9.5 34t22.5 37t45 32t70 12q67 0 103 -31t36 -79q0 -31 -17.5 -51.5t-40.5 -30.5q20 -5 36.5 -17.5t27.5 -33t11 -45.5q0 -52 -38.5 -89t-117.5 -37q-35 0 -62.5 9t-44 22t-27.5 30.5
t-15.5 31.5t-6.5 29h70q4 -18 15 -32.5t30 -23.5t43 -9q25 0 43 8.5t27 23.5t9 35q0 65 -79 65h-38v61zM221 1l440 671h71l-438 -671h-73zM724 0v105h-202v56l185 242h86v-241h62l-6 -57h-56v-105h-69zM724 162v83q0 63 3 98q-7 -12 -30 -43.5t-56.5 -76t-45.5 -61.5h129z
" />
    <glyph glyph-name="questiondown" unicode="&#xbf;" horiz-adv-x="454" 
d="M279 517v-141h-91v141h91zM22 -23q0 54 21.5 96.5t75.5 91.5q39 35 54 63.5t15 65.5v8h91v-16q0 -45 -20 -84t-76 -90q-42 -38 -57 -68.5t-15 -65.5q0 -43 29.5 -75.5t83.5 -32.5q112 0 128 121h80q-1 -26 -7 -50.5t-21 -51t-38 -46.5t-61 -33t-87 -13q-95 0 -145.5 53
t-50.5 127z" />
    <glyph glyph-name="Agrave" unicode="&#xc0;" horiz-adv-x="673" 
d="M240 913l139 -140h-90l-168 140h119zM191 213l-77 -213h-94l253 710h116l264 -710h-101l-79 213h-282zM450 294q-107 291 -121 339h-1q-12 -42 -113 -339h235z" />
    <glyph glyph-name="Aacute" unicode="&#xc1;" horiz-adv-x="673" 
d="M550 913l-175 -140h-92l149 140h118zM191 213l-77 -213h-94l253 710h116l264 -710h-101l-79 213h-282zM450 294q-107 291 -121 339h-1q-12 -42 -113 -339h235z" />
    <glyph glyph-name="Acircumflex" unicode="&#xc2;" horiz-adv-x="673" 
d="M380 907l133 -134h-95l-85 85l-91 -85h-94l139 134h93zM191 213l-77 -213h-94l253 710h116l264 -710h-101l-79 213h-282zM450 294q-107 291 -121 339h-1q-12 -42 -113 -339h235z" />
    <glyph glyph-name="Atilde" unicode="&#xc3;" horiz-adv-x="673" 
d="M156 781v23q0 100 88 100q35 0 91.5 -27t72.5 -27q33 0 33 44v12h62v-22q0 -57 -22 -81t-65 -24q-31 0 -88.5 27t-76.5 27q-30 0 -30 -34v-18h-65zM191 213l-77 -213h-94l253 710h116l264 -710h-101l-79 213h-282zM450 294q-107 291 -121 339h-1q-12 -42 -113 -339h235z
" />
    <glyph glyph-name="Adieresis" unicode="&#xc4;" horiz-adv-x="673" 
d="M191 785v113h78v-113h-78zM391 785v113h77v-113h-77zM191 213l-77 -213h-94l253 710h116l264 -710h-101l-79 213h-282zM450 294q-107 291 -121 339h-1q-12 -42 -113 -339h235z" />
    <glyph glyph-name="Aring" unicode="&#xc5;" horiz-adv-x="673" 
d="M330 748q-32 0 -57.5 13t-38.5 35.5t-13 50.5q0 42 30 71.5t79 29.5q50 0 79.5 -28.5t29.5 -71.5t-30.5 -71.5t-78.5 -28.5zM330 794q26 0 40 15.5t14 37.5t-14 38.5t-40 16.5q-17 0 -29.5 -8t-18 -19.5t-5.5 -25.5q0 -23 13.5 -39t39.5 -16zM191 213l-77 -213h-94
l253 710h116l264 -710h-101l-79 213h-282zM450 294q-107 291 -121 339h-1q-12 -42 -113 -339h235z" />
    <glyph glyph-name="AE" unicode="&#xc6;" horiz-adv-x="987" 
d="M934 710v-82h-369v-215h352v-81h-352v-250h387l-13 -82h-467v242h-240l-151 -242h-102l442 710h513zM472 323v312h-3l-193 -312h196z" />
    <glyph glyph-name="Ccedilla" unicode="&#xc7;" horiz-adv-x="699" 
d="M656 201q-15 -57 -45 -100t-80.5 -72t-116.5 -36l-36 -45q17 -3 32 -8.5t31.5 -15.5t26 -28.5t9.5 -43.5q0 -29 -11.5 -49.5t-31.5 -30.5t-40 -14.5t-43 -4.5q-47 0 -74 12v62q26 -12 67 -12q54 0 54 36q0 44 -105 46v29l50 66q-93 7 -159.5 57.5t-98 128.5t-31.5 175
q0 73 20.5 138.5t59.5 117t101.5 81.5t140.5 30q120 0 191.5 -59.5t88.5 -154.5h-94q-21 64 -65.5 100t-123.5 36q-56 0 -100 -24.5t-69.5 -65.5t-38 -90.5t-12.5 -105.5q0 -36 5.5 -70t16 -66.5t29 -59.5t42.5 -47.5t57.5 -32t73.5 -11.5q75 0 118 36t66 96h95z" />
    <glyph glyph-name="Egrave" unicode="&#xc8;" horiz-adv-x="608" 
d="M247 923l140 -140h-91l-167 140h118zM539 332h-353v-251h387l-12 -81h-467v710h462v-81h-370v-217h353v-80z" />
    <glyph glyph-name="Eacute" unicode="&#xc9;" horiz-adv-x="608" 
d="M533 921l-174 -140h-93l150 140h117zM539 332h-353v-251h387l-12 -81h-467v710h462v-81h-370v-217h353v-80z" />
    <glyph glyph-name="Ecircumflex" unicode="&#xca;" horiz-adv-x="608" 
d="M374 913l133 -134h-95l-86 85l-90 -85h-94l138 134h94zM539 332h-353v-251h387l-12 -81h-467v710h462v-81h-370v-217h353v-80z" />
    <glyph glyph-name="Edieresis" unicode="&#xcb;" horiz-adv-x="608" 
d="M187 790v113h78v-113h-78zM387 790v113h77v-113h-77zM539 332h-353v-251h387l-12 -81h-467v710h462v-81h-370v-217h353v-80z" />
    <glyph glyph-name="Igrave" unicode="&#xcc;" horiz-adv-x="281" 
d="M51 916l140 -140h-91l-167 140h118zM188 710v-710h-94v710h94z" />
    <glyph glyph-name="Iacute" unicode="&#xcd;" horiz-adv-x="281" 
d="M360 913l-174 -140h-93l150 140h117zM188 710v-710h-94v710h94z" />
    <glyph glyph-name="Icircumflex" unicode="&#xce;" horiz-adv-x="281" 
d="M191 907l132 -134h-95l-85 85l-91 -85h-94l139 134h94zM188 710v-710h-94v710h94z" />
    <glyph glyph-name="Idieresis" unicode="&#xcf;" horiz-adv-x="281" 
d="M2 785v113h79v-113h-79zM202 785v113h77v-113h-77zM188 710v-710h-94v710h94z" />
    <glyph glyph-name="Eth" unicode="&#xd0;" horiz-adv-x="744" 
d="M104 401v309h253q151 0 243 -95t92 -253q0 -159 -92.5 -260.5t-245.5 -101.5h-250v329h-86v72h86zM198 401h183v-72h-183v-249h149q81 0 137.5 37t82.5 99t26 144q0 54 -14.5 101.5t-43.5 85.5t-77 60t-111 22h-149v-228z" />
    <glyph glyph-name="Ntilde" unicode="&#xd1;" horiz-adv-x="758" 
d="M206 781v23q0 100 88 100q35 0 91.5 -27t72.5 -27q33 0 33 44v12h62v-22q0 -57 -22 -81t-65 -24q-31 0 -88.5 27t-76.5 27q-30 0 -30 -34v-18h-65zM94 0v710h124q23 -37 122 -197t161.5 -262.5t79.5 -136.5h1q-6 78 -6 318v278h89v-710h-117q-112 183 -226 372t-142 241
h-3q6 -81 6 -329v-284h-89z" />
    <glyph glyph-name="Ograve" unicode="&#xd2;" horiz-adv-x="766" 
d="M305 926l140 -140h-91l-167 140h118zM388 720q148 0 236 -100.5t88 -260.5q0 -75 -21 -140.5t-61 -117t-104.5 -81.5t-146.5 -30q-76 0 -138 28t-102.5 77.5t-62.5 116t-22 143.5q0 103 38 184.5t114.5 131t181.5 49.5zM384 640q-59 0 -104 -23t-72 -62t-41 -89t-14 -108
q0 -79 25 -143t78.5 -104.5t127.5 -40.5q59 0 104.5 23.5t72 64t40 90.5t13.5 109q0 79 -24.5 141.5t-77.5 102t-128 39.5z" />
    <glyph glyph-name="Oacute" unicode="&#xd3;" horiz-adv-x="766" 
d="M595 920l-175 -140h-93l150 140h118zM388 720q148 0 236 -100.5t88 -260.5q0 -75 -21 -140.5t-61 -117t-104.5 -81.5t-146.5 -30q-76 0 -138 28t-102.5 77.5t-62.5 116t-22 143.5q0 103 38 184.5t114.5 131t181.5 49.5zM384 640q-59 0 -104 -23t-72 -62t-41 -89t-14 -108
q0 -79 25 -143t78.5 -104.5t127.5 -40.5q59 0 104.5 23.5t72 64t40 90.5t13.5 109q0 79 -24.5 141.5t-77.5 102t-128 39.5z" />
    <glyph glyph-name="Ocircumflex" unicode="&#xd4;" horiz-adv-x="766" 
d="M434 911l132 -134h-95l-85 85l-91 -85h-94l139 134h94zM388 720q148 0 236 -100.5t88 -260.5q0 -75 -21 -140.5t-61 -117t-104.5 -81.5t-146.5 -30q-76 0 -138 28t-102.5 77.5t-62.5 116t-22 143.5q0 103 38 184.5t114.5 131t181.5 49.5zM384 640q-59 0 -104 -23t-72 -62
t-41 -89t-14 -108q0 -79 25 -143t78.5 -104.5t127.5 -40.5q59 0 104.5 23.5t72 64t40 90.5t13.5 109q0 79 -24.5 141.5t-77.5 102t-128 39.5z" />
    <glyph glyph-name="Otilde" unicode="&#xd5;" horiz-adv-x="766" 
d="M210 786v23q0 100 88 100q35 0 91.5 -27t72.5 -27q33 0 33 44v12h62v-22q0 -57 -22 -81t-65 -24q-31 0 -88.5 27t-76.5 27q-30 0 -30 -34v-18h-65zM388 720q148 0 236 -100.5t88 -260.5q0 -75 -21 -140.5t-61 -117t-104.5 -81.5t-146.5 -30q-76 0 -138 28t-102.5 77.5
t-62.5 116t-22 143.5q0 103 38 184.5t114.5 131t181.5 49.5zM384 640q-59 0 -104 -23t-72 -62t-41 -89t-14 -108q0 -79 25 -143t78.5 -104.5t127.5 -40.5q59 0 104.5 23.5t72 64t40 90.5t13.5 109q0 79 -24.5 141.5t-77.5 102t-128 39.5z" />
    <glyph glyph-name="Odieresis" unicode="&#xd6;" horiz-adv-x="766" 
d="M245 790v113h78v-113h-78zM445 790v113h77v-113h-77zM388 720q148 0 236 -100.5t88 -260.5q0 -75 -21 -140.5t-61 -117t-104.5 -81.5t-146.5 -30q-76 0 -138 28t-102.5 77.5t-62.5 116t-22 143.5q0 103 38 184.5t114.5 131t181.5 49.5zM384 640q-59 0 -104 -23t-72 -62
t-41 -89t-14 -108q0 -79 25 -143t78.5 -104.5t127.5 -40.5q59 0 104.5 23.5t72 64t40 90.5t13.5 109q0 79 -24.5 141.5t-77.5 102t-128 39.5z" />
    <glyph glyph-name="multiply" unicode="&#xd7;" horiz-adv-x="727" 
d="M586 0l-222 233l-222 -233l-53 55l223 232l-223 233l52 53l223 -232l224 232l52 -53l-224 -233l224 -232z" />
    <glyph glyph-name="Oslash" unicode="&#xd8;" horiz-adv-x="766" 
d="M388 720q97 0 174 -48l27 38h71l-53 -74q51 -49 79 -120.5t28 -156.5q0 -77 -21 -143t-61.5 -117t-105 -80t-147.5 -29q-109 0 -189 59l-35 -49h-71l63 89q-93 100 -93 266q0 101 38.5 183t115.5 132t180 50zM149 358q0 -114 53 -192l311 438q-56 38 -129 38
q-75 0 -128.5 -37.5t-80 -100.5t-26.5 -146zM384 68q59 0 105 23t73.5 63t41 91t13.5 112q0 130 -61 206l-315 -443q58 -52 143 -52z" />
    <glyph glyph-name="Ugrave" unicode="&#xd9;" horiz-adv-x="728" 
d="M288 913l139 -140h-90l-168 140h119zM183 710v-427q0 -49 10 -86.5t27.5 -61t41.5 -39t49 -21.5t54 -6q87 0 134.5 48.5t47.5 165.5v427h95v-422q0 -297 -279 -297q-58 0 -106 15t-87 47.5t-61 90t-22 136.5v430h96z" />
    <glyph glyph-name="Uacute" unicode="&#xda;" horiz-adv-x="728" 
d="M573 913l-174 -140h-93l150 140h117zM183 710v-427q0 -49 10 -86.5t27.5 -61t41.5 -39t49 -21.5t54 -6q87 0 134.5 48.5t47.5 165.5v427h95v-422q0 -297 -279 -297q-58 0 -106 15t-87 47.5t-61 90t-22 136.5v430h96z" />
    <glyph glyph-name="Ucircumflex" unicode="&#xdb;" horiz-adv-x="728" 
d="M414 915l133 -134h-95l-86 85l-91 -85h-93l138 134h94zM183 710v-427q0 -49 10 -86.5t27.5 -61t41.5 -39t49 -21.5t54 -6q87 0 134.5 48.5t47.5 165.5v427h95v-422q0 -297 -279 -297q-58 0 -106 15t-87 47.5t-61 90t-22 136.5v430h96z" />
    <glyph glyph-name="Udieresis" unicode="&#xdc;" horiz-adv-x="728" 
d="M225 785v113h79v-113h-79zM425 785v113h78v-113h-78zM183 710v-427q0 -49 10 -86.5t27.5 -61t41.5 -39t49 -21.5t54 -6q87 0 134.5 48.5t47.5 165.5v427h95v-422q0 -297 -279 -297q-58 0 -106 15t-87 47.5t-61 90t-22 136.5v430h96z" />
    <glyph glyph-name="Yacute" unicode="&#xdd;" horiz-adv-x="602" 
d="M512 911l-174 -140h-93l150 140h117zM250 0v260q0 13 -5 19l-250 431h108q178 -319 200 -361q31 63 203 361h101l-258 -433q-4 -8 -4 -18v-259h-95z" />
    <glyph glyph-name="Thorn" unicode="&#xde;" horiz-adv-x="640" 
d="M94 710h94v-140h162q119 0 180 -56.5t61 -147.5q0 -100 -66.5 -156t-182.5 -56h-154v-154h-94v710zM188 234h151q35 0 62 6t49 21t33.5 41t11.5 63q0 62 -40 94.5t-113 32.5h-154v-258z" />
    <glyph glyph-name="germandbls" unicode="&#xdf;" horiz-adv-x="597" 
d="M306 760q58 0 103 -17t71 -45t39.5 -60.5t14.5 -68.5q0 -21 -2 -32l-173 -119v-1l82 -57q70 -50 96.5 -92.5t26.5 -97.5q0 -80 -52 -129.5t-143 -49.5q-99 0 -155 48v90q31 -32 72 -49t81 -17q38 0 64 16t35.5 37t9.5 45q0 36 -19 64.5t-69 64.5l-92 64q-37 25 -37 54.5
t38 55.5l146 100q0 20 -6 39.5t-20.5 38.5t-43 31t-68.5 12q-68 0 -104 -33.5t-36 -114.5v-537h-90v543q0 112 62.5 164.5t168.5 52.5z" />
    <glyph glyph-name="agrave" unicode="&#xe0;" horiz-adv-x="539" 
d="M196 759l130 -156h-84l-157 156h111zM462 113q0 -77 7 -113h-85q-7 18 -9 67q-43 -79 -160 -79q-86 0 -130 46.5t-44 111.5q0 85 63 126.5t182 41.5h87v44q0 20 -4 35.5t-14.5 31.5t-34 25t-58.5 9q-30 0 -51.5 -6.5t-32.5 -20t-16.5 -25.5t-9.5 -31h-87q3 30 14 55
t32.5 48.5t61 36.5t92.5 13q197 0 197 -169v-247zM374 252h-83q-80 0 -119 -24t-39 -77q0 -27 11.5 -48t34.5 -33t55 -12q36 0 62 10t41 25.5t23.5 39.5t11 47.5t2.5 55.5v16z" />
    <glyph glyph-name="aacute" unicode="&#xe1;" horiz-adv-x="539" 
d="M449 759l-157 -156h-84l131 156h110zM462 113q0 -77 7 -113h-85q-7 18 -9 67q-43 -79 -160 -79q-86 0 -130 46.5t-44 111.5q0 85 63 126.5t182 41.5h87v44q0 20 -4 35.5t-14.5 31.5t-34 25t-58.5 9q-30 0 -51.5 -6.5t-32.5 -20t-16.5 -25.5t-9.5 -31h-87q3 30 14 55
t32.5 48.5t61 36.5t92.5 13q197 0 197 -169v-247zM374 252h-83q-80 0 -119 -24t-39 -77q0 -27 11.5 -48t34.5 -33t55 -12q36 0 62 10t41 25.5t23.5 39.5t11 47.5t2.5 55.5v16z" />
    <glyph glyph-name="acircumflex" unicode="&#xe2;" horiz-adv-x="539" 
d="M312 749l113 -155h-87l-69 103l-67 -103h-87l112 155h85zM462 113q0 -77 7 -113h-85q-7 18 -9 67q-43 -79 -160 -79q-86 0 -130 46.5t-44 111.5q0 85 63 126.5t182 41.5h87v44q0 20 -4 35.5t-14.5 31.5t-34 25t-58.5 9q-30 0 -51.5 -6.5t-32.5 -20t-16.5 -25.5t-9.5 -31
h-87q3 30 14 55t32.5 48.5t61 36.5t92.5 13q197 0 197 -169v-247zM374 252h-83q-80 0 -119 -24t-39 -77q0 -27 11.5 -48t34.5 -33t55 -12q36 0 62 10t41 25.5t23.5 39.5t11 47.5t2.5 55.5v16z" />
    <glyph glyph-name="atilde" unicode="&#xe3;" horiz-adv-x="539" 
d="M112 617v24q0 97 83 97q31 0 79 -25t64 -25q9 0 15 4t9.5 13.5t3.5 25.5v11h62v-22q0 -104 -84 -104q-31 0 -77 25.5t-65 25.5q-27 0 -27 -34v-16h-63zM462 113q0 -77 7 -113h-85q-7 18 -9 67q-43 -79 -160 -79q-86 0 -130 46.5t-44 111.5q0 85 63 126.5t182 41.5h87v44
q0 20 -4 35.5t-14.5 31.5t-34 25t-58.5 9q-30 0 -51.5 -6.5t-32.5 -20t-16.5 -25.5t-9.5 -31h-87q3 30 14 55t32.5 48.5t61 36.5t92.5 13q197 0 197 -169v-247zM374 252h-83q-80 0 -119 -24t-39 -77q0 -27 11.5 -48t34.5 -33t55 -12q36 0 62 10t41 25.5t23.5 39.5t11 47.5
t2.5 55.5v16z" />
    <glyph glyph-name="adieresis" unicode="&#xe4;" horiz-adv-x="539" 
d="M138 638v111h78v-111h-78zM324 638v111h78v-111h-78zM462 113q0 -77 7 -113h-85q-7 18 -9 67q-43 -79 -160 -79q-86 0 -130 46.5t-44 111.5q0 85 63 126.5t182 41.5h87v44q0 20 -4 35.5t-14.5 31.5t-34 25t-58.5 9q-30 0 -51.5 -6.5t-32.5 -20t-16.5 -25.5t-9.5 -31h-87
q3 30 14 55t32.5 48.5t61 36.5t92.5 13q197 0 197 -169v-247zM374 252h-83q-80 0 -119 -24t-39 -77q0 -27 11.5 -48t34.5 -33t55 -12q36 0 62 10t41 25.5t23.5 39.5t11 47.5t2.5 55.5v16z" />
    <glyph glyph-name="aring" unicode="&#xe5;" horiz-adv-x="539" 
d="M270 577q-33 0 -58 13.5t-38 36t-13 49.5q0 28 13 50.5t38 36.5t58 14t58 -13t37.5 -36t12.5 -51q0 -42 -30 -71t-78 -29zM270 623q26 0 39.5 16t13.5 37q0 11 -3 20.5t-9.5 17.5t-16.5 12.5t-24 4.5q-26 0 -39.5 -15.5t-13.5 -37.5t13.5 -38.5t39.5 -16.5zM462 113
q0 -77 7 -113h-85q-7 18 -9 67q-43 -79 -160 -79q-86 0 -130 46.5t-44 111.5q0 85 63 126.5t182 41.5h87v44q0 20 -4 35.5t-14.5 31.5t-34 25t-58.5 9q-30 0 -51.5 -6.5t-32.5 -20t-16.5 -25.5t-9.5 -31h-87q3 30 14 55t32.5 48.5t61 36.5t92.5 13q197 0 197 -169v-247z
M374 252h-83q-80 0 -119 -24t-39 -77q0 -27 11.5 -48t34.5 -33t55 -12q36 0 62 10t41 25.5t23.5 39.5t11 47.5t2.5 55.5v16z" />
    <glyph glyph-name="ae" unicode="&#xe6;" horiz-adv-x="867" 
d="M822 145q-44 -155 -219 -155q-73 0 -120.5 29t-71.5 73q-54 -102 -190 -102q-86 0 -133 45.5t-47 111.5q0 42 17 72.5t43 47.5t65 27t73.5 13t78.5 3h59v44q0 106 -105 106q-53 0 -77.5 -21.5t-32.5 -64.5h-95q7 72 58 112.5t141 40.5q138 0 172 -82q25 36 69.5 59
t105.5 23q55 0 98 -20t68 -54t37 -74.5t12 -84.5q0 -34 -1 -48h-365q-1 -85 38.5 -135t106.5 -50q27 0 48 5.5t35.5 17t24.5 26t18 35.5h89zM741 310q-2 65 -35.5 105.5t-97.5 41.5q-62 1 -99.5 -37t-44.5 -110h277zM378 246h-65q-35 0 -60.5 -2.5t-49.5 -8.5t-39 -16.5
t-23.5 -27.5t-8.5 -40q0 -37 29 -63t76 -26q51 0 83 21t45 58t13 95v10z" />
    <glyph glyph-name="ccedilla" unicode="&#xe7;" horiz-adv-x="516" 
d="M484 158q-9 -41 -28.5 -74t-55.5 -59t-84 -34l-34 -43q16 -3 31 -8.5t31.5 -15.5t26 -28.5t9.5 -43.5q0 -29 -11.5 -49.5t-31.5 -30.5t-40 -14.5t-43 -4.5q-47 0 -73 12v62q25 -12 66 -12q54 0 54 36q0 44 -105 46v29l48 63q-63 6 -109 40t-70 92t-24 135q0 75 26.5 136
t81 99t128.5 38q53 0 94 -17t64 -44.5t35 -55t14 -55.5h-88q-23 98 -121 98q-67 0 -104.5 -53.5t-37.5 -142.5q0 -90 36.5 -143.5t102.5 -53.5q90 0 124 96h88z" />
    <glyph glyph-name="egrave" unicode="&#xe8;" horiz-adv-x="533" 
d="M201 759l131 -156h-85l-157 156h111zM130 243q0 -80 38.5 -130.5t102.5 -50.5q55 0 82 22t43 59h91q-9 -28 -24 -53t-39.5 -49.5t-64.5 -38.5t-91 -14q-58 0 -103.5 22.5t-72 60.5t-39.5 84t-13 98q0 121 60.5 198.5t173.5 77.5q49 0 87.5 -14.5t63 -39t41 -57
t23.5 -65.5t7 -67q0 -30 -1 -43h-365zM405 305q-1 68 -35 111t-97 43q-125 0 -140 -154h272z" />
    <glyph glyph-name="eacute" unicode="&#xe9;" horiz-adv-x="533" 
d="M453 759l-157 -156h-84l131 156h110zM130 243q0 -80 38.5 -130.5t102.5 -50.5q55 0 82 22t43 59h91q-9 -28 -24 -53t-39.5 -49.5t-64.5 -38.5t-91 -14q-58 0 -103.5 22.5t-72 60.5t-39.5 84t-13 98q0 121 60.5 198.5t173.5 77.5q49 0 87.5 -14.5t63 -39t41 -57
t23.5 -65.5t7 -67q0 -30 -1 -43h-365zM405 305q-1 68 -35 111t-97 43q-125 0 -140 -154h272z" />
    <glyph glyph-name="ecircumflex" unicode="&#xea;" horiz-adv-x="533" 
d="M319 749l113 -155h-87l-69 103l-67 -103h-87l113 155h84zM130 243q0 -80 38.5 -130.5t102.5 -50.5q55 0 82 22t43 59h91q-9 -28 -24 -53t-39.5 -49.5t-64.5 -38.5t-91 -14q-58 0 -103.5 22.5t-72 60.5t-39.5 84t-13 98q0 121 60.5 198.5t173.5 77.5q49 0 87.5 -14.5
t63 -39t41 -57t23.5 -65.5t7 -67q0 -30 -1 -43h-365zM405 305q-1 68 -35 111t-97 43q-125 0 -140 -154h272z" />
    <glyph glyph-name="edieresis" unicode="&#xeb;" horiz-adv-x="533" 
d="M138 638v111h78v-111h-78zM324 638v111h78v-111h-78zM130 243q0 -80 38.5 -130.5t102.5 -50.5q55 0 82 22t43 59h91q-9 -28 -24 -53t-39.5 -49.5t-64.5 -38.5t-91 -14q-58 0 -103.5 22.5t-72 60.5t-39.5 84t-13 98q0 121 60.5 198.5t173.5 77.5q49 0 87.5 -14.5t63 -39
t41 -57t23.5 -65.5t7 -67q0 -30 -1 -43h-365zM405 305q-1 68 -35 111t-97 43q-125 0 -140 -154h272z" />
    <glyph glyph-name="igrave" unicode="&#xec;" horiz-adv-x="241" 
d="M35 759l130 -156h-84l-157 156h111zM76 517h90v-517h-90v517z" />
    <glyph glyph-name="iacute" unicode="&#xed;" horiz-adv-x="241" 
d="M317 759l-157 -156h-84l131 156h110zM76 517h90v-517h-90v517z" />
    <glyph glyph-name="icircumflex" unicode="&#xee;" horiz-adv-x="241" 
d="M163 749l113 -155h-87l-69 103l-67 -103h-87l113 155h84zM76 517h90v-517h-90v517z" />
    <glyph glyph-name="idieresis" unicode="&#xef;" horiz-adv-x="241" 
d="M-11 638v111h78v-111h-78zM175 638v111h78v-111h-78zM76 517h90v-517h-90v517z" />
    <glyph glyph-name="eth" unicode="&#xf0;" horiz-adv-x="550" 
d="M107 760q111 -16 194 -65l110 75l29 -48l-90 -61q158 -126 158 -367q0 -153 -65.5 -229.5t-174.5 -76.5q-106 0 -168 74.5t-62 189.5q0 120 67.5 190t171.5 70q64 0 110 -35q-35 85 -104 139l-130 -88l-29 47l107 73q-50 26 -124 42v70zM277 438q-70 0 -109 -53t-39 -136
q0 -78 38.5 -132t105.5 -54q72 0 108.5 59t36.5 161q0 69 -33.5 112t-107.5 43z" />
    <glyph glyph-name="ntilde" unicode="&#xf1;" horiz-adv-x="577" 
d="M128 620v24q0 98 82 98q31 0 79 -25t64 -25q15 0 21.5 9t6.5 33v11h63v-22q0 -104 -85 -104q-31 0 -76.5 25.5t-65.5 25.5q-26 0 -26 -34v-16h-63zM76 387q0 90 -1 130h87q4 -20 4 -85q45 97 162 97q78 0 126 -49t48 -147v-333h-90v321q0 131 -109 131q-70 0 -103.5 -48
t-33.5 -131v-273h-90v387z" />
    <glyph glyph-name="ograve" unicode="&#xf2;" horiz-adv-x="561" 
d="M207 759l131 -156h-85l-157 156h111zM284 529q107 0 172 -73.5t65 -195.5q0 -117 -64.5 -194.5t-179.5 -77.5q-72 0 -126.5 35t-82.5 96t-28 139q0 119 65 195t179 76zM279 455q-71 0 -109 -53t-38 -143q0 -87 40.5 -142t109.5 -55t108 53.5t39 142.5q0 59 -17 103
t-51 69t-82 25z" />
    <glyph glyph-name="oacute" unicode="&#xf3;" horiz-adv-x="561" 
d="M459 759l-157 -156h-84l131 156h110zM284 529q107 0 172 -73.5t65 -195.5q0 -117 -64.5 -194.5t-179.5 -77.5q-72 0 -126.5 35t-82.5 96t-28 139q0 119 65 195t179 76zM279 455q-71 0 -109 -53t-38 -143q0 -87 40.5 -142t109.5 -55t108 53.5t39 142.5q0 59 -17 103
t-51 69t-82 25z" />
    <glyph glyph-name="ocircumflex" unicode="&#xf4;" horiz-adv-x="561" 
d="M321 749l114 -155h-88l-69 103l-67 -103h-87l113 155h84zM284 529q107 0 172 -73.5t65 -195.5q0 -117 -64.5 -194.5t-179.5 -77.5q-72 0 -126.5 35t-82.5 96t-28 139q0 119 65 195t179 76zM279 455q-71 0 -109 -53t-38 -143q0 -87 40.5 -142t109.5 -55t108 53.5t39 142.5
q0 59 -17 103t-51 69t-82 25z" />
    <glyph glyph-name="otilde" unicode="&#xf5;" horiz-adv-x="561" 
d="M121 617v24q0 97 83 97q31 0 79 -25t64 -25q14 0 21 9.5t7 33.5v11h63v-22q0 -104 -85 -104q-31 0 -76.5 25.5t-65.5 25.5q-26 0 -26 -34v-16h-64zM284 529q107 0 172 -73.5t65 -195.5q0 -117 -64.5 -194.5t-179.5 -77.5q-72 0 -126.5 35t-82.5 96t-28 139q0 119 65 195
t179 76zM279 455q-71 0 -109 -53t-38 -143q0 -87 40.5 -142t109.5 -55t108 53.5t39 142.5q0 59 -17 103t-51 69t-82 25z" />
    <glyph glyph-name="odieresis" unicode="&#xf6;" horiz-adv-x="561" 
d="M147 638v111h78v-111h-78zM334 638v111h77v-111h-77zM284 529q107 0 172 -73.5t65 -195.5q0 -117 -64.5 -194.5t-179.5 -77.5q-72 0 -126.5 35t-82.5 96t-28 139q0 119 65 195t179 76zM279 455q-71 0 -109 -53t-38 -143q0 -87 40.5 -142t109.5 -55t108 53.5t39 142.5
q0 59 -17 103t-51 69t-82 25z" />
    <glyph glyph-name="divide" unicode="&#xf7;" horiz-adv-x="727" 
d="M323 437v133h80v-133h-80zM85 247v79h558v-79h-558zM323 0v133h80v-133h-80z" />
    <glyph glyph-name="oslash" unicode="&#xf8;" horiz-adv-x="561" 
d="M284 529q76 0 132 -38l25 33h62l-48 -67q66 -74 66 -199q0 -123 -67 -197t-178 -74q-75 0 -130 37l-26 -34h-61l49 68q-69 76 -69 199q0 125 68.5 198.5t176.5 73.5zM279 458q-73 0 -112 -54t-39 -145q0 -76 30 -129l213 297q-38 31 -92 31zM280 58q71 0 111.5 53.5
t40.5 145.5q0 81 -28 130l-212 -297q36 -32 88 -32z" />
    <glyph glyph-name="ugrave" unicode="&#xf9;" horiz-adv-x="568" 
d="M211 759l131 -156h-85l-157 156h111zM492 151q0 -28 0.5 -83t0.5 -68h-87q-2 14 -4 78q-40 -90 -156 -90q-35 0 -64 9.5t-54 30t-39.5 59t-14.5 90.5v340h89v-321q0 -131 107 -131q71 0 101.5 42.5t30.5 140.5v269h90v-366z" />
    <glyph glyph-name="uacute" unicode="&#xfa;" horiz-adv-x="568" 
d="M469 759l-157 -156h-84l131 156h110zM492 151q0 -28 0.5 -83t0.5 -68h-87q-2 14 -4 78q-40 -90 -156 -90q-35 0 -64 9.5t-54 30t-39.5 59t-14.5 90.5v340h89v-321q0 -131 107 -131q71 0 101.5 42.5t30.5 140.5v269h90v-366z" />
    <glyph glyph-name="ucircumflex" unicode="&#xfb;" horiz-adv-x="568" 
d="M325 749l114 -155h-88l-68 103l-68 -103h-86l112 155h84zM492 151q0 -28 0.5 -83t0.5 -68h-87q-2 14 -4 78q-40 -90 -156 -90q-35 0 -64 9.5t-54 30t-39.5 59t-14.5 90.5v340h89v-321q0 -131 107 -131q71 0 101.5 42.5t30.5 140.5v269h90v-366z" />
    <glyph glyph-name="udieresis" unicode="&#xfc;" horiz-adv-x="568" 
d="M151 638v111h79v-111h-79zM338 638v111h77v-111h-77zM492 151q0 -28 0.5 -83t0.5 -68h-87q-2 14 -4 78q-40 -90 -156 -90q-35 0 -64 9.5t-54 30t-39.5 59t-14.5 90.5v340h89v-321q0 -131 107 -131q71 0 101.5 42.5t30.5 140.5v269h90v-366z" />
    <glyph glyph-name="yacute" unicode="&#xfd;" horiz-adv-x="490" 
d="M427 759l-157 -156h-83l130 156h110zM107 517q129 -381 144 -437h1q26 95 138 437h89l-185 -540q-39 -114 -78.5 -152t-118.5 -38q-26 0 -56 3v77q26 -2 43 -2q47 0 71.5 24.5t48.5 90.5l-194 537h97z" />
    <glyph glyph-name="thorn" unicode="&#xfe;" horiz-adv-x="581" 
d="M76 -209v958h89v-313q51 91 168 91q91 0 149.5 -69.5t58.5 -187.5q0 -131 -64.5 -206t-164.5 -75q-101 0 -147 75v-273h-89zM450 266q0 85 -38.5 135t-102.5 50q-74 0 -111 -53t-37 -139q0 -42 6.5 -74.5t21.5 -60.5t44 -43.5t70 -15.5q45 0 78.5 24.5t51 70t17.5 106.5z
" />
    <glyph glyph-name="ydieresis" unicode="&#xff;" horiz-adv-x="490" 
d="M112 638v111h79v-111h-79zM299 638v111h77v-111h-77zM107 517q129 -381 144 -437h1q26 95 138 437h89l-185 -540q-39 -114 -78.5 -152t-118.5 -38q-26 0 -56 3v77q26 -2 43 -2q47 0 71.5 24.5t48.5 90.5l-194 537h97z" />
    <glyph glyph-name="Amacron" unicode="&#x100;" horiz-adv-x="673" 
d="M475 862v-70h-285v70h285zM191 213l-77 -213h-94l253 710h116l264 -710h-101l-79 213h-282zM450 294q-107 291 -121 339h-1q-12 -42 -113 -339h235z" />
    <glyph glyph-name="amacron" unicode="&#x101;" horiz-adv-x="539" 
d="M411 713v-72h-282v72h282zM462 113q0 -77 7 -113h-85q-7 18 -9 67q-43 -79 -160 -79q-86 0 -130 46.5t-44 111.5q0 85 63 126.5t182 41.5h87v44q0 20 -4 35.5t-14.5 31.5t-34 25t-58.5 9q-30 0 -51.5 -6.5t-32.5 -20t-16.5 -25.5t-9.5 -31h-87q3 30 14 55t32.5 48.5
t61 36.5t92.5 13q197 0 197 -169v-247zM374 252h-83q-80 0 -119 -24t-39 -77q0 -27 11.5 -48t34.5 -33t55 -12q36 0 62 10t41 25.5t23.5 39.5t11 47.5t2.5 55.5v16z" />
    <glyph glyph-name="Abreve" unicode="&#x102;" horiz-adv-x="673" 
d="M244 902q6 -31 29 -50t60 -19q74 0 89 69h69q-9 -60 -49.5 -97t-109.5 -37q-39 0 -69 11.5t-48 31t-28 42.5t-13 49h70zM191 213l-77 -213h-94l253 710h116l264 -710h-101l-79 213h-282zM450 294q-107 291 -121 339h-1q-12 -42 -113 -339h235z" />
    <glyph glyph-name="abreve" unicode="&#x103;" horiz-adv-x="539" 
d="M189 737q16 -70 80 -70q21 0 36 6t24 17t14 21.5t9 25.5h65q-8 -61 -45.5 -99.5t-102.5 -38.5q-70 0 -106 40t-41 98h67zM462 113q0 -77 7 -113h-85q-7 18 -9 67q-43 -79 -160 -79q-86 0 -130 46.5t-44 111.5q0 85 63 126.5t182 41.5h87v44q0 20 -4 35.5t-14.5 31.5
t-34 25t-58.5 9q-30 0 -51.5 -6.5t-32.5 -20t-16.5 -25.5t-9.5 -31h-87q3 30 14 55t32.5 48.5t61 36.5t92.5 13q197 0 197 -169v-247zM374 252h-83q-80 0 -119 -24t-39 -77q0 -27 11.5 -48t34.5 -33t55 -12q36 0 62 10t41 25.5t23.5 39.5t11 47.5t2.5 55.5v16z" />
    <glyph glyph-name="Aogonek" unicode="&#x104;" horiz-adv-x="673" 
d="M191 213l-77 -213h-94l253 710h116l264 -710h-5q-68 -57 -68 -108q0 -17 7.5 -29.5t20.5 -18.5t30 -6q35 0 58 9v-69q-30 -17 -82 -17q-55 0 -87 30t-32 83q0 61 63 126h-6l-79 213h-282zM450 294q-107 291 -121 339h-1q-12 -42 -113 -339h235z" />
    <glyph glyph-name="aogonek" unicode="&#x105;" horiz-adv-x="539" 
d="M462 113q0 -77 7 -113h-1q-67 -57 -67 -108q0 -25 16 -39.5t41 -14.5q35 0 58 9v-69q-30 -17 -81 -17q-55 0 -87.5 30t-32.5 83q0 63 67 130q-5 16 -7 63q-43 -79 -160 -79q-86 0 -130 46.5t-44 111.5q0 85 63 126.5t182 41.5h87v44q0 20 -4 35.5t-14.5 31.5t-34 25
t-58.5 9q-30 0 -51.5 -6.5t-32.5 -20t-16.5 -25.5t-9.5 -31h-87q3 30 14 55t32.5 48.5t61 36.5t92.5 13q197 0 197 -169v-247zM374 252h-83q-80 0 -119 -24t-39 -77q0 -27 11.5 -48t34.5 -33t55 -12q36 0 62 10t41 25.5t23.5 39.5t11 47.5t2.5 55.5v16z" />
    <glyph glyph-name="Cacute" unicode="&#x106;" horiz-adv-x="699" 
d="M569 919l-174 -140h-93l150 140h117zM656 201q-25 -96 -96 -153t-187 -57q-102 0 -175.5 49t-108.5 129.5t-35 183.5q0 73 20.5 138.5t59.5 117t101.5 81.5t140.5 30q120 0 191.5 -59.5t88.5 -154.5h-94q-21 64 -65.5 100t-123.5 36q-56 0 -100 -24.5t-69.5 -65.5
t-38 -90.5t-12.5 -105.5q0 -36 5.5 -70t16 -66.5t29 -59.5t42.5 -47.5t57.5 -32t73.5 -11.5q75 0 118 36t66 96h95z" />
    <glyph glyph-name="cacute" unicode="&#x107;" horiz-adv-x="516" 
d="M452 759l-157 -156h-84l131 156h110zM484 158q-18 -75 -69.5 -122.5t-143.5 -47.5q-107 0 -168.5 71.5t-61.5 196.5q0 75 26.5 136t81 99t128.5 38q53 0 94 -17t64 -44.5t35 -55t14 -55.5h-88q-23 98 -121 98q-67 0 -104.5 -53.5t-37.5 -142.5q0 -90 36.5 -143.5
t102.5 -53.5q90 0 124 96h88z" />
    <glyph glyph-name="Ccircumflex" unicode="&#x108;" horiz-adv-x="699" 
d="M418 910l133 -134h-95l-86 85l-91 -85h-93l138 134h94zM656 201q-25 -96 -96 -153t-187 -57q-102 0 -175.5 49t-108.5 129.5t-35 183.5q0 73 20.5 138.5t59.5 117t101.5 81.5t140.5 30q120 0 191.5 -59.5t88.5 -154.5h-94q-21 64 -65.5 100t-123.5 36q-56 0 -100 -24.5
t-69.5 -65.5t-38 -90.5t-12.5 -105.5q0 -36 5.5 -70t16 -66.5t29 -59.5t42.5 -47.5t57.5 -32t73.5 -11.5q75 0 118 36t66 96h95z" />
    <glyph glyph-name="ccircumflex" unicode="&#x109;" horiz-adv-x="516" 
d="M314 749l113 -155h-87l-69 103l-67 -103h-87l113 155h84zM484 158q-18 -75 -69.5 -122.5t-143.5 -47.5q-107 0 -168.5 71.5t-61.5 196.5q0 75 26.5 136t81 99t128.5 38q53 0 94 -17t64 -44.5t35 -55t14 -55.5h-88q-23 98 -121 98q-67 0 -104.5 -53.5t-37.5 -142.5
q0 -90 36.5 -143.5t102.5 -53.5q90 0 124 96h88z" />
    <glyph glyph-name="Cdotaccent" unicode="&#x10a;" horiz-adv-x="699" 
d="M320 794v111h92v-111h-92zM656 201q-25 -96 -96 -153t-187 -57q-102 0 -175.5 49t-108.5 129.5t-35 183.5q0 73 20.5 138.5t59.5 117t101.5 81.5t140.5 30q120 0 191.5 -59.5t88.5 -154.5h-94q-21 64 -65.5 100t-123.5 36q-56 0 -100 -24.5t-69.5 -65.5t-38 -90.5
t-12.5 -105.5q0 -36 5.5 -70t16 -66.5t29 -59.5t42.5 -47.5t57.5 -32t73.5 -11.5q75 0 118 36t66 96h95z" />
    <glyph glyph-name="cdotaccent" unicode="&#x10b;" horiz-adv-x="516" 
d="M228 638v111h88v-111h-88zM484 158q-18 -75 -69.5 -122.5t-143.5 -47.5q-107 0 -168.5 71.5t-61.5 196.5q0 75 26.5 136t81 99t128.5 38q53 0 94 -17t64 -44.5t35 -55t14 -55.5h-88q-23 98 -121 98q-67 0 -104.5 -53.5t-37.5 -142.5q0 -90 36.5 -143.5t102.5 -53.5
q90 0 124 96h88z" />
    <glyph glyph-name="Ccaron" unicode="&#x10c;" horiz-adv-x="699" 
d="M326 776l-134 134h95l85 -85l91 85h94l-140 -134h-91zM656 201q-25 -96 -96 -153t-187 -57q-102 0 -175.5 49t-108.5 129.5t-35 183.5q0 73 20.5 138.5t59.5 117t101.5 81.5t140.5 30q120 0 191.5 -59.5t88.5 -154.5h-94q-21 64 -65.5 100t-123.5 36q-56 0 -100 -24.5
t-69.5 -65.5t-38 -90.5t-12.5 -105.5q0 -36 5.5 -70t16 -66.5t29 -59.5t42.5 -47.5t57.5 -32t73.5 -11.5q75 0 118 36t66 96h95z" />
    <glyph glyph-name="ccaron" unicode="&#x10d;" horiz-adv-x="516" 
d="M230 594l-113 155h87l69 -102l68 102h86l-111 -155h-86zM484 158q-18 -75 -69.5 -122.5t-143.5 -47.5q-107 0 -168.5 71.5t-61.5 196.5q0 75 26.5 136t81 99t128.5 38q53 0 94 -17t64 -44.5t35 -55t14 -55.5h-88q-23 98 -121 98q-67 0 -104.5 -53.5t-37.5 -142.5
q0 -90 36.5 -143.5t102.5 -53.5q90 0 124 96h88z" />
    <glyph glyph-name="Dcaron" unicode="&#x10e;" horiz-adv-x="735" 
d="M283 778l-135 134h95l85 -85l91 85h94l-140 -134h-90zM94 710h253q150 0 242 -95t92 -253q0 -159 -92.5 -260.5t-244.5 -101.5h-250v710zM188 80h149q81 0 137 37t82 99t26 144q0 54 -14 101.5t-43 85.5t-77.5 60t-110.5 22h-149v-549z" />
    <glyph glyph-name="dcaron" unicode="&#x10f;" horiz-adv-x="621" 
d="M507 749v-603q0 -96 1 -146h-86q-5 22 -5 73q-40 -85 -162 -85q-99 0 -157 73t-58 192q0 121 63 198.5t168 77.5q63 0 98.5 -19.5t47.5 -46.5v286h90zM574 495l-4 254h75l-4 -254h-67zM133 256q0 -91 38.5 -142t101.5 -51q44 0 74 15.5t45.5 44.5t22 63t6.5 80
q0 95 -29.5 141.5t-111.5 46.5q-69 0 -108 -52t-39 -146z" />
    <glyph glyph-name="Dcroat" unicode="&#x110;" horiz-adv-x="744" 
d="M104 401v309h253q151 0 243 -95t92 -253q0 -159 -92.5 -260.5t-245.5 -101.5h-250v329h-86v72h86zM198 401h183v-72h-183v-249h149q81 0 137.5 37t82.5 99t26 144q0 54 -14.5 101.5t-43.5 85.5t-77 60t-111 22h-149v-228z" />
    <glyph glyph-name="dcroat" unicode="&#x111;" horiz-adv-x="582" 
d="M507 749v-89h71v-59h-71v-455q0 -96 1 -146h-86q-5 22 -5 79q-21 -45 -59.5 -68t-103.5 -23q-100 0 -157 75t-57 188q0 116 63 195t168 79q64 0 99 -21t47 -50v147h-228v59h228v89h90zM133 256q0 -58 18 -101.5t50 -66.5t72 -23q148 0 148 201q0 39 -6 69t-20.5 57
t-43 41.5t-69.5 14.5q-68 0 -108.5 -51t-40.5 -141z" />
    <glyph glyph-name="Emacron" unicode="&#x112;" horiz-adv-x="608" 
d="M470 875v-70h-285v70h285zM539 332h-353v-251h387l-12 -81h-467v710h462v-81h-370v-217h353v-80z" />
    <glyph glyph-name="emacron" unicode="&#x113;" horiz-adv-x="533" 
d="M418 713v-72h-282v72h282zM130 243q0 -80 38.5 -130.5t102.5 -50.5q55 0 82 22t43 59h91q-9 -28 -24 -53t-39.5 -49.5t-64.5 -38.5t-91 -14q-58 0 -103.5 22.5t-72 60.5t-39.5 84t-13 98q0 121 60.5 198.5t173.5 77.5q49 0 87.5 -14.5t63 -39t41 -57t23.5 -65.5t7 -67
q0 -30 -1 -43h-365zM405 305q-1 68 -35 111t-97 43q-125 0 -140 -154h272z" />
    <glyph glyph-name="Ebreve" unicode="&#x114;" horiz-adv-x="608" 
d="M241 906q6 -31 29 -50t59 -19q75 0 90 69h69q-9 -60 -49.5 -97t-110.5 -37q-38 0 -68 11.5t-48 31t-28 42.5t-13 49h70zM539 332h-353v-251h387l-12 -81h-467v710h462v-81h-370v-217h353v-80z" />
    <glyph glyph-name="ebreve" unicode="&#x115;" horiz-adv-x="533" 
d="M196 737q17 -70 80 -70q40 0 57 19t26 51h65q-8 -61 -45.5 -99.5t-102.5 -38.5q-70 0 -106 40t-40 98h66zM130 243q0 -80 38.5 -130.5t102.5 -50.5q55 0 82 22t43 59h91q-9 -28 -24 -53t-39.5 -49.5t-64.5 -38.5t-91 -14q-58 0 -103.5 22.5t-72 60.5t-39.5 84t-13 98
q0 121 60.5 198.5t173.5 77.5q49 0 87.5 -14.5t63 -39t41 -57t23.5 -65.5t7 -67q0 -30 -1 -43h-365zM405 305q-1 68 -35 111t-97 43q-125 0 -140 -154h272z" />
    <glyph glyph-name="Edotaccent" unicode="&#x116;" horiz-adv-x="608" 
d="M279 792v111h92v-111h-92zM539 332h-353v-251h387l-12 -81h-467v710h462v-81h-370v-217h353v-80z" />
    <glyph glyph-name="edotaccent" unicode="&#x117;" horiz-adv-x="533" 
d="M234 638v111h87v-111h-87zM130 243q0 -80 38.5 -130.5t102.5 -50.5q55 0 82 22t43 59h91q-9 -28 -24 -53t-39.5 -49.5t-64.5 -38.5t-91 -14q-58 0 -103.5 22.5t-72 60.5t-39.5 84t-13 98q0 121 60.5 198.5t173.5 77.5q49 0 87.5 -14.5t63 -39t41 -57t23.5 -65.5t7 -67
q0 -30 -1 -43h-365zM405 305q-1 68 -35 111t-97 43q-125 0 -140 -154h272z" />
    <glyph glyph-name="Eogonek" unicode="&#x118;" horiz-adv-x="608" 
d="M539 332h-353v-251h387l-12 -81h-36q-67 -57 -67 -108q0 -25 16 -39.5t41 -14.5q35 0 58 9v-69q-29 -17 -81 -17q-55 0 -87.5 30t-32.5 83q0 61 64 126h-342v710h462v-81h-370v-217h353v-80z" />
    <glyph glyph-name="eogonek" unicode="&#x119;" horiz-adv-x="533" 
d="M130 243q0 -80 38.5 -130.5t102.5 -50.5q55 0 82 22t43 59h91q-33 -105 -127 -140q-62 -54 -62 -104q0 -17 7.5 -29.5t20 -18.5t29.5 -6q35 0 58 9v-69q-30 -17 -81 -17q-55 0 -87.5 30t-32.5 83q0 52 46 107q-56 2 -99 25t-68.5 61t-38 83.5t-12.5 95.5
q0 121 60.5 198.5t173.5 77.5q49 0 87.5 -14.5t63 -39t41 -57t23.5 -65.5t7 -67q0 -30 -1 -43h-365zM405 305q-1 68 -35 111t-97 43q-125 0 -140 -154h272z" />
    <glyph glyph-name="Ecaron" unicode="&#x11a;" horiz-adv-x="608" 
d="M282 773l-135 134h95l85 -85l91 85h94l-140 -134h-90zM539 332h-353v-251h387l-12 -81h-467v710h462v-81h-370v-217h353v-80z" />
    <glyph glyph-name="ecaron" unicode="&#x11b;" horiz-adv-x="533" 
d="M235 594l-113 155h87l69 -102l68 102h86l-111 -155h-86zM130 243q0 -80 38.5 -130.5t102.5 -50.5q55 0 82 22t43 59h91q-9 -28 -24 -53t-39.5 -49.5t-64.5 -38.5t-91 -14q-58 0 -103.5 22.5t-72 60.5t-39.5 84t-13 98q0 121 60.5 198.5t173.5 77.5q49 0 87.5 -14.5
t63 -39t41 -57t23.5 -65.5t7 -67q0 -30 -1 -43h-365zM405 305q-1 68 -35 111t-97 43q-125 0 -140 -154h272z" />
    <glyph glyph-name="Gcircumflex" unicode="&#x11c;" horiz-adv-x="742" 
d="M427 907l133 -134h-95l-86 85l-90 -85h-94l139 134h93zM669 0h-72q-8 20 -9 96q-65 -105 -221 -105q-99 0 -171 47.5t-107 127t-35 182.5q0 107 37.5 190.5t113 132.5t180.5 49q121 0 196.5 -59.5t91.5 -156.5h-94q-42 138 -197 138q-59 0 -104 -23t-72 -63.5t-40 -91.5
t-13 -112q0 -57 13 -106.5t39 -89.5t70.5 -63.5t102.5 -23.5q199 0 199 226v8h-200v81h292v-384z" />
    <glyph glyph-name="gcircumflex" unicode="&#x11d;" horiz-adv-x="578" 
d="M330 749l114 -155h-88l-68 103l-68 -103h-86l112 155h84zM503 47q0 -128 -57 -194t-181 -66q-56 0 -98 14t-65 38.5t-35 50.5t-16 55h91q11 -43 44 -65t83 -22q83 0 114.5 48.5t31.5 144.5v42q-44 -91 -161 -91q-96 0 -155 71t-59 185q0 123 63.5 197t159.5 74
q67 0 104.5 -24t47.5 -56q1 31 5 68h84q0 -12 -0.5 -39t-0.5 -58v-52v-321zM133 262q0 -82 39 -132.5t102 -50.5q79 0 111.5 48.5t32.5 140.5q0 93 -31 139.5t-110 46.5q-69 0 -106.5 -53t-37.5 -139z" />
    <glyph glyph-name="Gbreve" unicode="&#x11e;" horiz-adv-x="742" 
d="M290 911q6 -31 29 -49.5t59 -18.5q75 0 90 68h69q-9 -60 -49.5 -97t-110.5 -37q-73 0 -112.5 39t-44.5 95h70zM669 0h-72q-8 20 -9 96q-65 -105 -221 -105q-99 0 -171 47.5t-107 127t-35 182.5q0 107 37.5 190.5t113 132.5t180.5 49q121 0 196.5 -59.5t91.5 -156.5h-94
q-42 138 -197 138q-59 0 -104 -23t-72 -63.5t-40 -91.5t-13 -112q0 -57 13 -106.5t39 -89.5t70.5 -63.5t102.5 -23.5q199 0 199 226v8h-200v81h292v-384z" />
    <glyph glyph-name="gbreve" unicode="&#x11f;" horiz-adv-x="578" 
d="M207 737q17 -70 81 -70q39 0 56.5 19t25.5 51h66q-9 -61 -46.5 -99.5t-101.5 -38.5q-71 0 -107 40t-40 98h66zM503 47q0 -128 -57 -194t-181 -66q-56 0 -98 14t-65 38.5t-35 50.5t-16 55h91q11 -43 44 -65t83 -22q83 0 114.5 48.5t31.5 144.5v42q-44 -91 -161 -91
q-96 0 -155 71t-59 185q0 123 63.5 197t159.5 74q67 0 104.5 -24t47.5 -56q1 31 5 68h84q0 -12 -0.5 -39t-0.5 -58v-52v-321zM133 262q0 -82 39 -132.5t102 -50.5q79 0 111.5 48.5t32.5 140.5q0 93 -31 139.5t-110 46.5q-69 0 -106.5 -53t-37.5 -139z" />
    <glyph glyph-name="Gdotaccent" unicode="&#x120;" horiz-adv-x="742" 
d="M332 785v112h91v-112h-91zM669 0h-72q-8 20 -9 96q-65 -105 -221 -105q-99 0 -171 47.5t-107 127t-35 182.5q0 107 37.5 190.5t113 132.5t180.5 49q121 0 196.5 -59.5t91.5 -156.5h-94q-42 138 -197 138q-59 0 -104 -23t-72 -63.5t-40 -91.5t-13 -112q0 -57 13 -106.5
t39 -89.5t70.5 -63.5t102.5 -23.5q199 0 199 226v8h-200v81h292v-384z" />
    <glyph glyph-name="gdotaccent" unicode="&#x121;" horiz-adv-x="578" 
d="M245 638v111h88v-111h-88zM503 47q0 -128 -57 -194t-181 -66q-56 0 -98 14t-65 38.5t-35 50.5t-16 55h91q11 -43 44 -65t83 -22q83 0 114.5 48.5t31.5 144.5v42q-44 -91 -161 -91q-96 0 -155 71t-59 185q0 123 63.5 197t159.5 74q67 0 104.5 -24t47.5 -56q1 31 5 68h84
q0 -12 -0.5 -39t-0.5 -58v-52v-321zM133 262q0 -82 39 -132.5t102 -50.5q79 0 111.5 48.5t32.5 140.5q0 93 -31 139.5t-110 46.5q-69 0 -106.5 -53t-37.5 -139z" />
    <glyph glyph-name="uni0122" unicode="&#x122;" horiz-adv-x="742" 
d="M669 0h-72q-8 20 -9 96q-65 -105 -221 -105q-99 0 -171 47.5t-107 127t-35 182.5q0 107 37.5 190.5t113 132.5t180.5 49q121 0 196.5 -59.5t91.5 -156.5h-94q-42 138 -197 138q-59 0 -104 -23t-72 -63.5t-40 -91.5t-13 -112q0 -57 13 -106.5t39 -89.5t70.5 -63.5
t102.5 -23.5q199 0 199 226v8h-200v81h292v-384zM291 -257q50 108 57 202h91q-3 -52 -24.5 -110t-48.5 -92h-75z" />
    <glyph glyph-name="uni0123" unicode="&#x123;" horiz-adv-x="578" 
d="M379 803q-56 -126 -63 -206h-89q5 50 25.5 107.5t47.5 98.5h79zM503 47q0 -128 -57 -194t-181 -66q-56 0 -98 14t-65 38.5t-35 50.5t-16 55h91q11 -43 44 -65t83 -22q83 0 114.5 48.5t31.5 144.5v42q-44 -91 -161 -91q-96 0 -155 71t-59 185q0 123 63.5 197t159.5 74
q67 0 104.5 -24t47.5 -56q1 31 5 68h84q0 -12 -0.5 -39t-0.5 -58v-52v-321zM133 262q0 -82 39 -132.5t102 -50.5q79 0 111.5 48.5t32.5 140.5q0 93 -31 139.5t-110 46.5q-69 0 -106.5 -53t-37.5 -139z" />
    <glyph glyph-name="Hcircumflex" unicode="&#x124;" horiz-adv-x="744" 
d="M422 907l133 -134h-95l-86 85l-90 -85h-94l138 134h94zM94 710h94v-297h369v297h95v-710h-95v333h-369v-333h-94v710z" />
    <glyph glyph-name="hcircumflex" unicode="&#x125;" horiz-adv-x="577" 
d="M177 913l112 -111h-96l-73 65l-71 -65h-95l109 111h114zM166 749v-308q50 88 161 88q34 0 63 -9.5t55 -31t41.5 -62t15.5 -96.5v-330h-90v315q0 137 -112 137q-134 0 -134 -169v-283h-90v749h90z" />
    <glyph glyph-name="Hbar" unicode="&#x126;" horiz-adv-x="744" 
d="M94 597v113h94v-113h369v113h95v-113h66v-71h-66v-526h-95v333h-369v-333h-94v526h-67v71h67zM557 413v113h-369v-113h369z" />
    <glyph glyph-name="hbar" unicode="&#x127;" horiz-adv-x="577" 
d="M166 749v-89h213v-59h-213v-167q49 91 164 91q34 0 62.5 -9.5t54 -31t40.5 -62.5t15 -97v-325h-90v311q0 137 -110 137q-44 0 -75 -21t-46 -58t-15 -87v-282h-90v601h-84v59h84v89h90z" />
    <glyph glyph-name="Itilde" unicode="&#x128;" horiz-adv-x="281" 
d="M-33 781v23q0 100 88 100q35 0 92 -27t72 -27q33 0 33 44v12h62v-22q0 -57 -22 -81t-65 -24q-31 0 -88 27t-77 27q-29 0 -29 -34v-18h-66zM188 710v-710h-94v710h94z" />
    <glyph glyph-name="itilde" unicode="&#x129;" horiz-adv-x="241" 
d="M-37 617v24q0 97 83 97q31 0 79 -25t64 -25q14 0 21 9.5t7 33.5v11h62v-22q0 -104 -84 -104q-31 0 -76.5 25.5t-65.5 25.5q-26 0 -26 -34v-16h-64zM76 517h90v-517h-90v517z" />
    <glyph glyph-name="Imacron" unicode="&#x12a;" horiz-adv-x="281" 
d="M284 862v-70h-286v70h286zM188 710v-710h-94v710h94z" />
    <glyph glyph-name="imacron" unicode="&#x12b;" horiz-adv-x="241" 
d="M262 713v-72h-282v72h282zM76 517h90v-517h-90v517z" />
    <glyph glyph-name="Iogonek" unicode="&#x12e;" horiz-adv-x="281" 
d="M188 710v-710h-4q-68 -57 -68 -108q0 -13 4.5 -23t12 -17t18 -10.5t22.5 -3.5q36 0 59 9v-69q-30 -17 -82 -17q-55 0 -87 30t-32 83q0 61 63 126v710h94z" />
    <glyph glyph-name="iogonek" unicode="&#x12f;" horiz-adv-x="241" 
d="M76 638v111h90v-111h-90zM211 -222q-30 -17 -81 -17q-55 0 -87.5 30t-32.5 83q0 65 66 129v514h90v-517h-3q-67 -57 -67 -108q0 -25 16 -39.5t41 -14.5q35 0 58 9v-69z" />
    <glyph glyph-name="Idotaccent" unicode="&#x130;" horiz-adv-x="281" 
d="M95 785v112h92v-112h-92zM188 710v-710h-94v710h94z" />
    <glyph glyph-name="dotlessi" unicode="&#x131;" horiz-adv-x="241" 
d="M76 517h90v-517h-90v517z" />
    <glyph glyph-name="Jcircumflex" unicode="&#x134;" horiz-adv-x="375" 
d="M289 907l132 -134h-95l-85 85l-91 -85h-94l139 134h94zM287 207q0 -117 -45 -167t-138 -50q-39 0 -74 7v78q22 -5 65 -5q31 0 51 10.5t29.5 31t13 41.5t3.5 51v506h95v-503z" />
    <glyph glyph-name="jcircumflex" unicode="&#x135;" horiz-adv-x="241" 
d="M163 749l113 -155h-87l-69 103l-67 -103h-87l113 155h84zM166 517v-534q0 -109 -31.5 -152.5t-114.5 -43.5q-18 0 -34 2v75q8 -1 22 -1q40 0 54 24t14 80v550h90z" />
    <glyph glyph-name="uni0136" unicode="&#x136;" horiz-adv-x="651" 
d="M94 710h93v-349q20 21 151 152.5t193 196.5h118l-305 -300l320 -410h-114l-273 350l-90 -83v-267h-93v710zM247 -257q51 108 57 202h91q-3 -52 -24.5 -110t-48.5 -92h-75z" />
    <glyph glyph-name="uni0137" unicode="&#x137;" horiz-adv-x="515" 
d="M166 270q25 30 115 127t112 120h107l-195 -201l217 -316h-105l-173 258l-78 -74v-184h-90v749h90v-479zM175 -257q51 108 58 202h90q-3 -52 -24.5 -110t-47.5 -92h-76z" />
    <glyph glyph-name="kgreenlandic" unicode="&#x138;" horiz-adv-x="512" 
d="M166 271q20 24 60.5 68t92 100t72.5 78h106q-27 -28 -64.5 -66t-74 -75.5t-63.5 -65.5q25 -34 103.5 -144t120.5 -166h-105q-21 30 -86.5 121t-93.5 132l-68 -67v-186h-90v517h90v-246z" />
    <glyph glyph-name="Lacute" unicode="&#x139;" horiz-adv-x="572" 
d="M360 914l-174 -140h-93l150 140h117zM94 710h94v-629h370l-13 -81h-451v710z" />
    <glyph glyph-name="lacute" unicode="&#x13a;" horiz-adv-x="241" 
d="M313 925l-151 -121h-88l125 121h114zM76 0v749h90v-749h-90z" />
    <glyph glyph-name="uni013B" unicode="&#x13b;" horiz-adv-x="572" 
d="M94 710h94v-629h370l-13 -81h-451v710zM230 -257q50 108 57 202h90q-3 -52 -24.5 -110t-47.5 -92h-75z" />
    <glyph glyph-name="uni013C" unicode="&#x13c;" horiz-adv-x="241" 
d="M76 0v749h90v-749h-90zM19 -257q51 108 57 202h91q-3 -52 -24.5 -110t-47.5 -92h-76z" />
    <glyph glyph-name="Lcaron" unicode="&#x13d;" horiz-adv-x="572" 
d="M361 457l-4 254h74l-4 -254h-66zM94 710h94v-629h370l-13 -81h-451v710z" />
    <glyph glyph-name="lcaron" unicode="&#x13e;" horiz-adv-x="297" 
d="M76 0v749h90v-749h-90zM243 495l-4 254h74l-4 -254h-66z" />
    <glyph glyph-name="Ldot" unicode="&#x13f;" horiz-adv-x="572" 
d="M94 710h94v-629h370l-13 -81h-451v710zM360 314v147h90v-147h-90z" />
    <glyph glyph-name="ldot" unicode="&#x140;" horiz-adv-x="277" 
d="M76 0v749h90v-749h-90zM214 370v147h83v-147h-83z" />
    <glyph glyph-name="Lslash" unicode="&#x141;" horiz-adv-x="582" 
d="M198 363v-282h370l-13 -81h-451v318l-94 -44v71l94 45v320h94v-275l156 75v-73z" />
    <glyph glyph-name="lslash" unicode="&#x142;" horiz-adv-x="258" 
d="M85 0v357l-67 -36v80l67 37v311h89v-262l74 39v-80l-74 -40v-406h-89z" />
    <glyph glyph-name="Nacute" unicode="&#x143;" horiz-adv-x="758" 
d="M591 913l-175 -140h-93l150 140h118zM94 0v710h124q23 -37 122 -197t161.5 -262.5t79.5 -136.5h1q-6 78 -6 318v278h89v-710h-117q-112 183 -226 372t-142 241h-3q6 -81 6 -329v-284h-89z" />
    <glyph glyph-name="nacute" unicode="&#x144;" horiz-adv-x="577" 
d="M473 759l-157 -156h-83l130 156h110zM76 387q0 90 -1 130h87q4 -20 4 -85q45 97 162 97q78 0 126 -49t48 -147v-333h-90v321q0 131 -109 131q-70 0 -103.5 -48t-33.5 -131v-273h-90v387z" />
    <glyph glyph-name="uni0145" unicode="&#x145;" horiz-adv-x="758" 
d="M94 0v710h124q23 -37 122 -197t161.5 -262.5t79.5 -136.5h1q-6 78 -6 318v278h89v-710h-117q-112 183 -226 372t-142 241h-3q6 -81 6 -329v-284h-89zM293 -257q50 108 57 202h91q-3 -52 -24.5 -110t-48.5 -92h-75z" />
    <glyph glyph-name="uni0146" unicode="&#x146;" horiz-adv-x="577" 
d="M76 387q0 90 -1 130h87q4 -20 4 -85q45 97 162 97q78 0 126 -49t48 -147v-333h-90v321q0 131 -109 131q-70 0 -103.5 -48t-33.5 -131v-273h-90v387zM190 -257q50 108 57 202h91q-3 -52 -24.5 -110t-48.5 -92h-75z" />
    <glyph glyph-name="Ncaron" unicode="&#x147;" horiz-adv-x="758" 
d="M334 772l-135 134h95l85 -85l91 85h94l-140 -134h-90zM94 0v710h124q23 -37 122 -197t161.5 -262.5t79.5 -136.5h1q-6 78 -6 318v278h89v-710h-117q-112 183 -226 372t-142 241h-3q6 -81 6 -329v-284h-89z" />
    <glyph glyph-name="ncaron" unicode="&#x148;" horiz-adv-x="577" 
d="M246 598l-112 155h86l70 -102l67 102h87l-111 -155h-87zM76 387q0 90 -1 130h87q4 -20 4 -85q45 97 162 97q78 0 126 -49t48 -147v-333h-90v321q0 131 -109 131q-70 0 -103.5 -48t-33.5 -131v-273h-90v387z" />
    <glyph glyph-name="napostrophe" unicode="&#x149;" horiz-adv-x="577" 
d="M15 593q31 101 37 205h87q-3 -54 -19 -112.5t-36 -92.5h-69zM76 387q0 90 -1 130h87q4 -20 4 -85q45 97 162 97q78 0 126 -49t48 -147v-333h-90v321q0 131 -109 131q-70 0 -103.5 -48t-33.5 -131v-273h-90v387z" />
    <glyph glyph-name="Omacron" unicode="&#x14c;" horiz-adv-x="766" 
d="M526 874v-70h-285v70h285zM388 720q148 0 236 -100.5t88 -260.5q0 -75 -21 -140.5t-61 -117t-104.5 -81.5t-146.5 -30q-76 0 -138 28t-102.5 77.5t-62.5 116t-22 143.5q0 103 38 184.5t114.5 131t181.5 49.5zM384 640q-59 0 -104 -23t-72 -62t-41 -89t-14 -108
q0 -79 25 -143t78.5 -104.5t127.5 -40.5q59 0 104.5 23.5t72 64t40 90.5t13.5 109q0 79 -24.5 141.5t-77.5 102t-128 39.5z" />
    <glyph glyph-name="omacron" unicode="&#x14d;" horiz-adv-x="561" 
d="M420 713v-72h-282v72h282zM284 529q107 0 172 -73.5t65 -195.5q0 -117 -64.5 -194.5t-179.5 -77.5q-72 0 -126.5 35t-82.5 96t-28 139q0 119 65 195t179 76zM279 455q-71 0 -109 -53t-38 -143q0 -87 40.5 -142t109.5 -55t108 53.5t39 142.5q0 59 -17 103t-51 69t-82 25z
" />
    <glyph glyph-name="Ohungarumlaut" unicode="&#x150;" horiz-adv-x="766" 
d="M452 915l-137 -140h-79l114 140h102zM635 915l-136 -140h-80l115 140h101zM388 720q148 0 236 -100.5t88 -260.5q0 -75 -21 -140.5t-61 -117t-104.5 -81.5t-146.5 -30q-76 0 -138 28t-102.5 77.5t-62.5 116t-22 143.5q0 103 38 184.5t114.5 131t181.5 49.5zM384 640
q-59 0 -104 -23t-72 -62t-41 -89t-14 -108q0 -79 25 -143t78.5 -104.5t127.5 -40.5q59 0 104.5 23.5t72 64t40 90.5t13.5 109q0 79 -24.5 141.5t-77.5 102t-128 39.5z" />
    <glyph glyph-name="ohungarumlaut" unicode="&#x151;" horiz-adv-x="561" 
d="M136 592l103 158h94l-123 -158h-74zM321 592l103 158h95l-123 -158h-75zM284 529q107 0 172 -73.5t65 -195.5q0 -117 -64.5 -194.5t-179.5 -77.5q-72 0 -126.5 35t-82.5 96t-28 139q0 119 65 195t179 76zM279 455q-71 0 -109 -53t-38 -143q0 -87 40.5 -142t109.5 -55
t108 53.5t39 142.5q0 59 -17 103t-51 69t-82 25z" />
    <glyph glyph-name="OE" unicode="&#x152;" horiz-adv-x="1038" 
d="M985 627h-350v-214h332v-83h-332v-247h368l-12 -83h-427q-83 -9 -140 -9q-118 0 -203 48t-126 129t-41 187q0 75 25.5 140.5t73.5 115t120.5 78t162.5 28.5q72 0 136 -7h413v-83zM541 629q-30 9 -106 9q-128 0 -205 -73t-77 -207q0 -136 76 -212t201 -76q79 0 111 10v549
z" />
    <glyph glyph-name="oe" unicode="&#x153;" horiz-adv-x="925" 
d="M660 -12q-127 0 -186 109q-20 -34 -47.5 -57.5t-66 -37.5t-83.5 -14q-72 0 -126.5 35t-82.5 96t-28 139q0 119 65 195t179 76q63 0 113 -28.5t79 -80.5q19 34 45 58t63.5 37.5t81.5 13.5q57 0 101.5 -22t69.5 -58t37.5 -77t12.5 -83q0 -33 -2 -46h-364q1 -81 39.5 -131
t102.5 -50q90 0 124 81h90q-8 -28 -23.5 -53t-40.5 -49t-64.5 -38.5t-88.5 -14.5zM797 305q-1 67 -36 110t-97 44q-64 1 -98 -40.5t-42 -113.5h273zM279 455q-71 0 -109 -53t-38 -143q0 -87 40.5 -142t109.5 -55t108 53.5t39 142.5q0 59 -17 103t-51 69t-82 25z" />
    <glyph glyph-name="Racute" unicode="&#x154;" horiz-adv-x="654" 
d="M539 913l-175 -140h-93l150 140h118zM187 312v-312h-93v710h277q107 0 165.5 -52.5t58.5 -137.5q0 -45 -16.5 -80t-43.5 -56.5t-62 -30.5q108 -29 108 -182v-30v-19v-20t0.5 -19t0.5 -20t1 -18t2 -17.5t2.5 -15t4.5 -12.5h-92q-13 29 -12 140v13v14q0 80 -32 112.5
t-124 32.5h-145zM187 392h154q80 0 118 29.5t38 90.5q0 57 -37 87.5t-108 30.5h-165v-238z" />
    <glyph glyph-name="racute" unicode="&#x155;" horiz-adv-x="359" 
d="M376 759l-157 -156h-83l130 156h110zM76 376q0 42 -0.5 87.5t-0.5 53.5h88q3 -43 3 -105q21 53 66 84.5t108 32.5v-88q-174 -5 -174 -190v-251h-90v376z" />
    <glyph glyph-name="uni0156" unicode="&#x156;" horiz-adv-x="654" 
d="M187 312v-312h-93v710h277q107 0 165.5 -52.5t58.5 -137.5q0 -45 -16.5 -80t-43.5 -56.5t-62 -30.5q108 -29 108 -182v-30v-19v-20t0.5 -19t0.5 -20t1 -18t2 -17.5t2.5 -15t4.5 -12.5h-92q-13 29 -12 140v13v14q0 80 -32 112.5t-124 32.5h-145zM187 392h154
q80 0 118 29.5t38 90.5q0 57 -37 87.5t-108 30.5h-165v-238zM244 -257q51 108 57 202h91q-3 -52 -24.5 -110t-48.5 -92h-75z" />
    <glyph glyph-name="uni0157" unicode="&#x157;" horiz-adv-x="359" 
d="M76 376q0 42 -0.5 87.5t-0.5 53.5h88q3 -43 3 -105q21 53 66 84.5t108 32.5v-88q-174 -5 -174 -190v-251h-90v376zM19 -257q51 108 57 202h91q-3 -52 -24.5 -110t-47.5 -92h-76z" />
    <glyph glyph-name="Rcaron" unicode="&#x158;" horiz-adv-x="654" 
d="M282 773l-135 134h95l85 -85l91 85h94l-140 -134h-90zM187 312v-312h-93v710h277q107 0 165.5 -52.5t58.5 -137.5q0 -45 -16.5 -80t-43.5 -56.5t-62 -30.5q108 -29 108 -182v-30v-19v-20t0.5 -19t0.5 -20t1 -18t2 -17.5t2.5 -15t4.5 -12.5h-92q-13 29 -12 140v13v14
q0 80 -32 112.5t-124 32.5h-145zM187 392h154q80 0 118 29.5t38 90.5q0 57 -37 87.5t-108 30.5h-165v-238z" />
    <glyph glyph-name="rcaron" unicode="&#x159;" horiz-adv-x="359" 
d="M153 594l-112 155h87l69 -102l67 102h87l-111 -155h-87zM76 376q0 42 -0.5 87.5t-0.5 53.5h88q3 -43 3 -105q21 53 66 84.5t108 32.5v-88q-174 -5 -174 -190v-251h-90v376z" />
    <glyph glyph-name="Sacute" unicode="&#x15a;" horiz-adv-x="618" 
d="M520 919l-174 -140h-93l150 140h117zM138 198q29 -132 180 -132q53 0 88.5 16.5t50.5 42.5t15 61q0 56 -37 88t-139 56q-84 21 -133.5 48t-71 63t-21.5 87q0 84 61 138t175 54q61 0 108.5 -16.5t76 -44.5t44.5 -60.5t20 -69.5h-96q-24 115 -156 115q-65 0 -100 -28
t-35 -78t35 -75.5t130 -48.5q73 -18 121.5 -41.5t73 -52.5t33.5 -58t9 -67q0 -90 -66.5 -147t-191.5 -57q-64 0 -114.5 16.5t-82 46t-49.5 65.5t-24 79h96z" />
    <glyph glyph-name="sacute" unicode="&#x15b;" horiz-adv-x="482" 
d="M420 759l-157 -156h-83l130 156h110zM120 148q23 -90 127 -90q105 0 105 80q0 25 -10 41t-36.5 29t-75.5 25q-72 17 -112 40t-53.5 48.5t-13.5 63.5q0 60 47 102t140 42q92 0 140.5 -44t53.5 -105h-85q-4 15 -10.5 27t-19 25t-34 20.5t-48.5 7.5q-50 0 -72.5 -19.5
t-22.5 -48.5q0 -30 23.5 -47.5t92.5 -33.5q58 -14 95.5 -31t58 -38t28 -43.5t7.5 -53.5q0 -70 -53.5 -113.5t-147.5 -43.5q-96 0 -149.5 43.5t-63.5 116.5h89z" />
    <glyph glyph-name="Scircumflex" unicode="&#x15c;" horiz-adv-x="618" 
d="M359 907l133 -134h-95l-86 85l-91 -85h-94l139 134h94zM138 198q29 -132 180 -132q53 0 88.5 16.5t50.5 42.5t15 61q0 56 -37 88t-139 56q-84 21 -133.5 48t-71 63t-21.5 87q0 84 61 138t175 54q61 0 108.5 -16.5t76 -44.5t44.5 -60.5t20 -69.5h-96q-24 115 -156 115
q-65 0 -100 -28t-35 -78t35 -75.5t130 -48.5q73 -18 121.5 -41.5t73 -52.5t33.5 -58t9 -67q0 -90 -66.5 -147t-191.5 -57q-64 0 -114.5 16.5t-82 46t-49.5 65.5t-24 79h96z" />
    <glyph glyph-name="scircumflex" unicode="&#x15d;" horiz-adv-x="482" 
d="M284 749l113 -155h-88l-68 103l-68 -103h-86l112 155h85zM120 148q23 -90 127 -90q105 0 105 80q0 25 -10 41t-36.5 29t-75.5 25q-72 17 -112 40t-53.5 48.5t-13.5 63.5q0 60 47 102t140 42q92 0 140.5 -44t53.5 -105h-85q-4 15 -10.5 27t-19 25t-34 20.5t-48.5 7.5
q-50 0 -72.5 -19.5t-22.5 -48.5q0 -30 23.5 -47.5t92.5 -33.5q58 -14 95.5 -31t58 -38t28 -43.5t7.5 -53.5q0 -70 -53.5 -113.5t-147.5 -43.5q-96 0 -149.5 43.5t-63.5 116.5h89z" />
    <glyph glyph-name="uni015E" unicode="&#x15e;" horiz-adv-x="618" 
d="M138 198q29 -132 180 -132q53 0 88.5 16.5t50.5 42.5t15 61q0 56 -37 88t-139 56q-84 21 -133.5 48t-71 63t-21.5 87q0 84 61 138t175 54q61 0 108.5 -16.5t76 -44.5t44.5 -60.5t20 -69.5h-96q-24 115 -156 115q-65 0 -100 -28t-35 -78t35 -75.5t130 -48.5
q73 -18 121.5 -41.5t73 -52.5t33.5 -58t9 -67q0 -82 -56.5 -137.5t-162.5 -64.5l-36 -45q17 -3 31.5 -8.5t31 -15.5t26.5 -28.5t10 -43.5q0 -29 -11.5 -49.5t-31.5 -30.5t-40.5 -14.5t-42.5 -4.5q-47 0 -74 12v62q26 -12 66 -12q55 0 55 36q0 44 -105 46v29l49 66
q-109 8 -167 65t-70 141h96z" />
    <glyph glyph-name="uni015F" unicode="&#x15f;" horiz-adv-x="482" 
d="M120 148q23 -90 127 -90q105 0 105 80q0 25 -10 41t-36.5 29t-75.5 25q-72 17 -112 40t-53.5 48.5t-13.5 63.5q0 60 47 102t140 42q92 0 140.5 -44t53.5 -105h-85q-4 15 -10.5 27t-19 25t-34 20.5t-48.5 7.5q-50 0 -72.5 -19.5t-22.5 -48.5q0 -30 23.5 -47.5t92.5 -33.5
q58 -14 95.5 -31t58 -38t28 -43.5t7.5 -53.5q0 -41 -19 -73.5t-56 -54t-88 -27.5l-34 -42q16 -3 31 -8.5t31.5 -15.5t26.5 -28.5t10 -43.5q0 -29 -12 -49.5t-31.5 -30.5t-40 -14.5t-43.5 -4.5q-47 0 -73 12v62q26 -12 66 -12q54 0 54 36q0 44 -105 46v29l48 63
q-80 8 -125 50t-54 109h89z" />
    <glyph glyph-name="Scaron" unicode="&#x160;" horiz-adv-x="618" 
d="M261 773l-135 134h95l86 -85l91 85h94l-140 -134h-91zM138 198q29 -132 180 -132q53 0 88.5 16.5t50.5 42.5t15 61q0 56 -37 88t-139 56q-84 21 -133.5 48t-71 63t-21.5 87q0 84 61 138t175 54q61 0 108.5 -16.5t76 -44.5t44.5 -60.5t20 -69.5h-96q-24 115 -156 115
q-65 0 -100 -28t-35 -78t35 -75.5t130 -48.5q73 -18 121.5 -41.5t73 -52.5t33.5 -58t9 -67q0 -90 -66.5 -147t-191.5 -57q-64 0 -114.5 16.5t-82 46t-49.5 65.5t-24 79h96z" />
    <glyph glyph-name="scaron" unicode="&#x161;" horiz-adv-x="482" 
d="M199 594l-112 155h86l70 -102l67 102h87l-111 -155h-87zM120 148q23 -90 127 -90q105 0 105 80q0 25 -10 41t-36.5 29t-75.5 25q-72 17 -112 40t-53.5 48.5t-13.5 63.5q0 60 47 102t140 42q92 0 140.5 -44t53.5 -105h-85q-4 15 -10.5 27t-19 25t-34 20.5t-48.5 7.5
q-50 0 -72.5 -19.5t-22.5 -48.5q0 -30 23.5 -47.5t92.5 -33.5q58 -14 95.5 -31t58 -38t28 -43.5t7.5 -53.5q0 -70 -53.5 -113.5t-147.5 -43.5q-96 0 -149.5 43.5t-63.5 116.5h89z" />
    <glyph glyph-name="uni0162" unicode="&#x162;" horiz-adv-x="569" 
d="M237 629h-229v81h553v-81h-229v-629h-7l-41 -52q16 -3 31 -8.5t31.5 -15.5t26 -28.5t9.5 -43.5q0 -29 -11.5 -49.5t-31.5 -30.5t-40 -14.5t-43 -4.5q-47 0 -73 12v62q25 -12 66 -12q54 0 54 36q0 44 -105 46v29l56 74h-17v629z" />
    <glyph glyph-name="uni0163" unicode="&#x163;" horiz-adv-x="325" 
d="M10 517h90v153h89v-153h114v-72h-114v-303q0 -40 12.5 -58.5t46.5 -18.5q26 0 45 4v-67q-20 -7 -57 -9l-37 -45q16 -3 31 -8.5t31.5 -15.5t26.5 -28.5t10 -43.5q0 -29 -12 -49.5t-31.5 -30.5t-40 -14.5t-43.5 -4.5q-47 0 -73 12v62q26 -12 66 -12q54 0 54 36
q0 44 -105 46v29l56 73q-69 21 -69 121v325h-90v72z" />
    <glyph glyph-name="Tcaron" unicode="&#x164;" horiz-adv-x="569" 
d="M237 773l-135 134h95l86 -85l90 85h94l-140 -134h-90zM237 629h-229v81h553v-81h-229v-629h-95v629z" />
    <glyph glyph-name="tcaron" unicode="&#x165;" horiz-adv-x="325" 
d="M270 605l-2 219h77l-16 -219h-59zM10 517h90v153h89v-153h114v-72h-114v-303q0 -40 12.5 -58.5t46.5 -18.5q26 0 45 4v-67q-24 -9 -78 -9q-60 0 -87.5 31t-27.5 96v325h-90v72z" />
    <glyph glyph-name="Utilde" unicode="&#x168;" horiz-adv-x="728" 
d="M191 786v23q0 100 87 100q35 0 92 -27t73 -27q32 0 32 44v12h63v-22q0 -57 -22 -81t-65 -24q-32 0 -89 27t-76 27q-30 0 -30 -34v-18h-65zM183 710v-427q0 -49 10 -86.5t27.5 -61t41.5 -39t49 -21.5t54 -6q87 0 134.5 48.5t47.5 165.5v427h95v-422q0 -297 -279 -297
q-58 0 -106 15t-87 47.5t-61 90t-22 136.5v430h96z" />
    <glyph glyph-name="utilde" unicode="&#x169;" horiz-adv-x="568" 
d="M125 617v24q0 97 83 97q31 0 79 -25t64 -25q14 0 21 9.5t7 33.5v11h63v-22q0 -104 -85 -104q-31 0 -76.5 25.5t-65.5 25.5q-26 0 -26 -34v-16h-64zM492 151q0 -28 0.5 -83t0.5 -68h-87q-2 14 -4 78q-40 -90 -156 -90q-35 0 -64 9.5t-54 30t-39.5 59t-14.5 90.5v340h89
v-321q0 -131 107 -131q71 0 101.5 42.5t30.5 140.5v269h90v-366z" />
    <glyph glyph-name="Umacron" unicode="&#x16a;" horiz-adv-x="728" 
d="M507 871v-70h-286v70h286zM183 710v-427q0 -49 10 -86.5t27.5 -61t41.5 -39t49 -21.5t54 -6q87 0 134.5 48.5t47.5 165.5v427h95v-422q0 -297 -279 -297q-58 0 -106 15t-87 47.5t-61 90t-22 136.5v430h96z" />
    <glyph glyph-name="umacron" unicode="&#x16b;" horiz-adv-x="568" 
d="M424 713v-72h-282v72h282zM492 151q0 -28 0.5 -83t0.5 -68h-87q-2 14 -4 78q-40 -90 -156 -90q-35 0 -64 9.5t-54 30t-39.5 59t-14.5 90.5v340h89v-321q0 -131 107 -131q71 0 101.5 42.5t30.5 140.5v269h90v-366z" />
    <glyph glyph-name="Ubreve" unicode="&#x16c;" horiz-adv-x="728" 
d="M275 907q7 -31 30 -50t59 -19q75 0 90 69h68q-9 -60 -49.5 -97t-109.5 -37q-38 0 -68 11.5t-48 31t-28.5 42.5t-12.5 49h69zM183 710v-427q0 -49 10 -86.5t27.5 -61t41.5 -39t49 -21.5t54 -6q87 0 134.5 48.5t47.5 165.5v427h95v-422q0 -297 -279 -297q-58 0 -106 15
t-87 47.5t-61 90t-22 136.5v430h96z" />
    <glyph glyph-name="ubreve" unicode="&#x16d;" horiz-adv-x="568" 
d="M202 737q17 -70 81 -70q39 0 56.5 19t25.5 51h65q-8 -61 -45.5 -99.5t-101.5 -38.5q-71 0 -107 40t-40 98h66zM492 151q0 -28 0.5 -83t0.5 -68h-87q-2 14 -4 78q-40 -90 -156 -90q-35 0 -64 9.5t-54 30t-39.5 59t-14.5 90.5v340h89v-321q0 -131 107 -131q71 0 101.5 42.5
t30.5 140.5v269h90v-366z" />
    <glyph glyph-name="Uring" unicode="&#x16e;" horiz-adv-x="728" 
d="M364 752q-33 0 -58 13t-38 35.5t-13 50.5q0 42 30 71.5t79 29.5q33 0 58 -13.5t37.5 -36t12.5 -50.5q0 -43 -30 -71.5t-78 -28.5zM364 798q25 0 39 15.5t14 37.5t-13.5 38.5t-39.5 16.5t-39.5 -15.5t-13.5 -37.5q0 -23 13.5 -39t39.5 -16zM183 710v-427q0 -49 10 -86.5
t27.5 -61t41.5 -39t49 -21.5t54 -6q87 0 134.5 48.5t47.5 165.5v427h95v-422q0 -297 -279 -297q-58 0 -106 15t-87 47.5t-61 90t-22 136.5v430h96z" />
    <glyph glyph-name="uring" unicode="&#x16f;" horiz-adv-x="568" 
d="M284 577q-33 0 -58 13.5t-38.5 36t-13.5 49.5q0 28 13 50.5t38 36.5t59 14q32 0 57 -13t38 -36t13 -51q0 -42 -30.5 -71t-77.5 -29zM284 623q25 0 39 16t14 37q0 22 -14 38.5t-39.5 16.5t-39 -15.5t-13.5 -37.5t13 -38.5t40 -16.5zM492 151q0 -28 0.5 -83t0.5 -68h-87
q-2 14 -4 78q-40 -90 -156 -90q-35 0 -64 9.5t-54 30t-39.5 59t-14.5 90.5v340h89v-321q0 -131 107 -131q71 0 101.5 42.5t30.5 140.5v269h90v-366z" />
    <glyph glyph-name="Uhungarumlaut" unicode="&#x170;" horiz-adv-x="728" 
d="M432 919l-136 -140h-80l114 140h102zM616 919l-137 -140h-79l115 140h101zM183 710v-427q0 -49 10 -86.5t27.5 -61t41.5 -39t49 -21.5t54 -6q87 0 134.5 48.5t47.5 165.5v427h95v-422q0 -297 -279 -297q-58 0 -106 15t-87 47.5t-61 90t-22 136.5v430h96z" />
    <glyph glyph-name="uhungarumlaut" unicode="&#x171;" horiz-adv-x="568" 
d="M135 592l103 158h94l-123 -158h-74zM320 592l103 158h95l-123 -158h-75zM492 151q0 -28 0.5 -83t0.5 -68h-87q-2 14 -4 78q-40 -90 -156 -90q-35 0 -64 9.5t-54 30t-39.5 59t-14.5 90.5v340h89v-321q0 -131 107 -131q71 0 101.5 42.5t30.5 140.5v269h90v-366z" />
    <glyph glyph-name="Uogonek" unicode="&#x172;" horiz-adv-x="728" 
d="M183 710v-427q0 -49 10 -86.5t27.5 -61t41.5 -39t49 -21.5t54 -6q87 0 134.5 48.5t47.5 165.5v427h95v-422q0 -221 -154 -278q-65 -54 -65 -105q0 -25 16 -39.5t41 -14.5q36 0 59 9v-69q-30 -16 -82 -16q-55 0 -87 29.5t-32 82.5q0 51 43 104h-18q-58 0 -106 15t-87 47.5
t-61 90t-22 136.5v430h96z" />
    <glyph glyph-name="uogonek" unicode="&#x173;" horiz-adv-x="568" 
d="M492 151q0 -28 0.5 -83t0.5 -68h-2q-68 -57 -68 -108q0 -25 16 -39.5t41 -14.5q36 0 59 9v-69q-30 -17 -82 -17q-55 0 -87 30t-32 83q0 65 67 130q-1 16 -3 74q-40 -90 -156 -90q-35 0 -64 9.5t-54 30t-39.5 59t-14.5 90.5v340h89v-321q0 -131 107 -131q71 0 101.5 42.5
t30.5 140.5v269h90v-366z" />
    <glyph glyph-name="Wcircumflex" unicode="&#x174;" horiz-adv-x="954" 
d="M526 907l133 -134h-95l-86 85l-90 -85h-94l138 134h94zM213 0l-191 710h100q21 -85 57.5 -232.5t59 -243t28.5 -131.5h1q10 50 76.5 289.5t85.5 317.5h92q140 -519 155 -604h1q7 35 22 95t34.5 130t38 137t38 136t28.5 106h93l-207 -710h-101q-140 535 -151 586h-1
q-9 -47 -35.5 -146t-70.5 -255.5t-52 -184.5h-101z" />
    <glyph glyph-name="wcircumflex" unicode="&#x175;" horiz-adv-x="782" 
d="M432 749l114 -155h-88l-68 103l-68 -103h-86l112 155h84zM119 517q101 -381 111 -434h1q9 51 119 434h88q11 -42 24.5 -90t21.5 -76.5t17 -62.5t14.5 -53.5t11.5 -41.5t9 -35t6.5 -26t5 -22t3.5 -17h1q20 83 114 424h91l-159 -517h-97q-18 69 -46.5 172.5t-44 162.5
t-20.5 84h-1q-8 -47 -114 -419h-100l-149 517h93z" />
    <glyph glyph-name="Ycircumflex" unicode="&#x176;" horiz-adv-x="602" 
d="M351 907l132 -134h-94l-86 85l-91 -85h-94l139 134h94zM250 0v260q0 13 -5 19l-250 431h108q178 -319 200 -361q31 63 203 361h101l-258 -433q-4 -8 -4 -18v-259h-95z" />
    <glyph glyph-name="ycircumflex" unicode="&#x177;" horiz-adv-x="490" 
d="M287 749l113 -155h-88l-68 103l-68 -103h-86l112 155h85zM107 517q129 -381 144 -437h1q26 95 138 437h89l-185 -540q-39 -114 -78.5 -152t-118.5 -38q-26 0 -56 3v77q26 -2 43 -2q47 0 71.5 24.5t48.5 90.5l-194 537h97z" />
    <glyph glyph-name="Ydieresis" unicode="&#x178;" horiz-adv-x="602" 
d="M162 784v113h79v-113h-79zM362 784v113h78v-113h-78zM250 0v260q0 13 -5 19l-250 431h108q178 -319 200 -361q31 63 203 361h101l-258 -433q-4 -8 -4 -18v-259h-95z" />
    <glyph glyph-name="Zacute" unicode="&#x179;" horiz-adv-x="608" 
d="M512 919l-174 -140h-93l150 140h117zM31 72l432 557h-411v81h519v-79l-424 -550h438l-13 -81h-541v72z" />
    <glyph glyph-name="zacute" unicode="&#x17a;" horiz-adv-x="460" 
d="M408 759l-157 -156h-84l131 156h110zM26 72l297 370h-282v75h384v-74l-293 -368h308l-15 -75h-399v72z" />
    <glyph glyph-name="Zdotaccent" unicode="&#x17b;" horiz-adv-x="608" 
d="M258 796v111h92v-111h-92zM31 72l432 557h-411v81h519v-79l-424 -550h438l-13 -81h-541v72z" />
    <glyph glyph-name="zdotaccent" unicode="&#x17c;" horiz-adv-x="460" 
d="M186 638v111h87v-111h-87zM26 72l297 370h-282v75h384v-74l-293 -368h308l-15 -75h-399v72z" />
    <glyph glyph-name="Zcaron" unicode="&#x17d;" horiz-adv-x="608" 
d="M256 782l-135 134h95l86 -85l91 85h94l-140 -134h-91zM31 72l432 557h-411v81h519v-79l-424 -550h438l-13 -81h-541v72z" />
    <glyph glyph-name="zcaron" unicode="&#x17e;" horiz-adv-x="460" 
d="M187 594l-113 155h87l70 -102l67 102h87l-112 -155h-86zM26 72l297 370h-282v75h384v-74l-293 -368h308l-15 -75h-399v72z" />
    <glyph glyph-name="uni018F" unicode="&#x18f;" horiz-adv-x="730" 
d="M676 365q0 -109 -36 -193t-109 -133t-174 -49q-149 0 -228.5 93.5t-79.5 246.5q0 17 2 49h527q-1 122 -59.5 191.5t-162.5 69.5q-57 0 -99.5 -18.5t-65.5 -45t-40 -64.5h-92q12 40 35 75t58.5 66t89 49t118.5 18q78 0 140 -29t99.5 -79t57 -113t19.5 -134zM147 306
q-1 -112 57.5 -175t155.5 -63q62 0 108.5 28.5t74 81.5t34.5 128h-430z" />
    <glyph glyph-name="florin" unicode="&#x192;" horiz-adv-x="534" 
d="M493 621q-22 13 -56 13q-24 0 -41.5 -11t-28 -32.5t-17 -43.5t-10.5 -53l-13 -76h122v-71h-132l-38 -240q-8 -53 -19 -91t-30.5 -70.5t-49.5 -48.5t-72 -16q-61 0 -94 20l20 72q24 -14 67 -14q40 0 57 33t31 119l37 236h-98v71h111l9 59q5 37 12.5 66t21.5 62t33 55
t48.5 36.5t66.5 14.5q58 0 81 -18z" />
    <glyph glyph-name="Ohorn" unicode="&#x1a0;" horiz-adv-x="766" 
d="M388 720q117 0 198 -65q49 15 49 62q0 30 -11 60h83q8 -24 8 -57q0 -40 -19.5 -72t-56.5 -47q73 -96 73 -242q0 -75 -21 -140.5t-61 -117t-104.5 -81.5t-146.5 -30q-76 0 -138 28t-102.5 77.5t-62.5 116t-22 143.5q0 103 38 184.5t114.5 131t181.5 49.5zM384 640
q-59 0 -104 -23t-72 -62t-41 -89t-14 -108q0 -79 25 -143t78.5 -104.5t127.5 -40.5q59 0 104.5 23.5t72 64t40 90.5t13.5 109q0 79 -24.5 141.5t-77.5 102t-128 39.5z" />
    <glyph glyph-name="ohorn" unicode="&#x1a1;" horiz-adv-x="561" 
d="M284 529q89 0 152 -53q57 14 57 65q0 30 -12 60h83q8 -25 8 -57q0 -29 -9.5 -53.5t-30 -43t-50.5 -28.5q39 -68 39 -159q0 -117 -64.5 -194.5t-179.5 -77.5q-72 0 -126.5 35t-82.5 96t-28 139q0 119 65 195t179 76zM279 455q-71 0 -109 -53t-38 -143q0 -87 40.5 -142
t109.5 -55t108 53.5t39 142.5q0 59 -17 103t-51 69t-82 25z" />
    <glyph glyph-name="Uhorn" unicode="&#x1af;" horiz-adv-x="728" 
d="M183 710v-427q0 -49 10 -86.5t27.5 -61t41.5 -39t49 -21.5t54 -6q87 0 134.5 48.5t47.5 165.5v427h51q61 12 61 65q0 30 -11 60h82q8 -24 8 -57q0 -46 -25 -79.5t-71 -45.5v-365q0 -297 -279 -297q-58 0 -106 15t-87 47.5t-61 90t-22 136.5v430h96z" />
    <glyph glyph-name="uhorn" unicode="&#x1b0;" horiz-adv-x="568" 
d="M402 78q-40 -90 -156 -90q-35 0 -64 9.5t-54 30t-39.5 59t-14.5 90.5v340h89v-321q0 -131 107 -131q71 0 101.5 42.5t30.5 140.5v269h39v1q71 11 71 67q0 31 -11 61h82q9 -25 9 -57q0 -31 -11 -56.5t-34 -44t-55 -26.5v-311q0 -28 0.5 -83t0.5 -68h-87q-2 14 -4 78z" />
    <glyph glyph-name="uni01CD" unicode="&#x1cd;" horiz-adv-x="673" 
d="M286 773l-135 134h95l86 -85l90 85h94l-140 -134h-90zM191 213l-77 -213h-94l253 710h116l264 -710h-101l-79 213h-282zM450 294q-107 291 -121 339h-1q-12 -42 -113 -339h235z" />
    <glyph glyph-name="uni01CE" unicode="&#x1ce;" horiz-adv-x="539" 
d="M227 594l-112 155h87l69 -102l68 102h86l-111 -155h-87zM462 113q0 -77 7 -113h-85q-7 18 -9 67q-43 -79 -160 -79q-86 0 -130 46.5t-44 111.5q0 85 63 126.5t182 41.5h87v44q0 20 -4 35.5t-14.5 31.5t-34 25t-58.5 9q-30 0 -51.5 -6.5t-32.5 -20t-16.5 -25.5t-9.5 -31
h-87q3 30 14 55t32.5 48.5t61 36.5t92.5 13q197 0 197 -169v-247zM374 252h-83q-80 0 -119 -24t-39 -77q0 -27 11.5 -48t34.5 -33t55 -12q36 0 62 10t41 25.5t23.5 39.5t11 47.5t2.5 55.5v16z" />
    <glyph glyph-name="uni01CF" unicode="&#x1cf;" horiz-adv-x="281" 
d="M96 773l-135 134h95l86 -85l91 85h93l-139 -134h-91zM188 710v-710h-94v710h94z" />
    <glyph glyph-name="uni01D0" unicode="&#x1d0;" horiz-adv-x="241" 
d="M79 594l-113 155h87l69 -102l68 102h86l-111 -155h-86zM76 517h90v-517h-90v517z" />
    <glyph glyph-name="uni01D1" unicode="&#x1d1;" horiz-adv-x="766" 
d="M336 778l-135 134h95l85 -85l91 85h94l-140 -134h-90zM388 720q148 0 236 -100.5t88 -260.5q0 -75 -21 -140.5t-61 -117t-104.5 -81.5t-146.5 -30q-76 0 -138 28t-102.5 77.5t-62.5 116t-22 143.5q0 103 38 184.5t114.5 131t181.5 49.5zM384 640q-59 0 -104 -23t-72 -62
t-41 -89t-14 -108q0 -79 25 -143t78.5 -104.5t127.5 -40.5q59 0 104.5 23.5t72 64t40 90.5t13.5 109q0 79 -24.5 141.5t-77.5 102t-128 39.5z" />
    <glyph glyph-name="uni01D2" unicode="&#x1d2;" horiz-adv-x="561" 
d="M237 594l-113 155h87l69 -102l68 102h87l-112 -155h-86zM284 529q107 0 172 -73.5t65 -195.5q0 -117 -64.5 -194.5t-179.5 -77.5q-72 0 -126.5 35t-82.5 96t-28 139q0 119 65 195t179 76zM279 455q-71 0 -109 -53t-38 -143q0 -87 40.5 -142t109.5 -55t108 53.5t39 142.5
q0 59 -17 103t-51 69t-82 25z" />
    <glyph glyph-name="uni01D3" unicode="&#x1d3;" horiz-adv-x="728" 
d="M316 779l-134 134h94l86 -85l91 85h94l-140 -134h-91zM183 710v-427q0 -49 10 -86.5t27.5 -61t41.5 -39t49 -21.5t54 -6q87 0 134.5 48.5t47.5 165.5v427h95v-422q0 -297 -279 -297q-58 0 -106 15t-87 47.5t-61 90t-22 136.5v430h96z" />
    <glyph glyph-name="uni01D4" unicode="&#x1d4;" horiz-adv-x="568" 
d="M241 594l-112 155h86l70 -102l67 102h87l-112 -155h-86zM492 151q0 -28 0.5 -83t0.5 -68h-87q-2 14 -4 78q-40 -90 -156 -90q-35 0 -64 9.5t-54 30t-39.5 59t-14.5 90.5v340h89v-321q0 -131 107 -131q71 0 101.5 42.5t30.5 140.5v269h90v-366z" />
    <glyph glyph-name="uni01D5" unicode="&#x1d5;" horiz-adv-x="728" 
d="M230 913v66h268v-66h-268zM220 774v90h78v-90h-78zM429 774v90h79v-90h-79zM183 710v-427q0 -49 10 -86.5t27.5 -61t41.5 -39t49 -21.5t54 -6q87 0 134.5 48.5t47.5 165.5v427h95v-422q0 -297 -279 -297q-58 0 -106 15t-87 47.5t-61 90t-22 136.5v430h96z" />
    <glyph glyph-name="uni01D6" unicode="&#x1d6;" horiz-adv-x="568" 
d="M149 727v66h268v-66h-268zM147 580v90h78v-90h-78zM342 580v90h78v-90h-78zM492 151q0 -28 0.5 -83t0.5 -68h-87q-2 14 -4 78q-40 -90 -156 -90q-35 0 -64 9.5t-54 30t-39.5 59t-14.5 90.5v340h89v-321q0 -131 107 -131q71 0 101.5 42.5t30.5 140.5v269h90v-366z" />
    <glyph glyph-name="uni01D7" unicode="&#x1d7;" horiz-adv-x="728" 
d="M417 1014h112l-129 -122h-83zM298 860v-89h-78v89h78zM429 771v89h79v-89h-79zM183 710v-427q0 -49 10 -86.5t27.5 -61t41.5 -39t49 -21.5t54 -6q87 0 134.5 48.5t47.5 165.5v427h95v-422q0 -297 -279 -297q-58 0 -106 15t-87 47.5t-61 90t-22 136.5v430h96z" />
    <glyph glyph-name="uni01D8" unicode="&#x1d8;" horiz-adv-x="568" 
d="M234 701l99 123h108l-126 -123h-81zM225 670v-90h-78v90h78zM342 580v90h78v-90h-78zM492 151q0 -28 0.5 -83t0.5 -68h-87q-2 14 -4 78q-40 -90 -156 -90q-35 0 -64 9.5t-54 30t-39.5 59t-14.5 90.5v340h89v-321q0 -131 107 -131q71 0 101.5 42.5t30.5 140.5v269h90v-366
z" />
    <glyph glyph-name="uni01D9" unicode="&#x1d9;" horiz-adv-x="728" 
d="M317 888l-110 123h85l69 -76l70 76h84l-110 -123h-88zM222 770v89h78v-89h-78zM431 770v89h79v-89h-79zM183 710v-427q0 -49 10 -86.5t27.5 -61t41.5 -39t49 -21.5t54 -6q87 0 134.5 48.5t47.5 165.5v427h95v-422q0 -297 -279 -297q-58 0 -106 15t-87 47.5t-61 90
t-22 136.5v430h96z" />
    <glyph glyph-name="uni01DA" unicode="&#x1da;" horiz-adv-x="568" 
d="M242 697l-109 123h82l70 -77l69 77h82l-110 -123h-84zM147 576v90h78v-90h-78zM342 576v90h78v-90h-78zM492 151q0 -28 0.5 -83t0.5 -68h-87q-2 14 -4 78q-40 -90 -156 -90q-35 0 -64 9.5t-54 30t-39.5 59t-14.5 90.5v340h89v-321q0 -131 107 -131q71 0 101.5 42.5
t30.5 140.5v269h90v-366z" />
    <glyph glyph-name="uni01DB" unicode="&#x1db;" horiz-adv-x="728" 
d="M328 892l-129 122h108l103 -122h-82zM298 860v-89h-78v89h78zM429 771v89h79v-89h-79zM183 710v-427q0 -49 10 -86.5t27.5 -61t41.5 -39t49 -21.5t54 -6q87 0 134.5 48.5t47.5 165.5v427h95v-422q0 -297 -279 -297q-58 0 -106 15t-87 47.5t-61 90t-22 136.5v430h96z" />
    <glyph glyph-name="uni01DC" unicode="&#x1dc;" horiz-adv-x="568" 
d="M237 820l97 -123h-81l-127 123h111zM225 666v-90h-78v90h78zM342 576v90h78v-90h-78zM492 151q0 -28 0.5 -83t0.5 -68h-87q-2 14 -4 78q-40 -90 -156 -90q-35 0 -64 9.5t-54 30t-39.5 59t-14.5 90.5v340h89v-321q0 -131 107 -131q71 0 101.5 42.5t30.5 140.5v269h90v-366
z" />
    <glyph glyph-name="Gcaron" unicode="&#x1e6;" horiz-adv-x="742" 
d="M329 779l-134 134h95l85 -85l91 85h94l-140 -134h-91zM669 0h-72q-8 20 -9 96q-65 -105 -221 -105q-99 0 -171 47.5t-107 127t-35 182.5q0 107 37.5 190.5t113 132.5t180.5 49q121 0 196.5 -59.5t91.5 -156.5h-94q-42 138 -197 138q-59 0 -104 -23t-72 -63.5t-40 -91.5
t-13 -112q0 -57 13 -106.5t39 -89.5t70.5 -63.5t102.5 -23.5q199 0 199 226v8h-200v81h292v-384z" />
    <glyph glyph-name="gcaron" unicode="&#x1e7;" horiz-adv-x="578" 
d="M244 594l-112 155h86l70 -102l67 102h87l-112 -155h-86zM503 47q0 -128 -57 -194t-181 -66q-56 0 -98 14t-65 38.5t-35 50.5t-16 55h91q11 -43 44 -65t83 -22q83 0 114.5 48.5t31.5 144.5v42q-44 -91 -161 -91q-96 0 -155 71t-59 185q0 123 63.5 197t159.5 74
q67 0 104.5 -24t47.5 -56q1 31 5 68h84q0 -12 -0.5 -39t-0.5 -58v-52v-321zM133 262q0 -82 39 -132.5t102 -50.5q79 0 111.5 48.5t32.5 140.5q0 93 -31 139.5t-110 46.5q-69 0 -106.5 -53t-37.5 -139z" />
    <glyph glyph-name="uni0218" unicode="&#x218;" horiz-adv-x="618" 
d="M138 198q29 -132 180 -132q53 0 88.5 16.5t50.5 42.5t15 61q0 56 -37 88t-139 56q-84 21 -133.5 48t-71 63t-21.5 87q0 84 61 138t175 54q61 0 108.5 -16.5t76 -44.5t44.5 -60.5t20 -69.5h-96q-24 115 -156 115q-65 0 -100 -28t-35 -78t35 -75.5t130 -48.5
q73 -18 121.5 -41.5t73 -52.5t33.5 -58t9 -67q0 -90 -66.5 -147t-191.5 -57q-64 0 -114.5 16.5t-82 46t-49.5 65.5t-24 79h96zM221 -259q51 108 57 202h91q-3 -52 -24.5 -110t-47.5 -92h-76z" />
    <glyph glyph-name="uni0219" unicode="&#x219;" horiz-adv-x="482" 
d="M120 148q23 -90 127 -90q105 0 105 80q0 25 -10 41t-36.5 29t-75.5 25q-72 17 -112 40t-53.5 48.5t-13.5 63.5q0 60 47 102t140 42q92 0 140.5 -44t53.5 -105h-85q-4 15 -10.5 27t-19 25t-34 20.5t-48.5 7.5q-50 0 -72.5 -19.5t-22.5 -48.5q0 -30 23.5 -47.5t92.5 -33.5
q58 -14 95.5 -31t58 -38t28 -43.5t7.5 -53.5q0 -70 -53.5 -113.5t-147.5 -43.5q-96 0 -149.5 43.5t-63.5 116.5h89zM151 -257q51 108 57 202h91q-3 -52 -24.5 -110t-48.5 -92h-75z" />
    <glyph glyph-name="uni021A" unicode="&#x21a;" horiz-adv-x="569" 
d="M237 629h-229v81h553v-81h-229v-629h-95v629zM182 -257q50 108 57 202h90q-2 -52 -24 -110t-48 -92h-75z" />
    <glyph glyph-name="uni021B" unicode="&#x21b;" horiz-adv-x="325" 
d="M10 517h90v153h89v-153h114v-72h-114v-303q0 -40 12.5 -58.5t46.5 -18.5q26 0 45 4v-67q-24 -9 -78 -9q-60 0 -87.5 31t-27.5 96v325h-90v72zM79 -257q50 108 57 202h90q-3 -52 -24.5 -110t-47.5 -92h-75z" />
    <glyph glyph-name="uni0237" unicode="&#x237;" horiz-adv-x="241" 
d="M166 517v-534q0 -109 -31.5 -152.5t-114.5 -43.5q-18 0 -34 2v75q8 -1 22 -1q40 0 54 24t14 80v550h90z" />
    <glyph glyph-name="uni0251" unicode="&#x251;" horiz-adv-x="585" 
d="M507 517v-393q0 -79 5 -125h-82q-3 21 -8 81q-41 -92 -165 -92q-98 0 -157.5 73t-59.5 192q0 118 63.5 197t167.5 79q44 0 76 -12t47.5 -27t22.5 -33v60h90zM133 256q0 -60 18.5 -103.5t50 -65.5t71.5 -22q148 0 148 201q0 40 -6 71.5t-21 58.5t-43.5 41.5t-68.5 14.5
q-45 0 -78.5 -23t-52 -67.5t-18.5 -105.5z" />
    <glyph glyph-name="uni0259" unicode="&#x259;" horiz-adv-x="527" 
d="M398 274q-1 81 -39 131t-103 50q-55 0 -82 -22t-42 -59h-91q8 28 23 53t40 49.5t65 38.5t90 14q59 0 104 -22.5t71.5 -60.5t40 -84t13.5 -98q0 -121 -61 -198.5t-174 -77.5q-48 0 -87 15t-63.5 39t-41 56.5t-23 65.5t-6.5 68q0 29 1 42h365zM122 212q1 -68 35 -111
t97 -43q125 0 141 154h-273z" />
    <glyph glyph-name="uni0261" unicode="&#x261;" horiz-adv-x="578" 
d="M503 47q0 -128 -57 -194t-181 -66q-56 0 -98 14t-65 38.5t-35 50.5t-16 55h91q11 -43 44 -65t83 -22q83 0 114.5 48.5t31.5 144.5v42q-44 -91 -161 -91q-96 0 -155 71t-59 185q0 123 63.5 197t159.5 74q67 0 104.5 -24t47.5 -56q1 31 5 68h84q0 -12 -0.5 -39t-0.5 -58
v-52v-321zM133 262q0 -82 39 -132.5t102 -50.5q79 0 111.5 48.5t32.5 140.5q0 93 -31 139.5t-110 46.5q-69 0 -106.5 -53t-37.5 -139z" />
    <glyph glyph-name="uni02BB" unicode="&#x2bb;" horiz-adv-x="343" 
d="M242 749q-20 -62 -32.5 -138.5t-14.5 -131.5h-93q3 43 12.5 93.5t23.5 97.5t29 79h75z" />
    <glyph glyph-name="uni02BC" unicode="&#x2bc;" horiz-adv-x="343" 
d="M102 479q20 63 32.5 140t14.5 130h93q-5 -64 -24 -142.5t-42 -127.5h-74z" />
    <glyph glyph-name="uni02BE" unicode="&#x2be;" horiz-adv-x="318" 
d="M102 626q24 2 38 14t14 34q0 21 -14.5 32.5t-37.5 13.5v55q32 0 57.5 -12t41 -35.5t15.5 -53.5q0 -31 -15.5 -54.5t-41.5 -36t-57 -12.5v55z" />
    <glyph glyph-name="uni02BF" unicode="&#x2bf;" horiz-adv-x="318" 
d="M216 570q-48 0 -81 28t-33 73q0 46 33 74.5t81 28.5v-55q-51 -3 -51 -48q0 -20 14.5 -31.5t36.5 -14.5v-55z" />
    <glyph glyph-name="circumflex" unicode="&#x2c6;" 
d="M246 749l113 -155h-88l-68 103l-67 -103h-87l112 155h85z" />
    <glyph glyph-name="caron" unicode="&#x2c7;" 
d="M161 594l-112 155h87l69 -102l67 102h87l-111 -155h-87z" />
    <glyph glyph-name="uni02C8" unicode="&#x2c8;" horiz-adv-x="286" 
d="M102 579v183h83v-183h-83z" />
    <glyph glyph-name="uni02C9" unicode="&#x2c9;" horiz-adv-x="486" 
d="M385 713v-72h-283v72h283z" />
    <glyph glyph-name="uni02CA" unicode="&#x2ca;" horiz-adv-x="428" 
d="M348 759l-157 -156h-84l131 156h110z" />
    <glyph glyph-name="uni02CB" unicode="&#x2cb;" horiz-adv-x="428" 
d="M191 759l130 -156h-84l-157 156h111z" />
    <glyph glyph-name="uni02CC" unicode="&#x2cc;" horiz-adv-x="286" 
d="M102 -237v183h83v-183h-83z" />
    <glyph glyph-name="breve" unicode="&#x2d8;" 
d="M122 737q17 -70 81 -70q39 0 56.5 19t26.5 51h65q-8 -61 -45.5 -99.5t-102.5 -38.5q-70 0 -106.5 40t-40.5 98h66z" />
    <glyph glyph-name="dotaccent" unicode="&#x2d9;" 
d="M160 638v111h88v-111h-88z" />
    <glyph glyph-name="ring" unicode="&#x2da;" 
d="M204 577q-49 0 -79 28.5t-30 70.5q0 28 12.5 50.5t38 36.5t58.5 14t58 -13t37.5 -36t12.5 -51q0 -42 -30 -71t-78 -29zM204 623q25 0 39 16t14 37q0 22 -13.5 38.5t-39.5 16.5t-39.5 -15.5t-13.5 -37.5t13.5 -38.5t39.5 -16.5z" />
    <glyph glyph-name="ogonek" unicode="&#x2db;" 
d="M270 0q-67 -57 -67 -108q0 -25 16 -39.5t41 -14.5q35 0 58 9v-69q-29 -17 -81 -17q-55 0 -87.5 30t-32.5 83q0 70 80 141z" />
    <glyph glyph-name="tilde" unicode="&#x2dc;" 
d="M46 617v24q0 97 83 97q31 0 79 -25t63 -25t22 9.5t7 33.5v11h62v-22q0 -104 -85 -104q-31 0 -76.5 25.5t-64.5 25.5q-27 0 -27 -34v-16h-63z" />
    <glyph glyph-name="hungarumlaut" unicode="&#x2dd;" 
d="M55 592l103 158h94l-122 -158h-75zM241 592l103 158h95l-124 -158h-74z" />
    <glyph glyph-name="uni0300" unicode="&#x300;" horiz-adv-x="0" 
d="M-23 759l130 -156h-85l-157 156h112z" />
    <glyph glyph-name="uni0301" unicode="&#x301;" horiz-adv-x="0" 
d="M134 759l-157 -156h-84l130 156h111z" />
    <glyph glyph-name="uni0302" unicode="&#x302;" horiz-adv-x="0" 
d="M42 749l113 -155h-88l-68 103l-67 -103h-87l112 155h85z" />
    <glyph glyph-name="uni0303" unicode="&#x303;" horiz-adv-x="0" 
d="M-158 617v24q0 97 83 97q31 0 79 -25t63 -25t22 9.5t7 33.5v11h62v-22q0 -104 -85 -104q-31 0 -76.5 25.5t-64.5 25.5q-27 0 -27 -34v-16h-63z" />
    <glyph glyph-name="uni0304" unicode="&#x304;" horiz-adv-x="0" 
d="M141 713v-72h-283v72h283z" />
    <glyph glyph-name="uni0306" unicode="&#x306;" horiz-adv-x="0" 
d="M-82 737q17 -70 81 -70q39 0 56.5 19t26.5 51h65q-8 -61 -45.5 -99.5t-102.5 -38.5q-70 0 -106.5 40t-40.5 98h66z" />
    <glyph glyph-name="uni0307" unicode="&#x307;" horiz-adv-x="0" 
d="M-44 638v111h88v-111h-88z" />
    <glyph glyph-name="uni0308" unicode="&#x308;" horiz-adv-x="0" 
d="M-133 638v111h79v-111h-79zM54 638v111h78v-111h-78z" />
    <glyph glyph-name="uni0309" unicode="&#x309;" horiz-adv-x="0" 
d="M-42 596q32 27 46 46.5t14 39.5q0 17 -10.5 27.5t-31.5 10.5q-32 0 -62 -17l-20 54q43 29 101 29q48 0 75.5 -25.5t27.5 -62.5q0 -23 -10 -44.5t-19.5 -32t-26.5 -25.5h-84z" />
    <glyph glyph-name="uni030A" unicode="&#x30a;" horiz-adv-x="0" 
d="M0 577q-33 0 -58 13.5t-38 36t-13 49.5q0 28 12.5 50.5t38 36.5t58.5 14t58 -13t37.5 -36t12.5 -51q0 -42 -30 -71t-78 -29zM0 623q25 0 39 16t14 37q0 22 -13.5 38.5t-39.5 16.5t-39.5 -15.5t-13.5 -37.5t13.5 -38.5t39.5 -16.5z" />
    <glyph glyph-name="uni030B" unicode="&#x30b;" horiz-adv-x="0" 
d="M-187 592l103 158h94l-122 -158h-75zM-1 592l103 158h95l-124 -158h-74z" />
    <glyph glyph-name="uni030C" unicode="&#x30c;" horiz-adv-x="0" 
d="M-43 594l-112 155h87l69 -102l67 102h87l-111 -155h-87z" />
    <glyph glyph-name="uni031B" unicode="&#x31b;" horiz-adv-x="0" 
d="M-66 541q71 11 71 67q0 30 -11 60h82q9 -24 9 -57q0 -52 -32 -88t-91 -43z" />
    <glyph glyph-name="uni0323" unicode="&#x323;" horiz-adv-x="0" 
d="M-48 -188v110h95v-110h-95z" />
    <glyph glyph-name="uni0324" unicode="&#x324;" horiz-adv-x="0" 
d="M-133 -191v111h79v-111h-79zM54 -191v111h78v-111h-78z" />
    <glyph glyph-name="uni0326" unicode="&#x326;" horiz-adv-x="0" 
d="M-84 -257q51 108 57 202h91q-3 -52 -24.5 -110t-47.5 -92h-76z" />
    <glyph glyph-name="uni0327" unicode="&#x327;" horiz-adv-x="0" 
d="M48 0l-42 -52q17 -3 31.5 -8.5t31 -15.5t26.5 -28.5t10 -43.5q0 -29 -11.5 -49.5t-31.5 -30.5t-40.5 -14.5t-42.5 -4.5q-47 0 -74 12v62q26 -12 66 -12q55 0 55 36q0 44 -106 46v29l65 84z" />
    <glyph glyph-name="uni0328" unicode="&#x328;" horiz-adv-x="0" 
d="M45 0q-67 -57 -67 -108q0 -25 15.5 -39.5t41.5 -14.5q35 0 58 9v-69q-30 -17 -82 -17q-36 0 -63 13.5t-41.5 39t-14.5 60.5q0 70 79 141z" />
    <glyph glyph-name="uni032E" unicode="&#x32e;" horiz-adv-x="0" 
d="M-82 -62q17 -71 81 -71q21 0 36 6t24 17t14 21.5t9 26.5h65q-8 -62 -45.5 -100.5t-102.5 -38.5q-70 0 -106.5 40.5t-40.5 98.5h66z" />
    <glyph glyph-name="uni0331" unicode="&#x331;" horiz-adv-x="0" 
d="M141 -100v-72h-283v72h283z" />
    <glyph glyph-name="pi" unicode="&#x3c0;" horiz-adv-x="552" 
d="M378 444h-208v-444h-88v444q-70 0 -87 -3v70q30 6 165 6h391v-73h-85v-444h-90z" />
    <glyph glyph-name="uni1E0C" unicode="&#x1e0c;" horiz-adv-x="735" 
d="M94 710h253q150 0 242 -95t92 -253q0 -159 -92.5 -260.5t-244.5 -101.5h-250v710zM188 80h149q81 0 137 37t82 99t26 144q0 54 -14 101.5t-43 85.5t-77.5 60t-110.5 22h-149v-549zM293 -188v110h95v-110h-95z" />
    <glyph glyph-name="uni1E0D" unicode="&#x1e0d;" horiz-adv-x="582" 
d="M507 749v-603q0 -96 1 -146h-86q-5 22 -5 73q-40 -85 -162 -85q-99 0 -157 73t-58 192q0 121 63 198.5t168 77.5q63 0 98.5 -19.5t47.5 -46.5v286h90zM133 256q0 -91 38.5 -142t101.5 -51q44 0 74 15.5t45.5 44.5t22 63t6.5 80q0 95 -29.5 141.5t-111.5 46.5
q-69 0 -108 -52t-39 -146zM243 -188v110h95v-110h-95z" />
    <glyph glyph-name="uni1E0E" unicode="&#x1e0e;" horiz-adv-x="735" 
d="M94 710h253q150 0 242 -95t92 -253q0 -159 -92.5 -260.5t-244.5 -101.5h-250v710zM188 80h149q81 0 137 37t82 99t26 144q0 54 -14 101.5t-43 85.5t-77.5 60t-110.5 22h-149v-549zM481 -100v-72h-282v72h282z" />
    <glyph glyph-name="uni1E0F" unicode="&#x1e0f;" horiz-adv-x="582" 
d="M507 749v-603q0 -96 1 -146h-86q-5 22 -5 73q-40 -85 -162 -85q-99 0 -157 73t-58 192q0 121 63 198.5t168 77.5q63 0 98.5 -19.5t47.5 -46.5v286h90zM133 256q0 -91 38.5 -142t101.5 -51q44 0 74 15.5t45.5 44.5t22 63t6.5 80q0 95 -29.5 141.5t-111.5 46.5
q-69 0 -108 -52t-39 -146zM431 -100v-72h-282v72h282z" />
    <glyph glyph-name="uni1E20" unicode="&#x1e20;" horiz-adv-x="742" 
d="M520 874v-70h-285v70h285zM669 0h-72q-8 20 -9 96q-65 -105 -221 -105q-99 0 -171 47.5t-107 127t-35 182.5q0 107 37.5 190.5t113 132.5t180.5 49q121 0 196.5 -59.5t91.5 -156.5h-94q-42 138 -197 138q-59 0 -104 -23t-72 -63.5t-40 -91.5t-13 -112q0 -57 13 -106.5
t39 -89.5t70.5 -63.5t102.5 -23.5q199 0 199 226v8h-200v81h292v-384z" />
    <glyph glyph-name="uni1E21" unicode="&#x1e21;" horiz-adv-x="578" 
d="M429 713v-72h-282v72h282zM503 47q0 -128 -57 -194t-181 -66q-56 0 -98 14t-65 38.5t-35 50.5t-16 55h91q11 -43 44 -65t83 -22q83 0 114.5 48.5t31.5 144.5v42q-44 -91 -161 -91q-96 0 -155 71t-59 185q0 123 63.5 197t159.5 74q67 0 104.5 -24t47.5 -56q1 31 5 68h84
q0 -12 -0.5 -39t-0.5 -58v-52v-321zM133 262q0 -82 39 -132.5t102 -50.5q79 0 111.5 48.5t32.5 140.5q0 93 -31 139.5t-110 46.5q-69 0 -106.5 -53t-37.5 -139z" />
    <glyph glyph-name="uni1E24" unicode="&#x1e24;" horiz-adv-x="744" 
d="M94 710h94v-297h369v297h95v-710h-95v333h-369v-333h-94v710zM324 -188v110h95v-110h-95z" />
    <glyph glyph-name="uni1E25" unicode="&#x1e25;" horiz-adv-x="577" 
d="M166 749v-308q50 88 161 88q34 0 63 -9.5t55 -31t41.5 -62t15.5 -96.5v-330h-90v315q0 137 -112 137q-134 0 -134 -169v-283h-90v749h90zM241 -188v110h95v-110h-95z" />
    <glyph glyph-name="uni1E2A" unicode="&#x1e2a;" horiz-adv-x="744" 
d="M94 710h94v-297h369v297h95v-710h-95v333h-369v-333h-94v710zM291 -62q16 -71 80 -71q17 0 30.5 4.5t21.5 10.5t14.5 16t10 19t6.5 21h65q-5 -40 -22 -70.5t-49.5 -49.5t-76.5 -19q-70 0 -106 40.5t-41 98.5h67z" />
    <glyph glyph-name="uni1E2B" unicode="&#x1e2b;" horiz-adv-x="577" 
d="M166 749v-308q50 88 161 88q34 0 63 -9.5t55 -31t41.5 -62t15.5 -96.5v-330h-90v315q0 137 -112 137q-134 0 -134 -169v-283h-90v749h90zM207 -62q17 -71 81 -71q20 0 35.5 6t24.5 17t13.5 21.5t8.5 26.5h66q-6 -40 -23 -70.5t-49.5 -49.5t-75.5 -19q-71 0 -107 40.5
t-40 98.5h66z" />
    <glyph glyph-name="uni1E36" unicode="&#x1e36;" horiz-adv-x="572" 
d="M94 710h94v-629h370l-13 -81h-451v710zM272 -188v110h95v-110h-95z" />
    <glyph glyph-name="uni1E37" unicode="&#x1e37;" horiz-adv-x="241" 
d="M76 0v749h90v-749h-90zM73 -188v110h95v-110h-95z" />
    <glyph glyph-name="uni1E38" unicode="&#x1e38;" horiz-adv-x="572" 
d="M290 861v-71h-286v71h286zM94 710h94v-629h370l-13 -81h-451v710zM272 -188v110h95v-110h-95z" />
    <glyph glyph-name="uni1E39" unicode="&#x1e39;" horiz-adv-x="241" 
d="M262 885v-72h-282v72h282zM76 0v749h90v-749h-90zM73 -188v110h95v-110h-95z" />
    <glyph glyph-name="uni1E3A" unicode="&#x1e3a;" horiz-adv-x="572" 
d="M94 710h94v-629h370l-13 -81h-451v710zM464 -100v-72h-282v72h282z" />
    <glyph glyph-name="uni1E3B" unicode="&#x1e3b;" horiz-adv-x="241" 
d="M76 0v749h90v-749h-90zM262 -100v-72h-282v72h282z" />
    <glyph glyph-name="uni1E42" unicode="&#x1e42;" horiz-adv-x="885" 
d="M700 302q0 217 5 341h-4q-9 -33 -26 -86t-45 -130.5t-48 -133t-57 -156t-51 -137.5h-84q-13 38 -53.5 156t-66 193.5t-54 164t-39.5 131.5h-3q9 -133 9 -362v-283h-89v710h140q164 -450 204 -595h1q26 103 217 595h136v-710h-92v302zM386 -188v110h94v-110h-94z" />
    <glyph glyph-name="uni1E43" unicode="&#x1e43;" horiz-adv-x="862" 
d="M76 384q0 91 -1 133h86q4 -30 4 -79q47 91 150 91q54 0 91 -24.5t53 -67.5q52 92 164 92q71 0 117 -46t46 -143v-340h-87v329q0 24 -5 44.5t-16 39t-31.5 29t-49.5 10.5q-62 0 -92 -41.5t-30 -113.5v-297h-87v326q0 27 -4.5 48t-15 39.5t-31 28.5t-49.5 10
q-61 0 -92 -44.5t-31 -120.5v-287h-89v384zM384 -188v110h94v-110h-94z" />
    <glyph glyph-name="uni1E44" unicode="&#x1e44;" horiz-adv-x="758" 
d="M336 782v112h91v-112h-91zM94 0v710h124q23 -37 122 -197t161.5 -262.5t79.5 -136.5h1q-6 78 -6 318v278h89v-710h-117q-112 183 -226 372t-142 241h-3q6 -81 6 -329v-284h-89z" />
    <glyph glyph-name="uni1E45" unicode="&#x1e45;" horiz-adv-x="577" 
d="M245 638v111h88v-111h-88zM76 387q0 90 -1 130h87q4 -20 4 -85q45 97 162 97q78 0 126 -49t48 -147v-333h-90v321q0 131 -109 131q-70 0 -103.5 -48t-33.5 -131v-273h-90v387z" />
    <glyph glyph-name="uni1E46" unicode="&#x1e46;" horiz-adv-x="758" 
d="M94 0v710h124q23 -37 122 -197t161.5 -262.5t79.5 -136.5h1q-6 78 -6 318v278h89v-710h-117q-112 183 -226 372t-142 241h-3q6 -81 6 -329v-284h-89zM332 -188v110h94v-110h-94z" />
    <glyph glyph-name="uni1E47" unicode="&#x1e47;" horiz-adv-x="577" 
d="M76 387q0 90 -1 130h87q4 -20 4 -85q45 97 162 97q78 0 126 -49t48 -147v-333h-90v321q0 131 -109 131q-70 0 -103.5 -48t-33.5 -131v-273h-90v387zM241 -188v110h95v-110h-95z" />
    <glyph glyph-name="uni1E48" unicode="&#x1e48;" horiz-adv-x="758" 
d="M94 0v710h124q23 -37 122 -197t161.5 -262.5t79.5 -136.5h1q-6 78 -6 318v278h89v-710h-117q-112 183 -226 372t-142 241h-3q6 -81 6 -329v-284h-89zM520 -100v-72h-282v72h282z" />
    <glyph glyph-name="uni1E49" unicode="&#x1e49;" horiz-adv-x="577" 
d="M76 387q0 90 -1 130h87q4 -20 4 -85q45 97 162 97q78 0 126 -49t48 -147v-333h-90v321q0 131 -109 131q-70 0 -103.5 -48t-33.5 -131v-273h-90v387zM429 -100v-72h-282v72h282z" />
    <glyph glyph-name="uni1E5A" unicode="&#x1e5a;" horiz-adv-x="654" 
d="M187 312v-312h-93v710h277q107 0 165.5 -52.5t58.5 -137.5q0 -45 -16.5 -80t-43.5 -56.5t-62 -30.5q108 -29 108 -182v-30v-19v-20t0.5 -19t0.5 -20t1 -18t2 -17.5t2.5 -15t4.5 -12.5h-92q-13 29 -12 140v13v14q0 80 -32 112.5t-124 32.5h-145zM187 392h154
q80 0 118 29.5t38 90.5q0 57 -37 87.5t-108 30.5h-165v-238zM289 -182v111h95v-111h-95z" />
    <glyph glyph-name="uni1E5B" unicode="&#x1e5b;" horiz-adv-x="359" 
d="M76 376q0 42 -0.5 87.5t-0.5 53.5h88q3 -43 3 -105q21 53 66 84.5t108 32.5v-88q-174 -5 -174 -190v-251h-90v376zM74 -188v110h95v-110h-95z" />
    <glyph glyph-name="uni1E5C" unicode="&#x1e5c;" horiz-adv-x="654" 
d="M468 865v-70h-285v70h285zM187 312v-312h-93v710h277q107 0 165.5 -52.5t58.5 -137.5q0 -45 -16.5 -80t-43.5 -56.5t-62 -30.5q108 -29 108 -182v-30v-19v-20t0.5 -19t0.5 -20t1 -18t2 -17.5t2.5 -15t4.5 -12.5h-92q-13 29 -12 140v13v14q0 80 -32 112.5t-124 32.5h-145z
M187 392h154q80 0 118 29.5t38 90.5q0 57 -37 87.5t-108 30.5h-165v-238zM290 -180v111h95v-111h-95z" />
    <glyph glyph-name="uni1E5D" unicode="&#x1e5d;" horiz-adv-x="359" 
d="M346 713v-72h-283v72h283zM76 376q0 42 -0.5 87.5t-0.5 53.5h88q3 -43 3 -105q21 53 66 84.5t108 32.5v-88q-174 -5 -174 -190v-251h-90v376zM75 -188v110h95v-110h-95z" />
    <glyph glyph-name="uni1E5E" unicode="&#x1e5e;" horiz-adv-x="654" 
d="M187 312v-312h-93v710h277q107 0 165.5 -52.5t58.5 -137.5q0 -45 -16.5 -80t-43.5 -56.5t-62 -30.5q108 -29 108 -182v-30v-19v-20t0.5 -19t0.5 -20t1 -18t2 -17.5t2.5 -15t4.5 -12.5h-92q-13 29 -12 140v13v14q0 80 -32 112.5t-124 32.5h-145zM187 392h154
q80 0 118 29.5t38 90.5q0 57 -37 87.5t-108 30.5h-165v-238zM478 -95v-72h-282v72h282z" />
    <glyph glyph-name="uni1E5F" unicode="&#x1e5f;" horiz-adv-x="359" 
d="M76 376q0 42 -0.5 87.5t-0.5 53.5h88q3 -43 3 -105q21 53 66 84.5t108 32.5v-88q-174 -5 -174 -190v-251h-90v376zM273 -100v-72h-282v72h282z" />
    <glyph glyph-name="uni1E60" unicode="&#x1e60;" horiz-adv-x="618" 
d="M263 785v112h92v-112h-92zM138 198q29 -132 180 -132q53 0 88.5 16.5t50.5 42.5t15 61q0 56 -37 88t-139 56q-84 21 -133.5 48t-71 63t-21.5 87q0 84 61 138t175 54q61 0 108.5 -16.5t76 -44.5t44.5 -60.5t20 -69.5h-96q-24 115 -156 115q-65 0 -100 -28t-35 -78
t35 -75.5t130 -48.5q73 -18 121.5 -41.5t73 -52.5t33.5 -58t9 -67q0 -90 -66.5 -147t-191.5 -57q-64 0 -114.5 16.5t-82 46t-49.5 65.5t-24 79h96z" />
    <glyph glyph-name="uni1E61" unicode="&#x1e61;" horiz-adv-x="482" 
d="M198 638v111h88v-111h-88zM120 148q23 -90 127 -90q105 0 105 80q0 25 -10 41t-36.5 29t-75.5 25q-72 17 -112 40t-53.5 48.5t-13.5 63.5q0 60 47 102t140 42q92 0 140.5 -44t53.5 -105h-85q-4 15 -10.5 27t-19 25t-34 20.5t-48.5 7.5q-50 0 -72.5 -19.5t-22.5 -48.5
q0 -30 23.5 -47.5t92.5 -33.5q58 -14 95.5 -31t58 -38t28 -43.5t7.5 -53.5q0 -70 -53.5 -113.5t-147.5 -43.5q-96 0 -149.5 43.5t-63.5 116.5h89z" />
    <glyph glyph-name="uni1E62" unicode="&#x1e62;" horiz-adv-x="618" 
d="M138 198q29 -132 180 -132q53 0 88.5 16.5t50.5 42.5t15 61q0 56 -37 88t-139 56q-84 21 -133.5 48t-71 63t-21.5 87q0 84 61 138t175 54q61 0 108.5 -16.5t76 -44.5t44.5 -60.5t20 -69.5h-96q-24 115 -156 115q-65 0 -100 -28t-35 -78t35 -75.5t130 -48.5
q73 -18 121.5 -41.5t73 -52.5t33.5 -58t9 -67q0 -90 -66.5 -147t-191.5 -57q-64 0 -114.5 16.5t-82 46t-49.5 65.5t-24 79h96zM261 -188v110h95v-110h-95z" />
    <glyph glyph-name="uni1E63" unicode="&#x1e63;" horiz-adv-x="482" 
d="M120 148q23 -90 127 -90q105 0 105 80q0 25 -10 41t-36.5 29t-75.5 25q-72 17 -112 40t-53.5 48.5t-13.5 63.5q0 60 47 102t140 42q92 0 140.5 -44t53.5 -105h-85q-4 15 -10.5 27t-19 25t-34 20.5t-48.5 7.5q-50 0 -72.5 -19.5t-22.5 -48.5q0 -30 23.5 -47.5t92.5 -33.5
q58 -14 95.5 -31t58 -38t28 -43.5t7.5 -53.5q0 -70 -53.5 -113.5t-147.5 -43.5q-96 0 -149.5 43.5t-63.5 116.5h89zM194 -188v110h95v-110h-95z" />
    <glyph glyph-name="uni1E6C" unicode="&#x1e6c;" horiz-adv-x="569" 
d="M237 629h-229v81h553v-81h-229v-629h-95v629zM237 -188v110h95v-110h-95z" />
    <glyph glyph-name="uni1E6D" unicode="&#x1e6d;" horiz-adv-x="325" 
d="M10 517h90v153h89v-153h114v-72h-114v-303q0 -40 12.5 -58.5t46.5 -18.5q26 0 45 4v-67q-24 -9 -78 -9q-60 0 -87.5 31t-27.5 96v325h-90v72zM135 -188v110h95v-110h-95z" />
    <glyph glyph-name="uni1E6E" unicode="&#x1e6e;" horiz-adv-x="569" 
d="M237 629h-229v81h553v-81h-229v-629h-95v629zM425 -100v-72h-282v72h282z" />
    <glyph glyph-name="uni1E6F" unicode="&#x1e6f;" horiz-adv-x="325" 
d="M10 517h90v153h89v-153h114v-72h-114v-303q0 -40 12.5 -58.5t46.5 -18.5q26 0 45 4v-67q-24 -9 -78 -9q-60 0 -87.5 31t-27.5 96v325h-90v72zM318 -100v-72h-282v72h282z" />
    <glyph glyph-name="Wgrave" unicode="&#x1e80;" horiz-adv-x="954" 
d="M386 913l139 -140h-90l-168 140h119zM213 0l-191 710h100q21 -85 57.5 -232.5t59 -243t28.5 -131.5h1q10 50 76.5 289.5t85.5 317.5h92q140 -519 155 -604h1q7 35 22 95t34.5 130t38 137t38 136t28.5 106h93l-207 -710h-101q-140 535 -151 586h-1q-9 -47 -35.5 -146
t-70.5 -255.5t-52 -184.5h-101z" />
    <glyph glyph-name="wgrave" unicode="&#x1e81;" horiz-adv-x="782" 
d="M308 759l131 -156h-85l-157 156h111zM119 517q101 -381 111 -434h1q9 51 119 434h88q11 -42 24.5 -90t21.5 -76.5t17 -62.5t14.5 -53.5t11.5 -41.5t9 -35t6.5 -26t5 -22t3.5 -17h1q20 83 114 424h91l-159 -517h-97q-18 69 -46.5 172.5t-44 162.5t-20.5 84h-1
q-8 -47 -114 -419h-100l-149 517h93z" />
    <glyph glyph-name="Wacute" unicode="&#x1e82;" horiz-adv-x="954" 
d="M694 912l-175 -140h-93l150 140h118zM213 0l-191 710h100q21 -85 57.5 -232.5t59 -243t28.5 -131.5h1q10 50 76.5 289.5t85.5 317.5h92q140 -519 155 -604h1q7 35 22 95t34.5 130t38 137t38 136t28.5 106h93l-207 -710h-101q-140 535 -151 586h-1q-9 -47 -35.5 -146
t-70.5 -255.5t-52 -184.5h-101z" />
    <glyph glyph-name="wacute" unicode="&#x1e83;" horiz-adv-x="782" 
d="M586 759l-157 -156h-83l130 156h110zM119 517q101 -381 111 -434h1q9 51 119 434h88q11 -42 24.5 -90t21.5 -76.5t17 -62.5t14.5 -53.5t11.5 -41.5t9 -35t6.5 -26t5 -22t3.5 -17h1q20 83 114 424h91l-159 -517h-97q-18 69 -46.5 172.5t-44 162.5t-20.5 84h-1
q-8 -47 -114 -419h-100l-149 517h93z" />
    <glyph glyph-name="Wdieresis" unicode="&#x1e84;" horiz-adv-x="954" 
d="M338 784v113h78v-113h-78zM538 784v113h77v-113h-77zM213 0l-191 710h100q21 -85 57.5 -232.5t59 -243t28.5 -131.5h1q10 50 76.5 289.5t85.5 317.5h92q140 -519 155 -604h1q7 35 22 95t34.5 130t38 137t38 136t28.5 106h93l-207 -710h-101q-140 535 -151 586h-1
q-9 -47 -35.5 -146t-70.5 -255.5t-52 -184.5h-101z" />
    <glyph glyph-name="wdieresis" unicode="&#x1e85;" horiz-adv-x="782" 
d="M258 638v111h79v-111h-79zM445 638v111h77v-111h-77zM119 517q101 -381 111 -434h1q9 51 119 434h88q11 -42 24.5 -90t21.5 -76.5t17 -62.5t14.5 -53.5t11.5 -41.5t9 -35t6.5 -26t5 -22t3.5 -17h1q20 83 114 424h91l-159 -517h-97q-18 69 -46.5 172.5t-44 162.5t-20.5 84
h-1q-8 -47 -114 -419h-100l-149 517h93z" />
    <glyph glyph-name="uni1E8E" unicode="&#x1e8e;" horiz-adv-x="602" 
d="M255 781v111h92v-111h-92zM250 0v260q0 13 -5 19l-250 431h108q178 -319 200 -361q31 63 203 361h101l-258 -433q-4 -8 -4 -18v-259h-95z" />
    <glyph glyph-name="uni1E8F" unicode="&#x1e8f;" horiz-adv-x="490" 
d="M201 638v111h88v-111h-88zM107 517q129 -381 144 -437h1q26 95 138 437h89l-185 -540q-39 -114 -78.5 -152t-118.5 -38q-26 0 -56 3v77q26 -2 43 -2q47 0 71.5 24.5t48.5 90.5l-194 537h97z" />
    <glyph glyph-name="uni1E92" unicode="&#x1e92;" horiz-adv-x="608" 
d="M31 72l432 557h-411v81h519v-79l-424 -550h438l-13 -81h-541v72zM256 -188v110h95v-110h-95z" />
    <glyph glyph-name="uni1E93" unicode="&#x1e93;" horiz-adv-x="460" 
d="M26 72l297 370h-282v75h384v-74l-293 -368h308l-15 -75h-399v72zM182 -188v110h94v-110h-94z" />
    <glyph glyph-name="uni1E97" unicode="&#x1e97;" horiz-adv-x="325" 
d="M13 720v111h79v-111h-79zM200 720v111h77v-111h-77zM10 517h90v153h89v-153h114v-72h-114v-303q0 -40 12.5 -58.5t46.5 -18.5q26 0 45 4v-67q-24 -9 -78 -9q-60 0 -87.5 31t-27.5 96v325h-90v72z" />
    <glyph glyph-name="uni1E9E" unicode="&#x1e9e;" horiz-adv-x="658" 
d="M188 0h-94v520q0 69 30.5 114t84 65.5t130.5 20.5q69 0 121 -17t79 -45t40 -57.5t13 -59.5q0 -20 -2 -32l-173 -107v-4l75 -44q78 -47 108 -90t30 -97q0 -80 -54.5 -128.5t-155.5 -48.5q-54 0 -97.5 15.5t-69.5 39.5v94q31 -35 76.5 -55t90.5 -20q41 0 69 14t39.5 34.5
t11.5 46.5q0 37 -21.5 62.5t-82.5 61.5l-109 63q-25 15 -25 41t26 43l165 104q0 18 -6.5 35.5t-22 36t-47.5 30t-76 11.5q-38 0 -64 -6.5t-47.5 -22.5t-31.5 -46t-10 -76v-496z" />
    <glyph glyph-name="uni1EA0" unicode="&#x1ea0;" horiz-adv-x="673" 
d="M191 213l-77 -213h-94l253 710h116l264 -710h-101l-79 213h-282zM450 294q-107 291 -121 339h-1q-12 -42 -113 -339h235zM289 -188v110h95v-110h-95z" />
    <glyph glyph-name="uni1EA1" unicode="&#x1ea1;" horiz-adv-x="539" 
d="M462 113q0 -77 7 -113h-85q-7 18 -9 67q-43 -79 -160 -79q-86 0 -130 46.5t-44 111.5q0 85 63 126.5t182 41.5h87v44q0 20 -4 35.5t-14.5 31.5t-34 25t-58.5 9q-30 0 -51.5 -6.5t-32.5 -20t-16.5 -25.5t-9.5 -31h-87q3 30 14 55t32.5 48.5t61 36.5t92.5 13
q197 0 197 -169v-247zM374 252h-83q-80 0 -119 -24t-39 -77q0 -27 11.5 -48t34.5 -33t55 -12q36 0 62 10t41 25.5t23.5 39.5t11 47.5t2.5 55.5v16zM222 -188v110h95v-110h-95z" />
    <glyph glyph-name="uni1EA2" unicode="&#x1ea2;" horiz-adv-x="673" 
d="M292 772q32 27 46 47t14 40q0 16 -10.5 27t-32.5 11q-32 0 -61 -18l-21 54q44 30 101 30q49 0 76 -26t27 -63q0 -23 -10 -44t-19.5 -31.5t-26.5 -26.5h-83zM191 213l-77 -213h-94l253 710h116l264 -710h-101l-79 213h-282zM450 294q-107 291 -121 339h-1
q-12 -42 -113 -339h235z" />
    <glyph glyph-name="uni1EA3" unicode="&#x1ea3;" horiz-adv-x="539" 
d="M228 596q32 27 46.5 46.5t14.5 39.5q0 17 -11 27.5t-32 10.5q-32 0 -61 -17l-21 54q44 29 101 29q49 0 76 -25.5t27 -62.5q0 -18 -4.5 -33.5t-14.5 -29t-17 -21t-20 -18.5h-84zM462 113q0 -77 7 -113h-85q-7 18 -9 67q-43 -79 -160 -79q-86 0 -130 46.5t-44 111.5
q0 85 63 126.5t182 41.5h87v44q0 20 -4 35.5t-14.5 31.5t-34 25t-58.5 9q-30 0 -51.5 -6.5t-32.5 -20t-16.5 -25.5t-9.5 -31h-87q3 30 14 55t32.5 48.5t61 36.5t92.5 13q197 0 197 -169v-247zM374 252h-83q-80 0 -119 -24t-39 -77q0 -27 11.5 -48t34.5 -33t55 -12
q36 0 62 10t41 25.5t23.5 39.5t11 47.5t2.5 55.5v16z" />
    <glyph glyph-name="uni1EA4" unicode="&#x1ea4;" horiz-adv-x="673" 
d="M670 992l-131 -118h-82l106 118h107zM380 897l136 -124h-101l-79 72l-79 -72h-99l130 124h92zM191 213l-77 -213h-94l253 710h116l264 -710h-101l-79 213h-282zM450 294q-107 291 -121 339h-1q-12 -42 -113 -339h235z" />
    <glyph glyph-name="uni1EA5" unicode="&#x1ea5;" horiz-adv-x="539" 
d="M590 830l-135 -133h-74l112 133h97zM316 716l108 -136h-84l-71 89l-69 -89h-84l107 136h93zM462 113q0 -77 7 -113h-85q-7 18 -9 67q-43 -79 -160 -79q-86 0 -130 46.5t-44 111.5q0 85 63 126.5t182 41.5h87v44q0 20 -4 35.5t-14.5 31.5t-34 25t-58.5 9q-30 0 -51.5 -6.5
t-32.5 -20t-16.5 -25.5t-9.5 -31h-87q3 30 14 55t32.5 48.5t61 36.5t92.5 13q197 0 197 -169v-247zM374 252h-83q-80 0 -119 -24t-39 -77q0 -27 11.5 -48t34.5 -33t55 -12q36 0 62 10t41 25.5t23.5 39.5t11 47.5t2.5 55.5v16z" />
    <glyph glyph-name="uni1EA6" unicode="&#x1ea6;" horiz-adv-x="673" 
d="M512 979l105 -114h-78l-139 114h112zM380 897l136 -124h-101l-79 72l-79 -72h-99l130 124h92zM191 213l-77 -213h-94l253 710h116l264 -710h-101l-79 213h-282zM450 294q-107 291 -121 339h-1q-12 -42 -113 -339h235z" />
    <glyph glyph-name="uni1EA7" unicode="&#x1ea7;" horiz-adv-x="539" 
d="M424 823l105 -137h-74l-130 137h99zM316 716l108 -136h-84l-71 89l-69 -89h-84l107 136h93zM462 113q0 -77 7 -113h-85q-7 18 -9 67q-43 -79 -160 -79q-86 0 -130 46.5t-44 111.5q0 85 63 126.5t182 41.5h87v44q0 20 -4 35.5t-14.5 31.5t-34 25t-58.5 9q-30 0 -51.5 -6.5
t-32.5 -20t-16.5 -25.5t-9.5 -31h-87q3 30 14 55t32.5 48.5t61 36.5t92.5 13q197 0 197 -169v-247zM374 252h-83q-80 0 -119 -24t-39 -77q0 -27 11.5 -48t34.5 -33t55 -12q36 0 62 10t41 25.5t23.5 39.5t11 47.5t2.5 55.5v16z" />
    <glyph glyph-name="uni1EA8" unicode="&#x1ea8;" horiz-adv-x="673" 
d="M473 871q56 42 56 78q0 31 -39 31q-29 0 -59 -18l-20 48q42 31 95 31q43 0 68 -22.5t25 -58.5q0 -27 -14 -50.5t-35 -38.5h-77zM380 897l136 -124h-101l-79 73l-79 -73h-99l130 124h92zM191 213l-77 -213h-94l253 710h116l264 -710h-101l-79 213h-282zM450 294
q-107 291 -121 339h-1q-12 -42 -113 -339h235z" />
    <glyph glyph-name="uni1EA9" unicode="&#x1ea9;" horiz-adv-x="539" 
d="M397 686q57 44 57 78q0 31 -37 31q-33 0 -56 -20l-20 46q37 32 91 32q30 0 50 -9.5t29.5 -27t9.5 -41.5q0 -51 -49 -89h-75zM316 716l108 -136h-84l-71 89l-69 -89h-84l107 136h93zM462 113q0 -77 7 -113h-85q-7 18 -9 67q-43 -79 -160 -79q-86 0 -130 46.5t-44 111.5
q0 85 63 126.5t182 41.5h87v44q0 20 -4 35.5t-14.5 31.5t-34 25t-58.5 9q-30 0 -51.5 -6.5t-32.5 -20t-16.5 -25.5t-9.5 -31h-87q3 30 14 55t32.5 48.5t61 36.5t92.5 13q197 0 197 -169v-247zM374 252h-83q-80 0 -119 -24t-39 -77q0 -27 11.5 -48t34.5 -33t55 -12
q36 0 62 10t41 25.5t23.5 39.5t11 47.5t2.5 55.5v16z" />
    <glyph glyph-name="uni1EAA" unicode="&#x1eaa;" horiz-adv-x="673" 
d="M176 900v11q0 86 77 86q32 0 86.5 -17.5t73.5 -17.5q15 0 22.5 5.5t7.5 20.5v8h54v-13q0 -45 -19.5 -64t-57.5 -19q-26 0 -84 18t-77 18q-27 0 -27 -29v-7h-56zM386 862l126 -98h-98l-79 56l-77 -56h-98l127 98h99zM191 213l-77 -213h-94l253 710h116l264 -710h-101
l-79 213h-282zM450 294q-107 291 -121 339h-1q-12 -42 -113 -339h235z" />
    <glyph glyph-name="uni1EAB" unicode="&#x1eab;" horiz-adv-x="539" 
d="M128 729v11q0 45 20 65.5t53 20.5q30 0 72.5 -18.5t54.5 -18.5q28 0 28 28v8h54v-12q0 -84 -76 -84q-26 0 -67 19t-57 19q-27 0 -27 -32v-6h-55zM315 685l113 -105h-91l-71 64l-67 -64h-90l110 105h96zM462 113q0 -77 7 -113h-85q-7 18 -9 67q-43 -79 -160 -79
q-86 0 -130 46.5t-44 111.5q0 85 63 126.5t182 41.5h87v44q0 20 -4 35.5t-14.5 31.5t-34 25t-58.5 9q-30 0 -51.5 -6.5t-32.5 -20t-16.5 -25.5t-9.5 -31h-87q3 30 14 55t32.5 48.5t61 36.5t92.5 13q197 0 197 -169v-247zM374 252h-83q-80 0 -119 -24t-39 -77q0 -27 11.5 -48
t34.5 -33t55 -12q36 0 62 10t41 25.5t23.5 39.5t11 47.5t2.5 55.5v16z" />
    <glyph glyph-name="uni1EAC" unicode="&#x1eac;" horiz-adv-x="673" 
d="M379 901l133 -134h-95l-85 85l-91 -85h-94l139 134h93zM191 213l-77 -213h-94l253 710h116l264 -710h-101l-79 213h-282zM450 294q-107 291 -121 339h-1q-12 -42 -113 -339h235zM289 -188v110h95v-110h-95z" />
    <glyph glyph-name="uni1EAD" unicode="&#x1ead;" horiz-adv-x="539" 
d="M312 749l113 -155h-87l-69 103l-67 -103h-87l112 155h85zM462 113q0 -77 7 -113h-85q-7 18 -9 67q-43 -79 -160 -79q-86 0 -130 46.5t-44 111.5q0 85 63 126.5t182 41.5h87v44q0 20 -4 35.5t-14.5 31.5t-34 25t-58.5 9q-30 0 -51.5 -6.5t-32.5 -20t-16.5 -25.5t-9.5 -31
h-87q3 30 14 55t32.5 48.5t61 36.5t92.5 13q197 0 197 -169v-247zM374 252h-83q-80 0 -119 -24t-39 -77q0 -27 11.5 -48t34.5 -33t55 -12q36 0 62 10t41 25.5t23.5 39.5t11 47.5t2.5 55.5v16zM222 -188v110h95v-110h-95z" />
    <glyph glyph-name="uni1EAE" unicode="&#x1eae;" horiz-adv-x="673" 
d="M503 1013l-134 -107h-82l102 107h114zM242 882q23 -54 91 -54q69 0 93 54h72q-14 -52 -54 -85t-111 -34q-34 0 -61 8.5t-44.5 21t-30 29t-19 31t-9.5 29.5h73zM191 213l-77 -213h-94l253 710h116l264 -710h-101l-79 213h-282zM450 294q-107 291 -121 339h-1
q-12 -42 -113 -339h235z" />
    <glyph glyph-name="uni1EAF" unicode="&#x1eaf;" horiz-adv-x="539" 
d="M420 848l-119 -121h-79l102 121h96zM185 702q21 -57 83 -57q38 0 57 15.5t28 41.5h65q-10 -55 -48 -88t-103 -33q-66 0 -103.5 35.5t-46.5 85.5h68zM462 113q0 -77 7 -113h-85q-7 18 -9 67q-43 -79 -160 -79q-86 0 -130 46.5t-44 111.5q0 85 63 126.5t182 41.5h87v44
q0 20 -4 35.5t-14.5 31.5t-34 25t-58.5 9q-30 0 -51.5 -6.5t-32.5 -20t-16.5 -25.5t-9.5 -31h-87q3 30 14 55t32.5 48.5t61 36.5t92.5 13q197 0 197 -169v-247zM374 252h-83q-80 0 -119 -24t-39 -77q0 -27 11.5 -48t34.5 -33t55 -12q36 0 62 10t41 25.5t23.5 39.5t11 47.5
t2.5 55.5v16z" />
    <glyph glyph-name="uni1EB0" unicode="&#x1eb0;" horiz-adv-x="673" 
d="M287 1013l101 -107h-85l-130 107h114zM242 882q23 -54 91 -54q69 0 93 54h72q-14 -52 -54 -85.5t-111 -33.5q-41 0 -72.5 12t-49.5 31.5t-28 38t-14 37.5h73zM191 213l-77 -213h-94l253 710h116l264 -710h-101l-79 213h-282zM450 294q-107 291 -121 339h-1
q-12 -42 -113 -339h235z" />
    <glyph glyph-name="uni1EB1" unicode="&#x1eb1;" horiz-adv-x="539" 
d="M216 850l101 -121h-78l-124 121h101zM186 704q21 -57 83 -57q27 0 45 9t26 20t14 28h65q-10 -55 -48 -88t-103 -33q-34 0 -62 10.5t-45.5 28.5t-28 38.5t-14.5 43.5h68zM462 113q0 -77 7 -113h-85q-7 18 -9 67q-43 -79 -160 -79q-86 0 -130 46.5t-44 111.5q0 85 63 126.5
t182 41.5h87v44q0 20 -4 35.5t-14.5 31.5t-34 25t-58.5 9q-30 0 -51.5 -6.5t-32.5 -20t-16.5 -25.5t-9.5 -31h-87q3 30 14 55t32.5 48.5t61 36.5t92.5 13q197 0 197 -169v-247zM374 252h-83q-80 0 -119 -24t-39 -77q0 -27 11.5 -48t34.5 -33t55 -12q36 0 62 10t41 25.5
t23.5 39.5t11 47.5t2.5 55.5v16z" />
    <glyph glyph-name="uni1EB2" unicode="&#x1eb2;" horiz-adv-x="673" 
d="M291 898q56 44 56 75q0 30 -38 30q-31 0 -58 -19l-21 46q40 33 95 33q43 0 66.5 -22t23.5 -57q0 -48 -49 -86h-75zM241 882q24 -54 93 -54q66 0 93 54h71q-37 -119 -165 -119q-33 0 -60.5 8.5t-44.5 21t-30 29.5t-19.5 31.5t-9.5 28.5h72zM191 213l-77 -213h-94l253 710
h116l264 -710h-101l-79 213h-282zM450 294q-107 291 -121 339h-1q-12 -42 -113 -339h235z" />
    <glyph glyph-name="uni1EB3" unicode="&#x1eb3;" horiz-adv-x="539" 
d="M225 723q62 46 62 77t-37 31q-32 0 -57 -20l-20 45q40 33 92 33q44 0 66 -20.5t22 -57.5q0 -26 -16 -49t-40 -39h-72zM187 704q21 -57 83 -57q38 0 57 15.5t28 41.5h65q-10 -55 -48 -88t-103 -33q-66 0 -103.5 35.5t-46.5 85.5h68zM462 113q0 -77 7 -113h-85q-7 18 -9 67
q-43 -79 -160 -79q-86 0 -130 46.5t-44 111.5q0 85 63 126.5t182 41.5h87v44q0 20 -4 35.5t-14.5 31.5t-34 25t-58.5 9q-30 0 -51.5 -6.5t-32.5 -20t-16.5 -25.5t-9.5 -31h-87q3 30 14 55t32.5 48.5t61 36.5t92.5 13q197 0 197 -169v-247zM374 252h-83q-80 0 -119 -24
t-39 -77q0 -27 11.5 -48t34.5 -33t55 -12q36 0 62 10t41 25.5t23.5 39.5t11 47.5t2.5 55.5v16z" />
    <glyph glyph-name="uni1EB4" unicode="&#x1eb4;" horiz-adv-x="673" 
d="M173 908v10q0 87 77 87q32 0 86.5 -18t73.5 -18q15 0 22.5 5.5t7.5 21.5v7h54v-12q0 -45 -19.5 -64.5t-57.5 -19.5q-26 0 -84 18.5t-77 18.5q-28 0 -28 -30v-6h-55zM243 863q23 -44 90 -44q70 0 90 44h71q-33 -103 -162 -103q-73 0 -111.5 31t-49.5 72h72zM191 213
l-77 -213h-94l253 710h116l264 -710h-101l-79 213h-282zM450 294q-107 291 -121 339h-1q-12 -42 -113 -339h235z" />
    <glyph glyph-name="uni1EB5" unicode="&#x1eb5;" horiz-adv-x="539" 
d="M130 744v11q0 45 20 65t53 20q31 0 72 -17t53 -17q10 0 16 1.5t10 8t4 16.5v7h54v-12q0 -83 -76 -83q-26 0 -67 18t-57 18q-27 0 -27 -29v-7h-55zM193 696q23 -50 77 -50q36 0 52.5 13t26.5 37h64q-9 -51 -45.5 -82t-98.5 -31t-97.5 33.5t-42.5 79.5h64zM462 113
q0 -77 7 -113h-85q-7 18 -9 67q-43 -79 -160 -79q-86 0 -130 46.5t-44 111.5q0 85 63 126.5t182 41.5h87v44q0 20 -4 35.5t-14.5 31.5t-34 25t-58.5 9q-30 0 -51.5 -6.5t-32.5 -20t-16.5 -25.5t-9.5 -31h-87q3 30 14 55t32.5 48.5t61 36.5t92.5 13q197 0 197 -169v-247z
M374 252h-83q-80 0 -119 -24t-39 -77q0 -27 11.5 -48t34.5 -33t55 -12q36 0 62 10t41 25.5t23.5 39.5t11 47.5t2.5 55.5v16z" />
    <glyph glyph-name="uni1EB6" unicode="&#x1eb6;" horiz-adv-x="673" 
d="M244 902q6 -31 29 -50t60 -19q74 0 89 69h69q-9 -60 -49.5 -97t-109.5 -37q-39 0 -69 11.5t-48 31t-28 42.5t-13 49h70zM191 213l-77 -213h-94l253 710h116l264 -710h-101l-79 213h-282zM450 294q-107 291 -121 339h-1q-12 -42 -113 -339h235zM289 -188v110h95v-110h-95z
" />
    <glyph glyph-name="uni1EB7" unicode="&#x1eb7;" horiz-adv-x="539" 
d="M189 737q16 -70 80 -70q21 0 36 6t24 17t14 21.5t9 25.5h65q-8 -61 -45.5 -99.5t-102.5 -38.5q-70 0 -106 40t-41 98h67zM462 113q0 -77 7 -113h-85q-7 18 -9 67q-43 -79 -160 -79q-86 0 -130 46.5t-44 111.5q0 85 63 126.5t182 41.5h87v44q0 20 -4 35.5t-14.5 31.5
t-34 25t-58.5 9q-30 0 -51.5 -6.5t-32.5 -20t-16.5 -25.5t-9.5 -31h-87q3 30 14 55t32.5 48.5t61 36.5t92.5 13q197 0 197 -169v-247zM374 252h-83q-80 0 -119 -24t-39 -77q0 -27 11.5 -48t34.5 -33t55 -12q36 0 62 10t41 25.5t23.5 39.5t11 47.5t2.5 55.5v16zM227 -188v110
h95v-110h-95z" />
    <glyph glyph-name="uni1EB8" unicode="&#x1eb8;" horiz-adv-x="608" 
d="M539 332h-353v-251h387l-12 -81h-467v710h462v-81h-370v-217h353v-80zM284 -188v110h94v-110h-94z" />
    <glyph glyph-name="uni1EB9" unicode="&#x1eb9;" horiz-adv-x="533" 
d="M130 243q0 -80 38.5 -130.5t102.5 -50.5q55 0 82 22t43 59h91q-9 -28 -24 -53t-39.5 -49.5t-64.5 -38.5t-91 -14q-58 0 -103.5 22.5t-72 60.5t-39.5 84t-13 98q0 121 60.5 198.5t173.5 77.5q49 0 87.5 -14.5t63 -39t41 -57t23.5 -65.5t7 -67q0 -30 -1 -43h-365zM405 305
q-1 68 -35 111t-97 43q-125 0 -140 -154h272zM230 -188v110h94v-110h-94z" />
    <glyph glyph-name="uni1EBA" unicode="&#x1eba;" horiz-adv-x="608" 
d="M286 774q15 14 26 24.5t19 21.5t11.5 21t3.5 20q0 16 -10.5 27t-32.5 11q-32 0 -61 -18l-21 54q44 30 101 30q49 0 76 -26t27 -63q0 -23 -10 -44t-19.5 -31.5t-26.5 -26.5h-83zM539 332h-353v-251h387l-12 -81h-467v710h462v-81h-370v-217h353v-80z" />
    <glyph glyph-name="uni1EBB" unicode="&#x1ebb;" horiz-adv-x="533" 
d="M233 590q31 27 45.5 46.5t14.5 39.5q0 17 -10.5 27.5t-32.5 10.5q-32 0 -61 -17l-21 54q44 29 101 29q49 0 76 -25.5t27 -62.5q0 -24 -10 -45t-19.5 -31.5t-26.5 -25.5h-83zM130 243q0 -80 38.5 -130.5t102.5 -50.5q55 0 82 22t43 59h91q-9 -28 -24 -53t-39.5 -49.5
t-64.5 -38.5t-91 -14q-58 0 -103.5 22.5t-72 60.5t-39.5 84t-13 98q0 121 60.5 198.5t173.5 77.5q49 0 87.5 -14.5t63 -39t41 -57t23.5 -65.5t7 -67q0 -30 -1 -43h-365zM405 305q-1 68 -35 111t-97 43q-125 0 -140 -154h272z" />
    <glyph glyph-name="uni1EBC" unicode="&#x1ebc;" horiz-adv-x="608" 
d="M151 792v22q0 100 88 100q34 0 91 -27t73 -27q33 0 33 44v12h62v-21q0 -58 -22 -82t-65 -24q-32 0 -89 27.5t-76 27.5q-30 0 -30 -35v-17h-65zM539 332h-353v-251h387l-12 -81h-467v710h462v-81h-370v-217h353v-80z" />
    <glyph glyph-name="uni1EBD" unicode="&#x1ebd;" horiz-adv-x="533" 
d="M109 617v24q0 97 83 97q31 0 79 -25t64 -25q14 0 21 9.5t7 33.5v11h62v-22q0 -104 -84 -104q-31 0 -77 25.5t-65 25.5q-27 0 -27 -34v-16h-63zM130 243q0 -80 38.5 -130.5t102.5 -50.5q55 0 82 22t43 59h91q-9 -28 -24 -53t-39.5 -49.5t-64.5 -38.5t-91 -14
q-58 0 -103.5 22.5t-72 60.5t-39.5 84t-13 98q0 121 60.5 198.5t173.5 77.5q49 0 87.5 -14.5t63 -39t41 -57t23.5 -65.5t7 -67q0 -30 -1 -43h-365zM405 305q-1 68 -35 111t-97 43q-125 0 -140 -154h272z" />
    <glyph glyph-name="uni1EBE" unicode="&#x1ebe;" horiz-adv-x="608" 
d="M657 993l-132 -118h-81l106 118h107zM367 898l136 -124h-101l-80 72l-78 -72h-99l129 124h93zM539 332h-353v-251h387l-12 -81h-467v710h462v-81h-370v-217h353v-80z" />
    <glyph glyph-name="uni1EBF" unicode="&#x1ebf;" horiz-adv-x="533" 
d="M591 830l-135 -133h-74l112 133h97zM317 716l108 -136h-84l-71 89l-69 -89h-84l107 136h93zM130 243q0 -80 38.5 -130.5t102.5 -50.5q55 0 82 22t43 59h91q-9 -28 -24 -53t-39.5 -49.5t-64.5 -38.5t-91 -14q-58 0 -103.5 22.5t-72 60.5t-39.5 84t-13 98q0 121 60.5 198.5
t173.5 77.5q49 0 87.5 -14.5t63 -39t41 -57t23.5 -65.5t7 -67q0 -30 -1 -43h-365zM405 305q-1 68 -35 111t-97 43q-125 0 -140 -154h272z" />
    <glyph glyph-name="uni1EC0" unicode="&#x1ec0;" horiz-adv-x="608" 
d="M499 983l105 -114h-79l-138 114h112zM367 901l136 -124h-101l-80 72l-78 -72h-99l129 124h93zM539 332h-353v-251h387l-12 -81h-467v710h462v-81h-370v-217h353v-80z" />
    <glyph glyph-name="uni1EC1" unicode="&#x1ec1;" horiz-adv-x="533" 
d="M425 823l105 -137h-74l-130 137h99zM317 716l108 -136h-84l-71 89l-69 -89h-84l107 136h93zM130 243q0 -80 38.5 -130.5t102.5 -50.5q55 0 82 22t43 59h91q-9 -28 -24 -53t-39.5 -49.5t-64.5 -38.5t-91 -14q-58 0 -103.5 22.5t-72 60.5t-39.5 84t-13 98q0 121 60.5 198.5
t173.5 77.5q49 0 87.5 -14.5t63 -39t41 -57t23.5 -65.5t7 -67q0 -30 -1 -43h-365zM405 305q-1 68 -35 111t-97 43q-125 0 -140 -154h272z" />
    <glyph glyph-name="uni1EC2" unicode="&#x1ec2;" horiz-adv-x="608" 
d="M459 876q56 42 56 78q0 31 -40 31q-28 0 -58 -18l-20 48q42 32 95 32q43 0 67.5 -23t24.5 -59q0 -27 -14 -50.5t-34 -38.5h-77zM366 902l136 -124h-101l-80 73l-78 -73h-99l129 124h93zM539 332h-353v-251h387l-12 -81h-467v710h462v-81h-370v-217h353v-80z" />
    <glyph glyph-name="uni1EC3" unicode="&#x1ec3;" horiz-adv-x="533" 
d="M394 686q57 44 57 78q0 31 -37 31q-33 0 -56 -20l-20 46q37 32 91 32q44 0 66.5 -20.5t22.5 -57.5q0 -51 -49 -89h-75zM313 716l108 -136h-84l-71 89l-69 -89h-84l107 136h93zM130 243q0 -80 38.5 -130.5t102.5 -50.5q55 0 82 22t43 59h91q-9 -28 -24 -53t-39.5 -49.5
t-64.5 -38.5t-91 -14q-58 0 -103.5 22.5t-72 60.5t-39.5 84t-13 98q0 121 60.5 198.5t173.5 77.5q49 0 87.5 -14.5t63 -39t41 -57t23.5 -65.5t7 -67q0 -30 -1 -43h-365zM405 305q-1 68 -35 111t-97 43q-125 0 -140 -154h272z" />
    <glyph glyph-name="uni1EC4" unicode="&#x1ec4;" horiz-adv-x="608" 
d="M164 909v11q0 86 77 86q31 0 86 -17.5t74 -17.5q9 0 15 2t10 8t4 17v7h54v-13q0 -44 -19 -63.5t-57 -19.5q-26 0 -84 18.5t-77 18.5q-28 0 -28 -30v-7h-55zM373 871l127 -98h-98l-80 56l-76 -56h-98l126 98h99zM539 332h-353v-251h387l-12 -81h-467v710h462v-81h-370
v-217h353v-80z" />
    <glyph glyph-name="uni1EC5" unicode="&#x1ec5;" horiz-adv-x="533" 
d="M126 726v10q0 46 20.5 66.5t53.5 20.5q30 0 72.5 -18.5t54.5 -18.5q14 0 21 6t7 22v8h54v-12q0 -84 -76 -84q-26 0 -67 19t-57 19q-27 0 -27 -32v-6h-56zM314 682l113 -105h-91l-71 64l-67 -64h-90l110 105h96zM130 243q0 -80 38.5 -130.5t102.5 -50.5q55 0 82 22t43 59
h91q-9 -28 -24 -53t-39.5 -49.5t-64.5 -38.5t-91 -14q-58 0 -103.5 22.5t-72 60.5t-39.5 84t-13 98q0 121 60.5 198.5t173.5 77.5q49 0 87.5 -14.5t63 -39t41 -57t23.5 -65.5t7 -67q0 -30 -1 -43h-365zM405 305q-1 68 -35 111t-97 43q-125 0 -140 -154h272z" />
    <glyph glyph-name="uni1EC6" unicode="&#x1ec6;" horiz-adv-x="608" 
d="M371 912l133 -134h-95l-86 85l-90 -85h-94l138 134h94zM539 332h-353v-251h387l-12 -81h-467v710h462v-81h-370v-217h353v-80zM280 -188v110h95v-110h-95z" />
    <glyph glyph-name="uni1EC7" unicode="&#x1ec7;" horiz-adv-x="533" 
d="M319 749l113 -155h-87l-69 103l-67 -103h-87l113 155h84zM130 243q0 -80 38.5 -130.5t102.5 -50.5q55 0 82 22t43 59h91q-9 -28 -24 -53t-39.5 -49.5t-64.5 -38.5t-91 -14q-58 0 -103.5 22.5t-72 60.5t-39.5 84t-13 98q0 121 60.5 198.5t173.5 77.5q49 0 87.5 -14.5
t63 -39t41 -57t23.5 -65.5t7 -67q0 -30 -1 -43h-365zM405 305q-1 68 -35 111t-97 43q-125 0 -140 -154h272zM230 -188v110h94v-110h-94z" />
    <glyph glyph-name="uni1EC8" unicode="&#x1ec8;" horiz-adv-x="281" 
d="M99 772q32 27 46 47t14 40q0 16 -10.5 27t-32.5 11q-31 0 -61 -18l-20 54q43 30 101 30q48 0 75.5 -26t27.5 -63q0 -23 -10 -44t-20 -31.5t-26 -26.5h-84zM188 710v-710h-94v710h94z" />
    <glyph glyph-name="uni1EC9" unicode="&#x1ec9;" horiz-adv-x="241" 
d="M80 596q15 13 26 24t19 21.5t11.5 20.5t3.5 20q0 17 -10.5 27.5t-32.5 10.5q-32 0 -61 -17l-21 54q44 29 101 29q49 0 76 -25.5t27 -62.5q0 -15 -3.5 -28.5t-8.5 -23t-14 -20t-14.5 -16t-15.5 -14.5h-83zM76 517h90v-517h-90v517z" />
    <glyph glyph-name="uni1ECA" unicode="&#x1eca;" horiz-adv-x="281" 
d="M188 710v-710h-94v710h94zM93 -188v110h95v-110h-95z" />
    <glyph glyph-name="uni1ECB" unicode="&#x1ecb;" horiz-adv-x="241" 
d="M76 638v111h90v-111h-90zM76 517h90v-517h-90v517zM73 -188v110h95v-110h-95z" />
    <glyph glyph-name="uni1ECC" unicode="&#x1ecc;" horiz-adv-x="766" 
d="M388 720q148 0 236 -100.5t88 -260.5q0 -75 -21 -140.5t-61 -117t-104.5 -81.5t-146.5 -30q-76 0 -138 28t-102.5 77.5t-62.5 116t-22 143.5q0 103 38 184.5t114.5 131t181.5 49.5zM384 640q-59 0 -104 -23t-72 -62t-41 -89t-14 -108q0 -79 25 -143t78.5 -104.5
t127.5 -40.5q59 0 104.5 23.5t72 64t40 90.5t13.5 109q0 79 -24.5 141.5t-77.5 102t-128 39.5zM336 -192v110h94v-110h-94z" />
    <glyph glyph-name="uni1ECD" unicode="&#x1ecd;" horiz-adv-x="561" 
d="M284 529q107 0 172 -73.5t65 -195.5q0 -117 -64.5 -194.5t-179.5 -77.5q-72 0 -126.5 35t-82.5 96t-28 139q0 119 65 195t179 76zM279 455q-71 0 -109 -53t-38 -143q0 -87 40.5 -142t109.5 -55t108 53.5t39 142.5q0 59 -17 103t-51 69t-82 25zM232 -190v110h94v-110h-94z
" />
    <glyph glyph-name="uni1ECE" unicode="&#x1ece;" horiz-adv-x="766" 
d="M342 772q31 27 45.5 47t14.5 40q0 16 -10.5 27t-32.5 11q-32 0 -61 -18l-21 54q44 30 101 30q49 0 76 -26t27 -63q0 -18 -4.5 -33.5t-14.5 -28.5t-17 -20.5t-20 -19.5h-83zM388 720q148 0 236 -100.5t88 -260.5q0 -75 -21 -140.5t-61 -117t-104.5 -81.5t-146.5 -30
q-76 0 -138 28t-102.5 77.5t-62.5 116t-22 143.5q0 103 38 184.5t114.5 131t181.5 49.5zM384 640q-59 0 -104 -23t-72 -62t-41 -89t-14 -108q0 -79 25 -143t78.5 -104.5t127.5 -40.5q59 0 104.5 23.5t72 64t40 90.5t13.5 109q0 79 -24.5 141.5t-77.5 102t-128 39.5z" />
    <glyph glyph-name="uni1ECF" unicode="&#x1ecf;" horiz-adv-x="561" 
d="M238 596q16 13 26.5 24t18.5 21.5t11.5 20.5t3.5 20q0 17 -10.5 27.5t-32.5 10.5q-32 0 -61 -17l-21 54q44 29 101 29q49 0 76 -25.5t27 -62.5q0 -23 -10 -44.5t-19.5 -32t-26.5 -25.5h-83zM284 529q107 0 172 -73.5t65 -195.5q0 -117 -64.5 -194.5t-179.5 -77.5
q-72 0 -126.5 35t-82.5 96t-28 139q0 119 65 195t179 76zM279 455q-71 0 -109 -53t-38 -143q0 -87 40.5 -142t109.5 -55t108 53.5t39 142.5q0 59 -17 103t-51 69t-82 25z" />
    <glyph glyph-name="uni1ED0" unicode="&#x1ed0;" horiz-adv-x="766" 
d="M717 992l-132 -118h-81l106 118h107zM427 897l136 -124h-101l-80 72l-78 -72h-99l130 124h92zM388 720q148 0 236 -100.5t88 -260.5q0 -75 -21 -140.5t-61 -117t-104.5 -81.5t-146.5 -30q-76 0 -138 28t-102.5 77.5t-62.5 116t-22 143.5q0 103 38 184.5t114.5 131
t181.5 49.5zM384 640q-59 0 -104 -23t-72 -62t-41 -89t-14 -108q0 -79 25 -143t78.5 -104.5t127.5 -40.5q59 0 104.5 23.5t72 64t40 90.5t13.5 109q0 79 -24.5 141.5t-77.5 102t-128 39.5z" />
    <glyph glyph-name="uni1ED1" unicode="&#x1ed1;" horiz-adv-x="561" 
d="M599 830l-135 -133h-73l111 133h97zM325 716l109 -136h-85l-71 89l-69 -89h-84l108 136h92zM284 529q107 0 172 -73.5t65 -195.5q0 -117 -64.5 -194.5t-179.5 -77.5q-72 0 -126.5 35t-82.5 96t-28 139q0 119 65 195t179 76zM279 455q-71 0 -109 -53t-38 -143
q0 -87 40.5 -142t109.5 -55t108 53.5t39 142.5q0 59 -17 103t-51 69t-82 25z" />
    <glyph glyph-name="uni1ED2" unicode="&#x1ed2;" horiz-adv-x="766" 
d="M559 979l105 -114h-79l-138 114h112zM427 897l136 -124h-101l-80 72l-78 -72h-99l130 124h92zM388 720q148 0 236 -100.5t88 -260.5q0 -75 -21 -140.5t-61 -117t-104.5 -81.5t-146.5 -30q-76 0 -138 28t-102.5 77.5t-62.5 116t-22 143.5q0 103 38 184.5t114.5 131
t181.5 49.5zM384 640q-59 0 -104 -23t-72 -62t-41 -89t-14 -108q0 -79 25 -143t78.5 -104.5t127.5 -40.5q59 0 104.5 23.5t72 64t40 90.5t13.5 109q0 79 -24.5 141.5t-77.5 102t-128 39.5z" />
    <glyph glyph-name="uni1ED3" unicode="&#x1ed3;" horiz-adv-x="561" 
d="M434 823l105 -137h-75l-129 137h99zM325 716l109 -136h-85l-71 89l-69 -89h-84l108 136h92zM284 529q107 0 172 -73.5t65 -195.5q0 -117 -64.5 -194.5t-179.5 -77.5q-72 0 -126.5 35t-82.5 96t-28 139q0 119 65 195t179 76zM279 455q-71 0 -109 -53t-38 -143
q0 -87 40.5 -142t109.5 -55t108 53.5t39 142.5q0 59 -17 103t-51 69t-82 25z" />
    <glyph glyph-name="uni1ED4" unicode="&#x1ed4;" horiz-adv-x="766" 
d="M520 871q56 42 56 78q0 31 -39 31q-29 0 -59 -18l-20 48q42 31 95 31q43 0 68 -22.5t25 -58.5q0 -27 -14 -50.5t-35 -38.5h-77zM427 897l136 -124h-101l-80 73l-78 -73h-99l130 124h92zM388 720q148 0 236 -100.5t88 -260.5q0 -75 -21 -140.5t-61 -117t-104.5 -81.5
t-146.5 -30q-76 0 -138 28t-102.5 77.5t-62.5 116t-22 143.5q0 103 38 184.5t114.5 131t181.5 49.5zM384 640q-59 0 -104 -23t-72 -62t-41 -89t-14 -108q0 -79 25 -143t78.5 -104.5t127.5 -40.5q59 0 104.5 23.5t72 64t40 90.5t13.5 109q0 79 -24.5 141.5t-77.5 102
t-128 39.5z" />
    <glyph glyph-name="uni1ED5" unicode="&#x1ed5;" horiz-adv-x="561" 
d="M406 686q57 44 57 78q0 31 -37 31q-33 0 -56 -20l-20 46q37 32 92 32q29 0 49 -9.5t29.5 -27t9.5 -41.5q0 -51 -49 -89h-75zM325 716l109 -136h-85l-71 89l-69 -89h-84l108 136h92zM284 529q107 0 172 -73.5t65 -195.5q0 -117 -64.5 -194.5t-179.5 -77.5q-72 0 -126.5 35
t-82.5 96t-28 139q0 119 65 195t179 76zM279 455q-71 0 -109 -53t-38 -143q0 -87 40.5 -142t109.5 -55t108 53.5t39 142.5q0 59 -17 103t-51 69t-82 25z" />
    <glyph glyph-name="uni1ED6" unicode="&#x1ed6;" horiz-adv-x="766" 
d="M223 905v11q0 86 77 86q32 0 86.5 -17.5t73.5 -17.5q15 0 22.5 5.5t7.5 20.5v8h54v-13q0 -30 -9.5 -49t-26 -26.5t-41.5 -7.5q-26 0 -84 18t-77 18q-28 0 -28 -29v-7h-55zM432 867l127 -98h-98l-80 56l-76 -56h-98l127 98h98zM388 720q148 0 236 -100.5t88 -260.5
q0 -75 -21 -140.5t-61 -117t-104.5 -81.5t-146.5 -30q-76 0 -138 28t-102.5 77.5t-62.5 116t-22 143.5q0 103 38 184.5t114.5 131t181.5 49.5zM384 640q-59 0 -104 -23t-72 -62t-41 -89t-14 -108q0 -79 25 -143t78.5 -104.5t127.5 -40.5q59 0 104.5 23.5t72 64t40 90.5
t13.5 109q0 79 -24.5 141.5t-77.5 102t-128 39.5z" />
    <glyph glyph-name="uni1ED7" unicode="&#x1ed7;" horiz-adv-x="561" 
d="M139 725v10q0 46 20 66.5t53 20.5q31 0 73 -18.5t55 -18.5t20 6t7 22v8h54v-12q0 -84 -76 -84q-26 0 -67 19t-57 19q-27 0 -27 -32v-6h-55zM326 681l114 -105h-92l-71 64l-67 -64h-90l111 105h95zM284 529q107 0 172 -73.5t65 -195.5q0 -117 -64.5 -194.5t-179.5 -77.5
q-72 0 -126.5 35t-82.5 96t-28 139q0 119 65 195t179 76zM279 455q-71 0 -109 -53t-38 -143q0 -87 40.5 -142t109.5 -55t108 53.5t39 142.5q0 59 -17 103t-51 69t-82 25z" />
    <glyph glyph-name="uni1ED8" unicode="&#x1ed8;" horiz-adv-x="766" 
d="M434 906l132 -134h-95l-85 85l-91 -85h-94l139 134h94zM388 720q148 0 236 -100.5t88 -260.5q0 -75 -21 -140.5t-61 -117t-104.5 -81.5t-146.5 -30q-76 0 -138 28t-102.5 77.5t-62.5 116t-22 143.5q0 103 38 184.5t114.5 131t181.5 49.5zM384 640q-59 0 -104 -23t-72 -62
t-41 -89t-14 -108q0 -79 25 -143t78.5 -104.5t127.5 -40.5q59 0 104.5 23.5t72 64t40 90.5t13.5 109q0 79 -24.5 141.5t-77.5 102t-128 39.5zM336 -191v110h94v-110h-94z" />
    <glyph glyph-name="uni1ED9" unicode="&#x1ed9;" horiz-adv-x="561" 
d="M321 749l114 -155h-88l-69 103l-67 -103h-87l113 155h84zM284 529q107 0 172 -73.5t65 -195.5q0 -117 -64.5 -194.5t-179.5 -77.5q-72 0 -126.5 35t-82.5 96t-28 139q0 119 65 195t179 76zM279 455q-71 0 -109 -53t-38 -143q0 -87 40.5 -142t109.5 -55t108 53.5t39 142.5
q0 59 -17 103t-51 69t-82 25zM232 -188v110h94v-110h-94z" />
    <glyph glyph-name="uni1EDA" unicode="&#x1eda;" horiz-adv-x="766" 
d="M592 915l-175 -140h-93l150 140h118zM388 720q117 0 198 -65q49 15 49 62q0 30 -11 60h83q8 -24 8 -57q0 -40 -19.5 -72t-56.5 -47q73 -96 73 -242q0 -75 -21 -140.5t-61 -117t-104.5 -81.5t-146.5 -30q-76 0 -138 28t-102.5 77.5t-62.5 116t-22 143.5q0 103 38 184.5
t114.5 131t181.5 49.5zM384 640q-59 0 -104 -23t-72 -62t-41 -89t-14 -108q0 -79 25 -143t78.5 -104.5t127.5 -40.5q59 0 104.5 23.5t72 64t40 90.5t13.5 109q0 79 -24.5 141.5t-77.5 102t-128 39.5z" />
    <glyph glyph-name="uni1EDB" unicode="&#x1edb;" horiz-adv-x="561" 
d="M465 759l-157 -156h-84l131 156h110zM284 529q89 0 152 -53q57 14 57 65q0 30 -12 60h83q8 -25 8 -57q0 -29 -9.5 -53.5t-30 -43t-50.5 -28.5q39 -68 39 -159q0 -117 -64.5 -194.5t-179.5 -77.5q-72 0 -126.5 35t-82.5 96t-28 139q0 119 65 195t179 76zM279 455
q-71 0 -109 -53t-38 -143q0 -87 40.5 -142t109.5 -55t108 53.5t39 142.5q0 59 -17 103t-51 69t-82 25z" />
    <glyph glyph-name="uni1EDC" unicode="&#x1edc;" horiz-adv-x="766" 
d="M308 915l140 -140h-91l-167 140h118zM388 720q117 0 198 -65q49 15 49 62q0 30 -11 60h83q8 -24 8 -57q0 -40 -19.5 -72t-56.5 -47q73 -96 73 -242q0 -75 -21 -140.5t-61 -117t-104.5 -81.5t-146.5 -30q-76 0 -138 28t-102.5 77.5t-62.5 116t-22 143.5q0 103 38 184.5
t114.5 131t181.5 49.5zM384 640q-59 0 -104 -23t-72 -62t-41 -89t-14 -108q0 -79 25 -143t78.5 -104.5t127.5 -40.5q59 0 104.5 23.5t72 64t40 90.5t13.5 109q0 79 -24.5 141.5t-77.5 102t-128 39.5z" />
    <glyph glyph-name="uni1EDD" unicode="&#x1edd;" horiz-adv-x="561" 
d="M207 759l131 -156h-85l-157 156h111zM284 529q89 0 152 -53q57 14 57 65q0 30 -12 60h83q8 -25 8 -57q0 -29 -9.5 -53.5t-30 -43t-50.5 -28.5q39 -68 39 -159q0 -117 -64.5 -194.5t-179.5 -77.5q-72 0 -126.5 35t-82.5 96t-28 139q0 119 65 195t179 76zM279 455
q-71 0 -109 -53t-38 -143q0 -87 40.5 -142t109.5 -55t108 53.5t39 142.5q0 59 -17 103t-51 69t-82 25z" />
    <glyph glyph-name="uni1EDE" unicode="&#x1ede;" horiz-adv-x="766" 
d="M342 772q31 27 45.5 47t14.5 40q0 16 -10.5 27t-32.5 11q-32 0 -61 -18l-21 54q44 30 101 30q49 0 76 -26t27 -63q0 -18 -4.5 -33.5t-14.5 -28.5t-17 -20.5t-20 -19.5h-83zM388 720q117 0 198 -65q49 15 49 62q0 30 -11 60h83q8 -24 8 -57q0 -40 -19.5 -72t-56.5 -47
q73 -96 73 -242q0 -75 -21 -140.5t-61 -117t-104.5 -81.5t-146.5 -30q-76 0 -138 28t-102.5 77.5t-62.5 116t-22 143.5q0 103 38 184.5t114.5 131t181.5 49.5zM384 640q-59 0 -104 -23t-72 -62t-41 -89t-14 -108q0 -79 25 -143t78.5 -104.5t127.5 -40.5q59 0 104.5 23.5
t72 64t40 90.5t13.5 109q0 79 -24.5 141.5t-77.5 102t-128 39.5z" />
    <glyph glyph-name="uni1EDF" unicode="&#x1edf;" horiz-adv-x="561" 
d="M238 596q16 13 26.5 24t18.5 21.5t11.5 20.5t3.5 20q0 17 -10.5 27.5t-32.5 10.5q-32 0 -61 -17l-21 54q44 29 101 29q49 0 76 -25.5t27 -62.5q0 -23 -10 -44.5t-19.5 -32t-26.5 -25.5h-83zM284 529q89 0 152 -53q57 14 57 65q0 30 -12 60h83q8 -25 8 -57
q0 -29 -9.5 -53.5t-30 -43t-50.5 -28.5q39 -68 39 -159q0 -117 -64.5 -194.5t-179.5 -77.5q-72 0 -126.5 35t-82.5 96t-28 139q0 119 65 195t179 76zM279 455q-71 0 -109 -53t-38 -143q0 -87 40.5 -142t109.5 -55t108 53.5t39 142.5q0 59 -17 103t-51 69t-82 25z" />
    <glyph glyph-name="uni1EE0" unicode="&#x1ee0;" horiz-adv-x="766" 
d="M210 781v23q0 100 88 100q35 0 91.5 -27t72.5 -27q33 0 33 44v12h62v-22q0 -57 -22 -81t-65 -24q-31 0 -88.5 27t-76.5 27q-30 0 -30 -34v-18h-65zM388 720q117 0 198 -65q49 15 49 62q0 30 -11 60h83q8 -24 8 -57q0 -40 -19.5 -72t-56.5 -47q73 -96 73 -242
q0 -75 -21 -140.5t-61 -117t-104.5 -81.5t-146.5 -30q-76 0 -138 28t-102.5 77.5t-62.5 116t-22 143.5q0 103 38 184.5t114.5 131t181.5 49.5zM384 640q-59 0 -104 -23t-72 -62t-41 -89t-14 -108q0 -79 25 -143t78.5 -104.5t127.5 -40.5q59 0 104.5 23.5t72 64t40 90.5
t13.5 109q0 79 -24.5 141.5t-77.5 102t-128 39.5z" />
    <glyph glyph-name="uni1EE1" unicode="&#x1ee1;" horiz-adv-x="561" 
d="M121 617v24q0 97 83 97q31 0 79 -25t64 -25q14 0 21 9.5t7 33.5v11h63v-22q0 -104 -85 -104q-31 0 -76.5 25.5t-65.5 25.5q-26 0 -26 -34v-16h-64zM284 529q89 0 152 -53q57 14 57 65q0 30 -12 60h83q8 -25 8 -57q0 -29 -9.5 -53.5t-30 -43t-50.5 -28.5q39 -68 39 -159
q0 -117 -64.5 -194.5t-179.5 -77.5q-72 0 -126.5 35t-82.5 96t-28 139q0 119 65 195t179 76zM279 455q-71 0 -109 -53t-38 -143q0 -87 40.5 -142t109.5 -55t108 53.5t39 142.5q0 59 -17 103t-51 69t-82 25z" />
    <glyph glyph-name="uni1EE2" unicode="&#x1ee2;" horiz-adv-x="766" 
d="M388 720q117 0 198 -65q49 15 49 62q0 30 -11 60h83q8 -24 8 -57q0 -40 -19.5 -72t-56.5 -47q73 -96 73 -242q0 -75 -21 -140.5t-61 -117t-104.5 -81.5t-146.5 -30q-76 0 -138 28t-102.5 77.5t-62.5 116t-22 143.5q0 103 38 184.5t114.5 131t181.5 49.5zM384 640
q-59 0 -104 -23t-72 -62t-41 -89t-14 -108q0 -79 25 -143t78.5 -104.5t127.5 -40.5q59 0 104.5 23.5t72 64t40 90.5t13.5 109q0 79 -24.5 141.5t-77.5 102t-128 39.5zM336 -189v110h94v-110h-94z" />
    <glyph glyph-name="uni1EE3" unicode="&#x1ee3;" horiz-adv-x="561" 
d="M284 529q89 0 152 -53q57 14 57 65q0 30 -12 60h83q8 -25 8 -57q0 -29 -9.5 -53.5t-30 -43t-50.5 -28.5q39 -68 39 -159q0 -117 -64.5 -194.5t-179.5 -77.5q-72 0 -126.5 35t-82.5 96t-28 139q0 119 65 195t179 76zM279 455q-71 0 -109 -53t-38 -143q0 -87 40.5 -142
t109.5 -55t108 53.5t39 142.5q0 59 -17 103t-51 69t-82 25zM232 -188v110h94v-110h-94z" />
    <glyph glyph-name="uni1EE4" unicode="&#x1ee4;" horiz-adv-x="728" 
d="M183 710v-427q0 -49 10 -86.5t27.5 -61t41.5 -39t49 -21.5t54 -6q87 0 134.5 48.5t47.5 165.5v427h95v-422q0 -297 -279 -297q-58 0 -106 15t-87 47.5t-61 90t-22 136.5v430h96zM316 -190v110h95v-110h-95z" />
    <glyph glyph-name="uni1EE5" unicode="&#x1ee5;" horiz-adv-x="568" 
d="M492 151q0 -28 0.5 -83t0.5 -68h-87q-2 14 -4 78q-40 -90 -156 -90q-35 0 -64 9.5t-54 30t-39.5 59t-14.5 90.5v340h89v-321q0 -131 107 -131q71 0 101.5 42.5t30.5 140.5v269h90v-366zM236 -192v110h94v-110h-94z" />
    <glyph glyph-name="uni1EE6" unicode="&#x1ee6;" horiz-adv-x="728" 
d="M320 768q16 14 27 24.5t18.5 21.5t11 20.5t3.5 20.5q0 16 -10.5 26.5t-31.5 10.5q-32 0 -62 -17l-20 54q43 30 101 30q48 0 75.5 -26t27.5 -63q0 -23 -10 -44t-19.5 -32t-26.5 -26h-84zM183 710v-427q0 -49 10 -86.5t27.5 -61t41.5 -39t49 -21.5t54 -6q87 0 134.5 48.5
t47.5 165.5v427h95v-422q0 -297 -279 -297q-58 0 -106 15t-87 47.5t-61 90t-22 136.5v430h96z" />
    <glyph glyph-name="uni1EE7" unicode="&#x1ee7;" horiz-adv-x="568" 
d="M233 596q31 27 45.5 46.5t14.5 39.5q0 17 -10.5 27.5t-32.5 10.5q-32 0 -61 -17l-21 54q44 29 101 29q49 0 76 -25.5t27 -62.5q0 -23 -10 -44.5t-19.5 -32t-26.5 -25.5h-83zM492 151q0 -28 0.5 -83t0.5 -68h-87q-2 14 -4 78q-40 -90 -156 -90q-35 0 -64 9.5t-54 30
t-39.5 59t-14.5 90.5v340h89v-321q0 -131 107 -131q71 0 101.5 42.5t30.5 140.5v269h90v-366z" />
    <glyph glyph-name="uni1EE8" unicode="&#x1ee8;" horiz-adv-x="728" 
d="M575 913l-174 -140h-93l150 140h117zM183 710v-427q0 -49 10 -86.5t27.5 -61t41.5 -39t49 -21.5t54 -6q87 0 134.5 48.5t47.5 165.5v427h51q61 12 61 65q0 30 -11 60h82q8 -24 8 -57q0 -46 -25 -79.5t-71 -45.5v-365q0 -297 -279 -297q-58 0 -106 15t-87 47.5t-61 90
t-22 136.5v430h96z" />
    <glyph glyph-name="uni1EE9" unicode="&#x1ee9;" horiz-adv-x="568" 
d="M469 759l-157 -156h-84l131 156h110zM402 78q-40 -90 -156 -90q-35 0 -64 9.5t-54 30t-39.5 59t-14.5 90.5v340h89v-321q0 -131 107 -131q71 0 101.5 42.5t30.5 140.5v269h39v1q71 11 71 67q0 31 -11 61h82q9 -25 9 -57q0 -31 -11 -56.5t-34 -44t-55 -26.5v-311
q0 -28 0.5 -83t0.5 -68h-87q-2 14 -4 78z" />
    <glyph glyph-name="uni1EEA" unicode="&#x1eea;" horiz-adv-x="728" 
d="M288 909l139 -140h-90l-168 140h119zM183 710v-427q0 -49 10 -86.5t27.5 -61t41.5 -39t49 -21.5t54 -6q87 0 134.5 48.5t47.5 165.5v427h51q61 12 61 65q0 30 -11 60h82q8 -24 8 -57q0 -46 -25 -79.5t-71 -45.5v-365q0 -297 -279 -297q-58 0 -106 15t-87 47.5t-61 90
t-22 136.5v430h96z" />
    <glyph glyph-name="uni1EEB" unicode="&#x1eeb;" horiz-adv-x="568" 
d="M217 759l131 -156h-85l-157 156h111zM402 78q-40 -90 -156 -90q-35 0 -64 9.5t-54 30t-39.5 59t-14.5 90.5v340h89v-321q0 -131 107 -131q71 0 101.5 42.5t30.5 140.5v269h39v1q71 11 71 67q0 31 -11 61h82q9 -25 9 -57q0 -31 -11 -56.5t-34 -44t-55 -26.5v-311
q0 -28 0.5 -83t0.5 -68h-87q-2 14 -4 78z" />
    <glyph glyph-name="uni1EEC" unicode="&#x1eec;" horiz-adv-x="728" 
d="M321 769q32 27 46 47t14 40q0 16 -10.5 27t-31.5 11q-32 0 -62 -18l-20 54q43 30 101 30q48 0 75.5 -26t27.5 -63q0 -23 -10 -44t-19.5 -31.5t-26.5 -26.5h-84zM183 710v-427q0 -49 10 -86.5t27.5 -61t41.5 -39t49 -21.5t54 -6q87 0 134.5 48.5t47.5 165.5v427h51
q61 12 61 65q0 30 -11 60h82q8 -24 8 -57q0 -46 -25 -79.5t-71 -45.5v-365q0 -297 -279 -297q-58 0 -106 15t-87 47.5t-61 90t-22 136.5v430h96z" />
    <glyph glyph-name="uni1EED" unicode="&#x1eed;" horiz-adv-x="568" 
d="M242 596q32 27 46 46.5t14 39.5q0 17 -10.5 27.5t-32.5 10.5q-32 0 -61 -17l-21 54q44 29 101 29q49 0 76 -25.5t27 -62.5q0 -23 -10 -44.5t-19.5 -32t-26.5 -25.5h-83zM402 78q-40 -90 -156 -90q-35 0 -64 9.5t-54 30t-39.5 59t-14.5 90.5v340h89v-321q0 -131 107 -131
q71 0 101.5 42.5t30.5 140.5v269h39v1q71 11 71 67q0 31 -11 61h82q9 -25 9 -57q0 -31 -11 -56.5t-34 -44t-55 -26.5v-311q0 -28 0.5 -83t0.5 -68h-87q-2 14 -4 78z" />
    <glyph glyph-name="uni1EEE" unicode="&#x1eee;" horiz-adv-x="728" 
d="M191 781v23q0 100 87 100q35 0 92 -27t73 -27q32 0 32 44v12h63v-22q0 -57 -22 -81t-65 -24q-32 0 -89 27t-76 27q-30 0 -30 -34v-18h-65zM183 710v-427q0 -49 10 -86.5t27.5 -61t41.5 -39t49 -21.5t54 -6q87 0 134.5 48.5t47.5 165.5v427h51q61 12 61 65q0 30 -11 60h82
q8 -24 8 -57q0 -46 -25 -79.5t-71 -45.5v-365q0 -297 -279 -297q-58 0 -106 15t-87 47.5t-61 90t-22 136.5v430h96z" />
    <glyph glyph-name="uni1EEF" unicode="&#x1eef;" horiz-adv-x="568" 
d="M125 617v24q0 97 83 97q31 0 79 -25t64 -25q14 0 21 9.5t7 33.5v11h63v-22q0 -104 -85 -104q-31 0 -76.5 25.5t-65.5 25.5q-26 0 -26 -34v-16h-64zM402 78q-40 -90 -156 -90q-35 0 -64 9.5t-54 30t-39.5 59t-14.5 90.5v340h89v-321q0 -131 107 -131q71 0 101.5 42.5
t30.5 140.5v269h39v1q71 11 71 67q0 31 -11 61h82q9 -25 9 -57q0 -31 -11 -56.5t-34 -44t-55 -26.5v-311q0 -28 0.5 -83t0.5 -68h-87q-2 14 -4 78z" />
    <glyph glyph-name="uni1EF0" unicode="&#x1ef0;" horiz-adv-x="728" 
d="M183 710v-427q0 -49 10 -86.5t27.5 -61t41.5 -39t49 -21.5t54 -6q87 0 134.5 48.5t47.5 165.5v427h51q61 12 61 65q0 30 -11 60h82q8 -24 8 -57q0 -46 -25 -79.5t-71 -45.5v-365q0 -297 -279 -297q-58 0 -106 15t-87 47.5t-61 90t-22 136.5v430h96zM316 -188v110h95v-110
h-95z" />
    <glyph glyph-name="uni1EF1" unicode="&#x1ef1;" horiz-adv-x="568" 
d="M402 78q-40 -90 -156 -90q-35 0 -64 9.5t-54 30t-39.5 59t-14.5 90.5v340h89v-321q0 -131 107 -131q71 0 101.5 42.5t30.5 140.5v269h39v1q71 11 71 67q0 31 -11 61h82q9 -25 9 -57q0 -31 -11 -56.5t-34 -44t-55 -26.5v-311q0 -28 0.5 -83t0.5 -68h-87q-2 14 -4 78z
M236 -188v110h94v-110h-94z" />
    <glyph glyph-name="Ygrave" unicode="&#x1ef2;" horiz-adv-x="602" 
d="M224 911l140 -140h-91l-167 140h118zM250 0v260q0 13 -5 19l-250 431h108q178 -319 200 -361q31 63 203 361h101l-258 -433q-4 -8 -4 -18v-259h-95z" />
    <glyph glyph-name="ygrave" unicode="&#x1ef3;" horiz-adv-x="490" 
d="M172 759l131 -156h-85l-157 156h111zM107 517q129 -381 144 -437h1q26 95 138 437h89l-185 -540q-39 -114 -78.5 -152t-118.5 -38q-26 0 -56 3v77q26 -2 43 -2q47 0 71.5 24.5t48.5 90.5l-194 537h97z" />
    <glyph glyph-name="uni1EF4" unicode="&#x1ef4;" horiz-adv-x="602" 
d="M250 0v260q0 13 -5 19l-250 431h108q178 -319 200 -361q31 63 203 361h101l-258 -433q-4 -8 -4 -18v-259h-95zM250 -188v110h95v-110h-95z" />
    <glyph glyph-name="uni1EF5" unicode="&#x1ef5;" horiz-adv-x="490" 
d="M107 517q129 -381 144 -437h1q26 95 138 437h89l-185 -540q-39 -114 -78.5 -152t-118.5 -38q-26 0 -56 3v77q26 -2 43 -2q47 0 71.5 24.5t48.5 90.5l-194 537h97zM351 -188v110h95v-110h-95z" />
    <glyph glyph-name="uni1EF6" unicode="&#x1ef6;" horiz-adv-x="602" 
d="M259 761q32 27 46 47t14 40q0 16 -10.5 26.5t-32.5 10.5q-31 0 -61 -17l-20 54q43 30 101 30q48 0 75.5 -26t27.5 -63q0 -23 -10 -44.5t-19.5 -32t-26.5 -25.5h-84zM250 0v260q0 13 -5 19l-250 431h108q178 -319 200 -361q31 63 203 361h101l-258 -433q-4 -8 -4 -18v-259
h-95z" />
    <glyph glyph-name="uni1EF7" unicode="&#x1ef7;" horiz-adv-x="490" 
d="M203 596q16 13 27 24t18.5 21.5t11 20.5t3.5 20q0 17 -10.5 27.5t-32.5 10.5q-31 0 -61 -17l-20 54q43 29 101 29q48 0 75.5 -25.5t27.5 -62.5q0 -18 -5 -33.5t-15 -29t-17 -21t-19 -18.5h-84zM107 517q129 -381 144 -437h1q26 95 138 437h89l-185 -540
q-39 -114 -78.5 -152t-118.5 -38q-26 0 -56 3v77q26 -2 43 -2q47 0 71.5 24.5t48.5 90.5l-194 537h97z" />
    <glyph glyph-name="uni1EF8" unicode="&#x1ef8;" horiz-adv-x="602" 
d="M128 781v23q0 100 87 100q35 0 92 -27t72 -27q33 0 33 44v12h62v-22q0 -57 -22 -81t-64 -24q-32 0 -89 27t-77 27q-29 0 -29 -34v-18h-65zM250 0v260q0 13 -5 19l-250 431h108q178 -319 200 -361q31 63 203 361h101l-258 -433q-4 -8 -4 -18v-259h-95z" />
    <glyph glyph-name="uni1EF9" unicode="&#x1ef9;" horiz-adv-x="490" 
d="M87 617v24q0 97 82 97q31 0 79 -25t64 -25q10 0 16 4t9.5 13.5t3.5 25.5v11h62v-22q0 -104 -85 -104q-31 0 -76.5 25.5t-65.5 25.5q-26 0 -26 -34v-16h-63zM107 517q129 -381 144 -437h1q26 95 138 437h89l-185 -540q-39 -114 -78.5 -152t-118.5 -38q-26 0 -56 3v77
q26 -2 43 -2q47 0 71.5 24.5t48.5 90.5l-194 537h97z" />
    <glyph glyph-name="uni2000" unicode="&#x2000;" horiz-adv-x="531" 
 />
    <glyph glyph-name="uni2001" unicode="&#x2001;" horiz-adv-x="1063" 
 />
    <glyph glyph-name="uni2002" unicode="&#x2002;" horiz-adv-x="531" 
 />
    <glyph glyph-name="uni2003" unicode="&#x2003;" horiz-adv-x="1063" 
 />
    <glyph glyph-name="uni2004" unicode="&#x2004;" horiz-adv-x="354" 
 />
    <glyph glyph-name="uni2005" unicode="&#x2005;" horiz-adv-x="265" 
 />
    <glyph glyph-name="uni2006" unicode="&#x2006;" horiz-adv-x="177" 
 />
    <glyph glyph-name="uni2007" unicode="&#x2007;" horiz-adv-x="557" 
 />
    <glyph glyph-name="uni2008" unicode="&#x2008;" horiz-adv-x="132" 
 />
    <glyph glyph-name="uni2009" unicode="&#x2009;" horiz-adv-x="212" 
 />
    <glyph glyph-name="uni200A" unicode="&#x200a;" horiz-adv-x="59" 
 />
    <glyph glyph-name="uni2010" unicode="&#x2010;" horiz-adv-x="385" 
d="M326 302v-82h-267v82h267z" />
    <glyph glyph-name="uni2011" unicode="&#x2011;" horiz-adv-x="385" 
d="M326 302v-82h-267v82h267z" />
    <glyph glyph-name="figuredash" unicode="&#x2012;" horiz-adv-x="557" 
d="M470 372v-78h-382v78h382z" />
    <glyph glyph-name="endash" unicode="&#x2013;" horiz-adv-x="526" 
d="M467 301v-79h-408v79h408z" />
    <glyph glyph-name="emdash" unicode="&#x2014;" horiz-adv-x="868" 
d="M810 301v-79h-751v79h751z" />
    <glyph glyph-name="uni2015" unicode="&#x2015;" horiz-adv-x="868" 
d="M810 301v-79h-751v79h751z" />
    <glyph glyph-name="quoteleft" unicode="&#x2018;" horiz-adv-x="204" 
d="M176 749q-10 -32 -18.5 -70t-14.5 -74t-9.5 -68t-3.5 -58h-93q4 65 23 143t42 127h74z" />
    <glyph glyph-name="quoteright" unicode="&#x2019;" horiz-adv-x="204" 
d="M28 479q19 63 32 140t14 130h93q-4 -64 -23 -142.5t-42 -127.5h-74z" />
    <glyph glyph-name="quotesinglbase" unicode="&#x201a;" horiz-adv-x="204" 
d="M28 -133q19 63 32 140t14 130h93q-4 -65 -23 -143.5t-42 -126.5h-74z" />
    <glyph glyph-name="quotedblleft" unicode="&#x201c;" horiz-adv-x="387" 
d="M173 741q-19 -64 -31.5 -140.5t-13.5 -129.5h-90q3 61 23 141.5t43 128.5h69zM351 741q-43 -137 -47 -270h-90q3 62 24 143t42 127h71z" />
    <glyph glyph-name="quotedblright" unicode="&#x201d;" horiz-adv-x="387" 
d="M38 479q42 139 46 270h89q-2 -62 -23 -143t-43 -127h-69zM214 479q20 63 32 139t14 131h91q-4 -61 -24 -141.5t-42 -128.5h-71z" />
    <glyph glyph-name="quotedblbase" unicode="&#x201e;" horiz-adv-x="361" 
d="M28 -133q42 132 45 270h91q-3 -64 -24 -145t-43 -125h-69zM204 -133q20 64 32.5 140t14.5 130h90q-4 -61 -24.5 -142t-42.5 -128h-70z" />
    <glyph glyph-name="dagger" unicode="&#x2020;" horiz-adv-x="518" 
d="M278 662l-6 -225l172 6v-79l-172 6l6 -505h-82l7 505l-172 -6v79l172 -6l-7 225h82z" />
    <glyph glyph-name="daggerdbl" unicode="&#x2021;" horiz-adv-x="518" 
d="M203 397l-172 -5v77l172 -7l-7 200h82l-6 -200l172 7v-77l-172 5v-240l172 5v-77l-172 7l6 -227h-82l7 227l-172 -7v77l172 -5v240z" />
    <glyph glyph-name="bullet" unicode="&#x2022;" horiz-adv-x="381" 
d="M290 362v-205h-198v205h198z" />
    <glyph glyph-name="ellipsis" unicode="&#x2026;" horiz-adv-x="859" 
d="M70 0v151h94v-151h-94zM360 0v151h94v-151h-94zM648 0v151h94v-151h-94z" />
    <glyph glyph-name="uni202F" unicode="&#x202f;" horiz-adv-x="212" 
 />
    <glyph glyph-name="perthousand" unicode="&#x2030;" horiz-adv-x="1289" 
d="M210 683q79 0 124.5 -51t45.5 -139q0 -85 -44.5 -139t-127.5 -54q-79 0 -123.5 51.5t-44.5 140.5q0 81 45 136t125 55zM196 0l436 671h77l-437 -671h-76zM209 618q-43 0 -68 -33t-25 -92t24.5 -93.5t70.5 -34.5q30 0 51.5 15.5t32.5 44t11 68.5q0 59 -25.5 92t-71.5 33z
M694 370q79 0 125 -51t46 -139q0 -85 -45 -139t-127 -54q-80 0 -125 52.5t-45 138.5q0 83 45 137.5t126 54.5zM1078 370q80 0 126 -51t46 -139q0 -84 -45 -138.5t-128 -54.5q-80 0 -124 52.5t-44 138.5q0 81 44.5 136.5t124.5 55.5zM694 305q-42 0 -68 -33.5t-26 -92
t24.5 -93t71.5 -34.5q44 0 68.5 34t24.5 94q0 59 -25 92t-70 33zM1078 305q-42 0 -68 -32.5t-26 -92.5q0 -59 25 -93.5t71 -34.5q45 0 69.5 33.5t24.5 94.5q0 59 -25.5 92t-70.5 33z" />
    <glyph glyph-name="uni2032" unicode="&#x2032;" horiz-adv-x="231" 
d="M51 474l40 275h90l-57 -275h-73z" />
    <glyph glyph-name="uni2033" unicode="&#x2033;" horiz-adv-x="391" 
d="M51 474l39 275h84l-57 -275h-66zM216 474l40 275h85l-58 -275h-67z" />
    <glyph glyph-name="guilsinglleft" unicode="&#x2039;" horiz-adv-x="376" 
d="M147 265l171 -200h-86l-174 200l174 197h85z" />
    <glyph glyph-name="guilsinglright" unicode="&#x203a;" horiz-adv-x="376" 
d="M230 263l-172 199h87l173 -199l-173 -198h-87z" />
    <glyph glyph-name="fraction" unicode="&#x2044;" horiz-adv-x="189" 
d="M-159 0l439 671h72l-439 -671h-72z" />
    <glyph glyph-name="uni205F" unicode="&#x205f;" horiz-adv-x="265" 
 />
    <glyph glyph-name="zero.sups" unicode="&#x2070;" horiz-adv-x="395" 
d="M200 848q78 0 119.5 -56t41.5 -150q0 -102 -42.5 -156t-121.5 -54q-77 0 -119 56.5t-42 150.5t44 151.5t120 57.5zM198 786q-87 0 -87 -147q0 -72 24 -108.5t64 -36.5q45 0 66.5 36t21.5 111q0 145 -89 145z" />
    <glyph glyph-name="four.sups" unicode="&#x2074;" horiz-adv-x="375" 
d="M227 437v105h-201v56l184 241h86v-240h62l-6 -57h-56v-105h-69zM227 599v82q0 63 4 98q-8 -12 -31 -43t-56.5 -76t-45.5 -61h129z" />
    <glyph glyph-name="five.sups" unicode="&#x2075;" horiz-adv-x="389" 
d="M326 780h-190q-2 -14 -5 -33t-6.5 -39.5t-5.5 -28.5q35 30 95 30q62 0 100 -36t38 -96q0 -64 -42.5 -104.5t-113.5 -40.5t-111.5 35.5t-46.5 82.5h72q19 -59 86 -59q39 0 59.5 22.5t20.5 59.5q0 35 -19.5 57t-60.5 22q-58 0 -83 -42l-65 11q27 171 33 221h256z" />
    <glyph glyph-name="six.sups" unicode="&#x2076;" horiz-adv-x="386" 
d="M274 743q-19 49 -72 49q-87 0 -95 -132q37 50 111 50q63 0 99.5 -37.5t36.5 -96.5q0 -62 -43 -103t-110 -41q-76 0 -120.5 51.5t-44.5 151.5q0 41 9 77.5t28.5 67t53 49t77.5 18.5q61 0 96.5 -31.5t41.5 -72.5h-68zM199 489q35 0 59 20t24 63q0 40 -22 62t-62 22
q-26 0 -45 -9.5t-29.5 -26t-10.5 -37.5q0 -35 21.5 -64.5t64.5 -29.5z" />
    <glyph glyph-name="seven.sups" unicode="&#x2077;" horiz-adv-x="350" 
d="M322 842v-56q-113 -137 -162 -348h-78q16 87 62.5 183t99.5 159h-214v62h292z" />
    <glyph glyph-name="eight.sups" unicode="&#x2078;" horiz-adv-x="373" 
d="M185 432q-74 0 -114 35t-40 85q0 71 70 100q-17 8 -29 21t-18 29.5t-6 33.5q0 49 35.5 80.5t106.5 31.5q66 0 100.5 -32.5t34.5 -75.5q0 -62 -55 -84q73 -29 73 -101q0 -54 -44.5 -88.5t-113.5 -34.5zM188 795q-34 0 -52 -15.5t-18 -41.5q0 -60 71 -60q30 0 47.5 15
t17.5 44q0 27 -16.5 42.5t-49.5 15.5zM187 486q41 0 61.5 18.5t20.5 48.5q0 72 -83 72q-82 0 -82 -69q0 -31 21.5 -50.5t61.5 -19.5z" />
    <glyph glyph-name="nine.sups" unicode="&#x2079;" horiz-adv-x="378" 
d="M110 537q18 -49 72 -49q84 0 89 138q-33 -44 -105 -44q-60 0 -97.5 35.5t-37.5 92.5q0 58 41.5 98t111.5 40q75 0 117 -50t42 -148q0 -43 -8.5 -80.5t-26.5 -69.5t-50.5 -50.5t-75.5 -18.5q-66 0 -101.5 31.5t-42.5 74.5h72zM182 790q-35 0 -57.5 -18.5t-22.5 -59.5
q0 -35 21.5 -56t61.5 -21q38 0 59.5 17t21.5 51q0 26 -9 45.5t-28.5 30.5t-46.5 11z" />
    <glyph glyph-name="parenleft.sups" unicode="&#x207d;" horiz-adv-x="223" 
d="M190 892q-87 -120 -87 -260q0 -134 87 -257h-70q-20 25 -37 59.5t-30.5 88.5t-13.5 109q0 152 81 260h70z" />
    <glyph glyph-name="parenright.sups" unicode="&#x207e;" horiz-adv-x="223" 
d="M34 392q86 121 86 259q0 134 -86 257h69q32 -39 57.5 -107t25.5 -150q0 -150 -83 -259h-69z" />
    <glyph glyph-name="n.sups" unicode="&#x207f;" horiz-adv-x="390" 
d="M47 498q0 92 -1 109h66q3 -34 3 -52q33 59 109 59q22 0 41.5 -6t38 -20t29.5 -41t11 -66v-214h-69v200q0 87 -72 87q-87 0 -87 -103v-184h-69v231z" />
    <glyph glyph-name="zero.subs" unicode="&#x2080;" horiz-adv-x="395" 
d="M200 235q78 0 119.5 -56t41.5 -150q0 -102 -42.5 -156t-121.5 -54q-77 0 -119 56.5t-42 150.5t44 151.5t120 57.5zM198 173q-87 0 -87 -147q0 -72 24 -108.5t64 -36.5q23 0 39.5 9t27 27t16 45.5t5.5 65.5q0 145 -89 145z" />
    <glyph glyph-name="one.subs" unicode="&#x2081;" horiz-adv-x="253" 
d="M109 -176v320q-15 -9 -43 -15.5t-43 -6.5v56q62 11 110 57h50v-411h-74z" />
    <glyph glyph-name="two.subs" unicode="&#x2082;" horiz-adv-x="369" 
d="M38 -175v5q0 54 31.5 100.5t101.5 88.5q36 23 52 35.5t23 24.5t7 30q0 30 -17.5 47.5t-50.5 17.5q-67 0 -79 -73h-70q6 61 46.5 97.5t105.5 36.5q30 0 55 -8t40.5 -20.5t26.5 -29t15 -33t4 -32.5q0 -46 -23.5 -72.5t-83.5 -60.5q-84 -50 -99 -94h223l-11 -60h-297z" />
    <glyph glyph-name="three.subs" unicode="&#x2083;" horiz-adv-x="379" 
d="M150 69h34q68 0 68 50q0 25 -16.5 41t-52.5 16q-62 0 -78 -58h-66q2 17 9 34.5t22.5 37t45.5 32t70 12.5q67 0 102.5 -31t35.5 -80q0 -31 -17 -51.5t-41 -29.5q32 -9 54 -34.5t22 -62.5q0 -52 -38.5 -89t-117.5 -37q-43 0 -75 13t-48 34t-23.5 38.5t-9.5 36.5h70
q4 -18 15 -32.5t30 -23t43 -8.5q38 0 58 18t20 48q0 65 -78 65h-38v61z" />
    <glyph glyph-name="four.subs" unicode="&#x2084;" horiz-adv-x="375" 
d="M227 -176v105h-201v56l184 241h86v-240h62l-6 -57h-56v-105h-69zM227 -14v82q0 63 4 98q-8 -12 -31 -43t-56.5 -76t-45.5 -61h129z" />
    <glyph glyph-name="five.subs" unicode="&#x2085;" horiz-adv-x="389" 
d="M326 167h-190q-2 -14 -5 -33t-6.5 -39.5t-5.5 -28.5q35 30 95 30q62 0 100 -36t38 -96q0 -64 -42.5 -104.5t-113.5 -40.5t-111.5 35.5t-46.5 82.5h72q19 -59 86 -59q39 0 59.5 22t20.5 60q0 35 -19.5 57t-60.5 22q-58 0 -83 -42l-65 11q27 171 33 220h256z" />
    <glyph glyph-name="six.subs" unicode="&#x2086;" horiz-adv-x="386" 
d="M274 130q-19 48 -72 48q-87 0 -95 -131q37 50 111 50q63 0 99.5 -37.5t36.5 -96.5q0 -41 -19.5 -73.5t-54.5 -51.5t-79 -19q-76 0 -120.5 51.5t-44.5 151.5q0 41 9 77.5t28.5 67t53 49t77.5 18.5q61 0 96.5 -31.5t41.5 -72.5h-68zM199 -124q35 0 59 20t24 63q0 40 -22 62
t-62 22q-38 0 -61.5 -20.5t-23.5 -52.5q0 -35 21.5 -64.5t64.5 -29.5z" />
    <glyph glyph-name="seven.subs" unicode="&#x2087;" horiz-adv-x="350" 
d="M322 228v-55q-113 -137 -162 -348h-78q16 87 62.5 183t99.5 159h-214v61h292z" />
    <glyph glyph-name="eight.subs" unicode="&#x2088;" horiz-adv-x="373" 
d="M185 -181q-74 0 -114 35t-40 85q0 71 70 100q-17 8 -29 21t-18 29.5t-6 33.5q0 49 35.5 80.5t106.5 31.5q34 0 61 -9.5t42.5 -25.5t23.5 -34.5t8 -39.5q0 -61 -55 -83q73 -29 73 -101q0 -54 -44.5 -88.5t-113.5 -34.5zM188 182q-14 0 -25 -3t-19.5 -7.5t-14 -11.5
t-8.5 -15.5t-3 -19.5q0 -60 71 -60q30 0 47.5 15t17.5 44q0 13 -4 23.5t-12 18t-20.5 12t-29.5 4.5zM187 -128q41 0 61.5 19t20.5 49q0 72 -83 72q-82 0 -82 -69q0 -31 21.5 -51t61.5 -20z" />
    <glyph glyph-name="nine.subs" unicode="&#x2089;" horiz-adv-x="378" 
d="M110 -76q18 -49 72 -49q84 0 89 138q-33 -44 -105 -44q-60 0 -97.5 35.5t-37.5 92.5q0 38 17.5 69t53 50t82.5 19q75 0 117 -50t42 -148q0 -43 -8.5 -80.5t-26.5 -69.5t-50.5 -50.5t-75.5 -18.5q-66 0 -101.5 31.5t-42.5 74.5h72zM182 177q-22 0 -39.5 -7t-29 -25
t-11.5 -46q0 -17 5.5 -31t15.5 -24t26 -16t36 -6q38 0 59.5 17t21.5 51q0 40 -21.5 63.5t-62.5 23.5z" />
    <glyph glyph-name="parenleft.subs" unicode="&#x208d;" horiz-adv-x="223" 
d="M190 279q-87 -120 -87 -260q0 -134 87 -257h-70q-32 40 -56.5 108t-24.5 149q0 152 81 260h70z" />
    <glyph glyph-name="parenright.subs" unicode="&#x208e;" horiz-adv-x="223" 
d="M34 -221q86 121 86 259q0 134 -86 257h69q32 -39 57.5 -107t25.5 -150q0 -150 -83 -259h-69z" />
    <glyph glyph-name="colonmonetary" unicode="&#x20a1;" horiz-adv-x="537" 
d="M207 -98v101q-80 28 -122.5 114t-42.5 215q0 134 42.5 219t122.5 114v81h51v-69q23 2 36 2h7v67h51v-73q67 -16 104.5 -62.5t44.5 -104.5h-89q-17 65 -60 86v-509q39 19 62 78h89q-33 -133 -151 -162v-96h-51v88h-17q-18 0 -26 1v-90h-51zM284 68q12 0 17 1v536h-12
q-17 0 -31 -3v-532q16 -2 26 -2zM134 334q0 -183 73 -241v486q-73 -55 -73 -245z" />
    <glyph glyph-name="franc" unicode="&#x20a3;" horiz-adv-x="511" 
d="M102 141h-88v67h88v463h373v-78h-282v-202h263v-78h-263v-105h132v-67h-132v-141h-91v141z" />
    <glyph glyph-name="lira" unicode="&#x20a4;" horiz-adv-x="524" 
d="M36 0v72q41 19 58 60.5t19 109.5h-92v57h93l-3 69h-90v58h88v29q0 110 47.5 168.5t144.5 58.5q47 0 83 -15t56.5 -40.5t31.5 -52t14 -55.5h-87q-15 88 -101 88q-28 0 -47.5 -9.5t-30.5 -28.5t-16 -45t-5 -61v-37h154v-58h-152q0 -9 0.5 -31.5t0.5 -37.5h151v-57h-152
q-5 -112 -50 -162h356l-12 -80h-459z" />
    <glyph glyph-name="uni20A6" unicode="&#x20a6;" horiz-adv-x="553" 
d="M71 0v252h-51v58h51v75h-51v59h51v227h114l81 -227h126v227h71v-227h53v-59h-53v-75h53v-58h-53v-252h-106l-90 252h-122v-252h-74zM139 597q4 -48 6 -153h54l-55 153h-5zM219 385h-74v-75h101zM392 310v75h-104l26 -75h78zM400 90q-6 68 -7 162h-57l58 -162h6z" />
    <glyph glyph-name="peseta" unicode="&#x20a7;" horiz-adv-x="534" 
d="M67 426h-64v63h64v182h171q96 0 159 -47.5t72 -134.5h51v-63h-51q-6 -58 -37 -99.5t-82.5 -63t-118.5 -21.5h-78v-242h-86v426zM153 489h228q-8 54 -46 83t-102 29h-80v-112zM228 313q138 0 153 113h-228v-113h75z" />
    <glyph glyph-name="dong" unicode="&#x20ab;" horiz-adv-x="544" 
d="M463 680v-72h64v-65h-64v-398q0 -105 1 -145h-82q-5 33 -5 69q-44 -78 -150 -78q-84 0 -140.5 63t-56.5 173q0 112 61 177t150 65q98 0 136 -60v134h-231v65h231v72h86zM118 228q0 -78 36.5 -121t96.5 -43q26 0 48.5 8.5t41.5 27.5t29.5 54.5t10.5 85.5q0 82 -34.5 119.5
t-92.5 37.5q-66 0 -101 -45.5t-35 -123.5zM470 -78v-66h-417v66h417z" />
    <glyph glyph-name="Euro" unicode="&#x20ac;" horiz-adv-x="550" 
d="M520 159q-19 -82 -72.5 -126t-131.5 -44q-99 0 -155.5 68t-70.5 193h-63v61h59v24q0 26 1 39h-60v62h66q18 118 78 182t150 64q47 0 84.5 -15t60.5 -40t36.5 -53.5t17.5 -59.5h-88q-8 29 -23 49.5t-38 32t-53 11.5q-114 0 -136 -171h188v-62h-194q-1 -11 -1 -36v-27h195
v-61h-189q20 -184 137 -184q82 0 114 93h88z" />
    <glyph glyph-name="uni20B1" unicode="&#x20b1;" horiz-adv-x="583" 
d="M92 372h-60v55h60v52h-60v54h60v138h178q83 0 142 -35t81 -103h56v-54h-45q1 -8 1 -26q0 -17 -1 -26h45v-55h-56q-24 -69 -86 -105.5t-149 -36.5h-81v-230h-85v372zM177 533h227q-35 71 -135 71h-92v-71zM420 452q0 11 -2 27h-241v-52h242q1 8 1 25zM258 298
q110 0 147 74h-228v-74h81z" />
    <glyph glyph-name="uni20B2" unicode="&#x20b2;" horiz-adv-x="562" 
d="M423 508q-22 88 -101 98v-541q62 2 93 20v248h91v-298q-31 -14 -52.5 -22t-57 -15.5t-74.5 -8.5v-88h-57v91q-214 30 -214 350q0 99 25 171.5t73 115t116 50.5v68h57v-67q82 -5 132 -52t57 -120h-88zM143 348q0 -118 28.5 -188t93.5 -89v534q-122 -26 -122 -257z" />
    <glyph glyph-name="uni20B4" unicode="&#x20b4;" horiz-adv-x="537" 
d="M69 518q9 77 63.5 121t135.5 44q40 0 72.5 -9.5t54.5 -25.5t37 -38t21.5 -45t6.5 -48q0 -51 -22 -87h51v-55h-104q-34 -26 -96 -60l-13 -7h202v-55h-285q-27 -23 -37.5 -43.5t-10.5 -46.5q0 -44 33.5 -73.5t84.5 -29.5q64 0 94 29t40 75h85q-12 -85 -68.5 -130.5
t-154.5 -45.5q-87 0 -145 47.5t-58 122.5q0 56 29 95h-43v55h99q45 34 107 67h-196v55h280q40 36 40 85q0 39 -26.5 68t-77.5 29q-94 0 -112 -94h-87z" />
    <glyph glyph-name="uni20B5" unicode="&#x20b5;" horiz-adv-x="553" 
d="M251 -99v92q-101 12 -155 100t-54 239q0 155 53.5 242.5t155.5 101.5v71h58v-68q89 -5 136 -56.5t56 -123.5h-89q-8 30 -19.5 51t-32.5 36.5t-51 19.5v-539q40 4 64.5 28t40.5 78h89q-33 -169 -194 -181v-91h-58zM134 334q0 -235 117 -264v533q-61 -15 -89 -80.5
t-28 -188.5z" />
    <glyph glyph-name="uni20B9" unicode="&#x20b9;" horiz-adv-x="531" 
d="M51 346h95q25 0 47 3t45 12.5t39 23.5t26 38t10 55v5h-262v60h248q-33 66 -146 66h-102v62h448v-60h-149q31 -29 44 -68h105v-60h-96v-5q0 -74 -41 -120.5t-110 -65.5l218 -292h-104l-208 276h-18h-89v70z" />
    <glyph glyph-name="uni20BA" unicode="&#x20ba;" horiz-adv-x="565" 
d="M126 0v263l-90 -39v63l90 39v77l-90 -40v62l90 40v206h89v-168l131 57v-62l-131 -57v-77l131 57v-63l-131 -56v-228q68 0 112.5 21.5t67.5 62.5t30 106h81q-3 -42 -12.5 -78.5t-31 -71.5t-53 -59.5t-80.5 -39.5t-111 -15h-92z" />
    <glyph glyph-name="uni20BD" unicode="&#x20bd;" horiz-adv-x="583" 
d="M106 155h-77v65h77v80h-77v73h77v298h200q107 0 166.5 -48.5t59.5 -133.5q0 -189 -226 -189h-107v-80h186v-65h-186v-155h-93v155zM199 373h107q70 0 101 27.5t31 85.5q0 35 -15 59.5t-45 38t-74 13.5h-105v-224z" />
    <glyph glyph-name="uni2113" unicode="&#x2113;" horiz-adv-x="427" 
d="M410 164q-9 -87 -50.5 -130t-122.5 -43q-151 0 -151 171v44q-11 -8 -57 -37l-23 65q30 17 79 50v256q0 111 43 162.5t111 51.5t104.5 -44t36.5 -121q0 -67 -21.5 -123.5t-65.5 -108t-117 -106.5v-69q0 -117 68 -117q35 0 53.5 20.5t26.5 78.5h86zM176 344
q120 106 120 242q0 49 -14 72t-44 23q-31 0 -46.5 -28.5t-15.5 -94.5v-214z" />
    <glyph glyph-name="uni2116" unicode="&#x2116;" horiz-adv-x="1063" 
d="M89 0v691h120q279 -502 312 -589h1q-6 81 -6 328v261h84v-691h-112q-115 212 -190.5 354t-96.5 182.5t-35 69.5h-1q7 -92 7 -337v-269h-83zM844 642q83 0 129.5 -54.5t46.5 -144.5q0 -60 -21 -105.5t-61.5 -71t-94.5 -25.5q-78 0 -125.5 55.5t-47.5 146.5q0 89 48 144
t126 55zM748 443q0 -64 26 -99t72 -35t71 34t25 100q0 65 -26 99t-73 34q-43 0 -69 -34.5t-26 -98.5zM991 178v-67h-294v67h294z" />
    <glyph glyph-name="uni2117" unicode="&#x2117;" horiz-adv-x="806" 
d="M400 719q151 0 250 -102.5t99 -260.5q0 -159 -99 -262.5t-250 -103.5q-153 0 -252 101.5t-99 264.5q0 156 100.5 259.5t250.5 103.5zM399 666q-127 0 -209.5 -84t-82.5 -229q0 -134 83 -222t209 -88q127 0 209.5 85.5t82.5 227.5q0 89 -37.5 160t-104.5 110.5t-150 39.5z
M270 554h159q57 0 98.5 -33t41.5 -93q0 -63 -39 -96.5t-104 -33.5h-90v-137h-66v393zM337 352h84q79 0 79 73q0 71 -79 73h-84v-146z" />
    <glyph glyph-name="uni2120" unicode="&#x2120;" horiz-adv-x="480" 
d="M35 546q2 -22 17.5 -34t37.5 -12q47 0 47 32q0 16 -14.5 24.5t-44.5 15.5q-32 8 -51 19t-25.5 24t-6.5 31q0 32 23 51t68 19q47 0 70 -22t25 -54h-49q-6 39 -49 39q-39 0 -39 -28q0 -12 9 -20t37 -15q53 -12 75.5 -29.5t22.5 -48.5q0 -76 -101 -76q-45 0 -72 23t-30 61
h50zM445 468v76q0 73 5 129h-2q-17 -54 -72 -204h-43q-49 147 -66 204h-2q3 -28 4 -134v-71h-48v242h80q7 -21 19 -55.5t21.5 -62t16.5 -50.5h1q5 13 26.5 74.5t33.5 93.5h76v-242h-50z" />
    <glyph glyph-name="trademark" unicode="&#x2122;" horiz-adv-x="490" 
d="M206 710v-46h-82v-196h-53v196h-82v46h217zM460 468v76q0 73 5 129h-2l-71 -204h-44l-65 204h-3q4 -33 4 -134v-71h-48v242h80l57 -168l62 168h75v-242h-50z" />
    <glyph glyph-name="uni2126" unicode="&#x2126;" horiz-adv-x="761" 
d="M381 720q78 0 141 -27.5t102.5 -73.5t60.5 -104.5t21 -121.5q0 -210 -174 -312h189v-81h-280v101q169 81 169 289q0 66 -25 122t-78.5 92.5t-127.5 36.5q-105 0 -167 -70t-62 -182q0 -103 47.5 -176.5t123.5 -111.5v-101h-281v81h184q-170 105 -170 309q0 91 39.5 165.5
t115 119.5t172.5 45z" />
    <glyph glyph-name="estimated" unicode="&#x212e;" horiz-adv-x="853" 
d="M188 314q-4 0 -4 -4v-123q0 -10 8 -22q38 -54 99 -84t132 -30q76 0 130 26.5t98 86.5h106q-58 -84 -138 -129.5t-198 -45.5q-84 0 -155.5 28t-119.5 75.5t-75 110.5t-27 134q0 92 50 171.5t138.5 126.5t193.5 47q83 0 155 -28.5t122 -77t78.5 -112t28.5 -132.5v-18h-622z
M670 487q0 3 -1 6.5t-2.5 5.5t-3.5 5.5t-3 5.5q-38 55 -99 84t-133 29t-133 -29.5t-102 -85.5q-9 -14 -9 -24v-103q0 -5 4 -5h478q4 0 4 5v106z" />
    <glyph glyph-name="uni2153" unicode="&#x2153;" horiz-adv-x="840" 
d="M118 266v320q-15 -8 -43 -14.5t-42 -6.5v56q61 11 109 56h50v-411h-74zM116 1l440 671h71l-438 -671h-73zM607 244h34q68 0 68 50q0 25 -16.5 41t-52.5 16q-62 0 -78 -58h-66q2 16 9 33.5t22.5 37t45.5 32t70 12.5q66 0 102 -31t36 -79q0 -22 -9 -39.5t-21.5 -27
t-27.5 -15.5q32 -9 54 -34t22 -63q0 -52 -38.5 -88.5t-117.5 -36.5q-43 0 -75 12.5t-48 33.5t-23.5 39t-9.5 36h70q6 -27 29 -45.5t59 -18.5q38 0 58 18t20 48q0 66 -78 66h-38v61z" />
    <glyph glyph-name="uni2154" unicode="&#x2154;" horiz-adv-x="940" 
d="M42 267v5q0 55 31.5 101t101.5 89q52 32 67 48t15 42q0 30 -17.5 47.5t-50.5 17.5q-67 0 -79 -73h-70q4 40 23.5 70t52.5 46.5t76 16.5q30 0 55 -8t40.5 -20.5t26.5 -29t15.5 -32.5t4.5 -32q0 -46 -24 -72.5t-84 -61.5q-84 -50 -98 -94h222l-11 -60h-297zM231 1l439 671
h72l-439 -671h-72zM712 244h34q68 0 68 50q0 25 -16.5 41t-52.5 16q-62 0 -78 -58h-66q2 16 9 33.5t22.5 37t45.5 32t70 12.5q67 0 102.5 -31t35.5 -79q0 -32 -17 -52.5t-41 -29.5q32 -9 54 -34t22 -63q0 -52 -38.5 -88.5t-117.5 -36.5q-43 0 -75 12.5t-48 33.5t-23.5 39
t-9.5 36h70q6 -27 29 -45.5t59 -18.5q38 0 58 18t20 48q0 66 -78 66h-38v61z" />
    <glyph glyph-name="oneeighth" unicode="&#x215b;" horiz-adv-x="796" 
d="M117 266v320q-15 -8 -43 -14.5t-42 -6.5v56q61 11 109 56h50v-411h-74zM94 1l439 671h72l-439 -671h-72zM600 -22q-73 0 -113.5 35t-40.5 84q0 71 70 100q-17 8 -28.5 21.5t-18 29.5t-6.5 34q0 48 35.5 79.5t106.5 31.5q66 0 101 -32.5t35 -75.5q0 -62 -56 -84
q73 -29 73 -101q0 -54 -44 -88t-114 -34zM603 340q-34 0 -52 -15.5t-18 -40.5q0 -61 71 -61q20 0 34.5 6.5t22.5 20t8 33.5q0 26 -16.5 41.5t-49.5 15.5zM602 31q28 0 47 9t27 23.5t8 34.5q0 72 -83 72q-82 0 -82 -69q0 -31 21.5 -50.5t61.5 -19.5z" />
    <glyph glyph-name="threeeighths" unicode="&#x215c;" horiz-adv-x="912" 
d="M160 512h34q68 0 68 50q0 25 -16.5 41t-52.5 16q-61 0 -78 -58h-66q2 17 9.5 34t22.5 37t45 32t70 12q67 0 103 -31t36 -79q0 -21 -9.5 -39t-22 -27.5t-27.5 -15.5q15 -4 28.5 -12t24 -20t17 -28.5t6.5 -35.5q0 -52 -38.5 -89t-117.5 -37q-43 0 -75 13t-48 33.5
t-23.5 38.5t-9.5 37h70q6 -28 29.5 -46.5t58.5 -18.5q38 0 58 18.5t20 48.5q0 65 -78 65h-38v61zM205 1l440 671h71l-439 -671h-72zM716 -5q-49 0 -85 17.5t-52.5 44t-16.5 57.5q0 72 70 100q-25 13 -39 35.5t-14 49.5q0 31 14.5 55.5t47 40t80.5 15.5q34 0 61 -9.5t43 -25
t24 -34.5t8 -39q0 -62 -55 -84q72 -28 72 -101q0 -54 -44 -88t-114 -34zM719 357q-34 0 -51.5 -15t-17.5 -41q0 -60 70 -60q15 0 27 3.5t20.5 11t13 18.5t4.5 26q0 26 -16.5 41.5t-49.5 15.5zM718 48q42 0 62.5 18.5t20.5 48.5q0 73 -84 73q-82 0 -82 -70q0 -30 21.5 -50
t61.5 -20z" />
    <glyph glyph-name="fiveeighths" unicode="&#x215d;" horiz-adv-x="926" 
d="M214 1l440 671h71l-438 -671h-73zM340 610h-191q-2 -15 -5 -33.5t-6.5 -39t-4.5 -28.5q35 30 94 30q41 0 72.5 -16.5t48.5 -46.5t17 -69q0 -64 -42 -104.5t-114 -40.5q-70 0 -111 35t-47 82h72q19 -59 86 -59q39 0 60 22.5t21 60.5q0 35 -20 56.5t-61 21.5q-58 0 -83 -41
l-65 11q28 170 33 220h256zM725 -5q-73 0 -113.5 35t-40.5 84q0 72 71 100q-26 13 -39.5 35.5t-13.5 49.5q0 49 35 80t106 31q34 0 61 -9.5t43 -25t24 -34.5t8 -39q0 -62 -55 -84q72 -28 72 -101q0 -35 -20 -63t-56 -43.5t-82 -15.5zM728 357q-33 0 -51 -15t-18 -41
q0 -60 70 -60q15 0 27 3.5t20.5 11t13.5 18.5t5 26q0 26 -17 41.5t-50 15.5zM727 48q42 0 62.5 18.5t20.5 48.5q0 73 -84 73q-81 0 -81 -70q0 -30 21.5 -50t60.5 -20z" />
    <glyph glyph-name="seveneighths" unicode="&#x215e;" horiz-adv-x="834" 
d="M114 1l440 671h71l-438 -671h-73zM338 671v-55q-114 -138 -163 -349h-78q16 88 62.5 184t99.5 159h-214v61h293zM639 -22q-74 0 -114.5 35t-40.5 84q0 71 71 100q-17 8 -29 21.5t-18 29.5t-6 34q0 48 35.5 79.5t106.5 31.5q66 0 100.5 -32.5t34.5 -75.5q0 -62 -55 -84
q73 -29 73 -101q0 -54 -44.5 -88t-113.5 -34zM642 340q-34 0 -52 -15.5t-18 -40.5q0 -61 71 -61q20 0 34.5 6.5t22.5 20t8 33.5q0 26 -16.5 41.5t-49.5 15.5zM641 31q28 0 47 9t27 23.5t8 34.5q0 72 -83 72q-82 0 -82 -69q0 -31 21.5 -50.5t61.5 -19.5z" />
    <glyph glyph-name="arrowleft" unicode="&#x2190;" horiz-adv-x="892" 
d="M184 327q39 -33 101.5 -90t139 -127.5t108.5 -100.5l-49 -52l-436 406v3l436 411l49 -53q-37 -34 -110 -101.5t-136.5 -126t-102.5 -94.5h661v-75h-661z" />
    <glyph glyph-name="arrowup" unicode="&#x2191;" horiz-adv-x="874" 
d="M395 654q-160 -188 -296 -338l-51 52l386 427h2l391 -427l-53 -52q-51 56 -159 178t-143 160v-699h-77v699z" />
    <glyph glyph-name="arrowright" unicode="&#x2192;" horiz-adv-x="892" 
d="M709 408q-39 33 -101.5 90t-139 128t-109.5 100l49 52l437 -406v-3l-437 -411l-49 53q28 25 163 150t187 173h-661v74h661z" />
    <glyph glyph-name="arrowdown" unicode="&#x2193;" horiz-adv-x="874" 
d="M479 65q160 188 296 338l51 -52l-385 -426h-2l-392 426l53 52q51 -55 159 -177.5t143 -160.5v699h77v-699z" />
    <glyph glyph-name="partialdiff" unicode="&#x2202;" horiz-adv-x="548" 
d="M97 713q31 7 71 7q70 0 129.5 -24.5t105.5 -71t72.5 -123t26.5 -174.5q0 -44 -4.5 -83t-15 -78t-29.5 -69.5t-45 -54.5t-64 -37t-85 -13q-100 -1 -159.5 63t-59.5 155q0 65 29.5 115.5t79 77.5t109.5 27q63 0 101 -21.5t55 -47.5v10q-1 56 -18.5 104.5t-48.5 86
t-79.5 59.5t-107.5 22q-38 0 -63 -5v75zM267 62q39 0 67.5 17t43 44t21.5 55.5t7 58.5q0 28 -15.5 55.5t-48.5 47.5t-76 20q-60 0 -97.5 -39t-37.5 -110q0 -70 39.5 -109.5t96.5 -39.5z" />
    <glyph glyph-name="uni2206" unicode="&#x2206;" horiz-adv-x="657" 
d="M23 0v60l248 650h116l246 -650v-60h-610zM528 82l-108 283q-72 189 -95 269h-3q-9 -45 -94 -268l-107 -284h407z" />
    <glyph glyph-name="product" unicode="&#x220f;" horiz-adv-x="714" 
d="M625 710v-812h-93v731h-350v-731h-93v812h536z" />
    <glyph glyph-name="summation" unicode="&#x2211;" horiz-adv-x="541" 
d="M14 -102v60l257 349l-241 342v61h477v-82h-355l224 -311l-246 -337h408l-12 -82h-512z" />
    <glyph glyph-name="minus" unicode="&#x2212;" horiz-adv-x="727" 
d="M85 246v79h558v-79h-558z" />
    <glyph glyph-name="uni2215" unicode="&#x2215;" horiz-adv-x="189" 
d="M-159 0l439 671h72l-439 -671h-72z" />
    <glyph glyph-name="uni2219" unicode="&#x2219;" horiz-adv-x="207" 
d="M56 204v151h94v-151h-94z" />
    <glyph glyph-name="radical" unicode="&#x221a;" horiz-adv-x="630" 
d="M379 -202h-69l-159 440l-96 -46l-23 62l174 85q119 -347 133 -414q8 82 199 944h75z" />
    <glyph glyph-name="infinity" unicode="&#x221e;" horiz-adv-x="823" 
d="M209 120q-45 0 -81.5 22.5t-58 62.5t-21.5 90q0 72 47.5 123.5t121.5 51.5q32 0 59 -9t52.5 -29t42 -36t41.5 -45q18 20 29.5 31.5t29 27.5t32 25t33 18t39 13t42.5 4q45 0 81 -22.5t56.5 -62.5t20.5 -90q0 -72 -47.5 -123.5t-120.5 -51.5q-55 0 -99.5 31.5t-95.5 89.5
q-29 -31 -44 -46t-42.5 -36t-55.5 -30t-61 -9zM215 193q31 0 60.5 15.5t48.5 34t45 50.5q-6 7 -19.5 22.5t-22 24.5t-22.5 22t-26 20t-28 12.5t-32 5.5q-45 0 -73 -31t-28 -74q0 -22 7.5 -41t20 -32.5t30.5 -21t39 -7.5zM604 193q47 0 74 29t27 73q0 22 -6.5 41t-19 33
t-31 22.5t-40.5 8.5q-43 0 -76 -24t-80 -77q3 -3 13.5 -15l14 -16t13.5 -14.5t14.5 -14.5t14 -12t15.5 -11.5t15 -9t16.5 -8t17 -4t18.5 -1.5z" />
    <glyph glyph-name="integral" unicode="&#x222b;" horiz-adv-x="314" 
d="M322 775q-22 6 -47 6q-17 0 -30 -5t-21.5 -12.5t-14.5 -22t-9 -27t-5 -34t-2 -37.5v-42q0 -74 10 -285t10 -285q0 -46 -2.5 -79t-11.5 -67t-24.5 -55t-43 -34t-65.5 -13q-54 0 -78 11l12 81q24 -9 56 -9q18 0 31 6.5t21 20t12.5 26t6.5 34t2.5 34t0.5 36.5v12
q0 73 -11 291t-11 292q0 30 2.5 56t8 55.5t17 52t28.5 42t44 30t61 10.5q39 0 63 -10z" />
    <glyph glyph-name="approxequal" unicode="&#x2248;" horiz-adv-x="727" 
d="M88 329v21q0 64 33 94.5t92 30.5q47 0 102 -17.5t107.5 -35.5t93.5 -18q31 0 43 14.5t12 44.5v8h71v-21q0 -69 -33 -98t-90 -29q-39 0 -83 11.5t-76.5 25t-71.5 25t-70 11.5q-59 0 -59 -56v-11h-71zM88 107v22q0 63 34 93.5t90 30.5q48 0 103.5 -18t108 -36t92.5 -18
q30 0 42.5 14.5t12.5 43.5v10h71v-24q0 -123 -122 -123q-39 0 -83.5 11t-77.5 24.5t-72 24.5t-69 11q-59 0 -59 -59v-7h-71z" />
    <glyph glyph-name="notequal" unicode="&#x2260;" horiz-adv-x="727" 
d="M475 455h168v-80h-204l-81 -174h285v-80h-322l-52 -112h-73l51 112h-162v80h199l80 174h-279v80h316l52 114h75z" />
    <glyph glyph-name="lessequal" unicode="&#x2264;" horiz-adv-x="694" 
d="M85 470l526 241v-89l-429 -190l429 -195v-88l-526 244v77zM85 0v81h526v-81h-526z" />
    <glyph glyph-name="greaterequal" unicode="&#x2265;" horiz-adv-x="694" 
d="M611 388l-526 -239v89l429 187l-429 197v89l526 -244v-79zM85 0v81h526v-81h-526z" />
    <glyph glyph-name="filledbox" unicode="&#x25a0;" horiz-adv-x="375" 
d="M70 377h235v-233h-235v233z" />
    <glyph glyph-name="triagup" unicode="&#x25b2;" horiz-adv-x="649" 
d="M37 0l282 624h3l291 -624h-576z" />
    <glyph glyph-name="uni25B3" unicode="&#x25b3;" horiz-adv-x="649" 
d="M37 0l282 624h3l291 -624h-576zM503 65l-183 410l-180 -410h363z" />
    <glyph glyph-name="uni25B6" unicode="&#x25b6;" horiz-adv-x="706" 
d="M52 591l623 -284v-2l-623 -291v577z" />
    <glyph glyph-name="uni25B7" unicode="&#x25b7;" horiz-adv-x="706" 
d="M52 591l623 -284v-2l-623 -291v577zM119 483v-362l407 183z" />
    <glyph glyph-name="triagdn" unicode="&#x25bc;" horiz-adv-x="649" 
d="M613 614l-284 -624h-2l-290 624h576z" />
    <glyph glyph-name="uni25BD" unicode="&#x25bd;" horiz-adv-x="649" 
d="M613 614l-284 -624h-2l-290 624h576zM147 549l182 -410l180 410h-362z" />
    <glyph glyph-name="uni25C0" unicode="&#x25c0;" horiz-adv-x="706" 
d="M655 14l-623 284v2l623 291v-577z" />
    <glyph glyph-name="uni25C1" unicode="&#x25c1;" horiz-adv-x="706" 
d="M655 14l-623 284v2l623 291v-577zM181 300l407 -181v363z" />
    <glyph glyph-name="uni25C6" unicode="&#x25c6;" horiz-adv-x="411" 
d="M204 429l164 -173l-160 -165l-165 170z" />
    <glyph glyph-name="uni25C9" unicode="&#x25c9;" horiz-adv-x="538" 
d="M488 258q-2 -96 -63.5 -161t-153.5 -65t-155 65t-63 161q0 46 17 87.5t46 71.5t70 47.5t86 17.5t85.5 -17.5t68.5 -48t45 -72t17 -86.5zM271 423q-67 0 -109.5 -48t-42.5 -117q0 -72 43 -120.5t109 -48.5q68 0 110 48t42 121q0 68 -43.5 116.5t-108.5 48.5zM270 335
q32 0 53.5 -23t21.5 -54q0 -17 -5.5 -32t-15 -26t-23.5 -17.5t-30 -6.5q-34 0 -54.5 23.5t-20.5 58.5q0 31 20.5 54t53.5 23z" />
    <glyph glyph-name="lozenge" unicode="&#x25ca;" horiz-adv-x="583" 
d="M330 -44h-83l-205 379l209 379h84l206 -378zM322 584q-22 42 -30 61h-1q-18 -33 -31 -61l-135 -246l133 -253q30 -60 31 -63h3q1 5 5 14t8.5 17.5l9 17t5.5 12.5l139 251z" />
    <glyph glyph-name="uni25FC" unicode="&#x25fc;" horiz-adv-x="515" 
d="M0 515h515v-515h-515v515z" />
    <glyph glyph-name="uni2610" unicode="&#x2610;" horiz-adv-x="1040" 
d="M934 799v-794l-66 -66h-762v801l58 59h770zM166 0h689v723h-689v-723z" />
    <glyph glyph-name="uni2611" unicode="&#x2611;" horiz-adv-x="1040" 
d="M934 799v-794l-66 -66h-762v801l58 59h770zM166 0h689v723h-689v-723zM781 660q-173 -224 -355 -609h-25q-90 138 -149 285l66 43q46 -142 94 -231q60 139 138 279t146 233h85z" />
    <glyph glyph-name="uni2713" unicode="&#x2713;" horiz-adv-x="711" 
d="M712 768q-222 -303 -471 -835h-29q-104 155 -179 353l79 51q48 -159 113 -279q87 198 187.5 387t195.5 323h104z" />
    <glyph glyph-name="uni2752" unicode="&#x2752;" horiz-adv-x="480" 
d="M144 442h270v-289l-74 -81h-276v289zM117 129h208v220h-208v-220z" />
    <glyph glyph-name="fi" unicode="&#xfb01;" horiz-adv-x="538" 
d="M92 0v445h-83v72h83v62q0 38 7.5 69t24.5 56.5t47 40t72 14.5q39 0 57 -6v-77q-21 5 -45 5q-27 0 -43 -11.5t-23 -34.5t-7 -62v-56h104v-72h-104v-445h-90zM373 638v111h90v-111h-90zM373 517h90v-517h-90v517z" />
    <glyph glyph-name="fl" unicode="&#xfb02;" horiz-adv-x="537" 
d="M92 0v445h-83v72h83v62q0 38 7.5 69t24.5 56.5t47 40t72 14.5q39 0 57 -6v-77q-21 5 -45 5q-27 0 -43 -11.5t-23 -34.5t-7 -62v-56h104v-72h-104v-445h-90zM372 0v749h90v-749h-90z" />
    <glyph glyph-name="G_tildecomb" horiz-adv-x="742" 
d="M198 781v23q0 100 88 100q34 0 91 -27t73 -27q32 0 32 44v12h63v-22q0 -57 -22 -81t-65 -24q-32 0 -89 27t-76 27q-30 0 -30 -34v-18h-65zM669 0h-72q-8 20 -9 96q-65 -105 -221 -105q-99 0 -171 47.5t-107 127t-35 182.5q0 107 37.5 190.5t113 132.5t180.5 49
q121 0 196.5 -59.5t91.5 -156.5h-94q-42 138 -197 138q-59 0 -104 -23t-72 -63.5t-40 -91.5t-13 -112q0 -57 13 -106.5t39 -89.5t70.5 -63.5t102.5 -23.5q199 0 199 226v8h-200v81h292v-384z" />
    <glyph glyph-name="g_tildecomb" horiz-adv-x="578" 
d="M131 617v24q0 97 82 97q31 0 79 -25t64 -25q15 0 22 9.5t7 33.5v11h62v-22q0 -104 -85 -104q-31 0 -76.5 25.5t-65.5 25.5q-26 0 -26 -34v-16h-63zM503 47q0 -128 -57 -194t-181 -66q-56 0 -98 14t-65 38.5t-35 50.5t-16 55h91q11 -43 44 -65t83 -22q83 0 114.5 48.5
t31.5 144.5v42q-44 -91 -161 -91q-96 0 -155 71t-59 185q0 123 63.5 197t159.5 74q67 0 104.5 -24t47.5 -56q1 31 5 68h84q0 -12 -0.5 -39t-0.5 -58v-52v-321zM133 262q0 -82 39 -132.5t102 -50.5q79 0 111.5 48.5t32.5 140.5q0 93 -31 139.5t-110 46.5q-69 0 -106.5 -53
t-37.5 -139z" />
    <glyph glyph-name="zero.slash" horiz-adv-x="570" 
d="M288 683q51 0 91.5 -19t66.5 -51.5t42.5 -77.5t23.5 -92.5t7 -101.5q0 -53 -6.5 -100.5t-23 -95t-42 -81.5t-67.5 -55t-95 -21q-52 0 -93 19.5t-67 52t-43.5 78t-24.5 94.5t-7 104q0 54 7.5 102.5t25 94t44 78.5t68 52.5t93.5 19.5zM289 610q-43 0 -73 -21.5t-46 -61
t-22.5 -86t-6.5 -105.5q0 -95 16 -154l219 389q-32 39 -87 39zM286 61q142 0 142 279q0 106 -20 171l-222 -397q36 -53 100 -53z" />
    <glyph glyph-name="zero.slashtab" horiz-adv-x="557" 
d="M282 683q51 0 91.5 -19t66.5 -51.5t42.5 -77.5t23.5 -92.5t7 -101.5q0 -53 -6.5 -100.5t-23 -95t-42 -81.5t-67.5 -55t-96 -21q-51 0 -92 19.5t-67.5 52t-43.5 78t-24 94.5t-7 104q0 54 7 102.5t25 94t44.5 78.5t67.5 52.5t94 19.5zM283 610q-43 0 -73 -21.5t-46 -61
t-22.5 -86t-6.5 -105.5q0 -95 16 -154l219 389q-32 39 -87 39zM279 61q143 0 143 279q0 106 -20 171l-222 -397q36 -53 99 -53z" />
    <glyph glyph-name="zero.tab" horiz-adv-x="557" 
d="M282 683q52 0 93 -19.5t66.5 -51.5t42 -77t23 -92.5t6.5 -101.5t-6 -101.5t-22.5 -94.5t-42 -81t-67.5 -55t-97 -21q-30 0 -56 6t-47 17.5t-39 28t-31 36t-23.5 43.5t-17.5 49.5t-11.5 53.5t-6.5 56t-2 58q0 54 7 102.5t24.5 94t44 78.5t68 52.5t94.5 19.5zM283 607
q-43 0 -72 -21t-44.5 -60t-21.5 -84.5t-6 -105.5q0 -272 140 -272q25 0 45.5 8.5t34.5 22t25 34.5t17.5 44t10.5 51.5t5.5 56t1.5 59.5q0 267 -136 267z" />
    <glyph glyph-name="one.tab" horiz-adv-x="557" 
d="M59 0v79h160v479q-22 -13 -65 -23t-78 -13v68q48 8 94.5 29.5t75.5 51.5h62v-592h153v-79h-402z" />
    <glyph glyph-name="two.tab" horiz-adv-x="557" 
d="M58 0v5q0 150 202 303q46 35 68 53.5t40 40t23.5 41t5.5 48.5q0 53 -29 85t-88 32t-90.5 -30.5t-42.5 -94.5h-88q10 90 66.5 145t154.5 55q55 0 96.5 -16t65.5 -44t36 -61t12 -69q0 -39 -8 -66.5t-30.5 -56t-49.5 -51.5t-80 -64q-70 -54 -108 -96t-50 -80h352l-13 -79
h-445z" />
    <glyph glyph-name="three.tab" horiz-adv-x="557" 
d="M64 511q5 33 18.5 62t38 54.5t65 40.5t91.5 15q99 0 150.5 -50.5t51.5 -123.5q0 -56 -26 -90.5t-62 -48.5v-2q51 -16 84 -58t33 -111q0 -33 -8 -63t-26 -57.5t-44.5 -47.5t-66 -31.5t-88.5 -11.5q-55 0 -98.5 16t-70 43.5t-41.5 59t-19 66.5h89q11 -48 47 -79.5t97 -31.5
q68 0 102.5 38.5t34.5 97.5q0 66 -38 98t-108 32h-48v74h40q66 0 96.5 25.5t30.5 78.5q0 47 -30 74.5t-85 27.5q-38 0 -64.5 -13.5t-39 -33.5t-19.5 -50h-87z" />
    <glyph glyph-name="four.tab" horiz-adv-x="557" 
d="M352 0v172h-315v82l305 417h96v-421h86l-9 -78h-77v-172h-86zM352 419q0 75 2 162q-25 -49 -230 -331h228v169z" />
    <glyph glyph-name="five.tab" horiz-adv-x="557" 
d="M474 594h-280q-12 -101 -30 -192q49 54 141 54t147 -60.5t55 -162.5q0 -40 -8.5 -76t-26.5 -67t-44.5 -53.5t-65.5 -35.5t-87 -13q-90 0 -150 47.5t-73 132.5h91q8 -31 24.5 -54.5t45 -37.5t65.5 -14q68 0 102.5 44t34.5 120q0 34 -7 61t-22 48t-40.5 32.5t-59.5 11.5
q-57 0 -88 -21.5t-50 -65.5l-84 15q29 126 55 364h369z" />
    <glyph glyph-name="six.tab" horiz-adv-x="557" 
d="M408 525q-23 85 -113 85q-148 0 -153 -248q54 94 170 94q95 0 150.5 -62.5t55.5 -160.5q0 -105 -60 -175t-166 -70q-240 0 -240 338q0 58 7.5 109t25.5 97t46 79t71 52.5t97 19.5q49 0 87 -14.5t60.5 -38.5t34.5 -50.5t16 -54.5h-89zM291 63q68 0 101 46.5t33 115.5
q0 31 -6 57t-20.5 49t-41 36t-63.5 13q-65 0 -103.5 -40t-38.5 -114q0 -23 6.5 -48.5t21 -52.5t43.5 -44.5t68 -17.5z" />
    <glyph glyph-name="seven.tab" horiz-adv-x="557" 
d="M500 671v-73q-90 -120 -162.5 -286t-97.5 -312h-93q22 139 98 310.5t160 282.5h-346v78h441z" />
    <glyph glyph-name="eight.tab" horiz-adv-x="557" 
d="M274 -12q-100 0 -165.5 55t-65.5 147q0 34 10.5 63.5t29 50t39 35t43.5 23.5q-94 45 -94 142q0 80 55.5 129.5t157.5 49.5q61 0 107.5 -22.5t71 -63t24.5 -91.5q0 -52 -25.5 -88t-67.5 -52q50 -16 84.5 -62.5t34.5 -110.5q0 -95 -66.5 -150t-172.5 -55zM280 609
q-41 0 -68.5 -13.5t-39.5 -36.5t-12 -55q0 -45 30.5 -74.5t91.5 -29.5q58 0 87 26.5t29 74.5q0 47 -30 77.5t-88 30.5zM278 62q43 0 75 14.5t50 44.5t18 73q0 42 -17 71t-49 43.5t-77 14.5q-70 0 -106 -35.5t-36 -93.5t38 -95t104 -37z" />
    <glyph glyph-name="nine.tab" horiz-adv-x="557" 
d="M153 147q15 -42 43.5 -63t75.5 -21q27 0 49 10.5t36.5 26.5t25.5 40t17 45.5t10 50.5t5 47t2 41q-45 -79 -160 -79q-94 0 -150 59.5t-56 153.5q0 96 61 160.5t165 64.5q61 0 106 -23t71.5 -65t39.5 -97t13 -124q0 -385 -238 -385q-93 0 -143.5 45t-64.5 113h92zM275 608
q-65 0 -98 -40.5t-33 -105.5t34.5 -104t93.5 -39q135 0 135 139q0 15 -2.5 31.5t-10.5 38.5t-21.5 39t-39 29t-58.5 12z" />
    <glyph glyph-name="zero.slashcap" horiz-adv-x="602" 
d="M304 720q54 0 97 -21t70 -55t45 -81.5t25.5 -97.5t7.5 -105q0 -45 -5 -87t-15.5 -85t-29.5 -78t-45.5 -63t-65.5 -43.5t-87 -15.5q-40 0 -74 10.5t-59 30t-45 46.5t-33 58.5t-21.5 69t-12 74.5t-3.5 78q0 46 5.5 88.5t17 84.5t32 76t47 60.5t65 41t84.5 14.5zM305 645
q-44 0 -76 -23t-49.5 -64.5t-25.5 -91.5t-8 -111q0 -106 22 -177l232 421q-38 46 -95 46zM301 63q44 0 75.5 25t48.5 68.5t24.5 93t7.5 109.5q0 109 -25 179l-232 -423q39 -52 101 -52z" />
    <glyph glyph-name="zero.cap" horiz-adv-x="602" 
d="M304 720q54 0 97 -21t70 -55t45 -81.5t25.5 -97.5t7.5 -105q0 -45 -5 -87t-15.5 -85t-29.5 -78t-45.5 -63t-65.5 -43.5t-87 -15.5q-40 0 -74 10.5t-59 30t-45 46.5t-33 58.5t-21.5 69t-12 74.5t-3.5 78q0 46 5.5 88.5t17 84.5t32 76t47 60.5t65 41t84.5 14.5zM305 643
q-156 0 -156 -288q0 -55 7 -103t23 -92t47 -69.5t75 -25.5q152 0 152 294q0 56 -6.5 102.5t-22 89.5t-46 67.5t-73.5 24.5z" />
    <glyph glyph-name="one.cap" horiz-adv-x="377" 
d="M186 0v594q-23 -19 -71 -36t-79 -20v71q48 11 96 39t78 62h69v-710h-93z" />
    <glyph glyph-name="two.cap" horiz-adv-x="566" 
d="M47 0v7q0 80 49 160t167 167q5 3 13 9q37 27 53 39t36 30t27 31t12 31t5 41q0 56 -34 91.5t-93 35.5q-43 0 -72.5 -16.5t-45.5 -45t-23 -70.5h-93q9 92 69 150.5t165 58.5q57 0 101.5 -17.5t70 -47t38 -63.5t12.5 -72q0 -33 -6.5 -59t-18 -47t-35.5 -44.5t-50 -43.5
t-71 -52q-143 -100 -169 -194h379l-13 -79h-473z" />
    <glyph glyph-name="three.cap" horiz-adv-x="593" 
d="M67 536q5 35 20 66.5t41 58.5t68.5 43t95.5 16q103 0 159 -52.5t56 -129.5q0 -107 -95 -146v-3q25 -9 45.5 -22t39 -34t29.5 -52.5t11 -70.5q0 -43 -14 -81.5t-42.5 -71t-77 -51.5t-112.5 -18q-58 0 -104 17t-74.5 46t-44 64t-19.5 74h90q11 -55 49.5 -90t106.5 -35
q50 0 83.5 19.5t49 51t15.5 73.5q0 69 -41 104.5t-120 35.5h-39v74h34q137 0 137 109q0 51 -32 82t-91 31q-110 0 -136 -108h-88z" />
    <glyph glyph-name="four.cap" horiz-adv-x="580" 
d="M374 0v188h-335v80l324 442h99v-446h93l-11 -76h-82v-188h-88zM374 446q0 151 2 171q-12 -24 -57 -87.5t-105 -146t-85 -119.5h245v182z" />
    <glyph glyph-name="five.cap" horiz-adv-x="587" 
d="M507 630h-309q-16 -139 -28 -209q50 61 152 61q98 0 157.5 -64.5t59.5 -170.5q0 -117 -63 -188t-185 -71q-97 0 -160.5 51t-76.5 143h92q29 -118 148 -118q77 0 114.5 47t37.5 128q0 71 -35 118t-109 47q-28 0 -50 -5.5t-36.5 -14t-26.5 -22t-18.5 -24.5t-14.5 -27
l-86 16q5 27 12 72t14 97t13.5 109.5t10.5 104.5h399z" />
    <glyph glyph-name="six.cap" horiz-adv-x="591" 
d="M432 555q-24 89 -122 91q-159 1 -165 -267q53 95 182 95q66 0 115.5 -29t76.5 -81.5t27 -121.5t-25.5 -125.5t-81 -92.5t-133.5 -36q-70 0 -119.5 25t-78.5 73.5t-42 112t-13 146.5q0 54 7 103.5t25 100.5t46 87.5t74.5 60t106.5 23.5q52 0 92 -14.5t64 -39.5t37.5 -52.5
t17.5 -58.5h-91zM306 64q69 0 107.5 47.5t38.5 123.5q0 31 -7.5 59t-24 51.5t-45 37.5t-66.5 14q-71 0 -111.5 -40.5t-40.5 -116.5q0 -15 2 -30.5t7 -33t12.5 -33t19.5 -30.5t27 -25.5t35.5 -17t45.5 -6.5z" />
    <glyph glyph-name="seven.cap" horiz-adv-x="513" 
d="M484 710v-75q-94 -129 -167.5 -298t-103.5 -337h-101q29 165 106.5 338t169.5 292h-367v80h463z" />
    <glyph glyph-name="eight.cap" horiz-adv-x="594" 
d="M293 -12q-108 0 -175.5 58.5t-67.5 156.5q0 127 122 179q-91 47 -91 150q0 83 60 135.5t162 52.5q96 0 154.5 -51.5t58.5 -134.5q0 -57 -26.5 -94t-69.5 -54q35 -12 62 -35t45 -61t18 -84q0 -103 -70.5 -160.5t-181.5 -57.5zM299 645q-64 0 -97 -29.5t-33 -83.5
q0 -50 34 -81.5t98 -31.5q41 0 69 13.5t42 38t14 58.5q0 53 -33.5 84.5t-93.5 31.5zM298 63q70 0 112 37.5t42 105.5q0 43 -18 74t-52.5 47t-83.5 16q-80 0 -117 -36.5t-37 -99.5t42 -103.5t112 -40.5z" />
    <glyph glyph-name="nine.cap" horiz-adv-x="583" 
d="M151 157q30 -95 128 -95q34 0 60 13t42 37t27.5 50t17 62t8 63.5t4.5 61.5q-49 -86 -171 -86q-94 0 -156.5 60t-62.5 164q0 101 63.5 167t171.5 66q124 0 185 -84.5t61 -243.5q0 -404 -254 -404q-95 0 -148 46t-69 123h93zM284 646q-65 0 -103.5 -41t-38.5 -113
q0 -47 18 -82t49.5 -53t73.5 -18q142 0 142 142q0 30 -6.5 57.5t-22 52.5t-44.5 40t-68 15z" />
    <glyph glyph-name="period.sups" horiz-adv-x="153" 
d="M40 437v104h72v-104h-72z" />
    <glyph glyph-name="comma.sups" horiz-adv-x="146" 
d="M14 362q32 82 39 179h70q-4 -51 -17.5 -101.5t-30.5 -77.5h-61z" />
    <glyph glyph-name="dollar.sups" horiz-adv-x="392" 
d="M161 372v66q-23 2 -43 9t-36 17t-28.5 24t-20.5 30.5t-11 36.5h74q7 -30 36 -47.5t66 -17.5q88 0 88 58q0 26 -21 41.5t-80 25.5q-83 16 -116 43.5t-33 72.5q0 28 12.5 51t42 40t70.5 22v47h63v-48q58 -8 89 -40t36 -70h-70q-14 57 -90 57q-43 0 -63 -14.5t-20 -35.5
q0 -17 10 -27t30.5 -17t60.5 -15q84 -16 118 -48t34 -76q0 -49 -34 -81.5t-101 -38.5v-65h-63z" />
    <glyph glyph-name="cent.sups" horiz-adv-x="394" 
d="M364 579q-26 -90 -121 -105v-63h-63v63q-64 9 -102 52t-38 107q0 68 38.5 111t101.5 53v53h63v-53q39 -6 67 -25.5t39.5 -40t13.5 -40.5h-69q-8 24 -29.5 39.5t-56.5 15.5q-44 0 -70.5 -29t-26.5 -81q0 -47 27 -78.5t71 -31.5q63 0 86 53h69z" />
    <glyph glyph-name="hyphen.sups" horiz-adv-x="230" 
d="M199 669v-62h-167v62h167z" />
    <glyph glyph-name="period.subs" horiz-adv-x="153" 
d="M40 -176v104h72v-104h-72z" />
    <glyph glyph-name="comma.subs" horiz-adv-x="146" 
d="M14 -251q32 82 39 179h70q-4 -51 -17.5 -101.5t-30.5 -77.5h-61z" />
    </font>
</defs>
</svg>
