<?xml version="1.0" standalone="no"?>
<!DOCTYPE svg PUBLIC "-//W3C//DTD SVG 1.1//EN" "http://www.w3.org/Graphics/SVG/1.1/DTD/svg11.dtd" >
<svg xmlns="http://www.w3.org/2000/svg" xmlns:xlink="http://www.w3.org/1999/xlink" version="1.1">
<metadata>
Created by FontForge 20170924 at Thu Jun 15 08:08:06 2017
 By www-data
copyright missing
</metadata>
<defs>
<font id="AcuminPro-Medium" horiz-adv-x="408" >
  <font-face 
    font-family="Acumin Pro Medium"
    font-weight="400"
    font-stretch="normal"
    units-per-em="1000"
    panose-1="2 11 6 4 2 2 2 2 2 4"
    ascent="735"
    descent="-265"
    x-height="519"
    cap-height="709"
    bbox="-192 -267 1263 1065"
    underline-thickness="50"
    underline-position="-300"
    unicode-range="U+0020-FB02"
  />
<missing-glyph horiz-adv-x="510" 
d="M0 714h510v-714h-510v714zM428 663h-346l173 -260zM51 97l173 260l-173 260v-520zM459 97v520l-173 -260zM428 51l-173 260l-173 -260h346z" />
    <glyph glyph-name="f_f" unicode="ff" horiz-adv-x="580" 
d="M191 440v-440h-100v440h-82v79h82v58q0 181 154 181q35 0 52 -7v-82q-17 5 -41 5q-35 0 -50 -22.5t-15 -72.5v-60h183v58q0 181 153 181q35 0 53 -7v-82q-16 5 -40 5q-18 0 -30.5 -5.5t-20.5 -17.5t-11.5 -29.5t-3.5 -42.5v-60h100v-79h-100v-440h-100v440h-183z" />
    <glyph glyph-name=".notdef" horiz-adv-x="510" 
d="M0 714h510v-714h-510v714zM428 663h-346l173 -260zM51 97l173 260l-173 260v-520zM459 97v520l-173 -260zM428 51l-173 260l-173 -260h346z" />
    <glyph glyph-name=".null" horiz-adv-x="0" 
 />
    <glyph glyph-name="nonmarkingreturn" horiz-adv-x="333" 
 />
    <glyph glyph-name="space" unicode=" " horiz-adv-x="256" 
 />
    <glyph glyph-name="exclam" unicode="!" horiz-adv-x="313" 
d="M144 242l-12 342v125h107v-126l-13 -341h-82zM135 -1v147h99v-147h-99z" />
    <glyph glyph-name="quotedbl" unicode="&#x22;" horiz-adv-x="368" 
d="M61 469l-10 191v88h93v-88l-10 -191h-73zM234 469l-10 191v88h93v-88l-10 -191h-73z" />
    <glyph glyph-name="numbersign" unicode="#" horiz-adv-x="610" 
d="M335 198l-131 -1l-47 -197h-75l48 197h-87v81h107l37 151h-94v82h114l43 176h72l-43 -176h132l43 176h71l-42 -176h82l-1 -82h-100l-37 -151h91v-80h-110l-47 -198h-74zM391 429h-131l-36 -151h130z" />
    <glyph glyph-name="dollar" unicode="$" horiz-adv-x="536" 
d="M232 -98v92q-91 7 -145 56t-61 125h99q9 -43 37 -68.5t70 -33.5v234q-54 16 -90 34.5t-59 41.5t-33 50.5t-10 63.5q0 77 53.5 125.5t138.5 54.5v69h60v-70q49 -4 86 -21.5t58 -42.5t31.5 -50.5t12.5 -52.5h-98q-19 75 -90 90v-211q112 -32 158 -81.5t46 -120.5
q0 -57 -25 -99t-70.5 -65.5t-108.5 -27.5v-92h-60zM139 508q0 -36 20.5 -59.5t72.5 -42.5v195q-48 -5 -70.5 -30.5t-22.5 -62.5zM394 174q0 41 -22.5 67.5t-79.5 47.5v-218q102 11 102 103z" />
    <glyph glyph-name="percent" unicode="%" horiz-adv-x="905" 
d="M211 683q80 0 127 -51t47 -139q0 -56 -19.5 -99.5t-59.5 -69t-96 -25.5q-80 0 -125.5 51.5t-45.5 141.5q0 82 45.5 136.5t126.5 54.5zM199 0l432 671h83l-432 -671h-83zM211 613q-41 0 -65 -31t-24 -89q0 -57 23.5 -90t66.5 -33t67 32t24 91q0 58 -24.5 89t-67.5 31z
M702 371q80 0 126 -51t46 -140q0 -86 -45.5 -139.5t-128.5 -53.5q-80 0 -125.5 52t-45.5 139q0 54 19 97t59 69.5t95 26.5zM701 300q-26 0 -46 -14t-31.5 -41.5t-11.5 -64.5t10 -64.5t31 -43t50 -15.5q43 0 66.5 32t23.5 90.5t-24.5 89.5t-67.5 31z" />
    <glyph glyph-name="ampersand" unicode="&#x26;" horiz-adv-x="767" 
d="M718 448l-181 -263l188 -185h-134l-111 108q-32 -40 -61.5 -64.5t-70 -39t-91.5 -14.5q-97 0 -152 56.5t-55 131.5q0 62 33 109t117 99q-42 44 -62 78.5t-20 79.5q0 74 49.5 124.5t133.5 50.5q79 0 127.5 -48t48.5 -117q0 -27 -7.5 -49.5t-25 -44t-42.5 -41t-62 -42.5
l136 -133l136 204h106zM300 644q-40 0 -63.5 -25t-23.5 -69q0 -29 17.5 -56t58.5 -66q56 37 76 64t20 61q0 38 -22.5 64.5t-62.5 26.5zM265 78q46 0 80.5 19t74.5 69l-168 166q-56 -38 -77 -69t-21 -73q0 -30 14 -55.5t39.5 -41t57.5 -15.5z" />
    <glyph glyph-name="quotesingle" unicode="'" horiz-adv-x="188" 
d="M53 469l-9 191v88h101v-88l-10 -191h-82z" />
    <glyph glyph-name="parenleft" unicode="(" horiz-adv-x="350" 
d="M311 748q-161 -212 -161 -456q0 -252 161 -468h-100q-67 89 -110 208t-43 261q0 251 153 455h100z" />
    <glyph glyph-name="parenright" unicode=")" horiz-adv-x="350" 
d="M40 -176q160 210 160 455q0 255 -160 469h100q43 -58 75 -123t55 -157t23 -190q0 -250 -153 -454h-100z" />
    <glyph glyph-name="asterisk" unicode="*" horiz-adv-x="416" 
d="M247 709l-14 -152l116 95l43 -72l-145 -63l144 -65l-42 -72l-117 97l15 -154h-80l16 153l-116 -96l-41 72l143 65l-145 63l43 72l115 -95l-14 152h79z" />
    <glyph glyph-name="plus" unicode="+" horiz-adv-x="715" 
d="M402 569v-239h236v-86h-236v-244h-88v244h-236v86h236v239h88z" />
    <glyph glyph-name="comma" unicode="," horiz-adv-x="225" 
d="M4 -117q63 138 74 273h102q-8 -73 -33 -147t-62 -126h-81z" />
    <glyph glyph-name="hyphen" unicode="-" horiz-adv-x="386" 
d="M328 306v-90h-270v90h270z" />
    <glyph glyph-name="period" unicode="." horiz-adv-x="216" 
d="M55 0v156h106v-156h-106z" />
    <glyph glyph-name="slash" unicode="/" horiz-adv-x="460" 
d="M44 -52l284 771h88l-284 -771h-88z" />
    <glyph glyph-name="zero" unicode="0" horiz-adv-x="576" 
d="M291 683q44 0 80 -13t61.5 -37t44.5 -55.5t29.5 -70.5t15.5 -80t5 -86q0 -55 -6.5 -103t-23.5 -95t-43 -80.5t-68.5 -54t-97.5 -20.5q-54 0 -96 19.5t-68.5 52t-43.5 78t-24 94t-7 104.5q0 54 7.5 103t25 94.5t44.5 78t69 52t96 19.5zM292 600q-41 0 -69 -20t-42.5 -57.5
t-20.5 -82.5t-6 -104q0 -265 135 -265q33 0 57.5 15.5t38.5 39.5t22.5 60.5t11 72t2.5 81.5q0 42 -3 77t-11.5 70t-22 59t-37.5 39t-55 15z" />
    <glyph glyph-name="one" unicode="1" horiz-adv-x="378" 
d="M177 0v553q-23 -16 -65 -32t-70 -21v79q27 7 56 21t57 33t50 41h74v-674h-102z" />
    <glyph glyph-name="two" unicode="2" horiz-adv-x="541" 
d="M45 0v6q0 153 202 305q83 63 108 94.5t25 82.5q0 52 -27 82.5t-83 30.5q-57 0 -86.5 -29.5t-39.5 -90.5h-98q9 91 66.5 146.5t157.5 55.5q56 0 98.5 -16.5t67 -44.5t36 -61t11.5 -70q0 -38 -7.5 -66t-30 -56t-49.5 -52t-79 -63q-69 -53 -105 -92.5t-48 -74.5h346l-14 -87
h-451z" />
    <glyph glyph-name="three" unicode="3" horiz-adv-x="563" 
d="M60 509q4 33 18 62.5t39 55.5t66 41t94 15q101 0 154 -51t53 -124q0 -56 -26 -90.5t-62 -48.5v-2q50 -17 83 -58t33 -110q0 -41 -13 -77.5t-40 -67t-74 -48.5t-110 -18q-56 0 -100.5 16.5t-71.5 44.5t-42 60t-18 67h99q10 -46 44.5 -76.5t92.5 -30.5q65 0 97.5 37
t32.5 93q0 62 -35.5 93t-103.5 31h-50v81h43q63 0 92 24t29 76q0 44 -29 70.5t-81 26.5q-54 0 -80.5 -24.5t-36.5 -67.5h-97z" />
    <glyph glyph-name="four" unicode="4" horiz-adv-x="553" 
d="M349 0v168h-313v90l301 413h108v-418h85l-11 -85h-74v-168h-96zM349 413q0 95 3 161q-22 -43 -220 -321h217v160z" />
    <glyph glyph-name="five" unicode="5" horiz-adv-x="561" 
d="M481 585h-278q-5 -54 -28 -179q48 51 137 51q93 0 148 -60.5t55 -162.5q0 -51 -13.5 -94t-41 -78t-74 -54.5t-106.5 -19.5q-92 0 -153.5 48t-74.5 133h101q8 -30 24 -51.5t43.5 -35t63.5 -13.5q32 0 56.5 11.5t40.5 32t24 49.5t8 64q0 68 -30 107t-94 39q-55 0 -84 -20.5
t-48 -62.5l-93 16q27 120 56 366h376z" />
    <glyph glyph-name="six" unicode="6" horiz-adv-x="566" 
d="M403 521q-22 82 -108 82q-141 0 -146 -234q54 88 166 88q96 0 151.5 -62t55.5 -161q0 -106 -61 -176t-169 -70q-243 0 -243 338q0 58 7.5 108.5t26 97t46.5 79.5t71.5 52.5t99.5 19.5q49 0 88 -14.5t62 -39t36 -52t16 -56.5h-99zM291 71q64 0 96.5 44t32.5 110
q0 30 -6 55t-20 47t-40 34.5t-61 12.5q-62 0 -98 -38t-36 -109q0 -12 2 -25.5t6 -29t11 -29.5t17.5 -27.5t23.5 -23t31.5 -15.5t40.5 -6z" />
    <glyph glyph-name="seven" unicode="7" horiz-adv-x="488" 
d="M466 671v-80q-58 -79 -110 -178t-91 -208t-55 -205h-103q21 139 96.5 308t157.5 277h-341v86h446z" />
    <glyph glyph-name="eight" unicode="8" horiz-adv-x="569" 
d="M279 -12q-101 0 -167.5 55t-66.5 148q0 64 35 106.5t84 62.5q-91 47 -91 142q0 82 57 131.5t160 49.5q63 0 110.5 -22.5t72.5 -63t25 -93.5t-25 -88t-67 -51q49 -16 83 -62t34 -109q0 -96 -67 -151t-177 -55zM287 602q-59 0 -87.5 -26.5t-28.5 -74.5q0 -43 29.5 -71
t87.5 -28q112 0 112 97q0 45 -29 74t-84 29zM286 69q61 0 98 32.5t37 93.5q0 60 -36 91.5t-100 31.5q-68 0 -102.5 -34t-34.5 -89t37 -90.5t101 -35.5z" />
    <glyph glyph-name="nine" unicode="9" horiz-adv-x="557" 
d="M155 151q7 -20 16.5 -34.5t23 -25t32 -16t42.5 -5.5q26 0 46.5 10t34.5 24.5t24.5 37.5t16 43.5t9.5 48t5 45t2 39.5q-44 -75 -156 -75q-95 0 -151.5 60t-56.5 154q0 97 61.5 161.5t167.5 64.5q63 0 109 -23t73 -66t40 -98t13 -123q0 -384 -242 -384q-50 0 -89 13.5
t-63.5 37.5t-39 51.5t-20.5 59.5h102zM271 601q-62 0 -93.5 -39t-31.5 -101q0 -41 14.5 -71.5t42.5 -47.5t66 -17q129 0 129 132q0 15 -2.5 31t-10.5 37t-21 37t-37 27.5t-56 11.5z" />
    <glyph glyph-name="colon" unicode=":" horiz-adv-x="264" 
d="M81 365v152h103v-152h-103zM81 0v152h103v-152h-103z" />
    <glyph glyph-name="semicolon" unicode=";" horiz-adv-x="266" 
d="M84 361v156h105v-156h-105zM13 -117q66 139 73 273h102q-5 -76 -32.5 -151.5t-61.5 -121.5h-81z" />
    <glyph glyph-name="less" unicode="&#x3c;" horiz-adv-x="627" 
d="M84 327l460 246v-96l-363 -189l363 -196v-97l-460 251v81z" />
    <glyph glyph-name="equal" unicode="=" horiz-adv-x="727" 
d="M644 460v-88h-560v88h560zM644 205v-88h-560v88h560z" />
    <glyph glyph-name="greater" unicode="&#x3e;" horiz-adv-x="627" 
d="M544 241l-460 -246v97l363 190l-363 195v96l460 -250v-82z" />
    <glyph glyph-name="question" unicode="?" horiz-adv-x="513" 
d="M205 215v17q0 46 21 86.5t77 91.5q39 35 52.5 64.5t13.5 64.5q0 39 -25.5 69t-76.5 30q-97 0 -114 -113h-98q1 23 7.5 46.5t22 51t38.5 48t61 34.5t85 14q55 0 96 -17.5t63 -45.5t32.5 -58t10.5 -61q0 -22 -3 -40t-9.5 -36t-18 -35t-27.5 -35t-39 -39q-25 -22 -39 -42.5
t-20 -40.5t-6 -45v-9h-104zM205 0v146h104v-146h-104z" />
    <glyph glyph-name="at" unicode="@" horiz-adv-x="954" 
d="M712 -118q-92 -60 -249 -60q-176 0 -288 111.5t-112 297.5q0 129 54.5 231.5t156.5 161t235 58.5q79 0 148.5 -23.5t122.5 -67t84 -112.5t31 -154q0 -135 -64 -215t-167 -80q-46 0 -74 19t-31 57q-18 -25 -37.5 -41t-46 -25t-60.5 -9q-64 0 -104.5 45.5t-40.5 131.5
q0 115 61 194.5t149 79.5q53 0 82 -22t38 -53l16 65h90l-61 -283q-10 -48 -0.5 -65.5t38.5 -17.5q56 0 92 59.5t36 155.5q0 87 -38 152.5t-107 100.5t-160 35q-161 0 -258 -103.5t-97 -275.5q-1 -143 86.5 -237.5t230.5 -94.5q131 0 224 52zM493 408q-57 0 -92 -58t-35 -137
q0 -52 19.5 -79t55.5 -27q93 0 125 146q35 155 -73 155z" />
    <glyph glyph-name="A" unicode="A" horiz-adv-x="678" 
d="M195 203l-72 -203h-105l250 709h131l261 -709h-112l-75 203h-278zM448 293q-105 291 -116 332h-2q-9 -34 -109 -332h227z" />
    <glyph glyph-name="B" unicode="B" horiz-adv-x="665" 
d="M92 709h278q110 0 167 -50.5t57 -128.5q0 -58 -28.5 -98t-71.5 -56q20 -6 39.5 -18.5t39 -32.5t31.5 -50.5t12 -66.5q0 -96 -66.5 -152t-171.5 -56h-286v709zM353 417q135 0 135 104q0 46 -32.5 74t-90.5 28h-170v-206h158zM195 86h168q68 0 106.5 31t38.5 92
q0 38 -16 64.5t-52.5 42.5t-91.5 16h-153v-246z" />
    <glyph glyph-name="C" unicode="C" horiz-adv-x="704" 
d="M660 204q-24 -97 -96 -155t-190 -58q-78 0 -140 28t-101 77t-59.5 114.5t-20.5 141.5q0 74 20.5 139t60 116.5t102.5 81.5t142 30q123 0 194.5 -61t87.5 -156h-105q-20 61 -62 95.5t-119 34.5q-54 0 -96 -23t-66.5 -63t-36.5 -88t-12 -103q0 -42 7 -81t23.5 -75t40.5 -63
t61.5 -42.5t82.5 -15.5q74 0 114.5 34.5t62.5 91.5h105z" />
    <glyph glyph-name="D" unicode="D" horiz-adv-x="738" 
d="M92 709h258q151 0 243 -95t92 -252q0 -159 -92.5 -260.5t-246.5 -101.5h-254v709zM197 88h142q78 0 132 36t79 96t25 140q0 53 -13.5 98.5t-41 82.5t-74 58t-106.5 21h-143v-532z" />
    <glyph glyph-name="E" unicode="E" horiz-adv-x="613" 
d="M545 326h-350v-237h384l-13 -89h-474v709h469v-90h-366v-204h350v-89z" />
    <glyph glyph-name="F" unicode="F" horiz-adv-x="580" 
d="M92 709h462v-90h-359v-219h336v-89h-336v-311h-103v709z" />
    <glyph glyph-name="G" unicode="G" horiz-adv-x="747" 
d="M674 0h-79q-7 21 -11 91q-64 -101 -217 -101q-99 0 -171.5 47.5t-107.5 127t-35 182.5q0 107 37.5 190.5t114 132.5t182.5 49q81 0 144.5 -28.5t100.5 -77t46 -111.5h-105q-40 130 -188 130q-59 0 -102.5 -22t-69 -61.5t-38 -88.5t-12.5 -108q0 -55 12.5 -103t38 -87
t68.5 -61.5t99 -22.5q190 0 190 211v7h-191v90h294v-386z" />
    <glyph glyph-name="H" unicode="H" horiz-adv-x="746" 
d="M92 709h105v-293h353v293h105v-709h-105v327h-353v-327h-105v709z" />
    <glyph glyph-name="I" unicode="I" horiz-adv-x="288" 
d="M197 709v-709h-105v709h105z" />
    <glyph glyph-name="J" unicode="J" horiz-adv-x="381" 
d="M295 210q0 -118 -45.5 -169t-141.5 -51q-41 0 -78 7v87q26 -4 66 -4q30 0 49.5 9.5t28.5 29t12.5 39.5t3.5 48v503h105v-499z" />
    <glyph glyph-name="K" unicode="K" horiz-adv-x="658" 
d="M92 709h104v-342q6 7 137.5 141t194.5 201h130l-301 -299l315 -410h-127l-261 343l-88 -81v-262h-104v709z" />
    <glyph glyph-name="L" unicode="L" horiz-adv-x="577" 
d="M92 709h105v-620h366l-14 -89h-457v709z" />
    <glyph glyph-name="M" unicode="M" horiz-adv-x="888" 
d="M695 295q0 214 5 339h-4q-9 -34 -26 -87.5t-42.5 -126.5t-46 -132t-53.5 -151.5t-49 -136.5h-92q-9 28 -65.5 199.5t-89 276t-46.5 159.5h-4q8 -108 8 -358v-277h-98v709h157q150 -425 191 -580h1q12 51 76 230.5t129 349.5h152v-709h-103v295z" />
    <glyph glyph-name="N" unicode="N" horiz-adv-x="760" 
d="M92 0v709h136q22 -36 57.5 -94.5t68.5 -113t70.5 -116t66.5 -110.5t52.5 -89t32.5 -58h1q-6 75 -6 317v264h98v-709h-128q-298 496 -354 601h-2q6 -93 6 -331v-270h-99z" />
    <glyph glyph-name="O" unicode="O" horiz-adv-x="769" 
d="M389 719q149 0 238 -100t89 -261q0 -75 -21.5 -140.5t-62 -117t-105.5 -81t-147 -29.5q-102 0 -177.5 49t-112.5 130.5t-37 184.5t38.5 185t115.5 131t182 49zM385 630q-75 0 -126 -38t-73.5 -98t-22.5 -137t24 -139t75.5 -100.5t122.5 -38.5q46 0 83.5 14.5t63 40.5
t42.5 61.5t24.5 75.5t7.5 85q0 57 -13.5 106t-40 87t-69.5 59.5t-98 21.5z" />
    <glyph glyph-name="P" unicode="P" horiz-adv-x="645" 
d="M92 709h273q107 0 171.5 -56t64.5 -153q0 -69 -31.5 -118t-85.5 -72.5t-124 -23.5h-163v-286h-105v709zM197 373h156q46 0 77.5 14.5t47.5 42.5t16 68q0 60 -38 91.5t-100 31.5h-159v-248z" />
    <glyph glyph-name="Q" unicode="Q" horiz-adv-x="774" 
d="M389 719q149 0 238 -100t89 -261q0 -91 -31 -169t-91 -128l169 -118l-62 -73l-199 139q-57 -19 -122 -19q-102 0 -177.5 49t-112.5 130.5t-37 184.5t38.5 185t115.5 131t182 49zM385 630q-75 0 -126 -38t-73.5 -98t-22.5 -137t24 -139t75.5 -100.5t122.5 -38.5
q46 0 83.5 14.5t63 40.5t42.5 61.5t24.5 75.5t7.5 85q0 57 -13.5 106t-40 87t-69.5 59.5t-98 21.5z" />
    <glyph glyph-name="R" unicode="R" horiz-adv-x="658" 
d="M196 307v-307h-104v709h283q108 0 167 -53t59 -138q0 -66 -33 -109t-85 -58q105 -28 105 -181v-30q0 -112 10 -140h-102q-13 31 -13 154v13q0 77 -30.5 108.5t-120.5 31.5h-136zM196 394h149q77 0 112.5 28.5t35.5 86.5q0 54 -35.5 83t-103.5 29h-158v-227z" />
    <glyph glyph-name="S" unicode="S" horiz-adv-x="624" 
d="M147 199q30 -126 174 -126q75 0 111 30.5t36 82.5q0 53 -36 84t-136 54q-126 31 -177 77.5t-51 122.5q0 86 62 140.5t178 54.5q62 0 110.5 -16.5t77.5 -45t45 -61.5t20 -71h-107q-21 110 -149 110q-61 0 -95 -25.5t-34 -73.5q0 -47 34 -71.5t127 -47.5
q73 -18 122.5 -41.5t74 -52.5t34 -58t9.5 -67q0 -92 -67.5 -149.5t-195.5 -57.5q-65 0 -115.5 16.5t-82.5 45.5t-50.5 65.5t-24.5 80.5h106z" />
    <glyph glyph-name="T" unicode="T" horiz-adv-x="575" 
d="M235 619h-227v90h559v-90h-226v-619h-106v619z" />
    <glyph glyph-name="U" unicode="U" horiz-adv-x="731" 
d="M191 709v-426q0 -58 14.5 -100t40.5 -64t55.5 -31.5t64.5 -9.5q84 0 129.5 46.5t45.5 158.5v426h105v-420q0 -298 -282 -298q-59 0 -107.5 15t-88 47.5t-61.5 90.5t-22 139v426h106z" />
    <glyph glyph-name="V" unicode="V" horiz-adv-x="659" 
d="M264 0l-257 709h113l122 -349q66 -191 85 -270h2q15 61 89 267l127 352h108l-265 -709h-124z" />
    <glyph glyph-name="W" unicode="W" horiz-adv-x="957" 
d="M210 0l-189 709h113q20 -91 55 -237t55.5 -234.5t25.5 -124.5h1q11 54 74.5 287t82.5 309h101q135 -507 150 -592h1q8 45 29.5 129.5t42 161t46.5 170.5t35 131h103l-204 -709h-111q-13 50 -49.5 188.5t-62.5 239.5t-35 142h-1q-7 -38 -27.5 -117.5t-38.5 -144l-48 -172
t-38 -136.5h-111z" />
    <glyph glyph-name="X" unicode="X" horiz-adv-x="595" 
d="M477 0l-181 284h-1l-183 -284h-116l239 358l-231 351h122l173 -268h1l176 268h115l-234 -342l243 -367h-123z" />
    <glyph glyph-name="Y" unicode="Y" horiz-adv-x="607" 
d="M248 0v258q0 11 -5 19l-249 432h120q181 -331 192 -354q29 60 196 354h112l-256 -433q-4 -8 -4 -18v-258h-106z" />
    <glyph glyph-name="Z" unicode="Z" horiz-adv-x="613" 
d="M31 80l423 539h-403v90h524v-88l-415 -532h430l-15 -89h-544v80z" />
    <glyph glyph-name="bracketleft" unicode="[" horiz-adv-x="351" 
d="M86 -176v924h227v-79h-139v-766h139v-79h-227z" />
    <glyph glyph-name="backslash" unicode="\" horiz-adv-x="460" 
d="M44 719h88l284 -771h-88z" />
    <glyph glyph-name="bracketright" unicode="]" horiz-adv-x="351" 
d="M266 748v-924h-227v79h139v765h-139v80h227z" />
    <glyph glyph-name="asciicircum" unicode="^" horiz-adv-x="493" 
d="M375 317l-130 288l-127 -288h-82l172 365h79l171 -365h-83z" />
    <glyph glyph-name="underscore" unicode="_" horiz-adv-x="541" 
d="M542 -80v-52h-541v52h541z" />
    <glyph glyph-name="grave" unicode="`" 
d="M144 758l127 -155h-93l-158 155h124z" />
    <glyph glyph-name="a" unicode="a" horiz-adv-x="544" 
d="M469 117q0 -34 2.5 -69.5t4.5 -47.5h-95q-5 15 -9 64q-39 -76 -157 -76q-86 0 -130.5 47t-44.5 112q0 57 29.5 95.5t84 56.5t132.5 18h85v42q0 19 -4 34t-14 30t-32 23.5t-55 8.5q-55 0 -76 -21t-29 -59h-97q3 31 14.5 57t34 49.5t62.5 37t94 12.5q200 0 200 -171v-243z
M372 250h-79q-76 0 -113.5 -23.5t-37.5 -73.5q0 -39 25.5 -64t70.5 -25q34 0 59 9.5t39.5 24.5t22.5 38t10.5 45.5t2.5 52.5v16z" />
    <glyph glyph-name="b" unicode="b" horiz-adv-x="587" 
d="M74 748h100v-299q47 82 163 82q97 0 154.5 -72.5t57.5 -188.5q0 -122 -59.5 -202t-166.5 -80q-59 0 -93.5 19.5t-56.5 57.5q0 -36 -4 -65h-96q1 58 1 173v575zM447 268q0 82 -35.5 131t-100.5 49q-75 0 -108.5 -48.5t-33.5 -141.5q0 -187 139 -187q65 0 102 53t37 144z
" />
    <glyph glyph-name="c" unicode="c" horiz-adv-x="522" 
d="M492 160q-9 -35 -24.5 -64.5t-41 -54.5t-64.5 -39t-89 -14q-72 0 -125 33t-80.5 93.5t-27.5 142.5q0 56 16 105.5t45.5 87t76 59.5t102.5 22q55 0 97 -17.5t65 -46t35 -56.5t15 -55h-99q-21 93 -115 93q-64 0 -99.5 -51t-35.5 -138q0 -88 35 -139.5t97 -51.5q87 0 118 91
h99z" />
    <glyph glyph-name="d" unicode="d" horiz-adv-x="588" 
d="M515 748v-602q0 -96 1 -146h-97q-4 29 -4 70q-40 -82 -160 -82q-99 0 -157.5 73t-58.5 193q0 122 63 199.5t170 77.5q60 0 95 -18.5t48 -44.5v280h100zM143 257q0 -59 17.5 -101.5t47.5 -63.5t69 -21q43 0 71.5 15t43.5 43.5t20.5 60.5t5.5 76q0 36 -3 62t-11.5 49.5
t-23.5 38.5t-38.5 23.5t-56.5 8.5q-67 0 -104.5 -50t-37.5 -141z" />
    <glyph glyph-name="e" unicode="e" horiz-adv-x="539" 
d="M140 241q1 -76 36.5 -123.5t97.5 -47.5q53 0 78.5 20.5t40.5 55.5h101q-9 -29 -23.5 -53.5t-39.5 -50t-66.5 -40t-93.5 -14.5q-47 0 -86.5 14.5t-66 40t-45 59.5t-26.5 72.5t-8 79.5q0 123 61.5 200t176.5 77q49 0 88.5 -14.5t64.5 -39t42 -57.5t24 -66.5t7 -69.5
q0 -29 -2 -43h-361zM402 309q-1 64 -33 104.5t-93 40.5q-119 0 -133 -145h259z" />
    <glyph glyph-name="f" unicode="f" horiz-adv-x="296" 
d="M91 0v440h-82v79h82v59q0 81 36.5 130.5t117.5 49.5q41 0 59 -6v-84q-15 4 -43 4q-26 0 -41 -10t-22 -32t-7 -59v-52h102v-79h-102v-440h-100z" />
    <glyph glyph-name="g" unicode="g" horiz-adv-x="584" 
d="M511 50q0 -129 -57.5 -196t-185.5 -67q-58 0 -101 15t-66.5 40t-35 50.5t-15.5 54.5h102q22 -83 121 -83q42 0 70 12.5t43 38.5t21 58.5t6 78.5v39q-44 -88 -159 -88q-97 0 -156 71.5t-59 184.5q0 123 64 197.5t161 74.5q66 0 102.5 -23.5t46.5 -54.5q2 47 4 66h95
q0 -14 -0.5 -68.5t-0.5 -81.5v-319zM143 263q0 -79 37 -127t98 -48q77 0 107.5 46t30.5 135q0 90 -29 134.5t-105 44.5q-67 0 -103 -50.5t-36 -134.5z" />
    <glyph glyph-name="h" unicode="h" horiz-adv-x="583" 
d="M174 748v-302q51 85 160 85q34 0 64 -10t55.5 -32t40.5 -62.5t15 -94.5v-332h-100v315q0 132 -107 132q-128 0 -128 -164v-283h-100v748h100z" />
    <glyph glyph-name="i" unicode="i" horiz-adv-x="248" 
d="M74 632v116h100v-116h-100zM74 519h100v-519h-100v519z" />
    <glyph glyph-name="j" unicode="j" horiz-adv-x="248" 
d="M74 632v116h100v-116h-100zM174 519v-530q0 -56 -6.5 -93t-24 -62t-46.5 -36t-74 -11q-18 0 -36 2v83q6 -1 18 -1q42 0 55.5 22t13.5 77v549h100z" />
    <glyph glyph-name="k" unicode="k" horiz-adv-x="525" 
d="M174 277q25 30 112 125t107 117h118l-193 -201l214 -318h-116l-166 254l-76 -73v-181h-100v748h100v-471z" />
    <glyph glyph-name="l" unicode="l" horiz-adv-x="248" 
d="M74 0v748h100v-748h-100z" />
    <glyph glyph-name="m" unicode="m" horiz-adv-x="868" 
d="M74 386q0 90 -1 133h96q4 -30 4 -76q49 88 150 88q36 0 65 -11.5t48 -31.5t29 -46q54 89 164 89q71 0 118 -46t47 -144v-341h-98v329q0 50 -23 84t-75 34q-58 0 -86.5 -39.5t-28.5 -109.5v-298h-97v325q0 122 -96 122q-58 0 -87.5 -42.5t-29.5 -116.5v-288h-99v386z" />
    <glyph glyph-name="n" unicode="n" horiz-adv-x="582" 
d="M74 389q0 90 -1 130h98q4 -30 4 -81q43 93 161 93q78 0 125.5 -49.5t47.5 -147.5v-334h-100v321q0 126 -105 126q-44 0 -73.5 -21.5t-42.5 -58.5t-13 -90v-277h-101v389z" />
    <glyph glyph-name="o" unicode="o" horiz-adv-x="566" 
d="M287 531q109 0 174.5 -74t65.5 -196q0 -119 -65 -196t-182 -77q-73 0 -128.5 35t-84 96.5t-28.5 139.5q0 119 66 195.5t182 76.5zM282.5 449q-67.5 0 -104 -50t-36.5 -139q0 -85 38.5 -137.5t104.5 -52.5t103 51t37 138q0 88 -37.5 139t-105 51z" />
    <glyph glyph-name="p" unicode="p" horiz-adv-x="586" 
d="M74 -203v596q0 85 -1 126h97q4 -32 4 -78q49 90 166 90q60 0 107 -31t74 -90t27 -137q0 -134 -64.5 -209.5t-162.5 -75.5q-105 0 -147 72v-263h-100zM445 269q0 82 -35 130.5t-98 48.5q-75 0 -109 -47t-34 -141q0 -62 12.5 -102t43 -63.5t80.5 -23.5q68 0 104 52t36 146z
" />
    <glyph glyph-name="q" unicode="q" horiz-adv-x="586" 
d="M415 71q-43 -83 -160 -83q-93 0 -154.5 70t-61.5 196t65.5 201.5t162.5 75.5q64 0 100.5 -22t47.5 -52q0 23 4 62h95q-1 -52 -1 -143v-579h-98v274zM143 258q0 -39 8 -72.5t24.5 -59t43 -40.5t60.5 -15q77 0 107.5 48.5t30.5 142.5t-29 140t-105 46q-68 0 -104 -52
t-36 -138z" />
    <glyph glyph-name="r" unicode="r" horiz-adv-x="367" 
d="M74 378q0 39 -0.5 85t-0.5 56h98q3 -21 3 -103q21 53 65.5 83.5t108.5 31.5v-99q-84 -1 -129 -45t-45 -140v-247h-100v378z" />
    <glyph glyph-name="s" unicode="s" horiz-adv-x="490" 
d="M131 150q20 -85 121 -85q99 0 99 74q0 23 -10 38.5t-35 27.5t-72 23q-75 18 -116 41.5t-54 49.5t-13 65q0 61 48 104t144 43q40 0 73 -8.5t55 -23.5t37.5 -35t23.5 -40.5t10 -43.5h-96q-18 76 -107 76q-47 0 -68 -18.5t-21 -45.5q0 -29 22.5 -44.5t90.5 -32.5
q30 -7 54.5 -15t43.5 -16.5t33.5 -18t24.5 -20t17 -21.5t11 -24t5.5 -25.5t1.5 -27.5q0 -71 -54 -115t-152 -44q-99 0 -153 44t-64 118h100z" />
    <glyph glyph-name="t" unicode="t" horiz-adv-x="333" 
d="M11 519h88v151h100v-151h112v-79h-112v-295q0 -39 12.5 -56t45.5 -17q30 0 43 4v-74q-27 -9 -81 -9q-63 0 -91.5 32t-28.5 99v316h-88v79z" />
    <glyph glyph-name="u" unicode="u" horiz-adv-x="573" 
d="M499 151q0 -27 0.5 -81.5t0.5 -69.5h-98q-3 20 -3 74q-41 -86 -154 -86q-76 0 -124.5 45t-48.5 145v341h100v-319q0 -127 102 -127q68 0 96.5 40.5t28.5 134.5v271h100v-368z" />
    <glyph glyph-name="v" unicode="v" horiz-adv-x="500" 
d="M118 519q110 -338 131 -427h1q2 10 5.5 23.5t9 32t11 36t14 44.5t15.5 47.5t19 55t19.5 57.5t22 64.5t23.5 66.5h101l-190 -519h-108l-181 519h107z" />
    <glyph glyph-name="w" unicode="w" horiz-adv-x="789" 
d="M130 519q95 -370 105 -427h1q16 79 114 427h97q100 -374 108 -418h1q20 89 109 418h101l-159 -519h-108q-17 67 -44.5 170t-41.5 159t-19 82h-1q-8 -51 -108 -411h-112l-150 519h107z" />
    <glyph glyph-name="x" unicode="x" horiz-adv-x="470" 
d="M118 519q110 -177 117 -187h1q6 9 46 72.5t74 114.5h112l-174 -249l175 -270h-115q-95 156 -120 199h-1q-5 -8 -23.5 -38.5t-44 -73t-53.5 -87.5h-111l171 258l-167 261h113z" />
    <glyph glyph-name="y" unicode="y" horiz-adv-x="497" 
d="M117 519q119 -353 138 -429h1q25 94 132 429h101l-185 -541q-39 -114 -79.5 -152.5t-122.5 -38.5q-26 0 -58 3v86q20 -4 42 -4q46 0 70.5 23.5t46.5 85.5l-194 538h108z" />
    <glyph glyph-name="z" unicode="z" horiz-adv-x="468" 
d="M27 80l290 357h-276v82h390v-82l-286 -354h301l-15 -83h-404v80z" />
    <glyph glyph-name="braceleft" unicode="{" horiz-adv-x="380" 
d="M28 327q67 0 89 27.5t22 85.5v128q0 45 13 79.5t37 56t56.5 33t71.5 11.5h24v-75h-16q-33 0 -54 -13t-30 -37t-9 -60v-122q0 -134 -102 -153q27 -6 46.5 -18.5t31.5 -32t18 -45.5t6 -59v-122q0 -27 6.5 -49t19 -36t30 -21.5t39.5 -7.5h14v-74h-24q-35 0 -66 9.5t-57 30
t-40.5 56.5t-14.5 83v132q0 27 -3.5 44.5t-14.5 34t-34 24.5t-59 9v81z" />
    <glyph glyph-name="bar" unicode="|" horiz-adv-x="295" 
d="M193 797v-1064h-90v1064h90z" />
    <glyph glyph-name="braceright" unicode="}" horiz-adv-x="380" 
d="M341 244q-68 0 -89.5 -27.5t-21.5 -85.5v-129q0 -88 -49 -133.5t-130 -45.5h-23v74h15q49 0 71.5 28t22.5 82v123q0 134 102 153q-54 12 -78 49.5t-24 105.5v122q0 54 -25.5 83.5t-70.5 29.5h-13v75h23q36 0 66.5 -10t56.5 -30.5t41 -56t15 -82.5v-132q0 -28 3.5 -45.5
t14 -34t34 -24.5t59.5 -8v-81z" />
    <glyph glyph-name="asciitilde" unicode="~" horiz-adv-x="687" 
d="M89 205v33q-2 71 31.5 103.5t86.5 32.5q35 0 76.5 -14t72.5 -31.5t64.5 -31.5t54.5 -14q18 0 28.5 7t15.5 22t5 40v18h76v-22q0 -147 -119 -147q-41 0 -93.5 22.5t-99.5 45.5t-74 23q-50 0 -50 -67v-20h-75z" />
    <glyph glyph-name="uni00A0" unicode="&#xa0;" horiz-adv-x="256" 
 />
    <glyph glyph-name="exclamdown" unicode="&#xa1;" horiz-adv-x="260" 
d="M165 519v-146h-100v146h100zM155 276l13 -341v-125h-108v125l12 341h83z" />
    <glyph glyph-name="cent" unicode="&#xa2;" horiz-adv-x="547" 
d="M511 237q-13 -65 -63.5 -108t-129.5 -50v-92h-61v93q-95 10 -151 78t-56 174q0 100 55 171t152 82v72h61v-71q40 -2 73 -14.5t54 -29.5t35.5 -38t21.5 -39.5t9 -36.5h-99q-21 68 -94 77v-345q25 3 43.5 13t30.5 25.5t20 38.5h99zM152 335q0 -68 27 -115t78 -59v343
q-105 -21 -105 -169z" />
    <glyph glyph-name="sterling" unicode="&#xa3;" horiz-adv-x="530" 
d="M36 0v81q42 22 59.5 70.5t17.5 127.5v25h-91v77h87q-2 45 -2 78q0 102 48.5 162.5t145.5 60.5q49 0 86 -15.5t57.5 -42t31.5 -54t14 -58.5h-97q-16 87 -94 87q-50 0 -70.5 -33t-20.5 -98q0 -34 2 -87h151v-77h-149v-17q0 -136 -52 -199h352l-13 -88h-463z" />
    <glyph glyph-name="currency" unicode="&#xa4;" horiz-adv-x="552" 
d="M278 568q70 0 122 -38l70 73l56 -59l-72 -75q28 -49 28 -115q0 -65 -28 -119l72 -75l-56 -59l-70 71q-53 -37 -123 -37q-68 0 -121 38l-68 -72l-56 59l71 73q-30 54 -30 119t31 118l-72 74l56 59l70 -73q50 37 120 38zM277 491q-57 0 -88.5 -38t-31.5 -100q0 -70 35 -106
t85 -36q55 0 87.5 34.5t32.5 107.5q0 62 -31 100t-89 38z" />
    <glyph glyph-name="yen" unicode="&#xa5;" horiz-adv-x="494" 
d="M294 165v-165h-100v165h-133v67h133v63h-133v66h117l-182 310h113q129 -232 140 -263h1q12 27 142 263h105l-187 -310h118v-66h-134v-63h134v-67h-134z" />
    <glyph glyph-name="brokenbar" unicode="&#xa6;" horiz-adv-x="242" 
d="M167 703v-363h-84v363h84zM167 183v-366h-84v366h84z" />
    <glyph glyph-name="section" unicode="&#xa7;" horiz-adv-x="578" 
d="M400 543q-23 81 -114 81q-52 0 -76.5 -22t-24.5 -59q0 -17 6.5 -31t15.5 -23t30.5 -20.5t37 -18t49.5 -19.5q4 -2 5 -3q103 -41 148.5 -88t45.5 -120q0 -91 -75 -150q40 -36 40 -106q0 -80 -57 -126.5t-156 -46.5q-100 0 -158.5 44.5t-69.5 124.5h99q10 -41 42.5 -66.5
t89.5 -25.5q113 0 113 88q0 42 -30.5 67.5t-123.5 58.5q-109 39 -152 83.5t-43 114.5q0 46 24.5 86t64.5 64q-41 38 -41 102q0 74 52.5 121.5t148.5 47.5q55 0 96 -16t62.5 -41.5t32.5 -50.5t13 -50h-95zM134 296q0 -39 24 -66t98 -55q96 -35 132 -58q12 10 21.5 24
t14.5 30.5t5 33.5q0 22 -5 39t-19 33t-38 30.5t-61 31.5q-67 27 -114 51q-58 -38 -58 -94z" />
    <glyph glyph-name="dieresis" unicode="&#xa8;" 
d="M66 632v116h86v-116h-86zM256 632v116h85v-116h-85z" />
    <glyph glyph-name="copyright" unicode="&#xa9;" horiz-adv-x="804" 
d="M399 718q150 0 249 -102.5t99 -260.5t-99.5 -261.5t-248.5 -103.5q-154 0 -252.5 101t-98.5 264q0 156 100.5 259.5t250.5 103.5zM398 663q-126 0 -208 -84t-82 -227q0 -132 83 -219t207 -87q126 0 207 84t81 225q0 134 -81.5 221t-206.5 87zM571 286q-15 -63 -57.5 -99
t-110.5 -36q-82 0 -133.5 57t-51.5 147q0 89 51 148t135 59q76 0 118.5 -40.5t49.5 -95.5h-70q-20 75 -98 75q-50 0 -81 -37.5t-31 -105.5q0 -67 31 -105.5t81 -38.5q73 0 98 71z" />
    <glyph glyph-name="ordfeminine" unicode="&#xaa;" horiz-adv-x="364" 
d="M316 344q0 -40 2 -79h-73q-1 6 -1.5 14t-1 17.5t-0.5 13.5q-30 -49 -103 -49q-37 0 -64 14.5t-40 38t-13 52.5q0 56 41 83.5t114 27.5h62v25q0 58 -63 58q-30 0 -44.5 -13t-18.5 -38h-75q12 105 142 105q136 0 136 -116v-154zM242 425h-58q-83 0 -83 -51q0 -23 15 -37.5
t46 -14.5q40 0 60 25.5t20 68.5v9z" />
    <glyph glyph-name="guillemotleft" unicode="&#xab;" horiz-adv-x="568" 
d="M153 265l153 -200h-93l-156 200l156 198h92zM356 265l155 -200h-95l-155 200l155 198h94z" />
    <glyph glyph-name="logicalnot" unicode="&#xac;" horiz-adv-x="727" 
d="M638 416v-332h-89v244h-471v88h560z" />
    <glyph glyph-name="uni00AD" unicode="&#xad;" horiz-adv-x="386" 
d="M328 306v-90h-270v90h270z" />
    <glyph glyph-name="registered" unicode="&#xae;" horiz-adv-x="359" 
d="M189 719q74 0 120.5 -50.5t46.5 -122.5q0 -75 -46.5 -125t-120.5 -50q-72 0 -120.5 50t-48.5 125q0 73 47.5 123t121.5 50zM189 683q-61 0 -95.5 -40t-34.5 -98q0 -57 37 -97t93 -40q41 0 70 17.5t43 48t14 71.5q0 59 -35.5 98.5t-91.5 39.5zM120 463v170h75
q30 0 49 -11.5t19 -37.5q0 -15 -8.5 -25.5t-19.5 -13.5q23 -9 23 -45q0 -25 2 -37h-43q-4 12 -4 36q0 8 -1 13.5t-4 9t-8.5 5t-13.5 1.5h-23v-65h-43zM164 560h27q26 0 26 22q0 21 -26 21h-27v-43z" />
    <glyph glyph-name="macron" unicode="&#xaf;" 
d="M348 715v-79h-288v79h288z" />
    <glyph glyph-name="degree" unicode="&#xb0;" horiz-adv-x="334" 
d="M171 698q63 0 101.5 -40t38.5 -98q0 -63 -41 -102.5t-101 -39.5q-61 0 -99 39t-38 99q0 61 40 101.5t99 40.5zM170 646q-36 0 -56.5 -25.5t-20.5 -63.5q0 -37 21.5 -61.5t55.5 -24.5q37 0 58.5 24.5t21.5 63.5q0 22 -8.5 41t-27 32.5t-44.5 13.5z" />
    <glyph glyph-name="plusminus" unicode="&#xb1;" horiz-adv-x="727" 
d="M405 685v-225h239v-80h-239v-228h-82v228h-239v80h239v225h82zM84 0v81h561v-81h-561z" />
    <glyph glyph-name="two.sups" unicode="&#xb2;" horiz-adv-x="372" 
d="M38 438v5q0 37 13 69.5t42 63t75 58.5q52 31 67.5 47t15.5 40q0 28 -16.5 44.5t-48.5 16.5q-63 0 -75 -70l-76 1q5 60 46.5 97.5t107.5 37.5q39 0 68.5 -12t45 -31t23.5 -39.5t8 -41.5q0 -46 -24 -73t-84 -60q-80 -49 -94 -89h219l-12 -64h-301z" />
    <glyph glyph-name="three.sups" unicode="&#xb3;" horiz-adv-x="382" 
d="M151 684h33q66 0 66 47q0 23 -16 38.5t-50 15.5q-35 0 -51 -15.5t-23 -40.5h-73q2 17 9 35t23 38t46.5 32.5t71.5 12.5q69 0 105.5 -31.5t36.5 -80.5q0 -21 -9.5 -38.5t-21.5 -27t-27 -14.5q31 -9 53.5 -34t22.5 -63q0 -52 -38.5 -89t-119.5 -37q-45 0 -78 13.5
t-49.5 34.5t-24 39.5t-8.5 36.5h76q4 -17 14.5 -31t29 -22.5t41.5 -8.5q35 0 54.5 17t19.5 46q0 60 -75 60h-38v67z" />
    <glyph glyph-name="acute" unicode="&#xb4;" 
d="M389 758l-158 -155h-93l128 155h123z" />
    <glyph glyph-name="uni00B5" unicode="&#xb5;" horiz-adv-x="569" 
d="M254 -10q-55 0 -88 40q3 -83 5 -238h-99q1 30 1 105.5t-0.5 167.5t-0.5 113v341h100v-320q0 -26 4 -46.5t14.5 -39t31 -29t49.5 -10.5q58 0 91.5 39.5t33.5 122.5v283h100v-368q0 -125 2 -151h-97q-5 28 -5 78q-21 -44 -54 -66t-88 -22z" />
    <glyph glyph-name="paragraph" unicode="&#xb6;" horiz-adv-x="620" 
d="M417 -159v299h-126q-120 -1 -183 67t-63 191q0 119 62.5 187.5t180.5 68.5h129q3 50 4 58h74q-1 -19 -1 -82v-789h-77zM416 220v358h-47q-23 0 -40 -9.5t-26 -24t-14.5 -39.5t-7 -46t-2.5 -54v-5q0 -28 0.5 -43t3 -40t8 -39t15 -29t25.5 -22t37 -7h48z" />
    <glyph glyph-name="periodcentered" unicode="&#xb7;" horiz-adv-x="216" 
d="M55 204v156h106v-156h-106z" />
    <glyph glyph-name="cedilla" unicode="&#xb8;" 
d="M256 0l-42 -51q97 -19 97 -96q0 -29 -12 -50t-32.5 -31.5t-41 -15t-43.5 -4.5q-48 0 -75 12v65q27 -11 64 -11q53 0 53 34q0 42 -102 44v30l66 84z" />
    <glyph glyph-name="one.sups" unicode="&#xb9;" horiz-adv-x="257" 
d="M106 437v312q-14 -8 -41 -13.5t-42 -5.5v62q64 10 110 56h55v-411h-82z" />
    <glyph glyph-name="ordmasculine" unicode="&#xba;" horiz-adv-x="389" 
d="M197 614q76 0 120.5 -48t44.5 -128q-1 -85 -48 -131t-122 -46q-73 0 -118.5 48t-45.5 128q0 81 47 129t122 48zM194 555q-42 0 -65 -31t-23 -86q0 -53 24 -85.5t64 -32.5q29 0 48.5 13t30.5 39.5t11 65.5q-2 55 -24.5 86t-65.5 31z" />
    <glyph glyph-name="guillemotright" unicode="&#xbb;" horiz-adv-x="568" 
d="M212 263l-155 200h95l154 -200l-154 -198h-95zM415 263l-153 200h93l156 -200l-156 -198h-93z" />
    <glyph glyph-name="onequarter" unicode="&#xbc;" horiz-adv-x="802" 
d="M116 266v312q-14 -7 -40.5 -12.5t-41.5 -5.5v61q63 11 109 56h55v-411h-82zM113 1l438 671h75l-436 -671h-77zM636 0v103h-200v61l180 239h96v-239h61l-6 -61h-55v-103h-76zM636 164v78q0 60 4 97q-8 -12 -30.5 -43.5t-52.5 -71.5t-44 -60h123z" />
    <glyph glyph-name="onehalf" unicode="&#xbd;" horiz-adv-x="837" 
d="M119 266v312q-14 -7 -40.5 -12.5t-41.5 -5.5v61q63 11 109 56h55v-411h-82zM111 0l438 671h75l-436 -671h-77zM493 0v5q0 56 31 103t99 89q36 21 52 33t23.5 24.5t7.5 29.5q0 27 -17 44t-48 17q-63 0 -75 -71l-76 1q5 61 46.5 98t107.5 37q38 0 67.5 -12t45.5 -31
t23.5 -39.5t7.5 -40.5q0 -47 -23.5 -73.5t-83.5 -60.5q-80 -48 -95 -89h220l-12 -64h-301z" />
    <glyph glyph-name="threequarters" unicode="&#xbe;" horiz-adv-x="888" 
d="M165 514h33q66 0 66 47q0 23 -16 38.5t-50 15.5q-24 0 -40.5 -9.5t-22.5 -20t-11 -26.5h-73q2 17 9.5 34.5t23 37.5t46 32.5t71.5 12.5q69 0 106 -31t37 -80q0 -31 -17.5 -51.5t-40.5 -29.5q30 -8 52.5 -33t22.5 -63q0 -52 -38.5 -89t-119.5 -37q-36 0 -65 9.5
t-45.5 22.5t-28 31t-16 32.5t-5.5 28.5h76q6 -27 28.5 -45t56.5 -18q36 0 55 17.5t19 46.5q0 60 -75 60h-38v67zM224 1l438 671h75l-436 -671h-77zM728 0v103h-201v61l181 239h96v-239h61l-6 -61h-55v-103h-76zM728 164v78q0 60 3 97q-7 -12 -29.5 -43.5t-52.5 -71.5
t-44 -60h123z" />
    <glyph glyph-name="questiondown" unicode="&#xbf;" horiz-adv-x="462" 
d="M290 519v-146h-104v146h104zM23 -19q0 54 21.5 96.5t74.5 90.5q37 34 52 62t15 64v9h104v-17q0 -45 -21 -84.5t-77 -91.5q-41 -37 -55.5 -66t-14.5 -62q0 -41 28 -71t78 -30q107 0 122 118h90q-1 -23 -5.5 -44.5t-14 -44.5t-26.5 -42.5t-40 -34.5t-56.5 -24t-74.5 -9
q-50 0 -89.5 15.5t-63 41.5t-35.5 57.5t-12 66.5z" />
    <glyph glyph-name="Agrave" unicode="&#xc0;" horiz-adv-x="678" 
d="M250 912l137 -141h-99l-169 141h131zM195 203l-72 -203h-105l250 709h131l261 -709h-112l-75 203h-278zM448 293q-105 291 -116 332h-2q-9 -34 -109 -332h227z" />
    <glyph glyph-name="Aacute" unicode="&#xc1;" horiz-adv-x="678" 
d="M557 912l-177 -141h-101l148 141h130zM195 203l-72 -203h-105l250 709h131l261 -709h-112l-75 203h-278zM448 293q-105 291 -116 332h-2q-9 -34 -109 -332h227z" />
    <glyph glyph-name="Acircumflex" unicode="&#xc2;" horiz-adv-x="678" 
d="M388 906l132 -135h-102l-82 82l-87 -82h-102l138 135h103zM195 203l-72 -203h-105l250 709h131l261 -709h-112l-75 203h-278zM448 293q-105 291 -116 332h-2q-9 -34 -109 -332h227z" />
    <glyph glyph-name="Atilde" unicode="&#xc3;" horiz-adv-x="678" 
d="M158 779v26q0 54 23 77.5t66 23.5q35 0 91.5 -26t71.5 -26q31 0 31 43v10h68v-22q0 -40 -11 -64.5t-30 -34.5t-49 -10q-31 0 -87.5 26.5t-74.5 26.5q-29 0 -29 -32v-18h-70zM195 203l-72 -203h-105l250 709h131l261 -709h-112l-75 203h-278zM448 293q-105 291 -116 332
h-2q-9 -34 -109 -332h227z" />
    <glyph glyph-name="Adieresis" unicode="&#xc4;" horiz-adv-x="678" 
d="M191 783v116h85v-116h-85zM392 783v116h84v-116h-84zM195 203l-72 -203h-105l250 709h131l261 -709h-112l-75 203h-278zM448 293q-105 291 -116 332h-2q-9 -34 -109 -332h227z" />
    <glyph glyph-name="Aring" unicode="&#xc5;" horiz-adv-x="678" 
d="M334 747q-51 0 -81.5 28t-30.5 72q0 43 30 72t82 29q50 0 80.5 -28.5t30.5 -71.5q0 -44 -31 -72.5t-80 -28.5zM334 796q24 0 38 14.5t14 36t-13.5 37.5t-38.5 16q-26 0 -39 -15t-13 -36q0 -22 13 -37.5t39 -15.5zM195 203l-72 -203h-105l250 709h131l261 -709h-112
l-75 203h-278zM448 293q-105 291 -116 332h-2q-9 -34 -109 -332h227z" />
    <glyph glyph-name="AE" unicode="&#xc6;" horiz-adv-x="991" 
d="M939 709v-91h-366v-202h350v-90h-350v-236h385l-13 -90h-475v234h-236l-144 -234h-113l436 709h526zM470 323v304h-3l-184 -304h187z" />
    <glyph glyph-name="Ccedilla" unicode="&#xc7;" horiz-adv-x="704" 
d="M660 204q-22 -87 -82.5 -143t-157.5 -68l-36 -44q96 -19 96 -96q0 -24 -8 -42t-21 -29t-31 -18t-34.5 -9.5t-34.5 -2.5q-48 0 -75 12v65q28 -11 65 -11q53 0 53 34q0 42 -102 44v30l51 66q-94 7 -160.5 57.5t-98 128t-31.5 174.5q0 74 20.5 139t60 116.5t102.5 81.5
t142 30q123 0 194.5 -61t87.5 -156h-105q-20 61 -62 95.5t-119 34.5q-54 0 -96 -23t-66.5 -63t-36.5 -88t-12 -103q0 -42 7 -81t23.5 -75t40.5 -63t61.5 -42.5t82.5 -15.5q74 0 114.5 34.5t62.5 91.5h105z" />
    <glyph glyph-name="Egrave" unicode="&#xc8;" horiz-adv-x="613" 
d="M257 921l137 -141h-99l-169 141h131zM545 326h-350v-237h384l-13 -89h-474v709h469v-90h-366v-204h350v-89z" />
    <glyph glyph-name="Eacute" unicode="&#xc9;" horiz-adv-x="613" 
d="M542 919l-177 -141h-101l148 141h130zM545 326h-350v-237h384l-13 -89h-474v709h469v-90h-366v-204h350v-89z" />
    <glyph glyph-name="Ecircumflex" unicode="&#xca;" horiz-adv-x="613" 
d="M380 911l133 -135h-102l-83 82l-86 -82h-102l137 135h103zM545 326h-350v-237h384l-13 -89h-474v709h469v-90h-366v-204h350v-89z" />
    <glyph glyph-name="Edieresis" unicode="&#xcb;" horiz-adv-x="613" 
d="M185 787v116h85v-116h-85zM386 787v116h84v-116h-84zM545 326h-350v-237h384l-13 -89h-474v709h469v-90h-366v-204h350v-89z" />
    <glyph glyph-name="Igrave" unicode="&#xcc;" horiz-adv-x="288" 
d="M62 915l137 -141h-99l-168 141h130zM197 709v-709h-105v709h105z" />
    <glyph glyph-name="Iacute" unicode="&#xcd;" horiz-adv-x="288" 
d="M368 912l-176 -141h-101l148 141h129zM197 709v-709h-105v709h105z" />
    <glyph glyph-name="Icircumflex" unicode="&#xce;" horiz-adv-x="288" 
d="M198 906l132 -135h-102l-82 82l-87 -82h-102l138 135h103zM197 709v-709h-105v709h105z" />
    <glyph glyph-name="Idieresis" unicode="&#xcf;" horiz-adv-x="288" 
d="M1 783v116h86v-116h-86zM202 783v116h85v-116h-85zM197 709v-709h-105v709h105z" />
    <glyph glyph-name="Eth" unicode="&#xd0;" horiz-adv-x="747" 
d="M102 403v306h258q151 0 243.5 -95t92.5 -252q0 -159 -93 -260.5t-247 -101.5h-254v325h-84v78h84zM207 403h177v-78h-177v-237h142q78 0 132 36t79 96t25 140q0 53 -13.5 98.5t-41 82.5t-74 58t-106.5 21h-143v-217z" />
    <glyph glyph-name="Ntilde" unicode="&#xd1;" horiz-adv-x="760" 
d="M205 779v26q0 28 6 47.5t18 31t28 17t37 5.5q35 0 91.5 -26t71.5 -26q31 0 31 43v10h68v-22q0 -59 -22.5 -84t-67.5 -25q-31 0 -87.5 26.5t-74.5 26.5q-29 0 -29 -32v-18h-70zM92 0v709h136q22 -36 57.5 -94.5t68.5 -113t70.5 -116t66.5 -110.5t52.5 -89t32.5 -58h1
q-6 75 -6 317v264h98v-709h-128q-298 496 -354 601h-2q6 -93 6 -331v-270h-99z" />
    <glyph glyph-name="Ograve" unicode="&#xd2;" horiz-adv-x="769" 
d="M313 925l137 -141h-99l-168 141h130zM389 719q149 0 238 -100t89 -261q0 -75 -21.5 -140.5t-62 -117t-105.5 -81t-147 -29.5q-102 0 -177.5 49t-112.5 130.5t-37 184.5t38.5 185t115.5 131t182 49zM385 630q-75 0 -126 -38t-73.5 -98t-22.5 -137t24 -139t75.5 -100.5
t122.5 -38.5q46 0 83.5 14.5t63 40.5t42.5 61.5t24.5 75.5t7.5 85q0 57 -13.5 106t-40 87t-69.5 59.5t-98 21.5z" />
    <glyph glyph-name="Oacute" unicode="&#xd3;" horiz-adv-x="769" 
d="M602 919l-177 -141h-101l148 141h130zM389 719q149 0 238 -100t89 -261q0 -75 -21.5 -140.5t-62 -117t-105.5 -81t-147 -29.5q-102 0 -177.5 49t-112.5 130.5t-37 184.5t38.5 185t115.5 131t182 49zM385 630q-75 0 -126 -38t-73.5 -98t-22.5 -137t24 -139t75.5 -100.5
t122.5 -38.5q46 0 83.5 14.5t63 40.5t42.5 61.5t24.5 75.5t7.5 85q0 57 -13.5 106t-40 87t-69.5 59.5t-98 21.5z" />
    <glyph glyph-name="Ocircumflex" unicode="&#xd4;" horiz-adv-x="769" 
d="M439 909l132 -135h-102l-82 82l-87 -82h-102l138 135h103zM389 719q149 0 238 -100t89 -261q0 -75 -21.5 -140.5t-62 -117t-105.5 -81t-147 -29.5q-102 0 -177.5 49t-112.5 130.5t-37 184.5t38.5 185t115.5 131t182 49zM385 630q-75 0 -126 -38t-73.5 -98t-22.5 -137
t24 -139t75.5 -100.5t122.5 -38.5q46 0 83.5 14.5t63 40.5t42.5 61.5t24.5 75.5t7.5 85q0 57 -13.5 106t-40 87t-69.5 59.5t-98 21.5z" />
    <glyph glyph-name="Otilde" unicode="&#xd5;" horiz-adv-x="769" 
d="M209 783v26q0 28 6 47.5t18 31t28 17t37 5.5q35 0 91.5 -26t71.5 -26q31 0 31 43v10h68v-22q0 -59 -22.5 -84t-67.5 -25q-31 0 -87.5 26.5t-74.5 26.5q-29 0 -29 -32v-18h-70zM389 719q149 0 238 -100t89 -261q0 -75 -21.5 -140.5t-62 -117t-105.5 -81t-147 -29.5
q-102 0 -177.5 49t-112.5 130.5t-37 184.5t38.5 185t115.5 131t182 49zM385 630q-75 0 -126 -38t-73.5 -98t-22.5 -137t24 -139t75.5 -100.5t122.5 -38.5q46 0 83.5 14.5t63 40.5t42.5 61.5t24.5 75.5t7.5 85q0 57 -13.5 106t-40 87t-69.5 59.5t-98 21.5z" />
    <glyph glyph-name="Odieresis" unicode="&#xd6;" horiz-adv-x="769" 
d="M242 787v116h85v-116h-85zM443 787v116h84v-116h-84zM389 719q149 0 238 -100t89 -261q0 -75 -21.5 -140.5t-62 -117t-105.5 -81t-147 -29.5q-102 0 -177.5 49t-112.5 130.5t-37 184.5t38.5 185t115.5 131t182 49zM385 630q-75 0 -126 -38t-73.5 -98t-22.5 -137t24 -139
t75.5 -100.5t122.5 -38.5q46 0 83.5 14.5t63 40.5t42.5 61.5t24.5 75.5t7.5 85q0 57 -13.5 106t-40 87t-69.5 59.5t-98 21.5z" />
    <glyph glyph-name="multiply" unicode="&#xd7;" horiz-adv-x="727" 
d="M582 0l-218 227l-218 -227l-58 61l218 227l-218 228l57 59l219 -227l219 227l58 -59l-219 -228l219 -227z" />
    <glyph glyph-name="Oslash" unicode="&#xd8;" horiz-adv-x="769" 
d="M389 719q96 0 174 -47l27 37h76l-54 -76q51 -48 78.5 -119.5t27.5 -155.5q0 -76 -21 -142t-62 -117t-106.5 -80t-148.5 -29q-107 0 -187 57l-34 -47h-76l63 89q-93 100 -93 265q0 101 39 183t116.5 132t180.5 50zM159 357q0 -106 49 -183l301 423q-52 35 -124 35
q-108 0 -167 -75.5t-59 -199.5zM385 76q46 0 84 15t64 40t43.5 61t25.5 76.5t8 87.5q0 123 -56 197l-305 -428q57 -49 136 -49z" />
    <glyph glyph-name="Ugrave" unicode="&#xd9;" horiz-adv-x="731" 
d="M295 912l136 -141h-98l-169 141h131zM191 709v-426q0 -58 14.5 -100t40.5 -64t55.5 -31.5t64.5 -9.5q84 0 129.5 46.5t45.5 158.5v426h105v-420q0 -298 -282 -298q-59 0 -107.5 15t-88 47.5t-61.5 90.5t-22 139v426h106z" />
    <glyph glyph-name="Uacute" unicode="&#xda;" horiz-adv-x="731" 
d="M580 912l-176 -141h-101l148 141h129zM191 709v-426q0 -58 14.5 -100t40.5 -64t55.5 -31.5t64.5 -9.5q84 0 129.5 46.5t45.5 158.5v426h105v-420q0 -298 -282 -298q-59 0 -107.5 15t-88 47.5t-61.5 90.5t-22 139v426h106z" />
    <glyph glyph-name="Ucircumflex" unicode="&#xdb;" horiz-adv-x="731" 
d="M419 913l133 -135h-102l-83 82l-87 -82h-102l138 135h103zM191 709v-426q0 -58 14.5 -100t40.5 -64t55.5 -31.5t64.5 -9.5q84 0 129.5 46.5t45.5 158.5v426h105v-420q0 -298 -282 -298q-59 0 -107.5 15t-88 47.5t-61.5 90.5t-22 139v426h106z" />
    <glyph glyph-name="Udieresis" unicode="&#xdc;" horiz-adv-x="731" 
d="M222 783v116h86v-116h-86zM423 783v116h85v-116h-85zM191 709v-426q0 -58 14.5 -100t40.5 -64t55.5 -31.5t64.5 -9.5q84 0 129.5 46.5t45.5 158.5v426h105v-420q0 -298 -282 -298q-59 0 -107.5 15t-88 47.5t-61.5 90.5t-22 139v426h106z" />
    <glyph glyph-name="Yacute" unicode="&#xdd;" horiz-adv-x="607" 
d="M521 909l-176 -141h-101l148 141h129zM248 0v258q0 11 -5 19l-249 432h120q181 -331 192 -354q29 60 196 354h112l-256 -433q-4 -8 -4 -18v-258h-106z" />
    <glyph glyph-name="Thorn" unicode="&#xde;" horiz-adv-x="646" 
d="M92 709h105v-138h159q118 0 179.5 -57.5t61.5 -148.5q0 -101 -66.5 -157.5t-182.5 -56.5h-151v-151h-105v709zM197 239h146q70 0 109.5 28t39.5 96q0 59 -38.5 89.5t-107.5 30.5h-149v-244z" />
    <glyph glyph-name="germandbls" unicode="&#xdf;" horiz-adv-x="605" 
d="M310 759q60 0 106 -17t72.5 -45.5t40 -61.5t14.5 -69q0 -22 -1 -34l-170 -115v-1l79 -55q68 -49 94.5 -92t26.5 -98q0 -80 -52.5 -130t-144.5 -50q-101 0 -155 47v97q21 -21 47.5 -35.5t52.5 -21.5t51 -7q53 0 77.5 26.5t24.5 63.5q0 34 -17.5 60.5t-64.5 61.5l-91 64
q-39 28 -39 59.5t40 58.5l140 97q0 19 -5.5 37.5t-19.5 37t-41.5 29.5t-66.5 11q-65 0 -100 -32t-35 -111v-534h-100v541q0 113 64.5 165.5t172.5 52.5z" />
    <glyph glyph-name="agrave" unicode="&#xe0;" horiz-adv-x="544" 
d="M206 758l128 -155h-93l-158 155h123zM469 117q0 -34 2.5 -69.5t4.5 -47.5h-95q-5 15 -9 64q-39 -76 -157 -76q-86 0 -130.5 47t-44.5 112q0 57 29.5 95.5t84 56.5t132.5 18h85v42q0 19 -4 34t-14 30t-32 23.5t-55 8.5q-55 0 -76 -21t-29 -59h-97q3 31 14.5 57t34 49.5
t62.5 37t94 12.5q200 0 200 -171v-243zM372 250h-79q-76 0 -113.5 -23.5t-37.5 -73.5q0 -39 25.5 -64t70.5 -25q34 0 59 9.5t39.5 24.5t22.5 38t10.5 45.5t2.5 52.5v16z" />
    <glyph glyph-name="aacute" unicode="&#xe1;" horiz-adv-x="544" 
d="M458 758l-158 -155h-93l129 155h122zM469 117q0 -34 2.5 -69.5t4.5 -47.5h-95q-5 15 -9 64q-39 -76 -157 -76q-86 0 -130.5 47t-44.5 112q0 57 29.5 95.5t84 56.5t132.5 18h85v42q0 19 -4 34t-14 30t-32 23.5t-55 8.5q-55 0 -76 -21t-29 -59h-97q3 31 14.5 57t34 49.5
t62.5 37t94 12.5q200 0 200 -171v-243zM372 250h-79q-76 0 -113.5 -23.5t-37.5 -73.5q0 -39 25.5 -64t70.5 -25q34 0 59 9.5t39.5 24.5t22.5 38t10.5 45.5t2.5 52.5v16z" />
    <glyph glyph-name="acircumflex" unicode="&#xe2;" horiz-adv-x="544" 
d="M319 748l115 -154h-96l-66 98l-64 -98h-95l113 154h93zM469 117q0 -34 2.5 -69.5t4.5 -47.5h-95q-5 15 -9 64q-39 -76 -157 -76q-86 0 -130.5 47t-44.5 112q0 57 29.5 95.5t84 56.5t132.5 18h85v42q0 19 -4 34t-14 30t-32 23.5t-55 8.5q-55 0 -76 -21t-29 -59h-97
q3 31 14.5 57t34 49.5t62.5 37t94 12.5q200 0 200 -171v-243zM372 250h-79q-76 0 -113.5 -23.5t-37.5 -73.5q0 -39 25.5 -64t70.5 -25q34 0 59 9.5t39.5 24.5t22.5 38t10.5 45.5t2.5 52.5v16z" />
    <glyph glyph-name="atilde" unicode="&#xe3;" horiz-adv-x="544" 
d="M111 614v26q0 101 86 101q32 0 79.5 -24.5t62.5 -24.5q14 0 21 9t7 31v11h68v-23q0 -107 -88 -107q-32 0 -77 24.5t-63 24.5q-26 0 -26 -32v-16h-70zM469 117q0 -34 2.5 -69.5t4.5 -47.5h-95q-5 15 -9 64q-39 -76 -157 -76q-86 0 -130.5 47t-44.5 112q0 57 29.5 95.5
t84 56.5t132.5 18h85v42q0 19 -4 34t-14 30t-32 23.5t-55 8.5q-55 0 -76 -21t-29 -59h-97q3 31 14.5 57t34 49.5t62.5 37t94 12.5q200 0 200 -171v-243zM372 250h-79q-76 0 -113.5 -23.5t-37.5 -73.5q0 -39 25.5 -64t70.5 -25q34 0 59 9.5t39.5 24.5t22.5 38t10.5 45.5
t2.5 52.5v16z" />
    <glyph glyph-name="adieresis" unicode="&#xe4;" horiz-adv-x="544" 
d="M136 632v116h85v-116h-85zM325 632v116h85v-116h-85zM469 117q0 -34 2.5 -69.5t4.5 -47.5h-95q-5 15 -9 64q-39 -76 -157 -76q-86 0 -130.5 47t-44.5 112q0 57 29.5 95.5t84 56.5t132.5 18h85v42q0 19 -4 34t-14 30t-32 23.5t-55 8.5q-55 0 -76 -21t-29 -59h-97
q3 31 14.5 57t34 49.5t62.5 37t94 12.5q200 0 200 -171v-243zM372 250h-79q-76 0 -113.5 -23.5t-37.5 -73.5q0 -39 25.5 -64t70.5 -25q34 0 59 9.5t39.5 24.5t22.5 38t10.5 45.5t2.5 52.5v16z" />
    <glyph glyph-name="aring" unicode="&#xe5;" horiz-adv-x="544" 
d="M273 578q-50 0 -80.5 28.5t-30.5 71.5t30 72t81 29t81.5 -28t30.5 -72q0 -43 -31 -72t-81 -29zM273 627q25 0 38.5 15t13.5 36t-13.5 37t-38.5 16t-38.5 -15t-13.5 -36q0 -22 13.5 -37.5t38.5 -15.5zM469 117q0 -34 2.5 -69.5t4.5 -47.5h-95q-5 15 -9 64
q-39 -76 -157 -76q-86 0 -130.5 47t-44.5 112q0 57 29.5 95.5t84 56.5t132.5 18h85v42q0 19 -4 34t-14 30t-32 23.5t-55 8.5q-55 0 -76 -21t-29 -59h-97q3 31 14.5 57t34 49.5t62.5 37t94 12.5q200 0 200 -171v-243zM372 250h-79q-76 0 -113.5 -23.5t-37.5 -73.5
q0 -39 25.5 -64t70.5 -25q34 0 59 9.5t39.5 24.5t22.5 38t10.5 45.5t2.5 52.5v16z" />
    <glyph glyph-name="ae" unicode="&#xe6;" horiz-adv-x="871" 
d="M828 148q-45 -158 -224 -158q-74 0 -121.5 28t-70.5 70q-56 -98 -190 -98q-87 0 -134.5 45.5t-47.5 112.5q0 42 17 72.5t43.5 48t65.5 28t74.5 13.5t78.5 3h56v43q0 100 -99 100q-50 0 -73.5 -20.5t-30.5 -61.5h-106q6 74 59 114.5t144 40.5q137 0 172 -78q15 22 38 38.5
t58.5 28t76.5 11.5q57 0 100.5 -20.5t69 -54.5t38 -75t12.5 -86q0 -9 -0.5 -25.5t-0.5 -23.5h-363q-1 -80 36 -128t102 -48q50 0 77.5 20t42.5 60h100zM735 313q-1 62 -32.5 100t-93.5 39q-60 1 -95.5 -35.5t-41.5 -103.5h263zM375 244h-61q-86 0 -129.5 -19.5t-43.5 -71.5
q0 -35 27.5 -59.5t72.5 -24.5q73 0 103.5 41.5t30.5 122.5v11z" />
    <glyph glyph-name="ccedilla" unicode="&#xe7;" horiz-adv-x="522" 
d="M492 160q-16 -65 -57 -110.5t-113 -57.5l-34 -43q97 -19 97 -96q0 -29 -12.5 -50t-32.5 -31.5t-41 -15t-44 -4.5q-48 0 -74 12v65q27 -11 64 -11q53 0 53 34q0 42 -102 44v30l49 63q-96 10 -150.5 81.5t-54.5 186.5q0 56 16 105.5t45.5 87t76 59.5t102.5 22
q55 0 97 -17.5t65 -46t35 -56.5t15 -55h-99q-21 93 -115 93q-64 0 -99.5 -51t-35.5 -138q0 -88 35 -139.5t97 -51.5q87 0 118 91h99z" />
    <glyph glyph-name="egrave" unicode="&#xe8;" horiz-adv-x="539" 
d="M210 758l128 -155h-93l-158 155h123zM140 241q1 -76 36.5 -123.5t97.5 -47.5q53 0 78.5 20.5t40.5 55.5h101q-9 -29 -23.5 -53.5t-39.5 -50t-66.5 -40t-93.5 -14.5q-47 0 -86.5 14.5t-66 40t-45 59.5t-26.5 72.5t-8 79.5q0 123 61.5 200t176.5 77q49 0 88.5 -14.5
t64.5 -39t42 -57.5t24 -66.5t7 -69.5q0 -29 -2 -43h-361zM402 309q-1 64 -33 104.5t-93 40.5q-119 0 -133 -145h259z" />
    <glyph glyph-name="eacute" unicode="&#xe9;" horiz-adv-x="539" 
d="M461 758l-158 -155h-93l129 155h122zM140 241q1 -76 36.5 -123.5t97.5 -47.5q53 0 78.5 20.5t40.5 55.5h101q-9 -29 -23.5 -53.5t-39.5 -50t-66.5 -40t-93.5 -14.5q-47 0 -86.5 14.5t-66 40t-45 59.5t-26.5 72.5t-8 79.5q0 123 61.5 200t176.5 77q49 0 88.5 -14.5
t64.5 -39t42 -57.5t24 -66.5t7 -69.5q0 -29 -2 -43h-361zM402 309q-1 64 -33 104.5t-93 40.5q-119 0 -133 -145h259z" />
    <glyph glyph-name="ecircumflex" unicode="&#xea;" horiz-adv-x="539" 
d="M326 748l115 -154h-96l-66 98l-64 -98h-95l114 154h92zM140 241q1 -76 36.5 -123.5t97.5 -47.5q53 0 78.5 20.5t40.5 55.5h101q-9 -29 -23.5 -53.5t-39.5 -50t-66.5 -40t-93.5 -14.5q-47 0 -86.5 14.5t-66 40t-45 59.5t-26.5 72.5t-8 79.5q0 123 61.5 200t176.5 77
q49 0 88.5 -14.5t64.5 -39t42 -57.5t24 -66.5t7 -69.5q0 -29 -2 -43h-361zM402 309q-1 64 -33 104.5t-93 40.5q-119 0 -133 -145h259z" />
    <glyph glyph-name="edieresis" unicode="&#xeb;" horiz-adv-x="539" 
d="M137 632v116h85v-116h-85zM326 632v116h85v-116h-85zM140 241q1 -76 36.5 -123.5t97.5 -47.5q53 0 78.5 20.5t40.5 55.5h101q-9 -29 -23.5 -53.5t-39.5 -50t-66.5 -40t-93.5 -14.5q-47 0 -86.5 14.5t-66 40t-45 59.5t-26.5 72.5t-8 79.5q0 123 61.5 200t176.5 77
q49 0 88.5 -14.5t64.5 -39t42 -57.5t24 -66.5t7 -69.5q0 -29 -2 -43h-361zM402 309q-1 64 -33 104.5t-93 40.5q-119 0 -133 -145h259z" />
    <glyph glyph-name="igrave" unicode="&#xec;" horiz-adv-x="248" 
d="M45 758l127 -155h-92l-159 155h124zM74 519h100v-519h-100v519z" />
    <glyph glyph-name="iacute" unicode="&#xed;" horiz-adv-x="248" 
d="M325 758l-158 -155h-93l129 155h122zM74 519h100v-519h-100v519z" />
    <glyph glyph-name="icircumflex" unicode="&#xee;" horiz-adv-x="248" 
d="M170 748l115 -154h-96l-66 98l-64 -98h-95l114 154h92zM74 519h100v-519h-100v519z" />
    <glyph glyph-name="idieresis" unicode="&#xef;" horiz-adv-x="248" 
d="M-13 632v116h85v-116h-85zM176 632v116h85v-116h-85zM74 519h100v-519h-100v519z" />
    <glyph glyph-name="eth" unicode="&#xf0;" horiz-adv-x="554" 
d="M105 759q110 -14 198 -63l109 75l30 -50l-88 -60q161 -125 161 -365q0 -154 -67 -231t-178 -77q-108 0 -170.5 74.5t-62.5 189.5q0 118 68.5 188t173.5 70q59 0 102 -31q-32 80 -102 131l-126 -87l-31 49l103 71q-54 25 -120 38v78zM280 427q-66 0 -104 -50t-38 -129
q0 -75 36.5 -126.5t100.5 -51.5q69 0 104 56.5t35 155.5q0 65 -31.5 105t-102.5 40z" />
    <glyph glyph-name="ntilde" unicode="&#xf1;" horiz-adv-x="582" 
d="M126 618v26q0 101 86 101q32 0 79.5 -24.5t62.5 -24.5q14 0 21 9t7 31v11h68v-23q0 -107 -88 -107q-32 0 -77 24.5t-63 24.5q-26 0 -26 -32v-16h-70zM74 389q0 90 -1 130h98q4 -30 4 -81q43 93 161 93q78 0 125.5 -49.5t47.5 -147.5v-334h-100v321q0 126 -105 126
q-44 0 -73.5 -21.5t-42.5 -58.5t-13 -90v-277h-101v389z" />
    <glyph glyph-name="ograve" unicode="&#xf2;" horiz-adv-x="566" 
d="M217 758l128 -155h-93l-158 155h123zM287 531q109 0 174.5 -74t65.5 -196q0 -119 -65 -196t-182 -77q-73 0 -128.5 35t-84 96.5t-28.5 139.5q0 119 66 195.5t182 76.5zM282.5 449q-67.5 0 -104 -50t-36.5 -139q0 -85 38.5 -137.5t104.5 -52.5t103 51t37 138
q0 88 -37.5 139t-105 51z" />
    <glyph glyph-name="oacute" unicode="&#xf3;" horiz-adv-x="566" 
d="M469 758l-158 -155h-93l129 155h122zM287 531q109 0 174.5 -74t65.5 -196q0 -119 -65 -196t-182 -77q-73 0 -128.5 35t-84 96.5t-28.5 139.5q0 119 66 195.5t182 76.5zM282.5 449q-67.5 0 -104 -50t-36.5 -139q0 -85 38.5 -137.5t104.5 -52.5t103 51t37 138
q0 88 -37.5 139t-105 51z" />
    <glyph glyph-name="ocircumflex" unicode="&#xf4;" horiz-adv-x="566" 
d="M328 748l115 -154h-96l-65 98l-65 -98h-95l114 154h92zM287 531q109 0 174.5 -74t65.5 -196q0 -119 -65 -196t-182 -77q-73 0 -128.5 35t-84 96.5t-28.5 139.5q0 119 66 195.5t182 76.5zM282.5 449q-67.5 0 -104 -50t-36.5 -139q0 -85 38.5 -137.5t104.5 -52.5t103 51
t37 138q0 88 -37.5 139t-105 51z" />
    <glyph glyph-name="otilde" unicode="&#xf5;" horiz-adv-x="566" 
d="M120 614v26q0 101 86 101q32 0 79.5 -24.5t62.5 -24.5q14 0 21 9t7 31v11h68v-23q0 -107 -88 -107q-32 0 -77 24.5t-63 24.5q-26 0 -26 -32v-16h-70zM287 531q109 0 174.5 -74t65.5 -196q0 -119 -65 -196t-182 -77q-73 0 -128.5 35t-84 96.5t-28.5 139.5q0 119 66 195.5
t182 76.5zM282.5 449q-67.5 0 -104 -50t-36.5 -139q0 -85 38.5 -137.5t104.5 -52.5t103 51t37 138q0 88 -37.5 139t-105 51z" />
    <glyph glyph-name="odieresis" unicode="&#xf6;" horiz-adv-x="566" 
d="M145 632v116h86v-116h-86zM335 632v116h84v-116h-84zM287 531q109 0 174.5 -74t65.5 -196q0 -119 -65 -196t-182 -77q-73 0 -128.5 35t-84 96.5t-28.5 139.5q0 119 66 195.5t182 76.5zM282.5 449q-67.5 0 -104 -50t-36.5 -139q0 -85 38.5 -137.5t104.5 -52.5t103 51
t37 138q0 88 -37.5 139t-105 51z" />
    <glyph glyph-name="divide" unicode="&#xf7;" horiz-adv-x="727" 
d="M319 437v135h88v-135h-88zM84 244v86h560v-86h-560zM319 0v134h88v-134h-88z" />
    <glyph glyph-name="oslash" unicode="&#xf8;" horiz-adv-x="566" 
d="M288 531q79 0 133 -38l24 32h63l-48 -66q68 -73 68 -200q0 -124 -68 -198t-181 -74q-76 0 -132 37l-25 -34h-63l49 68q-70 75 -70 200q0 126 69.5 199.5t180.5 73.5zM283 454q-36 0 -63.5 -14t-45.5 -39t-27.5 -61t-9.5 -80q0 -73 27 -123l207 286q-35 31 -88 31zM284 64
q67 0 106 52t39 142q0 77 -25 123l-206 -286q37 -31 86 -31z" />
    <glyph glyph-name="ugrave" unicode="&#xf9;" horiz-adv-x="573" 
d="M220 758l128 -155h-93l-158 155h123zM499 151q0 -27 0.5 -81.5t0.5 -69.5h-98q-3 20 -3 74q-41 -86 -154 -86q-76 0 -124.5 45t-48.5 145v341h100v-319q0 -127 102 -127q68 0 96.5 40.5t28.5 134.5v271h100v-368z" />
    <glyph glyph-name="uacute" unicode="&#xfa;" horiz-adv-x="573" 
d="M476 758l-158 -155h-93l129 155h122zM499 151q0 -27 0.5 -81.5t0.5 -69.5h-98q-3 20 -3 74q-41 -86 -154 -86q-76 0 -124.5 45t-48.5 145v341h100v-319q0 -127 102 -127q68 0 96.5 40.5t28.5 134.5v271h100v-368z" />
    <glyph glyph-name="ucircumflex" unicode="&#xfb;" horiz-adv-x="573" 
d="M333 748l114 -154h-96l-65 98l-65 -98h-95l114 154h93zM499 151q0 -27 0.5 -81.5t0.5 -69.5h-98q-3 20 -3 74q-41 -86 -154 -86q-76 0 -124.5 45t-48.5 145v341h100v-319q0 -127 102 -127q68 0 96.5 40.5t28.5 134.5v271h100v-368z" />
    <glyph glyph-name="udieresis" unicode="&#xfc;" horiz-adv-x="573" 
d="M149 632v116h86v-116h-86zM339 632v116h84v-116h-84zM499 151q0 -27 0.5 -81.5t0.5 -69.5h-98q-3 20 -3 74q-41 -86 -154 -86q-76 0 -124.5 45t-48.5 145v341h100v-319q0 -127 102 -127q68 0 96.5 40.5t28.5 134.5v271h100v-368z" />
    <glyph glyph-name="yacute" unicode="&#xfd;" horiz-adv-x="497" 
d="M437 758l-159 -155h-92l128 155h123zM117 519q119 -353 138 -429h1q25 94 132 429h101l-185 -541q-39 -114 -79.5 -152.5t-122.5 -38.5q-26 0 -58 3v86q20 -4 42 -4q46 0 70.5 23.5t46.5 85.5l-194 538h108z" />
    <glyph glyph-name="thorn" unicode="&#xfe;" horiz-adv-x="586" 
d="M74 -208v956h100v-306q49 87 164 87q91 0 150 -69t60 -189q0 -132 -66 -207t-166 -75q-99 0 -142 71v-268h-100zM445 267q0 84 -37 131.5t-98 47.5q-71 0 -106 -51.5t-35 -134.5q0 -187 135 -187q66 0 103.5 51.5t37.5 142.5z" />
    <glyph glyph-name="ydieresis" unicode="&#xff;" horiz-adv-x="497" 
d="M111 632v116h86v-116h-86zM301 632v116h85v-116h-85zM117 519q119 -353 138 -429h1q25 94 132 429h101l-185 -541q-39 -114 -79.5 -152.5t-122.5 -38.5q-26 0 -58 3v86q20 -4 42 -4q46 0 70.5 23.5t46.5 85.5l-194 538h108z" />
    <glyph glyph-name="Amacron" unicode="&#x100;" horiz-adv-x="678" 
d="M481 865v-77h-291v77h291zM195 203l-72 -203h-105l250 709h131l261 -709h-112l-75 203h-278zM448 293q-105 291 -116 332h-2q-9 -34 -109 -332h227z" />
    <glyph glyph-name="amacron" unicode="&#x101;" horiz-adv-x="544" 
d="M417 715v-79h-287v79h287zM469 117q0 -34 2.5 -69.5t4.5 -47.5h-95q-5 15 -9 64q-39 -76 -157 -76q-86 0 -130.5 47t-44.5 112q0 57 29.5 95.5t84 56.5t132.5 18h85v42q0 19 -4 34t-14 30t-32 23.5t-55 8.5q-55 0 -76 -21t-29 -59h-97q3 31 14.5 57t34 49.5t62.5 37
t94 12.5q200 0 200 -171v-243zM372 250h-79q-76 0 -113.5 -23.5t-37.5 -73.5q0 -39 25.5 -64t70.5 -25q34 0 59 9.5t39.5 24.5t22.5 38t10.5 45.5t2.5 52.5v16z" />
    <glyph glyph-name="Abreve" unicode="&#x102;" horiz-adv-x="678" 
d="M251 902q5 -30 28 -48t58 -18q73 0 86 66h75q-9 -60 -50 -98t-112 -38q-76 0 -115.5 39.5t-45.5 96.5h76zM195 203l-72 -203h-105l250 709h131l261 -709h-112l-75 203h-278zM448 293q-105 291 -116 332h-2q-9 -34 -109 -332h227z" />
    <glyph glyph-name="abreve" unicode="&#x103;" horiz-adv-x="544" 
d="M195 738q16 -67 77 -67q38 0 54.5 18t25.5 49h71q-8 -62 -46 -101.5t-105 -39.5q-71 0 -108 41t-42 100h73zM469 117q0 -34 2.5 -69.5t4.5 -47.5h-95q-5 15 -9 64q-39 -76 -157 -76q-86 0 -130.5 47t-44.5 112q0 57 29.5 95.5t84 56.5t132.5 18h85v42q0 19 -4 34t-14 30
t-32 23.5t-55 8.5q-55 0 -76 -21t-29 -59h-97q3 31 14.5 57t34 49.5t62.5 37t94 12.5q200 0 200 -171v-243zM372 250h-79q-76 0 -113.5 -23.5t-37.5 -73.5q0 -39 25.5 -64t70.5 -25q34 0 59 9.5t39.5 24.5t22.5 38t10.5 45.5t2.5 52.5v16z" />
    <glyph glyph-name="Aogonek" unicode="&#x104;" horiz-adv-x="678" 
d="M195 203l-72 -203h-105l250 709h131l261 -709h-6q-66 -55 -66 -105q0 -16 7 -28t19.5 -18t29.5 -6q33 0 56 8v-74q-31 -17 -84 -17q-56 0 -88.5 30t-32.5 84q0 63 61 126h-8l-75 203h-278zM448 293q-105 291 -116 332h-2q-9 -34 -109 -332h227z" />
    <glyph glyph-name="aogonek" unicode="&#x105;" horiz-adv-x="544" 
d="M469 117q0 -34 2.5 -69.5t4.5 -47.5q-66 -55 -66 -105q0 -16 7.5 -28t20 -18t28.5 -6q33 0 56 8v-74q-31 -17 -83 -17q-57 0 -89.5 30t-32.5 84q0 65 63 128q-4 20 -8 62q-39 -76 -157 -76q-86 0 -130.5 47t-44.5 112q0 57 29.5 95.5t84 56.5t132.5 18h85v42q0 19 -4 34
t-14 30t-32 23.5t-55 8.5q-55 0 -76 -21t-29 -59h-97q3 31 14.5 57t34 49.5t62.5 37t94 12.5q200 0 200 -171v-243zM372 250h-79q-76 0 -113.5 -23.5t-37.5 -73.5q0 -39 25.5 -64t70.5 -25q34 0 59 9.5t39.5 24.5t22.5 38t10.5 45.5t2.5 52.5v16z" />
    <glyph glyph-name="Cacute" unicode="&#x106;" horiz-adv-x="704" 
d="M576 917l-176 -141h-101l148 141h129zM660 204q-24 -97 -96 -155t-190 -58q-78 0 -140 28t-101 77t-59.5 114.5t-20.5 141.5q0 74 20.5 139t60 116.5t102.5 81.5t142 30q123 0 194.5 -61t87.5 -156h-105q-20 61 -62 95.5t-119 34.5q-54 0 -96 -23t-66.5 -63t-36.5 -88
t-12 -103q0 -42 7 -81t23.5 -75t40.5 -63t61.5 -42.5t82.5 -15.5q74 0 114.5 34.5t62.5 91.5h105z" />
    <glyph glyph-name="cacute" unicode="&#x107;" horiz-adv-x="522" 
d="M460 758l-158 -155h-93l129 155h122zM492 160q-9 -35 -24.5 -64.5t-41 -54.5t-64.5 -39t-89 -14q-72 0 -125 33t-80.5 93.5t-27.5 142.5q0 56 16 105.5t45.5 87t76 59.5t102.5 22q55 0 97 -17.5t65 -46t35 -56.5t15 -55h-99q-21 93 -115 93q-64 0 -99.5 -51t-35.5 -138
q0 -88 35 -139.5t97 -51.5q87 0 118 91h99z" />
    <glyph glyph-name="Ccircumflex" unicode="&#x108;" horiz-adv-x="704" 
d="M423 908l133 -135h-102l-83 82l-86 -82h-102l137 135h103zM660 204q-24 -97 -96 -155t-190 -58q-78 0 -140 28t-101 77t-59.5 114.5t-20.5 141.5q0 74 20.5 139t60 116.5t102.5 81.5t142 30q123 0 194.5 -61t87.5 -156h-105q-20 61 -62 95.5t-119 34.5q-54 0 -96 -23
t-66.5 -63t-36.5 -88t-12 -103q0 -42 7 -81t23.5 -75t40.5 -63t61.5 -42.5t82.5 -15.5q74 0 114.5 34.5t62.5 91.5h105z" />
    <glyph glyph-name="ccircumflex" unicode="&#x109;" horiz-adv-x="522" 
d="M322 748l115 -154h-96l-66 98l-64 -98h-95l114 154h92zM492 160q-9 -35 -24.5 -64.5t-41 -54.5t-64.5 -39t-89 -14q-72 0 -125 33t-80.5 93.5t-27.5 142.5q0 56 16 105.5t45.5 87t76 59.5t102.5 22q55 0 97 -17.5t65 -46t35 -56.5t15 -55h-99q-21 93 -115 93
q-64 0 -99.5 -51t-35.5 -138q0 -88 35 -139.5t97 -51.5q87 0 118 91h99z" />
    <glyph glyph-name="Cdotaccent" unicode="&#x10a;" horiz-adv-x="704" 
d="M317 792v114h102v-114h-102zM660 204q-24 -97 -96 -155t-190 -58q-78 0 -140 28t-101 77t-59.5 114.5t-20.5 141.5q0 74 20.5 139t60 116.5t102.5 81.5t142 30q123 0 194.5 -61t87.5 -156h-105q-20 61 -62 95.5t-119 34.5q-54 0 -96 -23t-66.5 -63t-36.5 -88t-12 -103
q0 -42 7 -81t23.5 -75t40.5 -63t61.5 -42.5t82.5 -15.5q74 0 114.5 34.5t62.5 91.5h105z" />
    <glyph glyph-name="cdotaccent" unicode="&#x10b;" horiz-adv-x="522" 
d="M226 632v116h100v-116h-100zM492 160q-9 -35 -24.5 -64.5t-41 -54.5t-64.5 -39t-89 -14q-72 0 -125 33t-80.5 93.5t-27.5 142.5q0 56 16 105.5t45.5 87t76 59.5t102.5 22q55 0 97 -17.5t65 -46t35 -56.5t15 -55h-99q-21 93 -115 93q-64 0 -99.5 -51t-35.5 -138
q0 -88 35 -139.5t97 -51.5q87 0 118 91h99z" />
    <glyph glyph-name="Ccaron" unicode="&#x10c;" horiz-adv-x="704" 
d="M324 773l-134 135h102l82 -82l87 82h102l-140 -135h-99zM660 204q-24 -97 -96 -155t-190 -58q-78 0 -140 28t-101 77t-59.5 114.5t-20.5 141.5q0 74 20.5 139t60 116.5t102.5 81.5t142 30q123 0 194.5 -61t87.5 -156h-105q-20 61 -62 95.5t-119 34.5q-54 0 -96 -23
t-66.5 -63t-36.5 -88t-12 -103q0 -42 7 -81t23.5 -75t40.5 -63t61.5 -42.5t82.5 -15.5q74 0 114.5 34.5t62.5 91.5h105z" />
    <glyph glyph-name="ccaron" unicode="&#x10d;" horiz-adv-x="522" 
d="M230 594l-114 154h96l65 -97l64 97h96l-114 -154h-93zM492 160q-9 -35 -24.5 -64.5t-41 -54.5t-64.5 -39t-89 -14q-72 0 -125 33t-80.5 93.5t-27.5 142.5q0 56 16 105.5t45.5 87t76 59.5t102.5 22q55 0 97 -17.5t65 -46t35 -56.5t15 -55h-99q-21 93 -115 93
q-64 0 -99.5 -51t-35.5 -138q0 -88 35 -139.5t97 -51.5q87 0 118 91h99z" />
    <glyph glyph-name="Dcaron" unicode="&#x10e;" horiz-adv-x="738" 
d="M280 775l-134 135h102l82 -82l87 82h102l-140 -135h-99zM92 709h258q151 0 243 -95t92 -252q0 -159 -92.5 -260.5t-246.5 -101.5h-254v709zM197 88h142q78 0 132 36t79 96t25 140q0 53 -13.5 98.5t-41 82.5t-74 58t-106.5 21h-143v-532z" />
    <glyph glyph-name="dcaron" unicode="&#x10f;" horiz-adv-x="632" 
d="M515 748v-602q0 -96 1 -146h-97q-4 29 -4 70q-40 -82 -160 -82q-99 0 -157.5 73t-58.5 193q0 122 63 199.5t170 77.5q60 0 95 -18.5t48 -44.5v280h100zM580 490l-4 258h81l-5 -258h-72zM143 257q0 -59 17.5 -101.5t47.5 -63.5t69 -21q43 0 71.5 15t43.5 43.5t20.5 60.5
t5.5 76q0 36 -3 62t-11.5 49.5t-23.5 38.5t-38.5 23.5t-56.5 8.5q-67 0 -104.5 -50t-37.5 -141z" />
    <glyph glyph-name="Dcroat" unicode="&#x110;" horiz-adv-x="747" 
d="M102 403v306h258q151 0 243.5 -95t92.5 -252q0 -159 -93 -260.5t-247 -101.5h-254v325h-84v78h84zM207 403h177v-78h-177v-237h142q78 0 132 36t79 96t25 140q0 53 -13.5 98.5t-41 82.5t-74 58t-106.5 21h-143v-217z" />
    <glyph glyph-name="dcroat" unicode="&#x111;" horiz-adv-x="588" 
d="M515 748v-85h69v-65h-69v-452q0 -96 1 -146h-97q-4 29 -4 75q-21 -43 -59 -65t-103 -22q-100 0 -157 75t-57 188q0 117 63.5 196t169.5 79q62 0 96.5 -20t46.5 -47v139h-229v65h229v85h100zM143 257q0 -84 37.5 -134.5t96.5 -50.5q141 0 141 194q0 30 -3 54t-12 47
t-23.5 39t-38.5 26t-55 10q-43 0 -75 -21.5t-50 -63.5t-18 -100z" />
    <glyph glyph-name="Emacron" unicode="&#x112;" horiz-adv-x="613" 
d="M474 876v-76h-291v76h291zM545 326h-350v-237h384l-13 -89h-474v709h469v-90h-366v-204h350v-89z" />
    <glyph glyph-name="emacron" unicode="&#x113;" horiz-adv-x="539" 
d="M424 715v-79h-287v79h287zM140 241q1 -76 36.5 -123.5t97.5 -47.5q53 0 78.5 20.5t40.5 55.5h101q-9 -29 -23.5 -53.5t-39.5 -50t-66.5 -40t-93.5 -14.5q-47 0 -86.5 14.5t-66 40t-45 59.5t-26.5 72.5t-8 79.5q0 123 61.5 200t176.5 77q49 0 88.5 -14.5t64.5 -39
t42 -57.5t24 -66.5t7 -69.5q0 -29 -2 -43h-361zM402 309q-1 64 -33 104.5t-93 40.5q-119 0 -133 -145h259z" />
    <glyph glyph-name="Ebreve" unicode="&#x114;" horiz-adv-x="613" 
d="M245 905q5 -29 28 -47.5t57 -18.5q74 0 87 66h75q-9 -60 -50 -98t-113 -38q-75 0 -114.5 39.5t-45.5 96.5h76zM545 326h-350v-237h384l-13 -89h-474v709h469v-90h-366v-204h350v-89z" />
    <glyph glyph-name="ebreve" unicode="&#x115;" horiz-adv-x="539" 
d="M202 738q16 -67 77 -67q17 0 29.5 4t20.5 10t14 15.5t9.5 18t6.5 19.5h71q-8 -62 -46 -101.5t-105 -39.5q-71 0 -108 41t-41 100h72zM140 241q1 -76 36.5 -123.5t97.5 -47.5q53 0 78.5 20.5t40.5 55.5h101q-9 -29 -23.5 -53.5t-39.5 -50t-66.5 -40t-93.5 -14.5
q-47 0 -86.5 14.5t-66 40t-45 59.5t-26.5 72.5t-8 79.5q0 123 61.5 200t176.5 77q49 0 88.5 -14.5t64.5 -39t42 -57.5t24 -66.5t7 -69.5q0 -29 -2 -43h-361zM402 309q-1 64 -33 104.5t-93 40.5q-119 0 -133 -145h259z" />
    <glyph glyph-name="Edotaccent" unicode="&#x116;" horiz-adv-x="613" 
d="M276 788v115h102v-115h-102zM545 326h-350v-237h384l-13 -89h-474v709h469v-90h-366v-204h350v-89z" />
    <glyph glyph-name="edotaccent" unicode="&#x117;" horiz-adv-x="539" 
d="M231 632v116h99v-116h-99zM140 241q1 -76 36.5 -123.5t97.5 -47.5q53 0 78.5 20.5t40.5 55.5h101q-9 -29 -23.5 -53.5t-39.5 -50t-66.5 -40t-93.5 -14.5q-47 0 -86.5 14.5t-66 40t-45 59.5t-26.5 72.5t-8 79.5q0 123 61.5 200t176.5 77q49 0 88.5 -14.5t64.5 -39
t42 -57.5t24 -66.5t7 -69.5q0 -29 -2 -43h-361zM402 309q-1 64 -33 104.5t-93 40.5q-119 0 -133 -145h259z" />
    <glyph glyph-name="Eogonek" unicode="&#x118;" horiz-adv-x="613" 
d="M545 326h-350v-237h384l-13 -89h-35q-66 -55 -66 -105q0 -24 15.5 -38t40.5 -14q33 0 56 8v-74q-31 -17 -83 -17q-57 0 -89.5 30t-32.5 84q0 63 62 126h-342v709h469v-90h-366v-204h350v-89z" />
    <glyph glyph-name="eogonek" unicode="&#x119;" horiz-adv-x="539" 
d="M140 241q1 -76 36.5 -123.5t97.5 -47.5q53 0 78.5 20.5t40.5 55.5h101q-33 -104 -123 -141q-63 -52 -63 -102q0 -24 15.5 -38t40.5 -14q33 0 56 8v-74q-31 -17 -83 -17q-57 0 -89.5 30t-32.5 84q0 55 44 106q-56 2 -99.5 25.5t-69 61t-38.5 83t-13 96.5q0 123 61.5 200
t176.5 77q49 0 88.5 -14.5t64.5 -39t42 -57.5t24 -66.5t7 -69.5q0 -29 -2 -43h-361zM402 309q-1 64 -33 104.5t-93 40.5q-119 0 -133 -145h259z" />
    <glyph glyph-name="Ecaron" unicode="&#x11a;" horiz-adv-x="613" 
d="M277 771l-134 135h102l82 -82l87 82h102l-140 -135h-99zM545 326h-350v-237h384l-13 -89h-474v709h469v-90h-366v-204h350v-89z" />
    <glyph glyph-name="ecaron" unicode="&#x11b;" horiz-adv-x="539" 
d="M234 594l-114 154h96l66 -97l63 97h96l-114 -154h-93zM140 241q1 -76 36.5 -123.5t97.5 -47.5q53 0 78.5 20.5t40.5 55.5h101q-9 -29 -23.5 -53.5t-39.5 -50t-66.5 -40t-93.5 -14.5q-47 0 -86.5 14.5t-66 40t-45 59.5t-26.5 72.5t-8 79.5q0 123 61.5 200t176.5 77
q49 0 88.5 -14.5t64.5 -39t42 -57.5t24 -66.5t7 -69.5q0 -29 -2 -43h-361zM402 309q-1 64 -33 104.5t-93 40.5q-119 0 -133 -145h259z" />
    <glyph glyph-name="Gcircumflex" unicode="&#x11c;" horiz-adv-x="747" 
d="M432 906l133 -135h-102l-83 82l-86 -82h-102l137 135h103zM674 0h-79q-7 21 -11 91q-64 -101 -217 -101q-99 0 -171.5 47.5t-107.5 127t-35 182.5q0 107 37.5 190.5t114 132.5t182.5 49q81 0 144.5 -28.5t100.5 -77t46 -111.5h-105q-40 130 -188 130q-59 0 -102.5 -22
t-69 -61.5t-38 -88.5t-12.5 -108q0 -55 12.5 -103t38 -87t68.5 -61.5t99 -22.5q190 0 190 211v7h-191v90h294v-386z" />
    <glyph glyph-name="gcircumflex" unicode="&#x11d;" horiz-adv-x="584" 
d="M338 748l114 -154h-96l-65 98l-65 -98h-94l113 154h93zM511 50q0 -129 -57.5 -196t-185.5 -67q-58 0 -101 15t-66.5 40t-35 50.5t-15.5 54.5h102q22 -83 121 -83q42 0 70 12.5t43 38.5t21 58.5t6 78.5v39q-44 -88 -159 -88q-97 0 -156 71.5t-59 184.5q0 123 64 197.5
t161 74.5q66 0 102.5 -23.5t46.5 -54.5q2 47 4 66h95q0 -14 -0.5 -68.5t-0.5 -81.5v-319zM143 263q0 -79 37 -127t98 -48q77 0 107.5 46t30.5 135q0 90 -29 134.5t-105 44.5q-67 0 -103 -50.5t-36 -134.5z" />
    <glyph glyph-name="Gbreve" unicode="&#x11e;" horiz-adv-x="747" 
d="M294 911q5 -29 27.5 -47t57.5 -18q74 0 87 65h75q-5 -29 -16.5 -52.5t-31 -42.5t-49 -30t-66.5 -11q-75 0 -115 39.5t-45 96.5h76zM674 0h-79q-7 21 -11 91q-64 -101 -217 -101q-99 0 -171.5 47.5t-107.5 127t-35 182.5q0 107 37.5 190.5t114 132.5t182.5 49
q81 0 144.5 -28.5t100.5 -77t46 -111.5h-105q-40 130 -188 130q-59 0 -102.5 -22t-69 -61.5t-38 -88.5t-12.5 -108q0 -55 12.5 -103t38 -87t68.5 -61.5t99 -22.5q190 0 190 211v7h-191v90h294v-386z" />
    <glyph glyph-name="gbreve" unicode="&#x11f;" horiz-adv-x="584" 
d="M213 738q17 -67 78 -67q16 0 28.5 4t20.5 10t14.5 15.5t9.5 18t6 19.5h72q-9 -62 -47 -101.5t-104 -39.5q-72 0 -109 41t-41 100h72zM511 50q0 -129 -57.5 -196t-185.5 -67q-58 0 -101 15t-66.5 40t-35 50.5t-15.5 54.5h102q22 -83 121 -83q42 0 70 12.5t43 38.5t21 58.5
t6 78.5v39q-44 -88 -159 -88q-97 0 -156 71.5t-59 184.5q0 123 64 197.5t161 74.5q66 0 102.5 -23.5t46.5 -54.5q2 47 4 66h95q0 -14 -0.5 -68.5t-0.5 -81.5v-319zM143 263q0 -79 37 -127t98 -48q77 0 107.5 46t30.5 135q0 90 -29 134.5t-105 44.5q-67 0 -103 -50.5
t-36 -134.5z" />
    <glyph glyph-name="Gdotaccent" unicode="&#x120;" horiz-adv-x="747" 
d="M327 783v115h102v-115h-102zM674 0h-79q-7 21 -11 91q-64 -101 -217 -101q-99 0 -171.5 47.5t-107.5 127t-35 182.5q0 107 37.5 190.5t114 132.5t182.5 49q81 0 144.5 -28.5t100.5 -77t46 -111.5h-105q-40 130 -188 130q-59 0 -102.5 -22t-69 -61.5t-38 -88.5t-12.5 -108
q0 -55 12.5 -103t38 -87t68.5 -61.5t99 -22.5q190 0 190 211v7h-191v90h294v-386z" />
    <glyph glyph-name="gdotaccent" unicode="&#x121;" horiz-adv-x="584" 
d="M242 632v116h100v-116h-100zM511 50q0 -129 -57.5 -196t-185.5 -67q-58 0 -101 15t-66.5 40t-35 50.5t-15.5 54.5h102q22 -83 121 -83q42 0 70 12.5t43 38.5t21 58.5t6 78.5v39q-44 -88 -159 -88q-97 0 -156 71.5t-59 184.5q0 123 64 197.5t161 74.5q66 0 102.5 -23.5
t46.5 -54.5q2 47 4 66h95q0 -14 -0.5 -68.5t-0.5 -81.5v-319zM143 263q0 -79 37 -127t98 -48q77 0 107.5 46t30.5 135q0 90 -29 134.5t-105 44.5q-67 0 -103 -50.5t-36 -134.5z" />
    <glyph glyph-name="uni0122" unicode="&#x122;" horiz-adv-x="747" 
d="M674 0h-79q-7 21 -11 91q-64 -101 -217 -101q-99 0 -171.5 47.5t-107.5 127t-35 182.5q0 107 37.5 190.5t114 132.5t182.5 49q81 0 144.5 -28.5t100.5 -77t46 -111.5h-105q-40 130 -188 130q-59 0 -102.5 -22t-69 -61.5t-38 -88.5t-12.5 -108q0 -55 12.5 -103t38 -87
t68.5 -61.5t99 -22.5q190 0 190 211v7h-191v90h294v-386zM289 -259q48 105 57 205h101q-3 -35 -14 -75t-27.5 -74.5t-34.5 -55.5h-82z" />
    <glyph glyph-name="uni0123" unicode="&#x123;" horiz-adv-x="584" 
d="M389 803q-57 -126 -64 -206h-99q5 50 26 107t48 99h89zM511 50q0 -129 -57.5 -196t-185.5 -67q-58 0 -101 15t-66.5 40t-35 50.5t-15.5 54.5h102q22 -83 121 -83q42 0 70 12.5t43 38.5t21 58.5t6 78.5v39q-44 -88 -159 -88q-97 0 -156 71.5t-59 184.5q0 123 64 197.5
t161 74.5q66 0 102.5 -23.5t46.5 -54.5q2 47 4 66h95q0 -14 -0.5 -68.5t-0.5 -81.5v-319zM143 263q0 -79 37 -127t98 -48q77 0 107.5 46t30.5 135q0 90 -29 134.5t-105 44.5q-67 0 -103 -50.5t-36 -134.5z" />
    <glyph glyph-name="Hcircumflex" unicode="&#x124;" horiz-adv-x="746" 
d="M427 906l133 -135h-102l-83 82l-86 -82h-102l137 135h103zM92 709h105v-293h353v293h105v-709h-105v327h-353v-327h-105v709z" />
    <glyph glyph-name="hcircumflex" unicode="&#x125;" horiz-adv-x="583" 
d="M188 914l110 -113h-104l-71 64l-68 -64h-104l109 113h128zM174 748v-302q51 85 160 85q34 0 64 -10t55.5 -32t40.5 -62.5t15 -94.5v-332h-100v315q0 132 -107 132q-128 0 -128 -164v-283h-100v748h100z" />
    <glyph glyph-name="Hbar" unicode="&#x126;" horiz-adv-x="746" 
d="M92 600v109h105v-109h353v109h105v-109h66v-77h-66v-523h-105v326h-353v-326h-105v523h-66v77h66zM550 416v107h-353v-107h353z" />
    <glyph glyph-name="hbar" unicode="&#x127;" horiz-adv-x="583" 
d="M174 748v-85h214v-65h-214v-160q50 88 163 88q34 0 63 -10t54.5 -31.5t40 -62t14.5 -96.5v-326h-100v310q0 131 -106 131q-32 0 -56.5 -11.5t-40.5 -33t-24 -50.5t-8 -66v-280h-100v598h-83v65h83v85h100z" />
    <glyph glyph-name="Itilde" unicode="&#x128;" horiz-adv-x="288" 
d="M-32 779v26q0 54 23 77.5t66 23.5q36 0 92 -26t71 -26q31 0 31 43v10h68v-22q0 -59 -22.5 -84t-66.5 -25q-32 0 -88 26.5t-75 26.5q-28 0 -28 -32v-18h-71zM197 709v-709h-105v709h105z" />
    <glyph glyph-name="itilde" unicode="&#x129;" horiz-adv-x="248" 
d="M-38 614v26q0 101 86 101q32 0 79.5 -24.5t62.5 -24.5q14 0 21 9t7 31v11h68v-23q0 -107 -88 -107q-32 0 -77 24.5t-63 24.5q-26 0 -26 -32v-16h-70zM74 519h100v-519h-100v519z" />
    <glyph glyph-name="Imacron" unicode="&#x12a;" horiz-adv-x="288" 
d="M290 865v-77h-292v77h292zM197 709v-709h-105v709h105z" />
    <glyph glyph-name="imacron" unicode="&#x12b;" horiz-adv-x="248" 
d="M268 715v-79h-287v79h287zM74 519h100v-519h-100v519z" />
    <glyph glyph-name="Iogonek" unicode="&#x12e;" horiz-adv-x="288" 
d="M197 709v-709h-5q-67 -55 -67 -105q0 -24 16 -38t41 -14q33 0 56 8v-74q-31 -17 -84 -17q-56 0 -88.5 30t-32.5 84q0 63 61 126h-2v709h105z" />
    <glyph glyph-name="iogonek" unicode="&#x12f;" horiz-adv-x="248" 
d="M74 632v116h100v-116h-100zM217 -223q-31 -17 -83 -17q-57 0 -89.5 30t-32.5 84q0 65 62 127v518h100v-519h-3q-66 -55 -66 -105q0 -24 15.5 -38t40.5 -14q33 0 56 8v-74z" />
    <glyph glyph-name="Idotaccent" unicode="&#x130;" horiz-adv-x="288" 
d="M93 783v115h102v-115h-102zM197 709v-709h-105v709h105z" />
    <glyph glyph-name="dotlessi" unicode="&#x131;" horiz-adv-x="248" 
d="M74 519h100v-519h-100v519z" />
    <glyph glyph-name="Jcircumflex" unicode="&#x134;" horiz-adv-x="381" 
d="M296 906l132 -135h-102l-82 82l-87 -82h-102l138 135h103zM295 210q0 -118 -45.5 -169t-141.5 -51q-41 0 -78 7v87q26 -4 66 -4q30 0 49.5 9.5t28.5 29t12.5 39.5t3.5 48v503h105v-499z" />
    <glyph glyph-name="jcircumflex" unicode="&#x135;" horiz-adv-x="248" 
d="M170 748l115 -154h-96l-66 98l-64 -98h-95l114 154h92zM174 519v-530q0 -56 -6.5 -93t-24 -62t-46.5 -36t-74 -11q-18 0 -36 2v83q7 -1 20 -1q40 0 53.5 22.5t13.5 76.5v549h100z" />
    <glyph glyph-name="uni0136" unicode="&#x136;" horiz-adv-x="658" 
d="M92 709h104v-342q6 7 137.5 141t194.5 201h130l-301 -299l315 -410h-127l-261 343l-88 -81v-262h-104v709zM245 -259q49 105 57 205h101q-4 -53 -26 -112.5t-50 -92.5h-82z" />
    <glyph glyph-name="uni0137" unicode="&#x137;" horiz-adv-x="525" 
d="M174 277q25 30 112 125t107 117h118l-193 -201l214 -318h-116l-166 254l-76 -73v-181h-100v748h100v-471zM175 -259q49 105 58 205h101q-4 -53 -26.5 -112.5t-49.5 -92.5h-83z" />
    <glyph glyph-name="kgreenlandic" unicode="&#x138;" horiz-adv-x="522" 
d="M174 276q20 24 58 67t90 100t69 76h117q-35 -37 -103 -107t-96 -100q37 -52 112 -159t108 -153h-116q-22 32 -83.5 120.5t-87.5 126.5l-68 -66v-181h-100v519h100v-243z" />
    <glyph glyph-name="Lacute" unicode="&#x139;" horiz-adv-x="577" 
d="M368 913l-176 -141h-101l148 141h129zM92 709h105v-620h366l-14 -89h-457v709z" />
    <glyph glyph-name="lacute" unicode="&#x13a;" horiz-adv-x="248" 
d="M322 926l-152 -123h-98l125 123h125zM74 0v748h100v-748h-100z" />
    <glyph glyph-name="uni013B" unicode="&#x13b;" horiz-adv-x="577" 
d="M92 709h105v-620h366l-14 -89h-457v709zM225 -259q49 105 58 205h101q-4 -53 -26.5 -112.5t-49.5 -92.5h-83z" />
    <glyph glyph-name="uni013C" unicode="&#x13c;" horiz-adv-x="248" 
d="M74 0v748h100v-748h-100zM17 -259q49 105 57 205h101q-3 -53 -25.5 -112.5t-49.5 -92.5h-83z" />
    <glyph glyph-name="Lcaron" unicode="&#x13d;" horiz-adv-x="577" 
d="M364 452l-4 258h81l-5 -258h-72zM92 709h105v-620h366l-14 -89h-457v709z" />
    <glyph glyph-name="lcaron" unicode="&#x13e;" horiz-adv-x="308" 
d="M74 0v748h100v-748h-100zM248 490l-4 258h80l-5 -258h-71z" />
    <glyph glyph-name="Ldot" unicode="&#x13f;" horiz-adv-x="577" 
d="M92 709h105v-620h366l-14 -89h-457v709zM362 313v152h101v-152h-101z" />
    <glyph glyph-name="ldot" unicode="&#x140;" horiz-adv-x="294" 
d="M74 0v748h100v-748h-100zM221 368v151h93v-151h-93z" />
    <glyph glyph-name="Lslash" unicode="&#x141;" horiz-adv-x="587" 
d="M207 364v-275h366l-14 -89h-457v316l-92 -43v76l92 43v317h105v-267l154 72v-78z" />
    <glyph glyph-name="lslash" unicode="&#x142;" horiz-adv-x="263" 
d="M82 0v347l-65 -35v88l65 35v313h100v-260l73 39v-86l-73 -40v-401h-100z" />
    <glyph glyph-name="Nacute" unicode="&#x143;" horiz-adv-x="760" 
d="M598 912l-177 -141h-101l148 141h130zM92 0v709h136q22 -36 57.5 -94.5t68.5 -113t70.5 -116t66.5 -110.5t52.5 -89t32.5 -58h1q-6 75 -6 317v264h98v-709h-128q-298 496 -354 601h-2q6 -93 6 -331v-270h-99z" />
    <glyph glyph-name="nacute" unicode="&#x144;" horiz-adv-x="582" 
d="M481 758l-158 -155h-92l128 155h122zM74 389q0 90 -1 130h98q4 -30 4 -81q43 93 161 93q78 0 125.5 -49.5t47.5 -147.5v-334h-100v321q0 126 -105 126q-44 0 -73.5 -21.5t-42.5 -58.5t-13 -90v-277h-101v389z" />
    <glyph glyph-name="uni0145" unicode="&#x145;" horiz-adv-x="760" 
d="M92 0v709h136q22 -36 57.5 -94.5t68.5 -113t70.5 -116t66.5 -110.5t52.5 -89t32.5 -58h1q-6 75 -6 317v264h98v-709h-128q-298 496 -354 601h-2q6 -93 6 -331v-270h-99zM288 -259q48 105 57 205h101q-4 -53 -26 -112.5t-50 -92.5h-82z" />
    <glyph glyph-name="uni0146" unicode="&#x146;" horiz-adv-x="582" 
d="M74 389q0 90 -1 130h98q4 -30 4 -81q43 93 161 93q78 0 125.5 -49.5t47.5 -147.5v-334h-100v321q0 126 -105 126q-44 0 -73.5 -21.5t-42.5 -58.5t-13 -90v-277h-101v389zM187 -259q48 105 57 205h101q-4 -53 -26 -112.5t-50 -92.5h-82z" />
    <glyph glyph-name="Ncaron" unicode="&#x147;" horiz-adv-x="760" 
d="M330 770l-134 135h102l82 -82l87 82h102l-140 -135h-99zM92 0v709h136q22 -36 57.5 -94.5t68.5 -113t70.5 -116t66.5 -110.5t52.5 -89t32.5 -58h1q-6 75 -6 317v264h98v-709h-128q-298 496 -354 601h-2q6 -93 6 -331v-270h-99z" />
    <glyph glyph-name="ncaron" unicode="&#x148;" horiz-adv-x="582" 
d="M244 599l-113 154h95l66 -97l63 97h96l-113 -154h-94zM74 389q0 90 -1 130h98q4 -30 4 -81q43 93 161 93q78 0 125.5 -49.5t47.5 -147.5v-334h-100v321q0 126 -105 126q-44 0 -73.5 -21.5t-42.5 -58.5t-13 -90v-277h-101v389z" />
    <glyph glyph-name="napostrophe" unicode="&#x149;" horiz-adv-x="582" 
d="M12 592q30 93 36 207h96q-3 -55 -19 -114t-37 -93h-76zM74 389q0 90 -1 130h98q4 -30 4 -81q43 93 161 93q78 0 125.5 -49.5t47.5 -147.5v-334h-100v321q0 126 -105 126q-44 0 -73.5 -21.5t-42.5 -58.5t-13 -90v-277h-101v389z" />
    <glyph glyph-name="Omacron" unicode="&#x14c;" horiz-adv-x="769" 
d="M530 875v-76h-291v76h291zM389 719q149 0 238 -100t89 -261q0 -75 -21.5 -140.5t-62 -117t-105.5 -81t-147 -29.5q-102 0 -177.5 49t-112.5 130.5t-37 184.5t38.5 185t115.5 131t182 49zM385 630q-75 0 -126 -38t-73.5 -98t-22.5 -137t24 -139t75.5 -100.5t122.5 -38.5
q46 0 83.5 14.5t63 40.5t42.5 61.5t24.5 75.5t7.5 85q0 57 -13.5 106t-40 87t-69.5 59.5t-98 21.5z" />
    <glyph glyph-name="omacron" unicode="&#x14d;" horiz-adv-x="566" 
d="M426 715v-79h-287v79h287zM287 531q109 0 174.5 -74t65.5 -196q0 -119 -65 -196t-182 -77q-73 0 -128.5 35t-84 96.5t-28.5 139.5q0 119 66 195.5t182 76.5zM282.5 449q-67.5 0 -104 -50t-36.5 -139q0 -85 38.5 -137.5t104.5 -52.5t103 51t37 138q0 88 -37.5 139t-105 51
z" />
    <glyph glyph-name="Ohungarumlaut" unicode="&#x150;" horiz-adv-x="769" 
d="M456 913l-141 -140h-85l114 140h112zM645 913l-140 -140h-86l115 140h111zM389 719q149 0 238 -100t89 -261q0 -75 -21.5 -140.5t-62 -117t-105.5 -81t-147 -29.5q-102 0 -177.5 49t-112.5 130.5t-37 184.5t38.5 185t115.5 131t182 49zM385 630q-75 0 -126 -38t-73.5 -98
t-22.5 -137t24 -139t75.5 -100.5t122.5 -38.5q46 0 83.5 14.5t63 40.5t42.5 61.5t24.5 75.5t7.5 85q0 57 -13.5 106t-40 87t-69.5 59.5t-98 21.5z" />
    <glyph glyph-name="ohungarumlaut" unicode="&#x151;" horiz-adv-x="566" 
d="M135 592l102 157h104l-126 -157h-80zM324 592l102 157h104l-125 -157h-81zM287 531q109 0 174.5 -74t65.5 -196q0 -119 -65 -196t-182 -77q-73 0 -128.5 35t-84 96.5t-28.5 139.5q0 119 66 195.5t182 76.5zM282.5 449q-67.5 0 -104 -50t-36.5 -139q0 -85 38.5 -137.5
t104.5 -52.5t103 51t37 138q0 88 -37.5 139t-105 51z" />
    <glyph glyph-name="OE" unicode="&#x152;" horiz-adv-x="1041" 
d="M988 617h-345v-201h328v-92h-328v-233h364l-14 -91h-429q-73 -9 -141 -9q-89 0 -160.5 27.5t-116.5 77t-69 115t-24 143.5q0 74 25.5 139.5t73 115t120.5 78.5t164 29q79 0 136 -7h416v-92zM539 619q-29 9 -105 9q-123 0 -197 -70.5t-74 -200.5t73 -204t193 -74
q71 0 110 8v532z" />
    <glyph glyph-name="oe" unicode="&#x153;" horiz-adv-x="928" 
d="M660 -12q-124 0 -185 102q-66 -102 -195 -102q-73 0 -128.5 35t-84 96.5t-28.5 139.5q0 119 66 195.5t182 76.5q62 0 111 -26.5t79 -75.5q29 48 76.5 75t111.5 27q59 0 104 -21.5t70.5 -58t38 -78t12.5 -85.5q0 -33 -1 -47h-361q0 -76 36.5 -123.5t98.5 -47.5
q50 0 76.5 21t41.5 55h101q-8 -28 -23.5 -53.5t-41 -50.5t-66 -39.5t-91.5 -14.5zM789 309q0 42 -14 74t-42.5 51t-68.5 20q-61 1 -93.5 -38t-39.5 -107h258zM282.5 449q-67.5 0 -104 -50t-36.5 -139q0 -85 38.5 -137.5t104.5 -52.5t103 51t37 138q0 88 -37.5 139t-105 51z
" />
    <glyph glyph-name="Racute" unicode="&#x154;" horiz-adv-x="658" 
d="M547 912l-177 -141h-101l148 141h130zM196 307v-307h-104v709h283q108 0 167 -53t59 -138q0 -66 -33 -109t-85 -58q105 -28 105 -181v-30q0 -112 10 -140h-102q-13 31 -13 154v13q0 77 -30.5 108.5t-120.5 31.5h-136zM196 394h149q77 0 112.5 28.5t35.5 86.5
q0 54 -35.5 83t-103.5 29h-158v-227z" />
    <glyph glyph-name="racute" unicode="&#x155;" horiz-adv-x="367" 
d="M387 758l-159 -155h-92l128 155h123zM74 378q0 39 -0.5 85t-0.5 56h98q3 -21 3 -103q21 53 65.5 83.5t108.5 31.5v-99q-84 -1 -129 -45t-45 -140v-247h-100v378z" />
    <glyph glyph-name="uni0156" unicode="&#x156;" horiz-adv-x="658" 
d="M196 307v-307h-104v709h283q108 0 167 -53t59 -138q0 -66 -33 -109t-85 -58q105 -28 105 -181v-30q0 -112 10 -140h-102q-13 31 -13 154v13q0 77 -30.5 108.5t-120.5 31.5h-136zM196 394h149q77 0 112.5 28.5t35.5 86.5q0 54 -35.5 83t-103.5 29h-158v-227zM241 -259
q49 105 57 205h101q-4 -53 -26 -112.5t-50 -92.5h-82z" />
    <glyph glyph-name="uni0157" unicode="&#x157;" horiz-adv-x="367" 
d="M74 378q0 39 -0.5 85t-0.5 56h98q3 -21 3 -103q21 53 65.5 83.5t108.5 31.5v-99q-84 -1 -129 -45t-45 -140v-247h-100v378zM17 -259q49 105 57 205h101q-3 -53 -25.5 -112.5t-49.5 -92.5h-83z" />
    <glyph glyph-name="Rcaron" unicode="&#x158;" horiz-adv-x="658" 
d="M279 771l-134 135h102l82 -82l87 82h102l-140 -135h-99zM196 307v-307h-104v709h283q108 0 167 -53t59 -138q0 -66 -33 -109t-85 -58q105 -28 105 -181v-30q0 -112 10 -140h-102q-13 31 -13 154v13q0 77 -30.5 108.5t-120.5 31.5h-136zM196 394h149q77 0 112.5 28.5
t35.5 86.5q0 54 -35.5 83t-103.5 29h-158v-227z" />
    <glyph glyph-name="rcaron" unicode="&#x159;" horiz-adv-x="367" 
d="M154 594l-113 154h96l65 -97l63 97h96l-113 -154h-94zM74 378q0 39 -0.5 85t-0.5 56h98q3 -21 3 -103q21 53 65.5 83.5t108.5 31.5v-99q-84 -1 -129 -45t-45 -140v-247h-100v378z" />
    <glyph glyph-name="Sacute" unicode="&#x15a;" horiz-adv-x="624" 
d="M528 917l-176 -141h-101l148 141h129zM147 199q30 -126 174 -126q75 0 111 30.5t36 82.5q0 53 -36 84t-136 54q-126 31 -177 77.5t-51 122.5q0 86 62 140.5t178 54.5q62 0 110.5 -16.5t77.5 -45t45 -61.5t20 -71h-107q-21 110 -149 110q-61 0 -95 -25.5t-34 -73.5
q0 -47 34 -71.5t127 -47.5q73 -18 122.5 -41.5t74 -52.5t34 -58t9.5 -67q0 -92 -67.5 -149.5t-195.5 -57.5q-65 0 -115.5 16.5t-82.5 45.5t-50.5 65.5t-24.5 80.5h106z" />
    <glyph glyph-name="sacute" unicode="&#x15b;" horiz-adv-x="490" 
d="M430 758l-158 -155h-92l128 155h122zM131 150q20 -85 121 -85q99 0 99 74q0 23 -10 38.5t-35 27.5t-72 23q-75 18 -116 41.5t-54 49.5t-13 65q0 61 48 104t144 43q40 0 73 -8.5t55 -23.5t37.5 -35t23.5 -40.5t10 -43.5h-96q-18 76 -107 76q-47 0 -68 -18.5t-21 -45.5
q0 -29 22.5 -44.5t90.5 -32.5q30 -7 54.5 -15t43.5 -16.5t33.5 -18t24.5 -20t17 -21.5t11 -24t5.5 -25.5t1.5 -27.5q0 -71 -54 -115t-152 -44q-99 0 -153 44t-64 118h100z" />
    <glyph glyph-name="Scircumflex" unicode="&#x15c;" horiz-adv-x="624" 
d="M365 906l133 -135h-102l-83 82l-87 -82h-102l138 135h103zM147 199q30 -126 174 -126q75 0 111 30.5t36 82.5q0 53 -36 84t-136 54q-126 31 -177 77.5t-51 122.5q0 86 62 140.5t178 54.5q62 0 110.5 -16.5t77.5 -45t45 -61.5t20 -71h-107q-21 110 -149 110
q-61 0 -95 -25.5t-34 -73.5q0 -47 34 -71.5t127 -47.5q73 -18 122.5 -41.5t74 -52.5t34 -58t9.5 -67q0 -92 -67.5 -149.5t-195.5 -57.5q-65 0 -115.5 16.5t-82.5 45.5t-50.5 65.5t-24.5 80.5h106z" />
    <glyph glyph-name="scircumflex" unicode="&#x15d;" horiz-adv-x="490" 
d="M292 748l114 -154h-96l-65 98l-64 -98h-95l113 154h93zM131 150q20 -85 121 -85q99 0 99 74q0 23 -10 38.5t-35 27.5t-72 23q-75 18 -116 41.5t-54 49.5t-13 65q0 61 48 104t144 43q40 0 73 -8.5t55 -23.5t37.5 -35t23.5 -40.5t10 -43.5h-96q-18 76 -107 76
q-47 0 -68 -18.5t-21 -45.5q0 -29 22.5 -44.5t90.5 -32.5q30 -7 54.5 -15t43.5 -16.5t33.5 -18t24.5 -20t17 -21.5t11 -24t5.5 -25.5t1.5 -27.5q0 -71 -54 -115t-152 -44q-99 0 -153 44t-64 118h100z" />
    <glyph glyph-name="uni015E" unicode="&#x15e;" horiz-adv-x="624" 
d="M147 199q30 -126 174 -126q75 0 111 30.5t36 82.5q0 53 -36 84t-136 54q-126 31 -177 77.5t-51 122.5q0 86 62 140.5t178 54.5q62 0 110.5 -16.5t77.5 -45t45 -61.5t20 -71h-107q-21 110 -149 110q-61 0 -95 -25.5t-34 -73.5q0 -47 34 -71.5t127 -47.5
q73 -18 122.5 -41.5t74 -52.5t34 -58t9.5 -67q0 -84 -56.5 -140t-163.5 -65l-36 -44q97 -19 97 -96q0 -29 -12 -50t-32.5 -31.5t-41 -15t-43.5 -4.5q-48 0 -75 12v65q27 -11 64 -11q54 0 54 34q0 42 -102 44v30l50 66q-109 8 -168.5 64.5t-70.5 142.5h106z" />
    <glyph glyph-name="uni015F" unicode="&#x15f;" horiz-adv-x="490" 
d="M131 150q20 -85 121 -85q99 0 99 74q0 23 -10 38.5t-35 27.5t-72 23q-75 18 -116 41.5t-54 49.5t-13 65q0 61 48 104t144 43q40 0 73 -8.5t55 -23.5t37.5 -35t23.5 -40.5t10 -43.5h-96q-18 76 -107 76q-47 0 -68 -18.5t-21 -45.5q0 -29 22.5 -44.5t90.5 -32.5
q30 -7 54.5 -15t43.5 -16.5t33.5 -18t24.5 -20t17 -21.5t11 -24t5.5 -25.5t1.5 -27.5q0 -41 -18.5 -73.5t-55.5 -55t-90 -28.5l-34 -41q97 -19 97 -96q0 -29 -12 -50t-32.5 -31.5t-41 -15t-44.5 -4.5q-48 0 -74 12v65q27 -11 64 -11q53 0 53 34q0 42 -102 44v30l49 64
q-82 7 -127.5 50t-54.5 110h100z" />
    <glyph glyph-name="Scaron" unicode="&#x160;" horiz-adv-x="624" 
d="M259 771l-135 135h102l83 -82l87 82h102l-140 -135h-99zM147 199q30 -126 174 -126q75 0 111 30.5t36 82.5q0 53 -36 84t-136 54q-126 31 -177 77.5t-51 122.5q0 86 62 140.5t178 54.5q62 0 110.5 -16.5t77.5 -45t45 -61.5t20 -71h-107q-21 110 -149 110q-61 0 -95 -25.5
t-34 -73.5q0 -47 34 -71.5t127 -47.5q73 -18 122.5 -41.5t74 -52.5t34 -58t9.5 -67q0 -92 -67.5 -149.5t-195.5 -57.5q-65 0 -115.5 16.5t-82.5 45.5t-50.5 65.5t-24.5 80.5h106z" />
    <glyph glyph-name="scaron" unicode="&#x161;" horiz-adv-x="490" 
d="M199 594l-113 154h96l65 -97l63 97h96l-113 -154h-94zM131 150q20 -85 121 -85q99 0 99 74q0 23 -10 38.5t-35 27.5t-72 23q-75 18 -116 41.5t-54 49.5t-13 65q0 61 48 104t144 43q40 0 73 -8.5t55 -23.5t37.5 -35t23.5 -40.5t10 -43.5h-96q-18 76 -107 76
q-47 0 -68 -18.5t-21 -45.5q0 -29 22.5 -44.5t90.5 -32.5q30 -7 54.5 -15t43.5 -16.5t33.5 -18t24.5 -20t17 -21.5t11 -24t5.5 -25.5t1.5 -27.5q0 -71 -54 -115t-152 -44q-99 0 -153 44t-64 118h100z" />
    <glyph glyph-name="uni0162" unicode="&#x162;" horiz-adv-x="575" 
d="M235 619h-227v90h559v-90h-226v-619h-9l-42 -51q97 -19 97 -96q0 -29 -12.5 -50t-32.5 -31.5t-41 -15t-44 -4.5q-48 0 -74 12v65q27 -11 64 -11q53 0 53 34q0 42 -102 44v30l57 74h-20v619z" />
    <glyph glyph-name="uni0163" unicode="&#x163;" horiz-adv-x="333" 
d="M11 519h88v151h100v-151h112v-79h-112v-295q0 -39 12.5 -56t45.5 -17q30 0 43 4v-74q-19 -7 -56 -9l-37 -44q97 -19 97 -96q0 -29 -12 -50t-32.5 -31.5t-41 -15t-44.5 -4.5q-48 0 -74 12v65q27 -11 64 -11q53 0 53 34q0 42 -102 44v30l56 73q-72 20 -72 125v316h-88v79z
" />
    <glyph glyph-name="Tcaron" unicode="&#x164;" horiz-adv-x="575" 
d="M236 771l-135 135h102l83 -82l86 82h102l-139 -135h-99zM235 619h-227v90h559v-90h-226v-619h-106v619z" />
    <glyph glyph-name="tcaron" unicode="&#x165;" horiz-adv-x="333" 
d="M278 602l-1 222h82l-16 -222h-65zM11 519h88v151h100v-151h112v-79h-112v-295q0 -39 12.5 -56t45.5 -17q30 0 43 4v-74q-27 -9 -81 -9q-63 0 -91.5 32t-28.5 99v316h-88v79z" />
    <glyph glyph-name="Utilde" unicode="&#x168;" horiz-adv-x="731" 
d="M190 783v26q0 54 22.5 77.5t65.5 23.5q36 0 92.5 -26t71.5 -26q30 0 30 43v10h69v-22q0 -59 -23 -84t-67 -25q-31 0 -87.5 26.5t-74.5 26.5q-29 0 -29 -32v-18h-70zM191 709v-426q0 -58 14.5 -100t40.5 -64t55.5 -31.5t64.5 -9.5q84 0 129.5 46.5t45.5 158.5v426h105
v-420q0 -298 -282 -298q-59 0 -107.5 15t-88 47.5t-61.5 90.5t-22 139v426h106z" />
    <glyph glyph-name="utilde" unicode="&#x169;" horiz-adv-x="573" 
d="M124 614v26q0 101 86 101q32 0 79.5 -24.5t62.5 -24.5q14 0 21 9t7 31v11h68v-23q0 -107 -88 -107q-32 0 -77 24.5t-63 24.5q-26 0 -26 -32v-16h-70zM499 151q0 -27 0.5 -81.5t0.5 -69.5h-98q-3 20 -3 74q-41 -86 -154 -86q-76 0 -124.5 45t-48.5 145v341h100v-319
q0 -127 102 -127q68 0 96.5 40.5t28.5 134.5v271h100v-368z" />
    <glyph glyph-name="Umacron" unicode="&#x16a;" horiz-adv-x="731" 
d="M511 873v-76h-292v76h292zM191 709v-426q0 -58 14.5 -100t40.5 -64t55.5 -31.5t64.5 -9.5q84 0 129.5 46.5t45.5 158.5v426h105v-420q0 -298 -282 -298q-59 0 -107.5 15t-88 47.5t-61.5 90.5t-22 139v426h106z" />
    <glyph glyph-name="umacron" unicode="&#x16b;" horiz-adv-x="573" 
d="M430 715v-79h-287v79h287zM499 151q0 -27 0.5 -81.5t0.5 -69.5h-98q-3 20 -3 74q-41 -86 -154 -86q-76 0 -124.5 45t-48.5 145v341h100v-319q0 -127 102 -127q68 0 96.5 40.5t28.5 134.5v271h100v-368z" />
    <glyph glyph-name="Ubreve" unicode="&#x16c;" horiz-adv-x="731" 
d="M279 906q6 -29 28.5 -47.5t57.5 -18.5q73 0 87 66h74q-9 -60 -49.5 -98t-112.5 -38q-76 0 -115.5 39.5t-44.5 96.5h75zM191 709v-426q0 -58 14.5 -100t40.5 -64t55.5 -31.5t64.5 -9.5q84 0 129.5 46.5t45.5 158.5v426h105v-420q0 -298 -282 -298q-59 0 -107.5 15
t-88 47.5t-61.5 90.5t-22 139v426h106z" />
    <glyph glyph-name="ubreve" unicode="&#x16d;" horiz-adv-x="573" 
d="M208 738q16 -67 78 -67q37 0 54 18t25 49h72q-9 -62 -47 -101.5t-104 -39.5q-72 0 -109 41t-41 100h72zM499 151q0 -27 0.5 -81.5t0.5 -69.5h-98q-3 20 -3 74q-41 -86 -154 -86q-76 0 -124.5 45t-48.5 145v341h100v-319q0 -127 102 -127q68 0 96.5 40.5t28.5 134.5v271
h100v-368z" />
    <glyph glyph-name="Uring" unicode="&#x16e;" horiz-adv-x="731" 
d="M365 751q-51 0 -81 28t-30 72q0 43 30 72t81 29t81 -28.5t30 -71.5q0 -44 -30.5 -72.5t-80.5 -28.5zM365 800q25 0 38.5 14.5t13.5 36t-13.5 37.5t-38.5 16q-26 0 -39 -15t-13 -36q0 -14 5 -25.5t17.5 -19.5t29.5 -8zM191 709v-426q0 -58 14.5 -100t40.5 -64t55.5 -31.5
t64.5 -9.5q84 0 129.5 46.5t45.5 158.5v426h105v-420q0 -298 -282 -298q-59 0 -107.5 15t-88 47.5t-61.5 90.5t-22 139v426h106z" />
    <glyph glyph-name="uring" unicode="&#x16f;" horiz-adv-x="573" 
d="M287 578q-51 0 -81.5 28.5t-30.5 71.5t30.5 72t81.5 29q50 0 80.5 -28t30.5 -72q0 -43 -31 -72t-80 -29zM287 627q24 0 38 15t14 36t-13.5 37t-38.5 16q-26 0 -39 -15t-13 -36q0 -22 13 -37.5t39 -15.5zM499 151q0 -27 0.5 -81.5t0.5 -69.5h-98q-3 20 -3 74
q-41 -86 -154 -86q-76 0 -124.5 45t-48.5 145v341h100v-319q0 -127 102 -127q68 0 96.5 40.5t28.5 134.5v271h100v-368z" />
    <glyph glyph-name="Uhungarumlaut" unicode="&#x170;" horiz-adv-x="731" 
d="M437 916l-141 -140h-86l114 140h113zM625 916l-139 -140h-86l115 140h110zM191 709v-426q0 -58 14.5 -100t40.5 -64t55.5 -31.5t64.5 -9.5q84 0 129.5 46.5t45.5 158.5v426h105v-420q0 -298 -282 -298q-59 0 -107.5 15t-88 47.5t-61.5 90.5t-22 139v426h106z" />
    <glyph glyph-name="uhungarumlaut" unicode="&#x171;" horiz-adv-x="573" 
d="M134 592l102 157h104l-126 -157h-80zM323 592l102 157h104l-125 -157h-81zM499 151q0 -27 0.5 -81.5t0.5 -69.5h-98q-3 20 -3 74q-41 -86 -154 -86q-76 0 -124.5 45t-48.5 145v341h100v-319q0 -127 102 -127q68 0 96.5 40.5t28.5 134.5v271h100v-368z" />
    <glyph glyph-name="Uogonek" unicode="&#x172;" horiz-adv-x="731" 
d="M191 709v-426q0 -58 14.5 -100t40.5 -64t55.5 -31.5t64.5 -9.5q84 0 129.5 46.5t45.5 158.5v426h105v-420q0 -221 -156 -279q-65 -54 -65 -103q0 -16 7.5 -28t20 -18t28.5 -6q34 0 57 8v-74q-32 -16 -84 -16q-56 0 -88.5 30t-32.5 83t42 105h-11q-59 0 -107.5 15
t-88 47.5t-61.5 90.5t-22 139v426h106z" />
    <glyph glyph-name="uogonek" unicode="&#x173;" horiz-adv-x="573" 
d="M499 151q0 -27 0.5 -81.5t0.5 -69.5h-2q-67 -55 -67 -105q0 -24 16 -38t41 -14q33 0 56 8v-74q-31 -17 -84 -17q-56 0 -88.5 30t-32.5 84q0 64 63 127q-3 21 -3 73q-41 -86 -154 -86q-76 0 -124.5 45t-48.5 145v341h100v-319q0 -127 102 -127q68 0 96.5 40.5t28.5 134.5
v271h100v-368z" />
    <glyph glyph-name="Wcircumflex" unicode="&#x174;" horiz-adv-x="957" 
d="M532 906l133 -135h-102l-83 82l-86 -82h-102l137 135h103zM210 0l-189 709h113q20 -91 55 -237t55.5 -234.5t25.5 -124.5h1q11 54 74.5 287t82.5 309h101q135 -507 150 -592h1q8 45 29.5 129.5t42 161t46.5 170.5t35 131h103l-204 -709h-111q-13 50 -49.5 188.5
t-62.5 239.5t-35 142h-1q-7 -38 -27.5 -117.5t-38.5 -144l-48 -172t-38 -136.5h-111z" />
    <glyph glyph-name="wcircumflex" unicode="&#x175;" horiz-adv-x="789" 
d="M441 748l114 -154h-96l-65 98l-65 -98h-94l113 154h93zM130 519q95 -370 105 -427h1q16 79 114 427h97q100 -374 108 -418h1q20 89 109 418h101l-159 -519h-108q-17 67 -44.5 170t-41.5 159t-19 82h-1q-8 -51 -108 -411h-112l-150 519h107z" />
    <glyph glyph-name="Ycircumflex" unicode="&#x176;" horiz-adv-x="607" 
d="M358 906l133 -135h-102l-83 82l-87 -82h-102l138 135h103zM248 0v258q0 11 -5 19l-249 432h120q181 -331 192 -354q29 60 196 354h112l-256 -433q-4 -8 -4 -18v-258h-106z" />
    <glyph glyph-name="ycircumflex" unicode="&#x177;" horiz-adv-x="497" 
d="M295 748l114 -154h-96l-65 98l-64 -98h-95l113 154h93zM117 519q119 -353 138 -429h1q25 94 132 429h101l-185 -541q-39 -114 -79.5 -152.5t-122.5 -38.5q-26 0 -58 3v86q20 -4 42 -4q46 0 70.5 23.5t46.5 85.5l-194 538h108z" />
    <glyph glyph-name="Ydieresis" unicode="&#x178;" horiz-adv-x="607" 
d="M161 781v116h86v-116h-86zM362 781v116h85v-116h-85zM248 0v258q0 11 -5 19l-249 432h120q181 -331 192 -354q29 60 196 354h112l-256 -433q-4 -8 -4 -18v-258h-106z" />
    <glyph glyph-name="Zacute" unicode="&#x179;" horiz-adv-x="613" 
d="M519 917l-176 -141h-101l148 141h129zM31 80l423 539h-403v90h524v-88l-415 -532h430l-15 -89h-544v80z" />
    <glyph glyph-name="zacute" unicode="&#x17a;" horiz-adv-x="468" 
d="M418 758l-158 -155h-93l129 155h122zM27 80l290 357h-276v82h390v-82l-286 -354h301l-15 -83h-404v80z" />
    <glyph glyph-name="Zdotaccent" unicode="&#x17b;" horiz-adv-x="613" 
d="M255 792v114h102v-114h-102zM31 80l423 539h-403v90h524v-88l-415 -532h430l-15 -89h-544v80z" />
    <glyph glyph-name="zdotaccent" unicode="&#x17c;" horiz-adv-x="468" 
d="M184 632v116h100v-116h-100zM27 80l290 357h-276v82h390v-82l-286 -354h301l-15 -83h-404v80z" />
    <glyph glyph-name="Zcaron" unicode="&#x17d;" horiz-adv-x="613" 
d="M254 779l-135 135h102l83 -82l87 82h102l-140 -135h-99zM31 80l423 539h-403v90h524v-88l-415 -532h430l-15 -89h-544v80z" />
    <glyph glyph-name="zcaron" unicode="&#x17e;" horiz-adv-x="468" 
d="M187 594l-114 154h96l66 -97l63 97h96l-114 -154h-93zM27 80l290 357h-276v82h390v-82l-286 -354h301l-15 -83h-404v80z" />
    <glyph glyph-name="uni018F" unicode="&#x18f;" horiz-adv-x="732" 
d="M679 363q0 -108 -35.5 -191.5t-109 -132.5t-176.5 -49q-77 0 -137 25.5t-97.5 72t-56.5 108t-19 134.5q0 15 2 51h521q-1 116 -56.5 182.5t-157.5 66.5q-79 0 -125 -32t-72 -90h-102q9 32 25 61t42.5 57t59.5 48.5t78.5 32.5t98.5 12q79 0 141 -29t100 -79.5t57.5 -113.5
t18.5 -134zM157 300q0 -105 55.5 -164.5t148.5 -59.5q91 0 144.5 58.5t63.5 165.5h-412z" />
    <glyph glyph-name="florin" unicode="&#x192;" horiz-adv-x="538" 
d="M498 614q-23 12 -55 12q-19 0 -33.5 -7.5t-24 -19t-17 -30t-11.5 -36.5t-8 -41l-11 -71h119v-77h-131l-36 -236q-9 -53 -20.5 -91t-31 -70.5t-51 -49t-74.5 -16.5q-64 0 -96 21l21 80q26 -16 66 -16q38 0 54 32t30 114l37 232h-96v77h109l9 54q4 30 10 55t16 53.5t24 50
t33 39.5t45.5 28t59.5 10q58 0 83 -18z" />
    <glyph glyph-name="Ohorn" unicode="&#x1a0;" horiz-adv-x="769" 
d="M389 719q117 0 197 -63q46 16 46 59q0 29 -11 61h91q8 -21 8 -58q0 -40 -19 -72t-56 -48q71 -97 71 -240q0 -75 -21.5 -140.5t-62 -117t-105.5 -81t-147 -29.5q-102 0 -177.5 49t-112.5 130.5t-37 184.5t38.5 185t115.5 131t182 49zM385 630q-75 0 -126 -38t-73.5 -98
t-22.5 -137t24 -139t75.5 -100.5t122.5 -38.5q46 0 83.5 14.5t63 40.5t42.5 61.5t24.5 75.5t7.5 85q0 57 -13.5 106t-40 87t-69.5 59.5t-98 21.5z" />
    <glyph glyph-name="ohorn" unicode="&#x1a1;" horiz-adv-x="566" 
d="M287 531q90 0 152 -52q53 15 53 62q0 29 -12 61h91q8 -21 8 -58q0 -44 -23 -78t-66 -48q37 -66 37 -157q0 -119 -65 -196t-182 -77q-73 0 -128.5 35t-84 96.5t-28.5 139.5q0 119 66 195.5t182 76.5zM282.5 449q-67.5 0 -104 -50t-36.5 -139q0 -85 38.5 -137.5
t104.5 -52.5t103 51t37 138q0 88 -37.5 139t-105 51z" />
    <glyph glyph-name="Uhorn" unicode="&#x1af;" horiz-adv-x="731" 
d="M191 709v-426q0 -58 14.5 -100t40.5 -64t55.5 -31.5t64.5 -9.5q84 0 129.5 46.5t45.5 158.5v426h58q58 13 58 62q0 30 -11 61h90q9 -21 9 -58q0 -46 -25.5 -81t-73.5 -47v-357q0 -298 -282 -298q-59 0 -107.5 15t-88 47.5t-61.5 90.5t-22 139v426h106z" />
    <glyph glyph-name="uhorn" unicode="&#x1b0;" horiz-adv-x="573" 
d="M399 74q-41 -86 -154 -86q-76 0 -124.5 45t-48.5 145v341h100v-319q0 -127 102 -127q68 0 96.5 40.5t28.5 134.5v271h42q68 12 68 64q0 30 -11 62h91q8 -22 8 -59q0 -30 -11 -55t-33 -44.5t-54 -27.5v-308q0 -27 0.5 -81.5t0.5 -69.5h-98q-3 20 -3 74z" />
    <glyph glyph-name="uni01CD" unicode="&#x1cd;" horiz-adv-x="678" 
d="M285 771l-135 135h102l83 -82l86 82h102l-139 -135h-99zM195 203l-72 -203h-105l250 709h131l261 -709h-112l-75 203h-278zM448 293q-105 291 -116 332h-2q-9 -34 -109 -332h227z" />
    <glyph glyph-name="uni01CE" unicode="&#x1ce;" horiz-adv-x="544" 
d="M226 594l-113 154h96l65 -97l64 97h96l-114 -154h-94zM469 117q0 -34 2.5 -69.5t4.5 -47.5h-95q-5 15 -9 64q-39 -76 -157 -76q-86 0 -130.5 47t-44.5 112q0 57 29.5 95.5t84 56.5t132.5 18h85v42q0 19 -4 34t-14 30t-32 23.5t-55 8.5q-55 0 -76 -21t-29 -59h-97
q3 31 14.5 57t34 49.5t62.5 37t94 12.5q200 0 200 -171v-243zM372 250h-79q-76 0 -113.5 -23.5t-37.5 -73.5q0 -39 25.5 -64t70.5 -25q34 0 59 9.5t39.5 24.5t22.5 38t10.5 45.5t2.5 52.5v16z" />
    <glyph glyph-name="uni01CF" unicode="&#x1cf;" horiz-adv-x="288" 
d="M95 771l-135 135h102l83 -82l87 82h102l-140 -135h-99zM197 709v-709h-105v709h105z" />
    <glyph glyph-name="uni01D0" unicode="&#x1d0;" horiz-adv-x="248" 
d="M78 594l-114 154h96l65 -97l64 97h96l-114 -154h-93zM74 519h100v-519h-100v519z" />
    <glyph glyph-name="uni01D1" unicode="&#x1d1;" horiz-adv-x="769" 
d="M333 775l-135 135h102l82 -82l87 82h102l-140 -135h-98zM389 719q149 0 238 -100t89 -261q0 -75 -21.5 -140.5t-62 -117t-105.5 -81t-147 -29.5q-102 0 -177.5 49t-112.5 130.5t-37 184.5t38.5 185t115.5 131t182 49zM385 630q-75 0 -126 -38t-73.5 -98t-22.5 -137
t24 -139t75.5 -100.5t122.5 -38.5q46 0 83.5 14.5t63 40.5t42.5 61.5t24.5 75.5t7.5 85q0 57 -13.5 106t-40 87t-69.5 59.5t-98 21.5z" />
    <glyph glyph-name="uni01D2" unicode="&#x1d2;" horiz-adv-x="566" 
d="M236 594l-114 154h96l66 -97l63 97h96l-114 -154h-93zM287 531q109 0 174.5 -74t65.5 -196q0 -119 -65 -196t-182 -77q-73 0 -128.5 35t-84 96.5t-28.5 139.5q0 119 66 195.5t182 76.5zM282.5 449q-67.5 0 -104 -50t-36.5 -139q0 -85 38.5 -137.5t104.5 -52.5t103 51
t37 138q0 88 -37.5 139t-105 51z" />
    <glyph glyph-name="uni01D3" unicode="&#x1d3;" horiz-adv-x="731" 
d="M313 776l-135 135h102l83 -82l87 82h102l-140 -135h-99zM191 709v-426q0 -58 14.5 -100t40.5 -64t55.5 -31.5t64.5 -9.5q84 0 129.5 46.5t45.5 158.5v426h105v-420q0 -298 -282 -298q-59 0 -107.5 15t-88 47.5t-61.5 90.5t-22 139v426h106z" />
    <glyph glyph-name="uni01D4" unicode="&#x1d4;" horiz-adv-x="573" 
d="M240 594l-114 154h96l66 -97l63 97h96l-113 -154h-94zM499 151q0 -27 0.5 -81.5t0.5 -69.5h-98q-3 20 -3 74q-41 -86 -154 -86q-76 0 -124.5 45t-48.5 145v341h100v-319q0 -127 102 -127q68 0 96.5 40.5t28.5 134.5v271h100v-368z" />
    <glyph glyph-name="uni01D5" unicode="&#x1d5;" horiz-adv-x="731" 
d="M227 914v70h275v-70h-275zM217 771v94h86v-94h-86zM427 771v94h86v-94h-86zM191 709v-426q0 -58 14.5 -100t40.5 -64t55.5 -31.5t64.5 -9.5q84 0 129.5 46.5t45.5 158.5v426h105v-420q0 -298 -282 -298q-59 0 -107.5 15t-88 47.5t-61.5 90.5t-22 139v426h106z" />
    <glyph glyph-name="uni01D6" unicode="&#x1d6;" horiz-adv-x="573" 
d="M149 731v69h274v-69h-274zM146 580v94h86v-94h-86zM342 580v94h85v-94h-85zM499 151q0 -27 0.5 -81.5t0.5 -69.5h-98q-3 20 -3 74q-41 -86 -154 -86q-76 0 -124.5 45t-48.5 145v341h100v-319q0 -127 102 -127q68 0 96.5 40.5t28.5 134.5v271h100v-368z" />
    <glyph glyph-name="uni01D7" unicode="&#x1d7;" horiz-adv-x="731" 
d="M414 1015h124l-134 -121h-90zM303 861v-93h-86v93h86zM427 768v93h86v-93h-86zM191 709v-426q0 -58 14.5 -100t40.5 -64t55.5 -31.5t64.5 -9.5q84 0 129.5 46.5t45.5 158.5v426h105v-420q0 -298 -282 -298q-59 0 -107.5 15t-88 47.5t-61.5 90.5t-22 139v426h106z" />
    <glyph glyph-name="uni01D8" unicode="&#x1d8;" horiz-adv-x="573" 
d="M234 706l98 121h119l-128 -121h-89zM232 674v-94h-86v94h86zM342 580v94h85v-94h-85zM499 151q0 -27 0.5 -81.5t0.5 -69.5h-98q-3 20 -3 74q-41 -86 -154 -86q-76 0 -124.5 45t-48.5 145v341h100v-319q0 -127 102 -127q68 0 96.5 40.5t28.5 134.5v271h100v-368z" />
    <glyph glyph-name="uni01D9" unicode="&#x1d9;" horiz-adv-x="731" 
d="M314 890l-109 122h92l66 -73l67 73h90l-110 -122h-96zM219 767v93h86v-93h-86zM429 767v93h86v-93h-86zM191 709v-426q0 -58 14.5 -100t40.5 -64t55.5 -31.5t64.5 -9.5q84 0 129.5 46.5t45.5 158.5v426h105v-420q0 -298 -282 -298q-59 0 -107.5 15t-88 47.5t-61.5 90.5
t-22 139v426h106z" />
    <glyph glyph-name="uni01DA" unicode="&#x1da;" horiz-adv-x="573" 
d="M240 701l-108 121h89l67 -74l65 74h90l-108 -121h-95zM146 575v94h86v-94h-86zM342 575v94h85v-94h-85zM499 151q0 -27 0.5 -81.5t0.5 -69.5h-98q-3 20 -3 74q-41 -86 -154 -86q-76 0 -124.5 45t-48.5 145v341h100v-319q0 -127 102 -127q68 0 96.5 40.5t28.5 134.5v271
h100v-368z" />
    <glyph glyph-name="uni01DB" unicode="&#x1db;" horiz-adv-x="731" 
d="M325 895l-134 120h119l104 -120h-89zM303 862v-93h-86v93h86zM427 769v93h86v-93h-86zM191 709v-426q0 -58 14.5 -100t40.5 -64t55.5 -31.5t64.5 -9.5q84 0 129.5 46.5t45.5 158.5v426h105v-420q0 -298 -282 -298q-59 0 -107.5 15t-88 47.5t-61.5 90.5t-22 139v426h106z
" />
    <glyph glyph-name="uni01DC" unicode="&#x1dc;" horiz-adv-x="573" 
d="M243 822l97 -121h-88l-131 121h122zM232 669v-94h-86v94h86zM342 575v94h85v-94h-85zM499 151q0 -27 0.5 -81.5t0.5 -69.5h-98q-3 20 -3 74q-41 -86 -154 -86q-76 0 -124.5 45t-48.5 145v341h100v-319q0 -127 102 -127q68 0 96.5 40.5t28.5 134.5v271h100v-368z" />
    <glyph glyph-name="Gcaron" unicode="&#x1e6;" horiz-adv-x="747" 
d="M326 776l-134 135h102l82 -82l87 82h102l-140 -135h-99zM674 0h-79q-7 21 -11 91q-64 -101 -217 -101q-99 0 -171.5 47.5t-107.5 127t-35 182.5q0 107 37.5 190.5t114 132.5t182.5 49q81 0 144.5 -28.5t100.5 -77t46 -111.5h-105q-40 130 -188 130q-59 0 -102.5 -22
t-69 -61.5t-38 -88.5t-12.5 -108q0 -55 12.5 -103t38 -87t68.5 -61.5t99 -22.5q190 0 190 211v7h-191v90h294v-386z" />
    <glyph glyph-name="gcaron" unicode="&#x1e7;" horiz-adv-x="584" 
d="M244 594l-113 154h95l66 -97l63 97h96l-113 -154h-94zM511 50q0 -129 -57.5 -196t-185.5 -67q-58 0 -101 15t-66.5 40t-35 50.5t-15.5 54.5h102q22 -83 121 -83q42 0 70 12.5t43 38.5t21 58.5t6 78.5v39q-44 -88 -159 -88q-97 0 -156 71.5t-59 184.5q0 123 64 197.5
t161 74.5q66 0 102.5 -23.5t46.5 -54.5q2 47 4 66h95q0 -14 -0.5 -68.5t-0.5 -81.5v-319zM143 263q0 -79 37 -127t98 -48q77 0 107.5 46t30.5 135q0 90 -29 134.5t-105 44.5q-67 0 -103 -50.5t-36 -134.5z" />
    <glyph glyph-name="uni0218" unicode="&#x218;" horiz-adv-x="624" 
d="M147 199q30 -126 174 -126q75 0 111 30.5t36 82.5q0 53 -36 84t-136 54q-126 31 -177 77.5t-51 122.5q0 86 62 140.5t178 54.5q62 0 110.5 -16.5t77.5 -45t45 -61.5t20 -71h-107q-21 110 -149 110q-61 0 -95 -25.5t-34 -73.5q0 -47 34 -71.5t127 -47.5
q73 -18 122.5 -41.5t74 -52.5t34 -58t9.5 -67q0 -92 -67.5 -149.5t-195.5 -57.5q-65 0 -115.5 16.5t-82.5 45.5t-50.5 65.5t-24.5 80.5h106zM218 -262q49 105 57 205h101q-3 -53 -25.5 -112.5t-49.5 -92.5h-83z" />
    <glyph glyph-name="uni0219" unicode="&#x219;" horiz-adv-x="490" 
d="M131 150q20 -85 121 -85q99 0 99 74q0 23 -10 38.5t-35 27.5t-72 23q-75 18 -116 41.5t-54 49.5t-13 65q0 61 48 104t144 43q40 0 73 -8.5t55 -23.5t37.5 -35t23.5 -40.5t10 -43.5h-96q-18 76 -107 76q-47 0 -68 -18.5t-21 -45.5q0 -29 22.5 -44.5t90.5 -32.5
q30 -7 54.5 -15t43.5 -16.5t33.5 -18t24.5 -20t17 -21.5t11 -24t5.5 -25.5t1.5 -27.5q0 -71 -54 -115t-152 -44q-99 0 -153 44t-64 118h100zM151 -259q49 105 57 205h101q-2 -35 -13.5 -75t-28 -74.5t-33.5 -55.5h-83z" />
    <glyph glyph-name="uni021A" unicode="&#x21a;" horiz-adv-x="575" 
d="M235 619h-227v90h559v-90h-226v-619h-106v619zM181 -259q48 105 57 205h101q-4 -53 -26.5 -112.5t-49.5 -92.5h-82z" />
    <glyph glyph-name="uni021B" unicode="&#x21b;" horiz-adv-x="333" 
d="M11 519h88v151h100v-151h112v-79h-112v-295q0 -39 12.5 -56t45.5 -17q30 0 43 4v-74q-27 -9 -81 -9q-63 0 -91.5 32t-28.5 99v316h-88v79zM78 -259q48 105 57 205h101q-4 -53 -26.5 -112.5t-49.5 -92.5h-82z" />
    <glyph glyph-name="uni0237" unicode="&#x237;" horiz-adv-x="248" 
d="M174 519v-530q0 -56 -6.5 -93t-24 -62t-46.5 -36t-74 -11q-18 0 -36 2v83q7 -1 20 -1q40 0 53.5 22.5t13.5 76.5v549h100z" />
    <glyph glyph-name="uni0251" unicode="&#x251;" horiz-adv-x="591" 
d="M515 519v-390q0 -89 6 -130h-92q-3 21 -8 76q-42 -87 -164 -87q-65 0 -114.5 33t-76.5 93.5t-27 139.5q0 119 64 198t169 79q61 0 96 -20.5t47 -47.5v56h100zM143 257q0 -87 37.5 -136t97.5 -49q140 0 140 194q0 39 -5.5 69t-19.5 56.5t-41 41t-66 14.5q-65 0 -104 -50.5
t-39 -139.5z" />
    <glyph glyph-name="uni0259" unicode="&#x259;" horiz-adv-x="533" 
d="M394 278q-1 76 -37 123.5t-98 47.5q-28 0 -49 -6.5t-34 -18t-21 -23.5t-14 -28h-101q9 29 23.5 53.5t39.5 50t66 40t93 14.5q59 0 105 -22t73 -60.5t41 -85t14 -98.5q0 -123 -61.5 -200t-177.5 -77q-49 0 -88.5 15t-64.5 39t-41.5 57t-23.5 67t-7 70q0 28 2 42h361z
M132 210q0 -64 32 -104.5t93 -40.5q120 0 134 145h-259z" />
    <glyph glyph-name="uni0261" unicode="&#x261;" horiz-adv-x="584" 
d="M511 50q0 -129 -57.5 -196t-185.5 -67q-58 0 -101 15t-66.5 40t-35 50.5t-15.5 54.5h102q22 -83 121 -83q42 0 70 12.5t43 38.5t21 58.5t6 78.5v39q-44 -88 -159 -88q-97 0 -156 71.5t-59 184.5q0 123 64 197.5t161 74.5q66 0 102.5 -23.5t46.5 -54.5q2 47 4 66h95
q0 -14 -0.5 -68.5t-0.5 -81.5v-319zM143 263q0 -79 37 -127t98 -48q77 0 107.5 46t30.5 135q0 90 -29 134.5t-105 44.5q-67 0 -103 -50.5t-36 -134.5z" />
    <glyph glyph-name="uni02BB" unicode="&#x2bb;" horiz-adv-x="355" 
d="M253 748q-13 -43 -23.5 -95.5t-16.5 -99t-7 -81.5h-104q5 66 24.5 145t43.5 131h83z" />
    <glyph glyph-name="uni02BC" unicode="&#x2bc;" horiz-adv-x="355" 
d="M102 472q14 43 24.5 96t16 98.5t6.5 81.5h105q-3 -43 -13.5 -94.5t-25 -99.5t-30.5 -82h-83z" />
    <glyph glyph-name="uni02BE" unicode="&#x2be;" horiz-adv-x="321" 
d="M102 628q50 4 50 46q0 20 -14 31.5t-36 13.5v57q50 0 83.5 -27.5t33.5 -73.5q0 -32 -16.5 -56t-42.5 -36t-58 -12v57z" />
    <glyph glyph-name="uni02BF" unicode="&#x2bf;" horiz-adv-x="321" 
d="M219 570q-49 0 -83 28t-34 74q0 32 16 55.5t42.5 35.5t57.5 12v-57q-23 -1 -36 -13t-13 -33q0 -20 14 -31t36 -13v-58z" />
    <glyph glyph-name="circumflex" unicode="&#x2c6;" 
d="M250 748l114 -154h-96l-65 98l-64 -98h-95l113 154h93z" />
    <glyph glyph-name="caron" unicode="&#x2c7;" 
d="M157 594l-113 154h96l65 -97l63 97h96l-113 -154h-94z" />
    <glyph glyph-name="uni02C8" unicode="&#x2c8;" horiz-adv-x="294" 
d="M102 576v186h91v-186h-91z" />
    <glyph glyph-name="uni02C9" unicode="&#x2c9;" horiz-adv-x="491" 
d="M390 715v-79h-288v79h288z" />
    <glyph glyph-name="uni02CA" unicode="&#x2ca;" horiz-adv-x="438" 
d="M358 758l-158 -155h-93l129 155h122z" />
    <glyph glyph-name="uni02CB" unicode="&#x2cb;" horiz-adv-x="438" 
d="M203 758l127 -155h-92l-158 155h123z" />
    <glyph glyph-name="uni02CC" unicode="&#x2cc;" horiz-adv-x="294" 
d="M102 -240v186h91v-186h-91z" />
    <glyph glyph-name="breve" unicode="&#x2d8;" 
d="M125 738q17 -67 78 -67q16 0 29 4t21 10t14 15.5t9 18t7 19.5h71q-8 -62 -46 -101.5t-105 -39.5q-72 0 -109 41t-41 100h72z" />
    <glyph glyph-name="dotaccent" unicode="&#x2d9;" 
d="M154 632v116h100v-116h-100z" />
    <glyph glyph-name="ring" unicode="&#x2da;" 
d="M204 578q-51 0 -81 28.5t-30 71.5t30 72t81 29t81 -28t30 -72q0 -43 -30.5 -72t-80.5 -29zM204 627q25 0 38.5 15t13.5 36t-13.5 37t-38.5 16q-26 0 -39 -15t-13 -36q0 -22 13 -37.5t39 -15.5z" />
    <glyph glyph-name="ogonek" unicode="&#x2db;" 
d="M273 0q-66 -55 -66 -105q0 -24 15.5 -38t40.5 -14q33 0 56 8v-74q-31 -17 -83 -17q-57 0 -89.5 30t-32.5 84q0 72 77 140z" />
    <glyph glyph-name="tilde" unicode="&#x2dc;" 
d="M42 614v26q0 101 86 101q31 0 78.5 -24.5t62.5 -24.5t22 9t7 31v11h67v-23q0 -107 -88 -107q-31 0 -76 24.5t-63 24.5q-27 0 -27 -32v-16h-69z" />
    <glyph glyph-name="hungarumlaut" unicode="&#x2dd;" 
d="M51 592l102 157h104l-125 -157h-81zM241 592l102 157h104l-126 -157h-80z" />
    <glyph glyph-name="uni0300" unicode="&#x300;" horiz-adv-x="0" 
d="M-16 758l127 -155h-93l-158 155h124z" />
    <glyph glyph-name="uni0301" unicode="&#x301;" horiz-adv-x="0" 
d="M139 758l-158 -155h-93l128 155h123z" />
    <glyph glyph-name="uni0302" unicode="&#x302;" horiz-adv-x="0" 
d="M46 748l114 -154h-96l-65 98l-64 -98h-95l113 154h93z" />
    <glyph glyph-name="uni0303" unicode="&#x303;" horiz-adv-x="0" 
d="M-162 614v26q0 101 86 101q31 0 78.5 -24.5t62.5 -24.5t22 9t7 31v11h67v-23q0 -107 -88 -107q-31 0 -76 24.5t-63 24.5q-27 0 -27 -32v-16h-69z" />
    <glyph glyph-name="uni0304" unicode="&#x304;" horiz-adv-x="0" 
d="M144 715v-79h-288v79h288z" />
    <glyph glyph-name="uni0306" unicode="&#x306;" horiz-adv-x="0" 
d="M-79 738q17 -67 78 -67q16 0 29 4t21 10t14 15.5t9 18t7 19.5h71q-8 -62 -46 -101.5t-105 -39.5q-72 0 -109 41t-41 100h72z" />
    <glyph glyph-name="uni0307" unicode="&#x307;" horiz-adv-x="0" 
d="M-50 632v116h100v-116h-100z" />
    <glyph glyph-name="uni0308" unicode="&#x308;" horiz-adv-x="0" 
d="M-138 632v116h86v-116h-86zM52 632v116h85v-116h-85z" />
    <glyph glyph-name="uni0309" unicode="&#x309;" horiz-adv-x="0" 
d="M-45 595q32 27 45 46t13 39q0 16 -10.5 26t-31.5 10q-28 0 -59 -16l-22 58q47 30 104 30q50 0 78 -26t28 -64q0 -34 -15.5 -57.5t-40.5 -45.5h-89z" />
    <glyph glyph-name="uni030A" unicode="&#x30a;" horiz-adv-x="0" 
d="M0 578q-51 0 -81 28.5t-30 71.5t30 72t81 29t81 -28t30 -72q0 -43 -30.5 -72t-80.5 -29zM0 627q25 0 38.5 15t13.5 36t-13.5 37t-38.5 16q-17 0 -29.5 -7.5t-17.5 -18.5t-5 -25q0 -22 13 -37.5t39 -15.5z" />
    <glyph glyph-name="uni030B" unicode="&#x30b;" horiz-adv-x="0" 
d="M-192 592l102 157h104l-125 -157h-81zM-2 592l102 157h104l-125 -157h-81z" />
    <glyph glyph-name="uni030C" unicode="&#x30c;" horiz-adv-x="0" 
d="M-47 594l-113 154h96l65 -97l63 97h96l-113 -154h-94z" />
    <glyph glyph-name="uni031B" unicode="&#x31b;" horiz-adv-x="0" 
d="M-70 543q68 11 68 64q0 29 -11 61h91q8 -21 8 -58q0 -52 -32.5 -89t-92.5 -44z" />
    <glyph glyph-name="uni0323" unicode="&#x323;" horiz-adv-x="0" 
d="M-53 -191v117h106v-117h-106z" />
    <glyph glyph-name="uni0324" unicode="&#x324;" horiz-adv-x="0" 
d="M-138 -194v115h86v-115h-86zM52 -194v115h85v-115h-85z" />
    <glyph glyph-name="uni0326" unicode="&#x326;" horiz-adv-x="0" 
d="M-89 -259q49 105 57 205h101q-3 -53 -25.5 -112.5t-49.5 -92.5h-83z" />
    <glyph glyph-name="uni0327" unicode="&#x327;" horiz-adv-x="0" 
d="M52 0l-42 -51q97 -19 97 -96q0 -29 -12 -50t-32.5 -31.5t-41 -15t-43.5 -4.5q-48 0 -75 12v65q27 -11 64 -11q53 0 53 34q0 42 -102 44v30l66 84z" />
    <glyph glyph-name="uni0328" unicode="&#x328;" horiz-adv-x="0" 
d="M49 0q-66 -55 -66 -105q0 -24 15.5 -38t40.5 -14q33 0 56 8v-74q-31 -17 -84 -17q-37 0 -64.5 13.5t-42 39t-14.5 61.5q0 72 76 140z" />
    <glyph glyph-name="uni032E" unicode="&#x32e;" horiz-adv-x="0" 
d="M-79 -60q17 -68 78 -68q20 0 34.5 5.5t23 16.5t13 21t9.5 25h71q-8 -63 -46 -102.5t-105 -39.5q-72 0 -109 41.5t-41 100.5h72z" />
    <glyph glyph-name="uni0331" unicode="&#x331;" horiz-adv-x="0" 
d="M144 -96v-78h-288v78h288z" />
    <glyph glyph-name="pi" unicode="&#x3c0;" horiz-adv-x="563" 
d="M377 439h-196v-439h-100v439q-60 0 -86 -3v76q36 7 167 7h398v-80h-84v-439h-100z" />
    <glyph glyph-name="uni1E0C" unicode="&#x1e0c;" horiz-adv-x="738" 
d="M92 709h258q151 0 243 -95t92 -252q0 -159 -92.5 -260.5t-246.5 -101.5h-254v709zM197 88h142q78 0 132 36t79 96t25 140q0 53 -13.5 98.5t-41 82.5t-74 58t-106.5 21h-143v-532zM290 -191v117h106v-117h-106z" />
    <glyph glyph-name="uni1E0D" unicode="&#x1e0d;" horiz-adv-x="588" 
d="M515 748v-602q0 -96 1 -146h-97q-4 29 -4 70q-40 -82 -160 -82q-99 0 -157.5 73t-58.5 193q0 122 63 199.5t170 77.5q60 0 95 -18.5t48 -44.5v280h100zM143 257q0 -59 17.5 -101.5t47.5 -63.5t69 -21q43 0 71.5 15t43.5 43.5t20.5 60.5t5.5 76q0 36 -3 62t-11.5 49.5
t-23.5 38.5t-38.5 23.5t-56.5 8.5q-67 0 -104.5 -50t-37.5 -141zM241 -191v117h106v-117h-106z" />
    <glyph glyph-name="uni1E0E" unicode="&#x1e0e;" horiz-adv-x="738" 
d="M92 709h258q151 0 243 -95t92 -252q0 -159 -92.5 -260.5t-246.5 -101.5h-254v709zM197 88h142q78 0 132 36t79 96t25 140q0 53 -13.5 98.5t-41 82.5t-74 58t-106.5 21h-143v-532zM487 -96v-78h-288v78h288z" />
    <glyph glyph-name="uni1E0F" unicode="&#x1e0f;" horiz-adv-x="588" 
d="M515 748v-602q0 -96 1 -146h-97q-4 29 -4 70q-40 -82 -160 -82q-99 0 -157.5 73t-58.5 193q0 122 63 199.5t170 77.5q60 0 95 -18.5t48 -44.5v280h100zM143 257q0 -59 17.5 -101.5t47.5 -63.5t69 -21q43 0 71.5 15t43.5 43.5t20.5 60.5t5.5 76q0 36 -3 62t-11.5 49.5
t-23.5 38.5t-38.5 23.5t-56.5 8.5q-67 0 -104.5 -50t-37.5 -141zM438 -96v-78h-288v78h288z" />
    <glyph glyph-name="uni1E20" unicode="&#x1e20;" horiz-adv-x="747" 
d="M524 875v-76h-291v76h291zM674 0h-79q-7 21 -11 91q-64 -101 -217 -101q-99 0 -171.5 47.5t-107.5 127t-35 182.5q0 107 37.5 190.5t114 132.5t182.5 49q81 0 144.5 -28.5t100.5 -77t46 -111.5h-105q-40 130 -188 130q-59 0 -102.5 -22t-69 -61.5t-38 -88.5t-12.5 -108
q0 -55 12.5 -103t38 -87t68.5 -61.5t99 -22.5q190 0 190 211v7h-191v90h294v-386z" />
    <glyph glyph-name="uni1E21" unicode="&#x1e21;" horiz-adv-x="584" 
d="M436 715v-79h-288v79h288zM511 50q0 -129 -57.5 -196t-185.5 -67q-58 0 -101 15t-66.5 40t-35 50.5t-15.5 54.5h102q22 -83 121 -83q42 0 70 12.5t43 38.5t21 58.5t6 78.5v39q-44 -88 -159 -88q-97 0 -156 71.5t-59 184.5q0 123 64 197.5t161 74.5q66 0 102.5 -23.5
t46.5 -54.5q2 47 4 66h95q0 -14 -0.5 -68.5t-0.5 -81.5v-319zM143 263q0 -79 37 -127t98 -48q77 0 107.5 46t30.5 135q0 90 -29 134.5t-105 44.5q-67 0 -103 -50.5t-36 -134.5z" />
    <glyph glyph-name="uni1E24" unicode="&#x1e24;" horiz-adv-x="746" 
d="M92 709h105v-293h353v293h105v-709h-105v327h-353v-327h-105v709zM320 -191v117h106v-117h-106z" />
    <glyph glyph-name="uni1E25" unicode="&#x1e25;" horiz-adv-x="583" 
d="M174 748v-302q51 85 160 85q34 0 64 -10t55.5 -32t40.5 -62.5t15 -94.5v-332h-100v315q0 132 -107 132q-128 0 -128 -164v-283h-100v748h100zM239 -191v117h106v-117h-106z" />
    <glyph glyph-name="uni1E2A" unicode="&#x1e2a;" horiz-adv-x="746" 
d="M92 709h105v-293h353v293h105v-709h-105v327h-353v-327h-105v709zM295 -60q16 -68 77 -68q38 0 54.5 18t25.5 50h71q-8 -63 -46 -102.5t-105 -39.5q-71 0 -108 41.5t-42 100.5h73z" />
    <glyph glyph-name="uni1E2B" unicode="&#x1e2b;" horiz-adv-x="583" 
d="M174 748v-302q51 85 160 85q34 0 64 -10t55.5 -32t40.5 -62.5t15 -94.5v-332h-100v315q0 132 -107 132q-128 0 -128 -164v-283h-100v748h100zM213 -60q17 -68 78 -68q38 0 54.5 18t24.5 50h72q-9 -63 -47 -102.5t-104 -39.5q-72 0 -109 41.5t-41 100.5h72z" />
    <glyph glyph-name="uni1E36" unicode="&#x1e36;" horiz-adv-x="577" 
d="M92 709h105v-620h366l-14 -89h-457v709zM270 -191v117h106v-117h-106z" />
    <glyph glyph-name="uni1E37" unicode="&#x1e37;" horiz-adv-x="248" 
d="M74 0v748h100v-748h-100zM71 -191v117h106v-117h-106z" />
    <glyph glyph-name="uni1E38" unicode="&#x1e38;" horiz-adv-x="577" 
d="M296 863v-77h-292v77h292zM92 709h105v-620h366l-14 -89h-457v709zM270 -191v117h106v-117h-106z" />
    <glyph glyph-name="uni1E39" unicode="&#x1e39;" horiz-adv-x="248" 
d="M268 889v-78h-287v78h287zM74 0v748h100v-748h-100zM72 -191v117h106v-117h-106z" />
    <glyph glyph-name="uni1E3A" unicode="&#x1e3a;" horiz-adv-x="577" 
d="M92 709h105v-620h366l-14 -89h-457v709zM468 -96v-78h-287v78h287z" />
    <glyph glyph-name="uni1E3B" unicode="&#x1e3b;" horiz-adv-x="248" 
d="M74 0v748h100v-748h-100zM268 -96v-78h-287v78h287z" />
    <glyph glyph-name="uni1E42" unicode="&#x1e42;" horiz-adv-x="888" 
d="M695 295q0 214 5 339h-4q-9 -34 -26 -87.5t-42.5 -126.5t-46 -132t-53.5 -151.5t-49 -136.5h-92q-9 28 -65.5 199.5t-89 276t-46.5 159.5h-4q8 -108 8 -358v-277h-98v709h157q150 -425 191 -580h1q12 51 76 230.5t129 349.5h152v-709h-103v295zM381 -191v117h107v-117
h-107z" />
    <glyph glyph-name="uni1E43" unicode="&#x1e43;" horiz-adv-x="868" 
d="M74 386q0 90 -1 133h96q4 -30 4 -76q49 88 150 88q36 0 65 -11.5t48 -31.5t29 -46q54 89 164 89q71 0 118 -46t47 -144v-341h-98v329q0 50 -23 84t-75 34q-58 0 -86.5 -39.5t-28.5 -109.5v-298h-97v325q0 122 -96 122q-58 0 -87.5 -42.5t-29.5 -116.5v-288h-99v386z
M380 -191v117h107v-117h-107z" />
    <glyph glyph-name="uni1E44" unicode="&#x1e44;" horiz-adv-x="760" 
d="M333 779v115h102v-115h-102zM92 0v709h136q22 -36 57.5 -94.5t68.5 -113t70.5 -116t66.5 -110.5t52.5 -89t32.5 -58h1q-6 75 -6 317v264h98v-709h-128q-298 496 -354 601h-2q6 -93 6 -331v-270h-99z" />
    <glyph glyph-name="uni1E45" unicode="&#x1e45;" horiz-adv-x="582" 
d="M241 632v116h100v-116h-100zM74 389q0 90 -1 130h98q4 -30 4 -81q43 93 161 93q78 0 125.5 -49.5t47.5 -147.5v-334h-100v321q0 126 -105 126q-44 0 -73.5 -21.5t-42.5 -58.5t-13 -90v-277h-101v389z" />
    <glyph glyph-name="uni1E46" unicode="&#x1e46;" horiz-adv-x="760" 
d="M92 0v709h136q22 -36 57.5 -94.5t68.5 -113t70.5 -116t66.5 -110.5t52.5 -89t32.5 -58h1q-6 75 -6 317v264h98v-709h-128q-298 496 -354 601h-2q6 -93 6 -331v-270h-99zM327 -191v117h107v-117h-107z" />
    <glyph glyph-name="uni1E47" unicode="&#x1e47;" horiz-adv-x="582" 
d="M74 389q0 90 -1 130h98q4 -30 4 -81q43 93 161 93q78 0 125.5 -49.5t47.5 -147.5v-334h-100v321q0 126 -105 126q-44 0 -73.5 -21.5t-42.5 -58.5t-13 -90v-277h-101v389zM238 -191v117h106v-117h-106z" />
    <glyph glyph-name="uni1E48" unicode="&#x1e48;" horiz-adv-x="760" 
d="M92 0v709h136q22 -36 57.5 -94.5t68.5 -113t70.5 -116t66.5 -110.5t52.5 -89t32.5 -58h1q-6 75 -6 317v264h98v-709h-128q-298 496 -354 601h-2q6 -93 6 -331v-270h-99zM524 -96v-78h-287v78h287z" />
    <glyph glyph-name="uni1E49" unicode="&#x1e49;" horiz-adv-x="582" 
d="M74 389q0 90 -1 130h98q4 -30 4 -81q43 93 161 93q78 0 125.5 -49.5t47.5 -147.5v-334h-100v321q0 126 -105 126q-44 0 -73.5 -21.5t-42.5 -58.5t-13 -90v-277h-101v389zM435 -96v-78h-288v78h288z" />
    <glyph glyph-name="uni1E5A" unicode="&#x1e5a;" horiz-adv-x="658" 
d="M196 307v-307h-104v709h283q108 0 167 -53t59 -138q0 -66 -33 -109t-85 -58q105 -28 105 -181v-30q0 -112 10 -140h-102q-13 31 -13 154v13q0 77 -30.5 108.5t-120.5 31.5h-136zM196 394h149q77 0 112.5 28.5t35.5 86.5q0 54 -35.5 83t-103.5 29h-158v-227zM286 -186v117
h106v-117h-106z" />
    <glyph glyph-name="uni1E5B" unicode="&#x1e5b;" horiz-adv-x="367" 
d="M74 378q0 39 -0.5 85t-0.5 56h98q3 -21 3 -103q21 53 65.5 83.5t108.5 31.5v-99q-84 -1 -129 -45t-45 -140v-247h-100v378zM72 -191v117h106v-117h-106z" />
    <glyph glyph-name="uni1E5C" unicode="&#x1e5c;" horiz-adv-x="658" 
d="M473 868v-76h-291v76h291zM196 307v-307h-104v709h283q108 0 167 -53t59 -138q0 -66 -33 -109t-85 -58q105 -28 105 -181v-30q0 -112 10 -140h-102q-13 31 -13 154v13q0 77 -30.5 108.5t-120.5 31.5h-136zM196 394h149q77 0 112.5 28.5t35.5 86.5q0 54 -35.5 83
t-103.5 29h-158v-227zM287 -184v117h106v-117h-106z" />
    <glyph glyph-name="uni1E5D" unicode="&#x1e5d;" horiz-adv-x="367" 
d="M352 715v-79h-288v79h288zM74 378q0 39 -0.5 85t-0.5 56h98q3 -21 3 -103q21 53 65.5 83.5t108.5 31.5v-99q-84 -1 -129 -45t-45 -140v-247h-100v378zM73 -191v117h107v-117h-107z" />
    <glyph glyph-name="uni1E5E" unicode="&#x1e5e;" horiz-adv-x="658" 
d="M196 307v-307h-104v709h283q108 0 167 -53t59 -138q0 -66 -33 -109t-85 -58q105 -28 105 -181v-30q0 -112 10 -140h-102q-13 31 -13 154v13q0 77 -30.5 108.5t-120.5 31.5h-136zM196 394h149q77 0 112.5 28.5t35.5 86.5q0 54 -35.5 83t-103.5 29h-158v-227zM483 -92v-78
h-287v78h287z" />
    <glyph glyph-name="uni1E5F" unicode="&#x1e5f;" horiz-adv-x="367" 
d="M74 378q0 39 -0.5 85t-0.5 56h98q3 -21 3 -103q21 53 65.5 83.5t108.5 31.5v-99q-84 -1 -129 -45t-45 -140v-247h-100v378zM282 -96v-78h-288v78h288z" />
    <glyph glyph-name="uni1E60" unicode="&#x1e60;" horiz-adv-x="624" 
d="M260 783v115h102v-115h-102zM147 199q30 -126 174 -126q75 0 111 30.5t36 82.5q0 53 -36 84t-136 54q-126 31 -177 77.5t-51 122.5q0 86 62 140.5t178 54.5q62 0 110.5 -16.5t77.5 -45t45 -61.5t20 -71h-107q-21 110 -149 110q-61 0 -95 -25.5t-34 -73.5q0 -47 34 -71.5
t127 -47.5q73 -18 122.5 -41.5t74 -52.5t34 -58t9.5 -67q0 -92 -67.5 -149.5t-195.5 -57.5q-65 0 -115.5 16.5t-82.5 45.5t-50.5 65.5t-24.5 80.5h106z" />
    <glyph glyph-name="uni1E61" unicode="&#x1e61;" horiz-adv-x="490" 
d="M196 632v116h100v-116h-100zM131 150q20 -85 121 -85q99 0 99 74q0 23 -10 38.5t-35 27.5t-72 23q-75 18 -116 41.5t-54 49.5t-13 65q0 61 48 104t144 43q40 0 73 -8.5t55 -23.5t37.5 -35t23.5 -40.5t10 -43.5h-96q-18 76 -107 76q-47 0 -68 -18.5t-21 -45.5
q0 -29 22.5 -44.5t90.5 -32.5q30 -7 54.5 -15t43.5 -16.5t33.5 -18t24.5 -20t17 -21.5t11 -24t5.5 -25.5t1.5 -27.5q0 -71 -54 -115t-152 -44q-99 0 -153 44t-64 118h100z" />
    <glyph glyph-name="uni1E62" unicode="&#x1e62;" horiz-adv-x="624" 
d="M147 199q30 -126 174 -126q75 0 111 30.5t36 82.5q0 53 -36 84t-136 54q-126 31 -177 77.5t-51 122.5q0 86 62 140.5t178 54.5q62 0 110.5 -16.5t77.5 -45t45 -61.5t20 -71h-107q-21 110 -149 110q-61 0 -95 -25.5t-34 -73.5q0 -47 34 -71.5t127 -47.5
q73 -18 122.5 -41.5t74 -52.5t34 -58t9.5 -67q0 -92 -67.5 -149.5t-195.5 -57.5q-65 0 -115.5 16.5t-82.5 45.5t-50.5 65.5t-24.5 80.5h106zM258 -191v117h106v-117h-106z" />
    <glyph glyph-name="uni1E63" unicode="&#x1e63;" horiz-adv-x="490" 
d="M131 150q20 -85 121 -85q99 0 99 74q0 23 -10 38.5t-35 27.5t-72 23q-75 18 -116 41.5t-54 49.5t-13 65q0 61 48 104t144 43q40 0 73 -8.5t55 -23.5t37.5 -35t23.5 -40.5t10 -43.5h-96q-18 76 -107 76q-47 0 -68 -18.5t-21 -45.5q0 -29 22.5 -44.5t90.5 -32.5
q30 -7 54.5 -15t43.5 -16.5t33.5 -18t24.5 -20t17 -21.5t11 -24t5.5 -25.5t1.5 -27.5q0 -71 -54 -115t-152 -44q-99 0 -153 44t-64 118h100zM193 -191v117h106v-117h-106z" />
    <glyph glyph-name="uni1E6C" unicode="&#x1e6c;" horiz-adv-x="575" 
d="M235 619h-227v90h559v-90h-226v-619h-106v619zM235 -191v117h106v-117h-106z" />
    <glyph glyph-name="uni1E6D" unicode="&#x1e6d;" horiz-adv-x="333" 
d="M11 519h88v151h100v-151h112v-79h-112v-295q0 -39 12.5 -56t45.5 -17q30 0 43 4v-74q-27 -9 -81 -9q-63 0 -91.5 32t-28.5 99v316h-88v79zM134 -191v117h106v-117h-106z" />
    <glyph glyph-name="uni1E6E" unicode="&#x1e6e;" horiz-adv-x="575" 
d="M235 619h-227v90h559v-90h-226v-619h-106v619zM431 -96v-78h-287v78h287z" />
    <glyph glyph-name="uni1E6F" unicode="&#x1e6f;" horiz-adv-x="333" 
d="M11 519h88v151h100v-151h112v-79h-112v-295q0 -39 12.5 -56t45.5 -17q30 0 43 4v-74q-27 -9 -81 -9q-63 0 -91.5 32t-28.5 99v316h-88v79zM326 -96v-78h-287v78h287z" />
    <glyph glyph-name="Wgrave" unicode="&#x1e80;" horiz-adv-x="957" 
d="M395 912l136 -141h-99l-168 141h131zM210 0l-189 709h113q20 -91 55 -237t55.5 -234.5t25.5 -124.5h1q11 54 74.5 287t82.5 309h101q135 -507 150 -592h1q8 45 29.5 129.5t42 161t46.5 170.5t35 131h103l-204 -709h-111q-13 50 -49.5 188.5t-62.5 239.5t-35 142h-1
q-7 -38 -27.5 -117.5t-38.5 -144l-48 -172t-38 -136.5h-111z" />
    <glyph glyph-name="wgrave" unicode="&#x1e81;" horiz-adv-x="789" 
d="M318 758l128 -155h-93l-158 155h123zM130 519q95 -370 105 -427h1q16 79 114 427h97q100 -374 108 -418h1q20 89 109 418h101l-159 -519h-108q-17 67 -44.5 170t-41.5 159t-19 82h-1q-8 -51 -108 -411h-112l-150 519h107z" />
    <glyph glyph-name="Wacute" unicode="&#x1e82;" horiz-adv-x="957" 
d="M701 911l-177 -141h-101l148 141h130zM210 0l-189 709h113q20 -91 55 -237t55.5 -234.5t25.5 -124.5h1q11 54 74.5 287t82.5 309h101q135 -507 150 -592h1q8 45 29.5 129.5t42 161t46.5 170.5t35 131h103l-204 -709h-111q-13 50 -49.5 188.5t-62.5 239.5t-35 142h-1
q-7 -38 -27.5 -117.5t-38.5 -144l-48 -172t-38 -136.5h-111z" />
    <glyph glyph-name="wacute" unicode="&#x1e83;" horiz-adv-x="789" 
d="M595 758l-158 -155h-93l128 155h123zM130 519q95 -370 105 -427h1q16 79 114 427h97q100 -374 108 -418h1q20 89 109 418h101l-159 -519h-108q-17 67 -44.5 170t-41.5 159t-19 82h-1q-8 -51 -108 -411h-112l-150 519h107z" />
    <glyph glyph-name="Wdieresis" unicode="&#x1e84;" horiz-adv-x="957" 
d="M336 781v116h85v-116h-85zM537 781v116h84v-116h-84zM210 0l-189 709h113q20 -91 55 -237t55.5 -234.5t25.5 -124.5h1q11 54 74.5 287t82.5 309h101q135 -507 150 -592h1q8 45 29.5 129.5t42 161t46.5 170.5t35 131h103l-204 -709h-111q-13 50 -49.5 188.5t-62.5 239.5
t-35 142h-1q-7 -38 -27.5 -117.5t-38.5 -144l-48 -172t-38 -136.5h-111z" />
    <glyph glyph-name="wdieresis" unicode="&#x1e85;" horiz-adv-x="789" 
d="M257 632v116h86v-116h-86zM447 632v116h84v-116h-84zM130 519q95 -370 105 -427h1q16 79 114 427h97q100 -374 108 -418h1q20 89 109 418h101l-159 -519h-108q-17 67 -44.5 170t-41.5 159t-19 82h-1q-8 -51 -108 -411h-112l-150 519h107z" />
    <glyph glyph-name="uni1E8E" unicode="&#x1e8e;" horiz-adv-x="607" 
d="M253 778v114h102v-114h-102zM248 0v258q0 11 -5 19l-249 432h120q181 -331 192 -354q29 60 196 354h112l-256 -433q-4 -8 -4 -18v-258h-106z" />
    <glyph glyph-name="uni1E8F" unicode="&#x1e8f;" horiz-adv-x="497" 
d="M199 632v116h100v-116h-100zM117 519q119 -353 138 -429h1q25 94 132 429h101l-185 -541q-39 -114 -79.5 -152.5t-122.5 -38.5q-26 0 -58 3v86q20 -4 42 -4q46 0 70.5 23.5t46.5 85.5l-194 538h108z" />
    <glyph glyph-name="uni1E92" unicode="&#x1e92;" horiz-adv-x="613" 
d="M31 80l423 539h-403v90h524v-88l-415 -532h430l-15 -89h-544v80zM253 -191v117h106v-117h-106z" />
    <glyph glyph-name="uni1E93" unicode="&#x1e93;" horiz-adv-x="468" 
d="M27 80l290 357h-276v82h390v-82l-286 -354h301l-15 -83h-404v80zM181 -191v117h106v-117h-106z" />
    <glyph glyph-name="uni1E97" unicode="&#x1e97;" horiz-adv-x="333" 
d="M12 719v115h86v-115h-86zM202 719v115h85v-115h-85zM11 519h88v151h100v-151h112v-79h-112v-295q0 -39 12.5 -56t45.5 -17q30 0 43 4v-74q-27 -9 -81 -9q-63 0 -91.5 32t-28.5 99v316h-88v79z" />
    <glyph glyph-name="uni1E9E" unicode="&#x1e9e;" horiz-adv-x="665" 
d="M197 0h-106v519q0 101 65 150.5t185 49.5q71 0 124 -17t80.5 -45.5t40.5 -58t13 -60.5q0 -18 -2 -32l-168 -104v-5l71 -42q53 -32 84 -63t42.5 -59.5t11.5 -64.5q0 -80 -55 -129t-159 -49q-53 0 -96.5 15t-69.5 38v101q31 -33 76 -53t90 -20q38 0 64 13t37 32t11 43
q0 35 -20.5 59.5t-78.5 58.5l-107 62q-28 16 -27.5 45t30.5 48l155 100q0 17 -6 34t-21 34t-45.5 28t-72.5 11q-73 0 -109.5 -30.5t-36.5 -114.5v-494z" />
    <glyph glyph-name="uni1EA0" unicode="&#x1ea0;" horiz-adv-x="678" 
d="M195 203l-72 -203h-105l250 709h131l261 -709h-112l-75 203h-278zM448 293q-105 291 -116 332h-2q-9 -34 -109 -332h227zM286 -191v117h106v-117h-106z" />
    <glyph glyph-name="uni1EA1" unicode="&#x1ea1;" horiz-adv-x="544" 
d="M469 117q0 -34 2.5 -69.5t4.5 -47.5h-95q-5 15 -9 64q-39 -76 -157 -76q-86 0 -130.5 47t-44.5 112q0 57 29.5 95.5t84 56.5t132.5 18h85v42q0 19 -4 34t-14 30t-32 23.5t-55 8.5q-55 0 -76 -21t-29 -59h-97q3 31 14.5 57t34 49.5t62.5 37t94 12.5q200 0 200 -171v-243z
M372 250h-79q-76 0 -113.5 -23.5t-37.5 -73.5q0 -39 25.5 -64t70.5 -25q34 0 59 9.5t39.5 24.5t22.5 38t10.5 45.5t2.5 52.5v16zM220 -191v117h106v-117h-106z" />
    <glyph glyph-name="uni1EA2" unicode="&#x1ea2;" horiz-adv-x="678" 
d="M292 770q15 14 25.5 24.5t18 21t11 20t3.5 20.5q0 15 -10.5 25t-31.5 10q-28 0 -59 -16l-23 58q47 31 104 31q50 0 78.5 -26t28.5 -65q0 -23 -10 -44t-20 -33t-27 -26h-88zM195 203l-72 -203h-105l250 709h131l261 -709h-112l-75 203h-278zM448 293q-105 291 -116 332h-2
q-9 -34 -109 -332h227z" />
    <glyph glyph-name="uni1EA3" unicode="&#x1ea3;" horiz-adv-x="544" 
d="M228 595q16 13 26.5 23.5t18 21t11 20.5t3.5 20t-4.5 18t-14 13t-23.5 5q-29 0 -59 -16l-23 58q47 30 104 30q50 0 78 -26t28 -64q0 -34 -15 -57.5t-41 -45.5h-89zM469 117q0 -34 2.5 -69.5t4.5 -47.5h-95q-5 15 -9 64q-39 -76 -157 -76q-86 0 -130.5 47t-44.5 112
q0 57 29.5 95.5t84 56.5t132.5 18h85v42q0 19 -4 34t-14 30t-32 23.5t-55 8.5q-55 0 -76 -21t-29 -59h-97q3 31 14.5 57t34 49.5t62.5 37t94 12.5q200 0 200 -171v-243zM372 250h-79q-76 0 -113.5 -23.5t-37.5 -73.5q0 -39 25.5 -64t70.5 -25q34 0 59 9.5t39.5 24.5t22.5 38
t10.5 45.5t2.5 52.5v16z" />
    <glyph glyph-name="uni1EA4" unicode="&#x1ea4;" horiz-adv-x="678" 
d="M687 991l-134 -119h-89l105 119h118zM388 897l135 -126h-109l-76 71l-75 -71h-108l130 126h103zM195 203l-72 -203h-105l250 709h131l261 -709h-112l-75 203h-278zM448 293q-105 291 -116 332h-2q-9 -34 -109 -332h227z" />
    <glyph glyph-name="uni1EA5" unicode="&#x1ea5;" horiz-adv-x="544" 
d="M603 831l-136 -133h-79l110 133h105zM323 717l108 -136h-91l-68 85l-66 -85h-91l107 136h101zM469 117q0 -34 2.5 -69.5t4.5 -47.5h-95q-5 15 -9 64q-39 -76 -157 -76q-86 0 -130.5 47t-44.5 112q0 57 29.5 95.5t84 56.5t132.5 18h85v42q0 19 -4 34t-14 30t-32 23.5
t-55 8.5q-55 0 -76 -21t-29 -59h-97q3 31 14.5 57t34 49.5t62.5 37t94 12.5q200 0 200 -171v-243zM372 250h-79q-76 0 -113.5 -23.5t-37.5 -73.5q0 -39 25.5 -64t70.5 -25q34 0 59 9.5t39.5 24.5t22.5 38t10.5 45.5t2.5 52.5v16z" />
    <glyph glyph-name="uni1EA6" unicode="&#x1ea6;" horiz-adv-x="678" 
d="M524 978l104 -114h-84l-141 114h121zM388 897l135 -126h-109l-76 71l-75 -71h-108l130 126h103zM195 203l-72 -203h-105l250 709h131l261 -709h-112l-75 203h-278zM448 293q-105 291 -116 332h-2q-9 -34 -109 -332h227z" />
    <glyph glyph-name="uni1EA7" unicode="&#x1ea7;" horiz-adv-x="544" 
d="M436 824l106 -137h-82l-132 137h108zM323 717l108 -136h-91l-68 85l-66 -85h-91l107 136h101zM469 117q0 -34 2.5 -69.5t4.5 -47.5h-95q-5 15 -9 64q-39 -76 -157 -76q-86 0 -130.5 47t-44.5 112q0 57 29.5 95.5t84 56.5t132.5 18h85v42q0 19 -4 34t-14 30t-32 23.5
t-55 8.5q-55 0 -76 -21t-29 -59h-97q3 31 14.5 57t34 49.5t62.5 37t94 12.5q200 0 200 -171v-243zM372 250h-79q-76 0 -113.5 -23.5t-37.5 -73.5q0 -39 25.5 -64t70.5 -25q34 0 59 9.5t39.5 24.5t22.5 38t10.5 45.5t2.5 52.5v16z" />
    <glyph glyph-name="uni1EA8" unicode="&#x1ea8;" horiz-adv-x="678" 
d="M479 869q54 41 54 77q0 30 -37 30q-30 0 -58 -19l-22 52q44 32 98 32q45 0 70.5 -22.5t25.5 -59.5q0 -19 -7.5 -36.5t-18 -30.5t-23.5 -23h-82zM388 897l135 -126h-109l-76 71l-75 -71h-108l130 126h103zM195 203l-72 -203h-105l250 709h131l261 -709h-112l-75 203h-278z
M448 293q-105 291 -116 332h-2q-9 -34 -109 -332h227z" />
    <glyph glyph-name="uni1EA9" unicode="&#x1ea9;" horiz-adv-x="544" 
d="M402 687q56 44 56 76q0 30 -34.5 30t-56.5 -19l-20 49q35 32 94 32q44 0 67 -20.5t23 -58.5q0 -51 -49 -89h-80zM323 717l108 -136h-91l-68 85l-66 -85h-91l107 136h101zM469 117q0 -34 2.5 -69.5t4.5 -47.5h-95q-5 15 -9 64q-39 -76 -157 -76q-86 0 -130.5 47t-44.5 112
q0 57 29.5 95.5t84 56.5t132.5 18h85v42q0 19 -4 34t-14 30t-32 23.5t-55 8.5q-55 0 -76 -21t-29 -59h-97q3 31 14.5 57t34 49.5t62.5 37t94 12.5q200 0 200 -171v-243zM372 250h-79q-76 0 -113.5 -23.5t-37.5 -73.5q0 -39 25.5 -64t70.5 -25q34 0 59 9.5t39.5 24.5t22.5 38
t10.5 45.5t2.5 52.5v16z" />
    <glyph glyph-name="uni1EAA" unicode="&#x1eaa;" horiz-adv-x="678" 
d="M174 899v11q0 89 80 89q33 0 87.5 -17.5t73.5 -17.5q15 0 22 5.5t7 20.5v8h59v-13q0 -46 -20 -66t-59 -20q-28 0 -85.5 17.5t-77.5 17.5q-26 0 -26 -29v-6h-61zM393 861l124 -100h-105l-75 56l-73 -56h-105l124 100h110zM195 203l-72 -203h-105l250 709h131l261 -709
h-112l-75 203h-278zM448 293q-105 291 -116 332h-2q-9 -34 -109 -332h227z" />
    <glyph glyph-name="uni1EAB" unicode="&#x1eab;" horiz-adv-x="544" 
d="M126 732v11q0 24 6 41.5t16.5 28t24 15t30.5 4.5q31 0 73 -18t54 -18q28 0 28 27v7h58v-12q0 -87 -78 -87q-27 0 -68 18.5t-56 18.5q-27 0 -27 -30v-6h-61zM322 688l114 -107h-98l-69 63l-65 -63h-96l110 107h104zM469 117q0 -34 2.5 -69.5t4.5 -47.5h-95q-5 15 -9 64
q-39 -76 -157 -76q-86 0 -130.5 47t-44.5 112q0 57 29.5 95.5t84 56.5t132.5 18h85v42q0 19 -4 34t-14 30t-32 23.5t-55 8.5q-55 0 -76 -21t-29 -59h-97q3 31 14.5 57t34 49.5t62.5 37t94 12.5q200 0 200 -171v-243zM372 250h-79q-76 0 -113.5 -23.5t-37.5 -73.5
q0 -39 25.5 -64t70.5 -25q34 0 59 9.5t39.5 24.5t22.5 38t10.5 45.5t2.5 52.5v16z" />
    <glyph glyph-name="uni1EAC" unicode="&#x1eac;" horiz-adv-x="678" 
d="M388 900l132 -135h-102l-82 82l-87 -82h-102l138 135h103zM195 203l-72 -203h-105l250 709h131l261 -709h-112l-75 203h-278zM448 293q-105 291 -116 332h-2q-9 -34 -109 -332h227zM286 -191v117h106v-117h-106z" />
    <glyph glyph-name="uni1EAD" unicode="&#x1ead;" horiz-adv-x="544" 
d="M319 748l115 -154h-96l-66 98l-64 -98h-95l113 154h93zM469 117q0 -34 2.5 -69.5t4.5 -47.5h-95q-5 15 -9 64q-39 -76 -157 -76q-86 0 -130.5 47t-44.5 112q0 57 29.5 95.5t84 56.5t132.5 18h85v42q0 19 -4 34t-14 30t-32 23.5t-55 8.5q-55 0 -76 -21t-29 -59h-97
q3 31 14.5 57t34 49.5t62.5 37t94 12.5q200 0 200 -171v-243zM372 250h-79q-76 0 -113.5 -23.5t-37.5 -73.5q0 -39 25.5 -64t70.5 -25q34 0 59 9.5t39.5 24.5t22.5 38t10.5 45.5t2.5 52.5v16zM220 -191v117h106v-117h-106z" />
    <glyph glyph-name="uni1EAE" unicode="&#x1eae;" horiz-adv-x="678" 
d="M515 1013l-138 -106h-89l102 106h125zM249 883q23 -53 88 -53q66 0 90 53h77q-13 -53 -53.5 -87t-113.5 -35q-42 0 -74.5 12t-50.5 32t-27.5 39.5t-13.5 38.5h78zM195 203l-72 -203h-105l250 709h131l261 -709h-112l-75 203h-278zM448 293q-105 291 -116 332h-2
q-9 -34 -109 -332h227z" />
    <glyph glyph-name="uni1EAF" unicode="&#x1eaf;" horiz-adv-x="544" 
d="M431 850l-122 -119h-86l102 119h106zM192 706q18 -55 80 -55q64 0 82 55h72q-5 -27 -16.5 -49t-30 -39t-46 -26.5t-62.5 -9.5q-68 0 -106 36.5t-48 87.5h75zM469 117q0 -34 2.5 -69.5t4.5 -47.5h-95q-5 15 -9 64q-39 -76 -157 -76q-86 0 -130.5 47t-44.5 112
q0 57 29.5 95.5t84 56.5t132.5 18h85v42q0 19 -4 34t-14 30t-32 23.5t-55 8.5q-55 0 -76 -21t-29 -59h-97q3 31 14.5 57t34 49.5t62.5 37t94 12.5q200 0 200 -171v-243zM372 250h-79q-76 0 -113.5 -23.5t-37.5 -73.5q0 -39 25.5 -64t70.5 -25q34 0 59 9.5t39.5 24.5t22.5 38
t10.5 45.5t2.5 52.5v16z" />
    <glyph glyph-name="uni1EB0" unicode="&#x1eb0;" horiz-adv-x="678" 
d="M293 1013l102 -106h-93l-134 106h125zM249 883q23 -53 88 -53q66 0 90 53h77q-13 -53 -53.5 -87.5t-113.5 -34.5q-34 0 -61.5 8.5t-45.5 21t-31 30t-19 32.5t-9 30h78zM195 203l-72 -203h-105l250 709h131l261 -709h-112l-75 203h-278zM448 293q-105 291 -116 332h-2
q-9 -34 -109 -332h227z" />
    <glyph glyph-name="uni1EB1" unicode="&#x1eb1;" horiz-adv-x="544" 
d="M223 851l101 -119h-85l-126 119h110zM192 707q18 -55 80 -55q64 0 82 55h72q-11 -56 -49 -90t-106 -34t-106 36.5t-48 87.5h75zM469 117q0 -34 2.5 -69.5t4.5 -47.5h-95q-5 15 -9 64q-39 -76 -157 -76q-86 0 -130.5 47t-44.5 112q0 57 29.5 95.5t84 56.5t132.5 18h85v42
q0 19 -4 34t-14 30t-32 23.5t-55 8.5q-55 0 -76 -21t-29 -59h-97q3 31 14.5 57t34 49.5t62.5 37t94 12.5q200 0 200 -171v-243zM372 250h-79q-76 0 -113.5 -23.5t-37.5 -73.5q0 -39 25.5 -64t70.5 -25q34 0 59 9.5t39.5 24.5t22.5 38t10.5 45.5t2.5 52.5v16z" />
    <glyph glyph-name="uni1EB2" unicode="&#x1eb2;" horiz-adv-x="678" 
d="M293 899q55 44 55 73t-37 29q-28 0 -57 -18l-22 49q40 33 97 33q44 0 68 -22t24 -58q0 -48 -49 -86h-79zM248 883q23 -53 90 -53q26 0 45.5 9t28 19t15.5 25h77q-37 -122 -167 -122q-42 0 -74 12.5t-50.5 32.5t-28 39t-13.5 38h77zM195 203l-72 -203h-105l250 709h131
l261 -709h-112l-75 203h-278zM448 293q-105 291 -116 332h-2q-9 -34 -109 -332h227z" />
    <glyph glyph-name="uni1EB3" unicode="&#x1eb3;" horiz-adv-x="544" 
d="M225 726q61 45 61 75t-35 30q-32 0 -56 -19l-21 48q39 35 94 35q44 0 67.5 -21.5t23.5 -58.5q0 -53 -57 -89h-77zM193 707q18 -55 80 -55q64 0 82 55h72q-11 -56 -49 -90t-106 -34t-106 36.5t-48 87.5h75zM469 117q0 -34 2.5 -69.5t4.5 -47.5h-95q-5 15 -9 64
q-39 -76 -157 -76q-86 0 -130.5 47t-44.5 112q0 57 29.5 95.5t84 56.5t132.5 18h85v42q0 19 -4 34t-14 30t-32 23.5t-55 8.5q-55 0 -76 -21t-29 -59h-97q3 31 14.5 57t34 49.5t62.5 37t94 12.5q200 0 200 -171v-243zM372 250h-79q-76 0 -113.5 -23.5t-37.5 -73.5
q0 -39 25.5 -64t70.5 -25q34 0 59 9.5t39.5 24.5t22.5 38t10.5 45.5t2.5 52.5v16z" />
    <glyph glyph-name="uni1EB4" unicode="&#x1eb4;" horiz-adv-x="678" 
d="M173 906v11q0 89 80 89q33 0 87.5 -17.5t73.5 -17.5q10 0 15.5 2t9.5 8t4 17v7h59v-13q0 -46 -20.5 -66t-58.5 -20q-28 0 -85.5 17.5t-77.5 17.5q-26 0 -26 -29v-6h-61zM250 862q23 -42 87 -42q69 0 87 42h77q-31 -105 -165 -105q-75 0 -114 31.5t-50 73.5h78zM195 203
l-72 -203h-105l250 709h131l261 -709h-112l-75 203h-278zM448 293q-105 291 -116 332h-2q-9 -34 -109 -332h227z" />
    <glyph glyph-name="uni1EB5" unicode="&#x1eb5;" horiz-adv-x="544" 
d="M129 747v10q0 47 21 68.5t55 21.5q32 0 73.5 -17.5t53.5 -17.5q28 0 28 25v9h58v-13q0 -87 -78 -87q-27 0 -68 17.5t-56 17.5q-27 0 -27 -28v-6h-60zM199 699q22 -48 74 -48q35 0 51 13t25 35h70q-9 -51 -46.5 -83t-100.5 -32t-100 34.5t-43 80.5h70zM469 117
q0 -34 2.5 -69.5t4.5 -47.5h-95q-5 15 -9 64q-39 -76 -157 -76q-86 0 -130.5 47t-44.5 112q0 57 29.5 95.5t84 56.5t132.5 18h85v42q0 19 -4 34t-14 30t-32 23.5t-55 8.5q-55 0 -76 -21t-29 -59h-97q3 31 14.5 57t34 49.5t62.5 37t94 12.5q200 0 200 -171v-243zM372 250h-79
q-76 0 -113.5 -23.5t-37.5 -73.5q0 -39 25.5 -64t70.5 -25q34 0 59 9.5t39.5 24.5t22.5 38t10.5 45.5t2.5 52.5v16z" />
    <glyph glyph-name="uni1EB6" unicode="&#x1eb6;" horiz-adv-x="678" 
d="M251 902q5 -30 28 -48t58 -18q73 0 86 66h75q-9 -60 -50 -98t-112 -38q-76 0 -115.5 39.5t-45.5 96.5h76zM195 203l-72 -203h-105l250 709h131l261 -709h-112l-75 203h-278zM448 293q-105 291 -116 332h-2q-9 -34 -109 -332h227zM286 -191v117h106v-117h-106z" />
    <glyph glyph-name="uni1EB7" unicode="&#x1eb7;" horiz-adv-x="544" 
d="M195 738q16 -67 77 -67q38 0 54.5 18t25.5 49h71q-8 -62 -46 -101.5t-105 -39.5q-71 0 -108 41t-42 100h73zM469 117q0 -34 2.5 -69.5t4.5 -47.5h-95q-5 15 -9 64q-39 -76 -157 -76q-86 0 -130.5 47t-44.5 112q0 57 29.5 95.5t84 56.5t132.5 18h85v42q0 19 -4 34t-14 30
t-32 23.5t-55 8.5q-55 0 -76 -21t-29 -59h-97q3 31 14.5 57t34 49.5t62.5 37t94 12.5q200 0 200 -171v-243zM372 250h-79q-76 0 -113.5 -23.5t-37.5 -73.5q0 -39 25.5 -64t70.5 -25q34 0 59 9.5t39.5 24.5t22.5 38t10.5 45.5t2.5 52.5v16zM226 -191v117h107v-117h-107z" />
    <glyph glyph-name="uni1EB8" unicode="&#x1eb8;" horiz-adv-x="613" 
d="M545 326h-350v-237h384l-13 -89h-474v709h469v-90h-366v-204h350v-89zM279 -191v117h107v-117h-107z" />
    <glyph glyph-name="uni1EB9" unicode="&#x1eb9;" horiz-adv-x="539" 
d="M140 241q1 -76 36.5 -123.5t97.5 -47.5q53 0 78.5 20.5t40.5 55.5h101q-9 -29 -23.5 -53.5t-39.5 -50t-66.5 -40t-93.5 -14.5q-47 0 -86.5 14.5t-66 40t-45 59.5t-26.5 72.5t-8 79.5q0 123 61.5 200t176.5 77q49 0 88.5 -14.5t64.5 -39t42 -57.5t24 -66.5t7 -69.5
q0 -29 -2 -43h-361zM402 309q-1 64 -33 104.5t-93 40.5q-119 0 -133 -145h259zM227 -191v117h107v-117h-107z" />
    <glyph glyph-name="uni1EBA" unicode="&#x1eba;" horiz-adv-x="613" 
d="M286 772q15 14 25.5 24.5t18 21t11 20t3.5 20.5q0 15 -10.5 25.5t-31.5 10.5q-28 0 -59 -17l-23 58q47 31 104 31q50 0 78 -26t28 -65q0 -33 -15 -57t-41 -46h-88zM545 326h-350v-237h384l-13 -89h-474v709h469v-90h-366v-204h350v-89z" />
    <glyph glyph-name="uni1EBB" unicode="&#x1ebb;" horiz-adv-x="539" 
d="M233 590q31 27 44.5 46t13.5 39q0 16 -10.5 26t-31.5 10q-28 0 -59 -16l-23 58q47 30 104 30q50 0 78 -26t28 -64q0 -15 -3.5 -28.5t-8.5 -23.5t-13 -20t-15 -16.5t-16 -14.5h-88zM140 241q1 -76 36.5 -123.5t97.5 -47.5q53 0 78.5 20.5t40.5 55.5h101
q-9 -29 -23.5 -53.5t-39.5 -50t-66.5 -40t-93.5 -14.5q-47 0 -86.5 14.5t-66 40t-45 59.5t-26.5 72.5t-8 79.5q0 123 61.5 200t176.5 77q49 0 88.5 -14.5t64.5 -39t42 -57.5t24 -66.5t7 -69.5q0 -29 -2 -43h-361zM402 309q-1 64 -33 104.5t-93 40.5q-119 0 -133 -145h259z
" />
    <glyph glyph-name="uni1EBC" unicode="&#x1ebc;" horiz-adv-x="613" 
d="M151 787v26q0 54 23 77.5t66 23.5q35 0 91.5 -26t71.5 -26q31 0 31 43v10h68v-21q0 -60 -22.5 -85t-67.5 -25q-31 0 -87.5 26.5t-74.5 26.5q-29 0 -29 -32v-18h-70zM545 326h-350v-237h384l-13 -89h-474v709h469v-90h-366v-204h350v-89z" />
    <glyph glyph-name="uni1EBD" unicode="&#x1ebd;" horiz-adv-x="539" 
d="M108 614v26q0 101 86 101q32 0 79.5 -24.5t62.5 -24.5q14 0 21 9t7 31v11h67v-23q0 -107 -87 -107q-32 0 -77 24.5t-63 24.5q-27 0 -27 -32v-16h-69zM140 241q1 -76 36.5 -123.5t97.5 -47.5q53 0 78.5 20.5t40.5 55.5h101q-9 -29 -23.5 -53.5t-39.5 -50t-66.5 -40
t-93.5 -14.5q-47 0 -86.5 14.5t-66 40t-45 59.5t-26.5 72.5t-8 79.5q0 123 61.5 200t176.5 77q49 0 88.5 -14.5t64.5 -39t42 -57.5t24 -66.5t7 -69.5q0 -29 -2 -43h-361zM402 309q-1 64 -33 104.5t-93 40.5q-119 0 -133 -145h259z" />
    <glyph glyph-name="uni1EBE" unicode="&#x1ebe;" horiz-adv-x="613" 
d="M674 992l-134 -119h-89l105 119h118zM374 898l136 -126h-109l-77 71l-74 -71h-108l129 126h103zM545 326h-350v-237h384l-13 -89h-474v709h469v-90h-366v-204h350v-89z" />
    <glyph glyph-name="uni1EBF" unicode="&#x1ebf;" horiz-adv-x="539" 
d="M603 831l-136 -133h-79l110 133h105zM323 717l108 -136h-91l-68 85l-66 -85h-91l107 136h101zM140 241q1 -76 36.5 -123.5t97.5 -47.5q53 0 78.5 20.5t40.5 55.5h101q-9 -29 -23.5 -53.5t-39.5 -50t-66.5 -40t-93.5 -14.5q-47 0 -86.5 14.5t-66 40t-45 59.5t-26.5 72.5
t-8 79.5q0 123 61.5 200t176.5 77q49 0 88.5 -14.5t64.5 -39t42 -57.5t24 -66.5t7 -69.5q0 -29 -2 -43h-361zM402 309q-1 64 -33 104.5t-93 40.5q-119 0 -133 -145h259z" />
    <glyph glyph-name="uni1EC0" unicode="&#x1ec0;" horiz-adv-x="613" 
d="M511 981l104 -114h-85l-140 114h121zM374 900l136 -126h-109l-77 71l-74 -71h-108l129 126h103zM545 326h-350v-237h384l-13 -89h-474v709h469v-90h-366v-204h350v-89z" />
    <glyph glyph-name="uni1EC1" unicode="&#x1ec1;" horiz-adv-x="539" 
d="M436 824l106 -137h-82l-132 137h108zM323 717l108 -136h-91l-68 85l-66 -85h-91l107 136h101zM140 241q1 -76 36.5 -123.5t97.5 -47.5q53 0 78.5 20.5t40.5 55.5h101q-9 -29 -23.5 -53.5t-39.5 -50t-66.5 -40t-93.5 -14.5q-47 0 -86.5 14.5t-66 40t-45 59.5t-26.5 72.5
t-8 79.5q0 123 61.5 200t176.5 77q49 0 88.5 -14.5t64.5 -39t42 -57.5t24 -66.5t7 -69.5q0 -29 -2 -43h-361zM402 309q-1 64 -33 104.5t-93 40.5q-119 0 -133 -145h259z" />
    <glyph glyph-name="uni1EC2" unicode="&#x1ec2;" horiz-adv-x="613" 
d="M465 873q54 41 54 77q0 30 -38 30q-30 0 -58 -19l-21 52q43 33 98 33q45 0 70.5 -23t25.5 -60q0 -27 -14.5 -50.5t-34.5 -39.5h-82zM373 901l136 -126h-109l-77 71l-74 -71h-108l129 126h103zM545 326h-350v-237h384l-13 -89h-474v709h469v-90h-366v-204h350v-89z" />
    <glyph glyph-name="uni1EC3" unicode="&#x1ec3;" horiz-adv-x="539" 
d="M399 687q56 44 56 76q0 30 -34.5 30t-56.5 -19l-20 49q35 32 94 32q44 0 67 -20.5t23 -58.5q0 -51 -49 -89h-80zM320 717l108 -136h-91l-68 85l-66 -85h-91l107 136h101zM140 241q1 -76 36.5 -123.5t97.5 -47.5q53 0 78.5 20.5t40.5 55.5h101q-9 -29 -23.5 -53.5
t-39.5 -50t-66.5 -40t-93.5 -14.5q-47 0 -86.5 14.5t-66 40t-45 59.5t-26.5 72.5t-8 79.5q0 123 61.5 200t176.5 77q49 0 88.5 -14.5t64.5 -39t42 -57.5t24 -66.5t7 -69.5q0 -29 -2 -43h-361zM402 309q-1 64 -33 104.5t-93 40.5q-119 0 -133 -145h259z" />
    <glyph glyph-name="uni1EC4" unicode="&#x1ec4;" horiz-adv-x="613" 
d="M162 907v11q0 89 80 89q33 0 87.5 -17.5t73.5 -17.5q14 0 21 5.5t7 21.5v7h60v-13q0 -46 -20.5 -66t-58.5 -20q-28 0 -86 17.5t-77 17.5q-27 0 -27 -29v-6h-60zM380 869l125 -100h-105l-76 56l-72 -56h-105l123 100h110zM545 326h-350v-237h384l-13 -89h-474v709h469v-90
h-366v-204h350v-89z" />
    <glyph glyph-name="uni1EC5" unicode="&#x1ec5;" horiz-adv-x="539" 
d="M125 729v11q0 46 21 67.5t56 21.5q31 0 73 -18t54 -18q28 0 28 27v7h58v-12q0 -87 -78 -87q-27 0 -68 18.5t-56 18.5q-27 0 -27 -30v-6h-61zM321 685l114 -107h-98l-69 63l-65 -63h-96l110 107h104zM140 241q1 -76 36.5 -123.5t97.5 -47.5q53 0 78.5 20.5t40.5 55.5h101
q-9 -29 -23.5 -53.5t-39.5 -50t-66.5 -40t-93.5 -14.5q-47 0 -86.5 14.5t-66 40t-45 59.5t-26.5 72.5t-8 79.5q0 123 61.5 200t176.5 77q49 0 88.5 -14.5t64.5 -39t42 -57.5t24 -66.5t7 -69.5q0 -29 -2 -43h-361zM402 309q-1 64 -33 104.5t-93 40.5q-119 0 -133 -145h259z
" />
    <glyph glyph-name="uni1EC6" unicode="&#x1ec6;" horiz-adv-x="613" 
d="M377 910l133 -135h-102l-83 82l-86 -82h-102l137 135h103zM545 326h-350v-237h384l-13 -89h-474v709h469v-90h-366v-204h350v-89zM278 -191v117h107v-117h-107z" />
    <glyph glyph-name="uni1EC7" unicode="&#x1ec7;" horiz-adv-x="539" 
d="M326 748l115 -154h-96l-66 98l-64 -98h-95l114 154h92zM140 241q1 -76 36.5 -123.5t97.5 -47.5q53 0 78.5 20.5t40.5 55.5h101q-9 -29 -23.5 -53.5t-39.5 -50t-66.5 -40t-93.5 -14.5q-47 0 -86.5 14.5t-66 40t-45 59.5t-26.5 72.5t-8 79.5q0 123 61.5 200t176.5 77
q49 0 88.5 -14.5t64.5 -39t42 -57.5t24 -66.5t7 -69.5q0 -29 -2 -43h-361zM402 309q-1 64 -33 104.5t-93 40.5q-119 0 -133 -145h259zM227 -191v117h107v-117h-107z" />
    <glyph glyph-name="uni1EC8" unicode="&#x1ec8;" horiz-adv-x="288" 
d="M99 770q16 14 26 24.5t17.5 21t11 20t3.5 20.5q0 15 -10.5 25t-31.5 10q-28 0 -59 -16l-22 58q47 31 104 31q50 0 78 -26t28 -65q0 -33 -15.5 -57t-40.5 -46h-89zM197 709v-709h-105v709h105z" />
    <glyph glyph-name="uni1EC9" unicode="&#x1ec9;" horiz-adv-x="248" 
d="M80 595q21 18 33 31t18.5 26.5t6.5 27.5q0 16 -10.5 26t-31.5 10q-28 0 -59 -16l-23 58q47 30 104 30q50 0 78 -26t28 -64q0 -34 -15 -57.5t-41 -45.5h-88zM74 519h100v-519h-100v519z" />
    <glyph glyph-name="uni1ECA" unicode="&#x1eca;" horiz-adv-x="288" 
d="M197 709v-709h-105v709h105zM91 -191v117h106v-117h-106z" />
    <glyph glyph-name="uni1ECB" unicode="&#x1ecb;" horiz-adv-x="248" 
d="M74 632v116h100v-116h-100zM74 519h100v-519h-100v519zM71 -191v117h106v-117h-106z" />
    <glyph glyph-name="uni1ECC" unicode="&#x1ecc;" horiz-adv-x="769" 
d="M389 719q149 0 238 -100t89 -261q0 -75 -21.5 -140.5t-62 -117t-105.5 -81t-147 -29.5q-102 0 -177.5 49t-112.5 130.5t-37 184.5t38.5 185t115.5 131t182 49zM385 630q-75 0 -126 -38t-73.5 -98t-22.5 -137t24 -139t75.5 -100.5t122.5 -38.5q46 0 83.5 14.5t63 40.5
t42.5 61.5t24.5 75.5t7.5 85q0 57 -13.5 106t-40 87t-69.5 59.5t-98 21.5zM332 -196v116h106v-116h-106z" />
    <glyph glyph-name="uni1ECD" unicode="&#x1ecd;" horiz-adv-x="566" 
d="M287 531q109 0 174.5 -74t65.5 -196q0 -119 -65 -196t-182 -77q-73 0 -128.5 35t-84 96.5t-28.5 139.5q0 119 66 195.5t182 76.5zM282.5 449q-67.5 0 -104 -50t-36.5 -139q0 -85 38.5 -137.5t104.5 -52.5t103 51t37 138q0 88 -37.5 139t-105 51zM230 -194v116h106v-116
h-106z" />
    <glyph glyph-name="uni1ECE" unicode="&#x1ece;" horiz-adv-x="769" 
d="M340 770q15 14 25.5 24.5t18 21t11 20t3.5 20.5q0 10 -4 17.5t-14 12.5t-24 5q-28 0 -59 -16l-23 58q47 31 104 31q50 0 78 -26t28 -65q0 -23 -9.5 -44t-19.5 -33t-27 -26h-88zM389 719q149 0 238 -100t89 -261q0 -75 -21.5 -140.5t-62 -117t-105.5 -81t-147 -29.5
q-102 0 -177.5 49t-112.5 130.5t-37 184.5t38.5 185t115.5 131t182 49zM385 630q-75 0 -126 -38t-73.5 -98t-22.5 -137t24 -139t75.5 -100.5t122.5 -38.5q46 0 83.5 14.5t63 40.5t42.5 61.5t24.5 75.5t7.5 85q0 57 -13.5 106t-40 87t-69.5 59.5t-98 21.5z" />
    <glyph glyph-name="uni1ECF" unicode="&#x1ecf;" horiz-adv-x="566" 
d="M238 595q31 27 44.5 46t13.5 39q0 10 -4 18t-14 13t-24 5q-28 0 -59 -16l-23 58q47 30 104 30q50 0 78 -26t28 -64q0 -34 -15 -57.5t-41 -45.5h-88zM287 531q109 0 174.5 -74t65.5 -196q0 -119 -65 -196t-182 -77q-73 0 -128.5 35t-84 96.5t-28.5 139.5q0 119 66 195.5
t182 76.5zM282.5 449q-67.5 0 -104 -50t-36.5 -139q0 -85 38.5 -137.5t104.5 -52.5t103 51t37 138q0 88 -37.5 139t-105 51z" />
    <glyph glyph-name="uni1ED0" unicode="&#x1ed0;" horiz-adv-x="769" 
d="M733 991l-134 -119h-89l105 119h118zM434 897l135 -126h-109l-76 71l-75 -71h-108l129 126h104zM389 719q149 0 238 -100t89 -261q0 -75 -21.5 -140.5t-62 -117t-105.5 -81t-147 -29.5q-102 0 -177.5 49t-112.5 130.5t-37 184.5t38.5 185t115.5 131t182 49zM385 630
q-75 0 -126 -38t-73.5 -98t-22.5 -137t24 -139t75.5 -100.5t122.5 -38.5q46 0 83.5 14.5t63 40.5t42.5 61.5t24.5 75.5t7.5 85q0 57 -13.5 106t-40 87t-69.5 59.5t-98 21.5z" />
    <glyph glyph-name="uni1ED1" unicode="&#x1ed1;" horiz-adv-x="566" 
d="M612 831l-136 -133h-79l110 133h105zM333 717l108 -136h-92l-67 85l-67 -85h-91l108 136h101zM287 531q109 0 174.5 -74t65.5 -196q0 -119 -65 -196t-182 -77q-73 0 -128.5 35t-84 96.5t-28.5 139.5q0 119 66 195.5t182 76.5zM282.5 449q-67.5 0 -104 -50t-36.5 -139
q0 -85 38.5 -137.5t104.5 -52.5t103 51t37 138q0 88 -37.5 139t-105 51z" />
    <glyph glyph-name="uni1ED2" unicode="&#x1ed2;" horiz-adv-x="769" 
d="M570 978l104 -114h-84l-141 114h121zM434 897l135 -126h-109l-76 71l-75 -71h-108l129 126h104zM389 719q149 0 238 -100t89 -261q0 -75 -21.5 -140.5t-62 -117t-105.5 -81t-147 -29.5q-102 0 -177.5 49t-112.5 130.5t-37 184.5t38.5 185t115.5 131t182 49zM385 630
q-75 0 -126 -38t-73.5 -98t-22.5 -137t24 -139t75.5 -100.5t122.5 -38.5q46 0 83.5 14.5t63 40.5t42.5 61.5t24.5 75.5t7.5 85q0 57 -13.5 106t-40 87t-69.5 59.5t-98 21.5z" />
    <glyph glyph-name="uni1ED3" unicode="&#x1ed3;" horiz-adv-x="566" 
d="M445 824l106 -137h-82l-131 137h107zM333 717l108 -136h-92l-67 85l-67 -85h-91l108 136h101zM287 531q109 0 174.5 -74t65.5 -196q0 -119 -65 -196t-182 -77q-73 0 -128.5 35t-84 96.5t-28.5 139.5q0 119 66 195.5t182 76.5zM282.5 449q-67.5 0 -104 -50t-36.5 -139
q0 -85 38.5 -137.5t104.5 -52.5t103 51t37 138q0 88 -37.5 139t-105 51z" />
    <glyph glyph-name="uni1ED4" unicode="&#x1ed4;" horiz-adv-x="769" 
d="M525 869q54 41 54 77q0 30 -37 30q-30 0 -59 -19l-21 52q44 32 98 32q45 0 70.5 -22.5t25.5 -59.5q0 -27 -14.5 -51t-34.5 -39h-82zM434 897l135 -126h-109l-76 71l-75 -71h-108l129 126h104zM389 719q149 0 238 -100t89 -261q0 -75 -21.5 -140.5t-62 -117t-105.5 -81
t-147 -29.5q-102 0 -177.5 49t-112.5 130.5t-37 184.5t38.5 185t115.5 131t182 49zM385 630q-75 0 -126 -38t-73.5 -98t-22.5 -137t24 -139t75.5 -100.5t122.5 -38.5q46 0 83.5 14.5t63 40.5t42.5 61.5t24.5 75.5t7.5 85q0 57 -13.5 106t-40 87t-69.5 59.5t-98 21.5z" />
    <glyph glyph-name="uni1ED5" unicode="&#x1ed5;" horiz-adv-x="566" 
d="M411 687q56 44 56 76q0 30 -34.5 30t-56.5 -19l-20 49q35 32 94 32q30 0 50 -9.5t30.5 -27t10.5 -42.5q0 -51 -49 -89h-81zM333 717l108 -136h-92l-67 85l-67 -85h-91l108 136h101zM287 531q109 0 174.5 -74t65.5 -196q0 -119 -65 -196t-182 -77q-73 0 -128.5 35
t-84 96.5t-28.5 139.5q0 119 66 195.5t182 76.5zM282.5 449q-67.5 0 -104 -50t-36.5 -139q0 -85 38.5 -137.5t104.5 -52.5t103 51t37 138q0 88 -37.5 139t-105 51z" />
    <glyph glyph-name="uni1ED6" unicode="&#x1ed6;" horiz-adv-x="769" 
d="M220 903v11q0 89 80 89q33 0 87.5 -17.5t73.5 -17.5q15 0 22 5.5t7 20.5v8h59v-13q0 -46 -20.5 -66t-58.5 -20q-28 0 -85.5 17.5t-77.5 17.5q-27 0 -27 -29v-6h-60zM439 865l124 -100h-105l-76 56l-72 -56h-105l123 100h111zM389 719q149 0 238 -100t89 -261
q0 -75 -21.5 -140.5t-62 -117t-105.5 -81t-147 -29.5q-102 0 -177.5 49t-112.5 130.5t-37 184.5t38.5 185t115.5 131t182 49zM385 630q-75 0 -126 -38t-73.5 -98t-22.5 -137t24 -139t75.5 -100.5t122.5 -38.5q46 0 83.5 14.5t63 40.5t42.5 61.5t24.5 75.5t7.5 85
q0 57 -13.5 106t-40 87t-69.5 59.5t-98 21.5z" />
    <glyph glyph-name="uni1ED7" unicode="&#x1ed7;" horiz-adv-x="566" 
d="M138 728v10q0 47 20.5 68.5t55.5 21.5q31 0 73.5 -18t54.5 -18q27 0 27 27v7h58v-12q0 -87 -78 -87q-27 0 -68 18.5t-56 18.5q-27 0 -27 -30v-6h-60zM334 684l113 -107h-98l-69 63l-65 -63h-96l111 107h104zM287 531q109 0 174.5 -74t65.5 -196q0 -119 -65 -196t-182 -77
q-73 0 -128.5 35t-84 96.5t-28.5 139.5q0 119 66 195.5t182 76.5zM282.5 449q-67.5 0 -104 -50t-36.5 -139q0 -85 38.5 -137.5t104.5 -52.5t103 51t37 138q0 88 -37.5 139t-105 51z" />
    <glyph glyph-name="uni1ED8" unicode="&#x1ed8;" horiz-adv-x="769" 
d="M439 904l132 -135h-102l-82 82l-87 -82h-102l138 135h103zM389 719q149 0 238 -100t89 -261q0 -75 -21.5 -140.5t-62 -117t-105.5 -81t-147 -29.5q-102 0 -177.5 49t-112.5 130.5t-37 184.5t38.5 185t115.5 131t182 49zM385 630q-75 0 -126 -38t-73.5 -98t-22.5 -137
t24 -139t75.5 -100.5t122.5 -38.5q46 0 83.5 14.5t63 40.5t42.5 61.5t24.5 75.5t7.5 85q0 57 -13.5 106t-40 87t-69.5 59.5t-98 21.5zM332 -195v116h106v-116h-106z" />
    <glyph glyph-name="uni1ED9" unicode="&#x1ed9;" horiz-adv-x="566" 
d="M328 748l115 -154h-96l-65 98l-65 -98h-95l114 154h92zM287 531q109 0 174.5 -74t65.5 -196q0 -119 -65 -196t-182 -77q-73 0 -128.5 35t-84 96.5t-28.5 139.5q0 119 66 195.5t182 76.5zM282.5 449q-67.5 0 -104 -50t-36.5 -139q0 -85 38.5 -137.5t104.5 -52.5t103 51
t37 138q0 88 -37.5 139t-105 51zM230 -191v117h106v-117h-106z" />
    <glyph glyph-name="uni1EDA" unicode="&#x1eda;" horiz-adv-x="769" 
d="M598 914l-177 -141h-101l148 141h130zM389 719q117 0 197 -63q46 16 46 59q0 29 -11 61h91q8 -21 8 -58q0 -40 -19 -72t-56 -48q71 -97 71 -240q0 -75 -21.5 -140.5t-62 -117t-105.5 -81t-147 -29.5q-102 0 -177.5 49t-112.5 130.5t-37 184.5t38.5 185t115.5 131t182 49z
M385 630q-75 0 -126 -38t-73.5 -98t-22.5 -137t24 -139t75.5 -100.5t122.5 -38.5q46 0 83.5 14.5t63 40.5t42.5 61.5t24.5 75.5t7.5 85q0 57 -13.5 106t-40 87t-69.5 59.5t-98 21.5z" />
    <glyph glyph-name="uni1EDB" unicode="&#x1edb;" horiz-adv-x="566" 
d="M473 758l-158 -155h-93l129 155h122zM287 531q90 0 152 -52q53 15 53 62q0 29 -12 61h91q8 -21 8 -58q0 -44 -23 -78t-66 -48q37 -66 37 -157q0 -119 -65 -196t-182 -77q-73 0 -128.5 35t-84 96.5t-28.5 139.5q0 119 66 195.5t182 76.5zM282.5 449q-67.5 0 -104 -50
t-36.5 -139q0 -85 38.5 -137.5t104.5 -52.5t103 51t37 138q0 88 -37.5 139t-105 51z" />
    <glyph glyph-name="uni1EDC" unicode="&#x1edc;" horiz-adv-x="769" 
d="M315 914l137 -141h-99l-168 141h130zM389 719q117 0 197 -63q46 16 46 59q0 29 -11 61h91q8 -21 8 -58q0 -40 -19 -72t-56 -48q71 -97 71 -240q0 -75 -21.5 -140.5t-62 -117t-105.5 -81t-147 -29.5q-102 0 -177.5 49t-112.5 130.5t-37 184.5t38.5 185t115.5 131t182 49z
M385 630q-75 0 -126 -38t-73.5 -98t-22.5 -137t24 -139t75.5 -100.5t122.5 -38.5q46 0 83.5 14.5t63 40.5t42.5 61.5t24.5 75.5t7.5 85q0 57 -13.5 106t-40 87t-69.5 59.5t-98 21.5z" />
    <glyph glyph-name="uni1EDD" unicode="&#x1edd;" horiz-adv-x="566" 
d="M217 758l128 -155h-93l-158 155h123zM287 531q90 0 152 -52q53 15 53 62q0 29 -12 61h91q8 -21 8 -58q0 -44 -23 -78t-66 -48q37 -66 37 -157q0 -119 -65 -196t-182 -77q-73 0 -128.5 35t-84 96.5t-28.5 139.5q0 119 66 195.5t182 76.5zM282.5 449q-67.5 0 -104 -50
t-36.5 -139q0 -85 38.5 -137.5t104.5 -52.5t103 51t37 138q0 88 -37.5 139t-105 51z" />
    <glyph glyph-name="uni1EDE" unicode="&#x1ede;" horiz-adv-x="769" 
d="M340 770q15 14 25.5 24.5t18 21t11 20t3.5 20.5q0 10 -4 17.5t-14 12.5t-24 5q-28 0 -59 -16l-23 58q47 31 104 31q50 0 78 -26t28 -65q0 -23 -9.5 -44t-19.5 -33t-27 -26h-88zM389 719q117 0 197 -63q46 16 46 59q0 29 -11 61h91q8 -21 8 -58q0 -40 -19 -72t-56 -48
q71 -97 71 -240q0 -75 -21.5 -140.5t-62 -117t-105.5 -81t-147 -29.5q-102 0 -177.5 49t-112.5 130.5t-37 184.5t38.5 185t115.5 131t182 49zM385 630q-75 0 -126 -38t-73.5 -98t-22.5 -137t24 -139t75.5 -100.5t122.5 -38.5q46 0 83.5 14.5t63 40.5t42.5 61.5t24.5 75.5
t7.5 85q0 57 -13.5 106t-40 87t-69.5 59.5t-98 21.5z" />
    <glyph glyph-name="uni1EDF" unicode="&#x1edf;" horiz-adv-x="566" 
d="M238 595q31 27 44.5 46t13.5 39q0 10 -4 18t-14 13t-24 5q-28 0 -59 -16l-23 58q47 30 104 30q50 0 78 -26t28 -64q0 -34 -15 -57.5t-41 -45.5h-88zM287 531q90 0 152 -52q53 15 53 62q0 29 -12 61h91q8 -21 8 -58q0 -44 -23 -78t-66 -48q37 -66 37 -157q0 -119 -65 -196
t-182 -77q-73 0 -128.5 35t-84 96.5t-28.5 139.5q0 119 66 195.5t182 76.5zM282.5 449q-67.5 0 -104 -50t-36.5 -139q0 -85 38.5 -137.5t104.5 -52.5t103 51t37 138q0 88 -37.5 139t-105 51z" />
    <glyph glyph-name="uni1EE0" unicode="&#x1ee0;" horiz-adv-x="769" 
d="M209 779v26q0 28 6 47.5t18 31t28 17t37 5.5q35 0 91.5 -26t71.5 -26q31 0 31 43v10h68v-22q0 -59 -22.5 -84t-67.5 -25q-31 0 -87.5 26.5t-74.5 26.5q-29 0 -29 -32v-18h-70zM389 719q117 0 197 -63q46 16 46 59q0 29 -11 61h91q8 -21 8 -58q0 -40 -19 -72t-56 -48
q71 -97 71 -240q0 -75 -21.5 -140.5t-62 -117t-105.5 -81t-147 -29.5q-102 0 -177.5 49t-112.5 130.5t-37 184.5t38.5 185t115.5 131t182 49zM385 630q-75 0 -126 -38t-73.5 -98t-22.5 -137t24 -139t75.5 -100.5t122.5 -38.5q46 0 83.5 14.5t63 40.5t42.5 61.5t24.5 75.5
t7.5 85q0 57 -13.5 106t-40 87t-69.5 59.5t-98 21.5z" />
    <glyph glyph-name="uni1EE1" unicode="&#x1ee1;" horiz-adv-x="566" 
d="M120 614v26q0 101 86 101q32 0 79.5 -24.5t62.5 -24.5q14 0 21 9t7 31v11h68v-23q0 -107 -88 -107q-32 0 -77 24.5t-63 24.5q-26 0 -26 -32v-16h-70zM287 531q90 0 152 -52q53 15 53 62q0 29 -12 61h91q8 -21 8 -58q0 -44 -23 -78t-66 -48q37 -66 37 -157
q0 -119 -65 -196t-182 -77q-73 0 -128.5 35t-84 96.5t-28.5 139.5q0 119 66 195.5t182 76.5zM282.5 449q-67.5 0 -104 -50t-36.5 -139q0 -85 38.5 -137.5t104.5 -52.5t103 51t37 138q0 88 -37.5 139t-105 51z" />
    <glyph glyph-name="uni1EE2" unicode="&#x1ee2;" horiz-adv-x="769" 
d="M389 719q117 0 197 -63q46 16 46 59q0 29 -11 61h91q8 -21 8 -58q0 -40 -19 -72t-56 -48q71 -97 71 -240q0 -75 -21.5 -140.5t-62 -117t-105.5 -81t-147 -29.5q-102 0 -177.5 49t-112.5 130.5t-37 184.5t38.5 185t115.5 131t182 49zM385 630q-75 0 -126 -38t-73.5 -98
t-22.5 -137t24 -139t75.5 -100.5t122.5 -38.5q46 0 83.5 14.5t63 40.5t42.5 61.5t24.5 75.5t7.5 85q0 57 -13.5 106t-40 87t-69.5 59.5t-98 21.5zM332 -193v117h106v-117h-106z" />
    <glyph glyph-name="uni1EE3" unicode="&#x1ee3;" horiz-adv-x="566" 
d="M287 531q90 0 152 -52q53 15 53 62q0 29 -12 61h91q8 -21 8 -58q0 -44 -23 -78t-66 -48q37 -66 37 -157q0 -119 -65 -196t-182 -77q-73 0 -128.5 35t-84 96.5t-28.5 139.5q0 119 66 195.5t182 76.5zM282.5 449q-67.5 0 -104 -50t-36.5 -139q0 -85 38.5 -137.5
t104.5 -52.5t103 51t37 138q0 88 -37.5 139t-105 51zM230 -191v117h106v-117h-106z" />
    <glyph glyph-name="uni1EE4" unicode="&#x1ee4;" horiz-adv-x="731" 
d="M191 709v-426q0 -58 14.5 -100t40.5 -64t55.5 -31.5t64.5 -9.5q84 0 129.5 46.5t45.5 158.5v426h105v-420q0 -298 -282 -298q-59 0 -107.5 15t-88 47.5t-61.5 90.5t-22 139v426h106zM312 -194v116h106v-116h-106z" />
    <glyph glyph-name="uni1EE5" unicode="&#x1ee5;" horiz-adv-x="573" 
d="M499 151q0 -27 0.5 -81.5t0.5 -69.5h-98q-3 20 -3 74q-41 -86 -154 -86q-76 0 -124.5 45t-48.5 145v341h100v-319q0 -127 102 -127q68 0 96.5 40.5t28.5 134.5v271h100v-368zM234 -196v116h106v-116h-106z" />
    <glyph glyph-name="uni1EE6" unicode="&#x1ee6;" horiz-adv-x="731" 
d="M318 765q16 14 26.5 24.5t18 20.5t10.5 20t3 21q0 10 -4 17.5t-13.5 12.5t-23.5 5q-29 0 -60 -16l-22 58q47 31 104 31q50 0 78 -26t28 -65q0 -33 -15.5 -57t-40.5 -46h-89zM191 709v-426q0 -58 14.5 -100t40.5 -64t55.5 -31.5t64.5 -9.5q84 0 129.5 46.5t45.5 158.5v426
h105v-420q0 -298 -282 -298q-59 0 -107.5 15t-88 47.5t-61.5 90.5t-22 139v426h106z" />
    <glyph glyph-name="uni1EE7" unicode="&#x1ee7;" horiz-adv-x="573" 
d="M234 595q31 27 44.5 46t13.5 39q0 10 -4.5 18t-14 13t-23.5 5q-28 0 -59 -16l-23 58q47 30 104 30q50 0 78 -26t28 -64q0 -34 -15 -57.5t-41 -45.5h-88zM499 151q0 -27 0.5 -81.5t0.5 -69.5h-98q-3 20 -3 74q-41 -86 -154 -86q-76 0 -124.5 45t-48.5 145v341h100v-319
q0 -127 102 -127q68 0 96.5 40.5t28.5 134.5v271h100v-368z" />
    <glyph glyph-name="uni1EE8" unicode="&#x1ee8;" horiz-adv-x="731" 
d="M582 912l-176 -141h-101l148 141h129zM191 709v-426q0 -58 14.5 -100t40.5 -64t55.5 -31.5t64.5 -9.5q84 0 129.5 46.5t45.5 158.5v426h58q58 13 58 62q0 30 -11 61h90q9 -21 9 -58q0 -46 -25.5 -81t-73.5 -47v-357q0 -298 -282 -298q-59 0 -107.5 15t-88 47.5
t-61.5 90.5t-22 139v426h106z" />
    <glyph glyph-name="uni1EE9" unicode="&#x1ee9;" horiz-adv-x="573" 
d="M476 758l-158 -155h-93l129 155h122zM399 74q-41 -86 -154 -86q-76 0 -124.5 45t-48.5 145v341h100v-319q0 -127 102 -127q68 0 96.5 40.5t28.5 134.5v271h42q68 12 68 64q0 30 -11 62h91q8 -22 8 -59q0 -30 -11 -55t-33 -44.5t-54 -27.5v-308q0 -27 0.5 -81.5t0.5 -69.5
h-98q-3 20 -3 74z" />
    <glyph glyph-name="uni1EEA" unicode="&#x1eea;" horiz-adv-x="731" 
d="M295 907l136 -141h-98l-169 141h131zM191 709v-426q0 -58 14.5 -100t40.5 -64t55.5 -31.5t64.5 -9.5q84 0 129.5 46.5t45.5 158.5v426h58q58 13 58 62q0 30 -11 61h90q9 -21 9 -58q0 -46 -25.5 -81t-73.5 -47v-357q0 -298 -282 -298q-59 0 -107.5 15t-88 47.5t-61.5 90.5
t-22 139v426h106z" />
    <glyph glyph-name="uni1EEB" unicode="&#x1eeb;" horiz-adv-x="573" 
d="M226 758l128 -155h-93l-158 155h123zM399 74q-41 -86 -154 -86q-76 0 -124.5 45t-48.5 145v341h100v-319q0 -127 102 -127q68 0 96.5 40.5t28.5 134.5v271h42q68 12 68 64q0 30 -11 62h91q8 -22 8 -59q0 -30 -11 -55t-33 -44.5t-54 -27.5v-308q0 -27 0.5 -81.5t0.5 -69.5
h-98q-3 20 -3 74z" />
    <glyph glyph-name="uni1EEC" unicode="&#x1eec;" horiz-adv-x="731" 
d="M319 766q16 14 26.5 24.5t18 20.5t10.5 20t3 21q0 10 -4 17.5t-13.5 12.5t-23.5 5q-29 0 -60 -16l-22 58q47 31 104 31q25 0 45.5 -7.5t33.5 -20t20 -28.5t7 -35q0 -33 -15.5 -57t-40.5 -46h-89zM191 709v-426q0 -58 14.5 -100t40.5 -64t55.5 -31.5t64.5 -9.5
q84 0 129.5 46.5t45.5 158.5v426h58q58 13 58 62q0 30 -11 61h90q9 -21 9 -58q0 -46 -25.5 -81t-73.5 -47v-357q0 -298 -282 -298q-59 0 -107.5 15t-88 47.5t-61.5 90.5t-22 139v426h106z" />
    <glyph glyph-name="uni1EED" unicode="&#x1eed;" horiz-adv-x="573" 
d="M242 595q15 13 25.5 23.5t18 21t11 20.5t3.5 20t-4 18t-14 13t-24 5q-28 0 -59 -16l-23 58q47 30 104 30q26 0 46.5 -7t33.5 -19.5t20 -29t7 -34.5q0 -34 -15.5 -57.5t-41.5 -45.5h-88zM399 74q-41 -86 -154 -86q-76 0 -124.5 45t-48.5 145v341h100v-319q0 -127 102 -127
q68 0 96.5 40.5t28.5 134.5v271h42q68 12 68 64q0 30 -11 62h91q8 -22 8 -59q0 -30 -11 -55t-33 -44.5t-54 -27.5v-308q0 -27 0.5 -81.5t0.5 -69.5h-98q-3 20 -3 74z" />
    <glyph glyph-name="uni1EEE" unicode="&#x1eee;" horiz-adv-x="731" 
d="M190 779v26q0 54 22.5 77.5t65.5 23.5q36 0 92.5 -26t71.5 -26q30 0 30 43v10h69v-22q0 -40 -11.5 -64.5t-30.5 -34.5t-48 -10q-31 0 -87.5 26.5t-74.5 26.5q-29 0 -29 -32v-18h-70zM191 709v-426q0 -58 14.5 -100t40.5 -64t55.5 -31.5t64.5 -9.5q84 0 129.5 46.5
t45.5 158.5v426h58q58 13 58 62q0 30 -11 61h90q9 -21 9 -58q0 -46 -25.5 -81t-73.5 -47v-357q0 -298 -282 -298q-59 0 -107.5 15t-88 47.5t-61.5 90.5t-22 139v426h106z" />
    <glyph glyph-name="uni1EEF" unicode="&#x1eef;" horiz-adv-x="573" 
d="M124 614v26q0 101 86 101q32 0 79.5 -24.5t62.5 -24.5q14 0 21 9t7 31v11h68v-23q0 -107 -88 -107q-32 0 -77 24.5t-63 24.5q-26 0 -26 -32v-16h-70zM399 74q-41 -86 -154 -86q-76 0 -124.5 45t-48.5 145v341h100v-319q0 -127 102 -127q68 0 96.5 40.5t28.5 134.5v271h42
q68 12 68 64q0 30 -11 62h91q8 -22 8 -59q0 -30 -11 -55t-33 -44.5t-54 -27.5v-308q0 -27 0.5 -81.5t0.5 -69.5h-98q-3 20 -3 74z" />
    <glyph glyph-name="uni1EF0" unicode="&#x1ef0;" horiz-adv-x="731" 
d="M191 709v-426q0 -58 14.5 -100t40.5 -64t55.5 -31.5t64.5 -9.5q84 0 129.5 46.5t45.5 158.5v426h58q58 13 58 62q0 30 -11 61h90q9 -21 9 -58q0 -46 -25.5 -81t-73.5 -47v-357q0 -298 -282 -298q-59 0 -107.5 15t-88 47.5t-61.5 90.5t-22 139v426h106zM312 -191v117h106
v-117h-106z" />
    <glyph glyph-name="uni1EF1" unicode="&#x1ef1;" horiz-adv-x="573" 
d="M399 74q-41 -86 -154 -86q-76 0 -124.5 45t-48.5 145v341h100v-319q0 -127 102 -127q68 0 96.5 40.5t28.5 134.5v271h42q68 12 68 64q0 30 -11 62h91q8 -22 8 -59q0 -30 -11 -55t-33 -44.5t-54 -27.5v-308q0 -27 0.5 -81.5t0.5 -69.5h-98q-3 20 -3 74zM234 -191v117h106
v-117h-106z" />
    <glyph glyph-name="Ygrave" unicode="&#x1ef2;" horiz-adv-x="607" 
d="M234 910l136 -141h-99l-168 141h131zM248 0v258q0 11 -5 19l-249 432h120q181 -331 192 -354q29 60 196 354h112l-256 -433q-4 -8 -4 -18v-258h-106z" />
    <glyph glyph-name="ygrave" unicode="&#x1ef3;" horiz-adv-x="497" 
d="M183 758l127 -155h-93l-158 155h124zM117 519q119 -353 138 -429h1q25 94 132 429h101l-185 -541q-39 -114 -79.5 -152.5t-122.5 -38.5q-26 0 -58 3v86q20 -4 42 -4q46 0 70.5 23.5t46.5 85.5l-194 538h108z" />
    <glyph glyph-name="uni1EF4" unicode="&#x1ef4;" horiz-adv-x="607" 
d="M248 0v258q0 11 -5 19l-249 432h120q181 -331 192 -354q29 60 196 354h112l-256 -433q-4 -8 -4 -18v-258h-106zM249 -191v117h106v-117h-106z" />
    <glyph glyph-name="uni1EF5" unicode="&#x1ef5;" horiz-adv-x="497" 
d="M117 519q119 -353 138 -429h1q25 94 132 429h101l-185 -541q-39 -114 -79.5 -152.5t-122.5 -38.5q-26 0 -58 3v86q20 -4 42 -4q46 0 70.5 23.5t46.5 85.5l-194 538h108zM356 -191v117h106v-117h-106z" />
    <glyph glyph-name="uni1EF6" unicode="&#x1ef6;" horiz-adv-x="607" 
d="M259 759q32 27 45 46t13 40q0 15 -10.5 25t-31.5 10q-28 0 -59 -16l-22 58q47 31 104 31q50 0 78 -26t28 -65q0 -33 -15.5 -57t-40.5 -46h-89zM248 0v258q0 11 -5 19l-249 432h120q181 -331 192 -354q29 60 196 354h112l-256 -433q-4 -8 -4 -18v-258h-106z" />
    <glyph glyph-name="uni1EF7" unicode="&#x1ef7;" horiz-adv-x="497" 
d="M204 595q31 27 44.5 46t13.5 39q0 10 -4 18t-13.5 13t-24.5 5q-28 0 -59 -16l-22 58q47 30 104 30q25 0 45.5 -7t33.5 -19.5t20 -29t7 -34.5q0 -34 -15.5 -57.5t-40.5 -45.5h-89zM117 519q119 -353 138 -429h1q25 94 132 429h101l-185 -541q-39 -114 -79.5 -152.5
t-122.5 -38.5q-26 0 -58 3v86q20 -4 42 -4q46 0 70.5 23.5t46.5 85.5l-194 538h108z" />
    <glyph glyph-name="uni1EF8" unicode="&#x1ef8;" horiz-adv-x="607" 
d="M129 779v26q0 54 22.5 77.5t65.5 23.5q36 0 92.5 -26t70.5 -26q31 0 31 43v10h68v-22q0 -59 -22.5 -84t-66.5 -25q-32 0 -88 26.5t-75 26.5q-28 0 -28 -32v-18h-70zM248 0v258q0 11 -5 19l-249 432h120q181 -331 192 -354q29 60 196 354h112l-256 -433q-4 -8 -4 -18v-258
h-106z" />
    <glyph glyph-name="uni1EF9" unicode="&#x1ef9;" horiz-adv-x="497" 
d="M87 614v26q0 101 85 101q32 0 79.5 -24.5t62.5 -24.5t22 9t7 31v11h67v-23q0 -107 -88 -107q-32 0 -76.5 24.5t-62.5 24.5q-27 0 -27 -32v-16h-69zM117 519q119 -353 138 -429h1q25 94 132 429h101l-185 -541q-39 -114 -79.5 -152.5t-122.5 -38.5q-26 0 -58 3v86
q20 -4 42 -4q46 0 70.5 23.5t46.5 85.5l-194 538h108z" />
    <glyph glyph-name="uni2000" unicode="&#x2000;" horiz-adv-x="532" 
 />
    <glyph glyph-name="uni2001" unicode="&#x2001;" horiz-adv-x="1065" 
 />
    <glyph glyph-name="uni2002" unicode="&#x2002;" horiz-adv-x="532" 
 />
    <glyph glyph-name="uni2003" unicode="&#x2003;" horiz-adv-x="1065" 
 />
    <glyph glyph-name="uni2004" unicode="&#x2004;" horiz-adv-x="355" 
 />
    <glyph glyph-name="uni2005" unicode="&#x2005;" horiz-adv-x="266" 
 />
    <glyph glyph-name="uni2006" unicode="&#x2006;" horiz-adv-x="177" 
 />
    <glyph glyph-name="uni2007" unicode="&#x2007;" horiz-adv-x="562" 
 />
    <glyph glyph-name="uni2008" unicode="&#x2008;" horiz-adv-x="133" 
 />
    <glyph glyph-name="uni2009" unicode="&#x2009;" horiz-adv-x="213" 
 />
    <glyph glyph-name="uni200A" unicode="&#x200a;" horiz-adv-x="59" 
 />
    <glyph glyph-name="uni2010" unicode="&#x2010;" horiz-adv-x="386" 
d="M328 306v-90h-270v90h270z" />
    <glyph glyph-name="uni2011" unicode="&#x2011;" horiz-adv-x="386" 
d="M328 306v-90h-270v90h270z" />
    <glyph glyph-name="figuredash" unicode="&#x2012;" horiz-adv-x="562" 
d="M475 374v-86h-388v86h388z" />
    <glyph glyph-name="endash" unicode="&#x2013;" horiz-adv-x="521" 
d="M463 305v-87h-405v87h405z" />
    <glyph glyph-name="emdash" unicode="&#x2014;" horiz-adv-x="867" 
d="M809 305v-87h-751v87h751z" />
    <glyph glyph-name="uni2015" unicode="&#x2015;" horiz-adv-x="867" 
d="M809 305v-87h-751v87h751z" />
    <glyph glyph-name="quoteleft" unicode="&#x2018;" horiz-adv-x="218" 
d="M189 748q-10 -33 -19 -71.5t-14.5 -75t-9 -70t-4.5 -59.5h-104q4 66 24 145t44 131h83z" />
    <glyph glyph-name="quoteright" unicode="&#x2019;" horiz-adv-x="218" 
d="M30 472q13 43 23.5 96t16 98.5t6.5 81.5h106q-5 -66 -25 -145t-45 -131h-82z" />
    <glyph glyph-name="quotesinglbase" unicode="&#x201a;" horiz-adv-x="218" 
d="M30 -135q13 43 23.5 96t16 98.5t6.5 81.5h106q-5 -66 -25 -145t-45 -131h-82z" />
    <glyph glyph-name="quotedblleft" unicode="&#x201c;" 
d="M186 741q-14 -44 -24.5 -96t-16 -98t-6.5 -82h-101q3 62 24.5 144t45.5 132h78zM370 741q-42 -137 -46 -276h-101q2 44 13.5 99t27 101t30.5 76h76z" />
    <glyph glyph-name="quotedblright" unicode="&#x201d;" 
d="M38 472q43 141 47 276h101q-4 -65 -25.5 -146t-45.5 -130h-77zM223 472q20 67 32.5 144t13.5 132h101q-4 -63 -24.5 -145t-44.5 -131h-78z" />
    <glyph glyph-name="quotedblbase" unicode="&#x201e;" horiz-adv-x="385" 
d="M30 -135q43 141 46 276h101q-3 -65 -25 -146.5t-45 -129.5h-77zM214 -135q20 66 33 143.5t14 132.5h101q-4 -62 -25 -144t-44 -132h-79z" />
    <glyph glyph-name="dagger" unicode="&#x2020;" horiz-adv-x="522" 
d="M286 662l-7 -223l170 6v-85l-170 6l7 -501h-91l7 501l-171 -6v85l171 -6l-7 223h91z" />
    <glyph glyph-name="daggerdbl" unicode="&#x2021;" horiz-adv-x="522" 
d="M202 393l-171 -6v84l171 -6l-7 197h91l-7 -197l170 6v-84l-170 6v-233l170 5v-83l-170 7l7 -224h-91l7 224l-171 -7v83l171 -5v233z" />
    <glyph glyph-name="bullet" unicode="&#x2022;" horiz-adv-x="390" 
d="M299 367v-213h-207v213h207z" />
    <glyph glyph-name="ellipsis" unicode="&#x2026;" horiz-adv-x="874" 
d="M68 0v156h106v-156h-106zM363 0v156h106v-156h-106zM656 0v156h106v-156h-106z" />
    <glyph glyph-name="uni202F" unicode="&#x202f;" horiz-adv-x="213" 
 />
    <glyph glyph-name="perthousand" unicode="&#x2030;" horiz-adv-x="1301" 
d="M211 683q80 0 127 -51t47 -139q0 -56 -19.5 -99.5t-59.5 -69t-96 -25.5q-80 0 -125.5 51.5t-45.5 141.5q0 82 45.5 136.5t126.5 54.5zM199 0l432 671h83l-432 -671h-83zM211 613q-41 0 -65 -31t-24 -89q0 -57 23.5 -90t66.5 -33t67 32t24 91q0 58 -24.5 89t-67.5 31z
M702 371q80 0 126 -51t46 -140q0 -86 -45.5 -139.5t-128.5 -53.5q-80 0 -125.5 52t-45.5 139q0 54 19 97t59 69.5t95 26.5zM1090 371q80 0 126.5 -51t46.5 -140q0 -84 -46 -138.5t-129 -54.5q-80 0 -125.5 52t-45.5 139q0 82 45.5 137.5t127.5 55.5zM1089 301
q-41 0 -64.5 -31t-23.5 -90q0 -37 10 -64.5t30.5 -43t49.5 -15.5q43 0 66.5 32.5t23.5 90.5t-24 89.5t-68 31.5zM701 300q-26 0 -46 -14t-31.5 -41.5t-11.5 -64.5t10 -64.5t31 -43t50 -15.5q43 0 66.5 32t23.5 90.5t-24.5 89.5t-67.5 31z" />
    <glyph glyph-name="uni2032" unicode="&#x2032;" horiz-adv-x="241" 
d="M51 469l40 279h100l-57 -279h-83z" />
    <glyph glyph-name="uni2033" unicode="&#x2033;" horiz-adv-x="406" 
d="M51 469l39 279h93l-59 -279h-73zM223 469l40 279h93l-59 -279h-74z" />
    <glyph glyph-name="guilsinglleft" unicode="&#x2039;" horiz-adv-x="380" 
d="M153 265l170 -200h-93l-173 200l173 198h92z" />
    <glyph glyph-name="guilsinglright" unicode="&#x203a;" horiz-adv-x="380" 
d="M227 263l-170 200h93l173 -200l-173 -198h-93z" />
    <glyph glyph-name="fraction" unicode="&#x2044;" horiz-adv-x="189" 
d="M-160 0l437 671h76l-437 -671h-76z" />
    <glyph glyph-name="uni205F" unicode="&#x205f;" horiz-adv-x="266" 
 />
    <glyph glyph-name="zero.sups" unicode="&#x2070;" horiz-adv-x="400" 
d="M202 848q40 0 71.5 -15.5t51.5 -42.5t30.5 -65t10.5 -83q0 -68 -19.5 -115t-57 -71t-89.5 -24q-79 0 -122 57t-43 150q0 94 44.5 151.5t122.5 57.5zM201 780q-84 0 -84 -141q0 -69 23 -104.5t62 -35.5q43 0 62.5 34t19.5 108q0 139 -83 139z" />
    <glyph glyph-name="four.sups" unicode="&#x2074;" horiz-adv-x="380" 
d="M226 437v103h-200v61l180 238h96v-238h61l-6 -61h-55v-103h-76zM226 601v77q0 60 4 97q-8 -12 -30.5 -43t-52.5 -71t-44 -60h123z" />
    <glyph glyph-name="five.sups" unicode="&#x2075;" horiz-adv-x="391" 
d="M328 775h-189q-4 -40 -16 -94q35 28 94 28q63 0 101 -36t38 -96q0 -63 -43 -104t-116 -41q-72 0 -113 36t-47 83h79q17 -55 81 -55q37 0 56.5 21t19.5 56q0 22 -7.5 38.5t-25.5 26.5t-44 10q-55 0 -79 -39l-71 11q30 187 34 222h260z" />
    <glyph glyph-name="six.sups" unicode="&#x2076;" horiz-adv-x="390" 
d="M272 741q-16 45 -69 45q-84 0 -90 -123q36 47 109 47q63 0 100 -37t37 -97q0 -41 -19.5 -73.5t-55.5 -51.5t-81 -19q-77 0 -122.5 52t-45.5 151q0 41 9.5 77.5t29 67t53.5 49t78 18.5q64 0 100 -32t42 -74h-75zM201 494q33 0 55.5 19t22.5 60q0 38 -20.5 59t-58.5 21
q-37 0 -59.5 -20t-22.5 -51q0 -33 21 -60.5t62 -27.5z" />
    <glyph glyph-name="seven.sups" unicode="&#x2077;" horiz-adv-x="354" 
d="M326 842v-60q-109 -135 -160 -344h-86q16 86 62.5 180.5t98.5 156.5h-210v67h295z" />
    <glyph glyph-name="eight.sups" unicode="&#x2078;" horiz-adv-x="378" 
d="M188 432q-76 0 -117 35t-41 86q0 36 19 60.5t50 37.5q-52 29 -52 84q0 32 14 56.5t48 40.5t84 16q67 0 102 -33t35 -77q0 -59 -54 -83q73 -28 73 -99q0 -55 -45 -89.5t-116 -34.5zM190 790q-32 0 -49.5 -14t-17.5 -40q0 -57 69 -57q19 0 32.5 6.5t21 19.5t7.5 31
q0 25 -16 39.5t-47 14.5zM189 489q20 0 35.5 5t25 14t14 20.5t4.5 25.5q0 68 -79 68t-79 -66q0 -19 9 -34t27 -24t43 -9z" />
    <glyph glyph-name="nine.sups" unicode="&#x2079;" horiz-adv-x="383" 
d="M116 539q17 -47 69 -47q80 0 85 130q-34 -40 -104 -40q-61 0 -98.5 34.5t-37.5 92.5q0 59 42 99t114 40q50 0 86.5 -22t56.5 -67t20 -109q0 -44 -9 -81.5t-27.5 -69t-51.5 -50t-76 -18.5q-68 0 -104.5 32t-43.5 76h79zM185 785q-33 0 -55 -17.5t-22 -55.5q0 -34 20.5 -53
t59.5 -19q36 0 56.5 15.5t20.5 47.5q0 38 -21 60t-59 22z" />
    <glyph glyph-name="parenleft.sups" unicode="&#x207d;" horiz-adv-x="227" 
d="M195 892q-86 -122 -86 -259q0 -135 86 -257h-76q-32 40 -56.5 107.5t-24.5 149.5q0 151 81 259h76z" />
    <glyph glyph-name="parenright.sups" unicode="&#x207e;" horiz-adv-x="227" 
d="M34 392q85 122 85 259q0 133 -85 256h74q32 -38 57 -106t25 -150q0 -153 -82 -259h-74z" />
    <glyph glyph-name="n.sups" unicode="&#x207f;" horiz-adv-x="394" 
d="M46 498q0 92 -1 109h73q0 -2 3 -51q32 58 109 58q21 0 40.5 -6t38 -20t29.5 -41t11 -66v-214h-77v199q0 83 -67 83q-83 0 -83 -99v-183h-76v231z" />
    <glyph glyph-name="zero.subs" unicode="&#x2080;" horiz-adv-x="400" 
d="M202 235q53 0 90.5 -26.5t55.5 -72.5t18 -107q0 -51 -11 -90.5t-32.5 -65.5t-52.5 -40t-70 -14q-79 0 -122 57t-43 150q0 94 44.5 151.5t122.5 57.5zM201 167q-84 0 -84 -141q0 -69 23 -104.5t62 -35.5q43 0 62.5 34t19.5 108q0 139 -83 139z" />
    <glyph glyph-name="one.subs" unicode="&#x2081;" horiz-adv-x="257" 
d="M106 -176v312q-14 -8 -41 -13.5t-42 -5.5v61q64 11 110 57h55v-411h-82z" />
    <glyph glyph-name="two.subs" unicode="&#x2082;" horiz-adv-x="372" 
d="M38 -175v5q0 56 31 102.5t99 88.5q28 17 42 26.5t24.5 19.5t13.5 19t3 22q0 28 -16.5 44.5t-48.5 16.5q-63 0 -75 -70l-76 1q3 40 22.5 70t53.5 47.5t78 17.5q39 0 68.5 -12t45 -31t23.5 -39.5t8 -41.5q0 -46 -24 -73t-84 -60q-80 -49 -94 -89h219l-12 -64h-301z" />
    <glyph glyph-name="three.subs" unicode="&#x2083;" horiz-adv-x="382" 
d="M151 71h33q66 0 66 47q0 15 -6 26.5t-21.5 19.5t-38.5 8q-35 0 -51 -15.5t-23 -40.5h-73q2 17 9 35t23 38t46.5 32.5t71.5 12.5q69 0 105.5 -31.5t36.5 -80.5q0 -21 -9.5 -38.5t-21.5 -27t-27 -14.5q20 -6 36 -17.5t28 -32.5t12 -47q0 -52 -38.5 -89t-119.5 -37
q-45 0 -78 13.5t-49.5 34.5t-24 39.5t-8.5 36.5h76q6 -26 28.5 -44t56.5 -18q35 0 54.5 17t19.5 46q0 60 -75 60h-38v67z" />
    <glyph glyph-name="four.subs" unicode="&#x2084;" horiz-adv-x="380" 
d="M226 -176v103h-200v61l180 238h96v-238h61l-6 -61h-55v-103h-76zM226 -12v77q0 60 4 97q-8 -12 -30.5 -43t-52.5 -71t-44 -60h123z" />
    <glyph glyph-name="five.subs" unicode="&#x2085;" horiz-adv-x="391" 
d="M328 162h-189q-4 -40 -16 -94q35 28 94 28q63 0 101 -36t38 -96q0 -63 -43 -104t-116 -41q-72 0 -113 36t-47 83h79q17 -55 81 -55q37 0 56.5 21t19.5 56q0 22 -7.5 38.5t-25.5 26.5t-44 10q-55 0 -79 -39l-71 11q30 187 34 221h260z" />
    <glyph glyph-name="six.subs" unicode="&#x2086;" horiz-adv-x="390" 
d="M272 128q-16 45 -69 45q-84 0 -90 -123q36 47 109 47q63 0 100 -37t37 -97q0 -30 -11.5 -57t-32 -46t-49.5 -30t-63 -11q-77 0 -122.5 52t-45.5 151q0 41 9.5 77.5t29 67t53.5 49t78 18.5q43 0 75.5 -17t47.5 -40t19 -49h-75zM201 -119q33 0 55.5 19t22.5 60
q0 38 -20.5 59t-58.5 21q-25 0 -43.5 -9.5t-28.5 -25.5t-10 -36t8 -39.5t27.5 -34t47.5 -14.5z" />
    <glyph glyph-name="seven.subs" unicode="&#x2087;" horiz-adv-x="354" 
d="M326 228v-59q-109 -135 -160 -344h-86q16 86 62.5 180.5t98.5 156.5h-210v66h295z" />
    <glyph glyph-name="eight.subs" unicode="&#x2088;" horiz-adv-x="378" 
d="M188 -181q-76 0 -117 35t-41 86q0 36 19 60.5t50 37.5q-52 29 -52 84q0 49 36 81t110 32q67 0 102 -33t35 -77q0 -59 -54 -83q73 -28 73 -99q0 -37 -21 -65t-57.5 -43.5t-82.5 -15.5zM190 177q-22 0 -37 -6.5t-22.5 -18.5t-7.5 -29q0 -57 69 -57q19 0 32.5 6.5t21 19.5
t7.5 31q0 25 -16 39.5t-47 14.5zM189 -124q27 0 45 9t26 23t8 33q0 68 -79 68t-79 -66q0 -29 21 -48t58 -19z" />
    <glyph glyph-name="nine.subs" unicode="&#x2089;" horiz-adv-x="383" 
d="M116 -74q17 -47 69 -47q80 0 85 130q-34 -40 -104 -40q-61 0 -98.5 34.5t-37.5 92.5q0 59 42 99t114 40q76 0 119.5 -50.5t43.5 -147.5q0 -44 -9 -81.5t-27.5 -69t-51.5 -50t-76 -18.5q-68 0 -104.5 32t-43.5 76h79zM185 172q-33 0 -55 -17.5t-22 -55.5q0 -34 20.5 -53
t59.5 -19q36 0 56.5 15.5t20.5 47.5q0 25 -9 43t-27 28.5t-44 10.5z" />
    <glyph glyph-name="parenleft.subs" unicode="&#x208d;" horiz-adv-x="227" 
d="M195 279q-86 -122 -86 -259q0 -135 86 -257h-76q-32 40 -56.5 107.5t-24.5 149.5q0 151 81 259h76z" />
    <glyph glyph-name="parenright.subs" unicode="&#x208e;" horiz-adv-x="227" 
d="M34 -221q85 122 85 259q0 133 -85 256h74q32 -38 57 -106t25 -150q0 -153 -82 -259h-74z" />
    <glyph glyph-name="colonmonetary" unicode="&#x20a1;" horiz-adv-x="543" 
d="M207 -98v102q-81 28 -124 113.5t-43 214.5q0 133 43 218.5t124 114.5v80h54v-68q23 2 35 2h6v66h53v-72q69 -15 107.5 -63.5t45.5 -107.5h-100q-14 58 -53 79v-489q35 21 55 73h100q-32 -136 -155 -166v-96h-53v88h-15q-18 0 -26 1v-90h-54zM285 76q12 0 17 2v518h-12
q-11 0 -29 -2v-515q14 -3 24 -3zM142 334q0 -175 65 -230v465q-65 -55 -65 -235z" />
    <glyph glyph-name="franc" unicode="&#x20a3;" horiz-adv-x="517" 
d="M100 137h-87v73h87v461h381v-87h-279v-188h259v-86h-259v-100h128v-73h-128v-137h-102v137z" />
    <glyph glyph-name="lira" unicode="&#x20a4;" horiz-adv-x="530" 
d="M36 0v81q40 18 56.5 56t18.5 101h-90v62h91l-3 66h-88v63h86v26q0 110 48.5 168.5t147.5 58.5q39 0 71.5 -10.5t53 -27.5t35 -39.5t21 -44t8.5 -43.5h-96q-13 82 -95 82q-51 0 -72.5 -34t-21.5 -101v-35h151v-63h-149q0 -9 0.5 -30.5t0.5 -35.5h148v-62h-149
q-5 -103 -48 -150h351l-13 -88h-463z" />
    <glyph glyph-name="uni20A6" unicode="&#x20a6;" horiz-adv-x="559" 
d="M71 0v249h-51v62h51v73h-51v64h51v223h126l76 -223h118v223h78v-223h52v-64h-52v-73h52v-62h-52v-249h-117l-85 249h-115v-249h-81zM146 590q4 -63 6 -142h47l-48 142h-5zM221 384h-69v-73h94zM391 311v73h-96l25 -73h71zM400 98q-6 61 -7 151h-52l52 -151h7z" />
    <glyph glyph-name="peseta" unicode="&#x20a7;" horiz-adv-x="538" 
d="M67 422h-64v67h64v182h176q98 0 161.5 -47t73.5 -135h50v-67h-50q-7 -58 -38.5 -100t-83.5 -63.5t-120 -21.5h-74v-237h-95v422zM162 489h218q-17 106 -141 106h-77v-106zM234 314q131 0 146 108h-218v-108h72z" />
    <glyph glyph-name="dong" unicode="&#x20ab;" horiz-adv-x="552" 
d="M470 679v-69h64v-71h-64v-394q0 -107 1 -145h-91q-5 33 -5 66q-45 -75 -148 -75q-84 0 -140.5 63.5t-56.5 171.5q0 112 61.5 176.5t150.5 64.5q95 0 133 -55v127h-229v71h229v69h95zM129 228q0 -74 34 -116t92 -42q54 0 89 39t35 129q0 53 -16 87.5t-42.5 49t-62.5 14.5
q-63 0 -96 -43t-33 -118zM477 -76v-72h-424v72h424z" />
    <glyph glyph-name="Euro" unicode="&#x20ac;" horiz-adv-x="557" 
d="M527 161q-19 -82 -72.5 -127t-135.5 -45q-99 0 -156.5 67t-72.5 191h-62v65h57v23q0 26 1 38h-58v66h65q12 77 43.5 132t79.5 83t108 28q39 0 71.5 -10t55.5 -27t39.5 -39.5t25 -46t11.5 -48.5h-98q-12 41 -39.5 65t-69.5 24q-106 0 -129 -161h183v-66h-188
q-1 -11 -1 -34v-27h189v-65h-184q21 -174 131 -174q77 0 108 88h98z" />
    <glyph glyph-name="uni20B1" unicode="&#x20b1;" horiz-adv-x="591" 
d="M92 368h-60v57h60v50h-60v57h60v139h182q84 0 143.5 -35t82.5 -104h56v-57h-45q1 -8 1 -25q0 -16 -1 -25h45v-57h-56q-24 -70 -87 -107.5t-151 -37.5h-75v-223h-95v368zM187 532h215q-35 66 -129 66h-86v-66zM419 449q0 18 -1 26h-231v-50h231q1 7 1 24zM262 299
q106 0 141 69h-216v-69h75z" />
    <glyph glyph-name="uni20B2" unicode="&#x20b2;" horiz-adv-x="567" 
d="M421 505q-20 83 -95 94v-527q57 2 86 19v244h102v-300q-50 -22 -91.5 -33.5t-96.5 -12.5v-87h-60v90q-216 31 -216 349q0 148 56.5 236.5t159.5 101.5v67h60v-66q86 -6 136 -53.5t57 -121.5h-98zM152 349q0 -115 26.5 -182.5t87.5 -86.5v517q-114 -27 -114 -248z" />
    <glyph glyph-name="uni20B4" unicode="&#x20b4;" horiz-adv-x="544" 
d="M69 516q6 51 32.5 88.5t70.5 58t99 20.5q98 0 147.5 -49.5t49.5 -118.5q0 -48 -21 -84h50v-59h-106q-35 -26 -93 -59l-7 -4h196v-58h-286q-26 -22 -36 -41.5t-10 -44.5q0 -28 14 -50t40 -35t58 -13q106 0 127 98h96q-13 -86 -71 -131.5t-158 -45.5q-88 0 -146.5 48
t-58.5 124q0 52 27 91h-43v58h100q32 25 98 63h-188v59h279q41 36 41 82q0 17 -6 33t-17.5 29.5t-31 22t-44.5 8.5q-46 0 -72 -24.5t-33 -65.5h-97z" />
    <glyph glyph-name="uni20B5" unicode="&#x20b5;" horiz-adv-x="562" 
d="M251 -98v91q-102 14 -156.5 102t-54.5 237q0 155 54 242t157 102v70h61v-67q38 -2 69.5 -13.5t53 -29t37.5 -41t24.5 -48t11.5 -50.5h-100q-21 90 -96 101v-524q38 5 60.5 28t37.5 73h100q-17 -82 -65.5 -129t-132.5 -54v-90h-61zM142 334q0 -226 109 -256v517
q-58 -15 -83.5 -78.5t-25.5 -182.5z" />
    <glyph glyph-name="uni20B9" unicode="&#x20b9;" horiz-adv-x="535" 
d="M50 348h95q31 0 57.5 6t51 19.5t38.5 40t14 62.5v1h-256v65h241q-34 61 -138 61h-103v68h452v-65h-145q27 -27 39 -64h106v-65h-96v-2q0 -21 -4 -41t-11 -36.5t-17 -31t-22.5 -26t-28 -21.5t-32 -17.5t-34.5 -12.5l216 -289h-114l-205 272h-15h-89v76z" />
    <glyph glyph-name="uni20BA" unicode="&#x20ba;" horiz-adv-x="569" 
d="M121 0v260l-86 -38v68l86 36v75l-86 -38v66l86 38v204h101v-161l127 55v-66l-127 -55v-74l127 54v-66l-127 -55v-220q96 0 143 44.5t57 137.5h90q-3 -41 -12.5 -77t-30.5 -71.5t-52 -60.5t-80.5 -40.5t-111.5 -15.5h-104z" />
    <glyph glyph-name="uni20BD" unicode="&#x20bd;" horiz-adv-x="587" 
d="M102 148h-74v70h74v79h-74v80h74v294h207q108 0 169.5 -49t61.5 -134q0 -191 -231 -191h-103v-79h180v-70h-180v-148h-104v148zM206 377h101q67 0 97 26.5t30 80.5q0 51 -32.5 78.5t-95.5 27.5h-100v-213z" />
    <glyph glyph-name="uni2113" unicode="&#x2113;" horiz-adv-x="435" 
d="M419 168q-8 -87 -51.5 -132t-127.5 -45q-156 0 -156 172v41q-7 -5 -56 -36l-24 71q29 16 79 49v250q0 112 45 164t115 52t108.5 -44.5t38.5 -123.5q0 -98 -48.5 -176t-155.5 -158v-66q0 -59 15 -86.5t47 -27.5q16 0 27.5 4.5t21 15t16 29.5t10.5 47h96zM186 353
q111 100 111 231q0 24 -3.5 41t-10 28t-17 16t-24.5 5q-28 0 -42 -26.5t-14 -89.5v-205z" />
    <glyph glyph-name="uni2116" unicode="&#x2116;" horiz-adv-x="1069" 
d="M87 0v690h133q261 -481 296 -575h1q-6 79 -6 328v247h92v-690h-125q-67 128 -120.5 231t-85.5 165.5t-51.5 101t-32.5 66t-15 30.5h-1q8 -91 8 -338v-256h-93zM849 643q84 0 131.5 -54.5t47.5 -144.5q0 -60 -21 -105.5t-62.5 -71t-96.5 -25.5q-79 0 -127.5 55t-48.5 147
q0 88 49 143.5t128 55.5zM758 444q0 -62 24.5 -95.5t68.5 -33.5q22 0 39 8t28.5 24t17.5 40.5t6 56.5q0 63 -24.5 95t-68.5 32q-27 0 -47.5 -14t-32 -43t-11.5 -70zM1000 181v-73h-300v73h300z" />
    <glyph glyph-name="uni2117" unicode="&#x2117;" horiz-adv-x="804" 
d="M399 718q150 0 249 -102.5t99 -260.5t-99 -261.5t-249 -103.5q-154 0 -252.5 101t-98.5 264q0 156 100.5 259.5t250.5 103.5zM398 663q-126 0 -208 -84t-82 -227q0 -132 82 -219t208 -87t207 84t81 225q0 134 -81.5 221t-206.5 87zM267 552h161q57 0 98.5 -33t41.5 -93
q0 -63 -39 -96t-104 -33h-86v-134h-72v389zM340 354h78q21 0 35.5 5t23 14.5t12.5 22t4 28.5q0 68 -76 68h-77v-138z" />
    <glyph glyph-name="uni2120" unicode="&#x2120;" horiz-adv-x="485" 
d="M40 544q2 -21 17 -32.5t35 -11.5q45 0 45 30q0 15 -13.5 23t-43.5 15q-33 8 -51.5 19.5t-25.5 25t-7 31.5q0 32 23.5 51.5t68.5 19.5q48 0 71.5 -22.5t25.5 -54.5h-52q-6 38 -48 38q-36 0 -36 -28q0 -11 9 -18.5t35 -13.5q54 -13 76.5 -30.5t22.5 -48.5q0 -77 -102 -77
q-46 0 -73.5 23t-30.5 61h54zM449 466v74q0 39 4 129h-2q-9 -29 -20 -63t-25.5 -75t-21.5 -64h-48q-43 132 -62 202h-2q3 -67 3 -137v-66h-51v243h86q46 -142 53 -164h1q30 90 57 164h80v-243h-52z" />
    <glyph glyph-name="trademark" unicode="&#x2122;" horiz-adv-x="494" 
d="M208 709v-49h-80v-194h-57v194h-81v49h218zM462 466v74q0 73 5 129h-2l-68 -202h-47l-62 202h-2q2 -28 4 -137v-66h-52v243h85l54 -164l58 164h80v-243h-53z" />
    <glyph glyph-name="uni2126" unicode="&#x2126;" horiz-adv-x="763" 
d="M382 719q78 0 141.5 -27.5t103.5 -73t61.5 -103.5t21.5 -121q0 -204 -168 -305h183v-89h-286v110q164 78 164 280q0 64 -24 117.5t-75.5 88.5t-123.5 35q-102 0 -161 -67t-59 -174q0 -101 45.5 -172t119.5 -108v-110h-286v89h178q-164 103 -164 302q0 90 39.5 164
t115.5 119t174 45z" />
    <glyph glyph-name="estimated" unicode="&#x212e;" horiz-adv-x="854" 
d="M194 311q-4 0 -4 -4v-116q0 -9 8 -22q37 -53 96 -82.5t130 -29.5q51 0 90.5 11.5t73 35.5t62.5 64h112q-116 -179 -340 -179q-84 0 -156 27.5t-120.5 75t-75.5 110.5t-27 134q0 93 50.5 172.5t139.5 126.5t194 47q82 0 154.5 -28.5t123 -76.5t79.5 -112.5t29 -134.5v-19
h-619zM665 484q0 8 -9 24q-37 53 -96.5 81.5t-130.5 28.5q-147 0 -230 -111q-9 -14 -9 -24v-98q0 -6 4 -6h467q4 0 4 6v99z" />
    <glyph glyph-name="uni2153" unicode="&#x2153;" horiz-adv-x="850" 
d="M116 266v312q-14 -7 -40.5 -12.5t-41.5 -5.5v61q63 11 109 56h55v-411h-82zM120 1l438 671h75l-436 -671h-77zM613 246h33q66 0 66 47q0 23 -16 38.5t-50 15.5q-25 0 -41 -9.5t-22 -20.5t-11 -26h-73q2 17 9.5 34.5t23 37.5t46 32.5t71.5 12.5q46 0 79 -15t48.5 -40
t15.5 -56t-18 -51.5t-41 -29.5q31 -9 53.5 -34t22.5 -63q0 -51 -38.5 -88t-119.5 -37q-45 0 -78 13t-49.5 34t-24 39.5t-8.5 36.5h76q6 -26 28.5 -44t56.5 -18q35 0 54.5 17.5t19.5 45.5q0 60 -75 60h-38v68z" />
    <glyph glyph-name="uni2154" unicode="&#x2154;" horiz-adv-x="949" 
d="M43 267v5q0 57 31 103.5t99 88.5q36 22 52 33.5t23.5 24t7.5 29.5q0 28 -16.5 44.5t-48.5 16.5q-62 0 -75 -70l-76 1q5 60 46.5 97t107.5 37q39 0 68.5 -11.5t45 -31t23.5 -39.5t8 -41q0 -32 -13 -55.5t-33.5 -39.5t-60.5 -39q-81 -48 -95 -88h219l-12 -65h-301zM235 1
l437 671h76l-437 -671h-76zM718 246h33q66 0 66 47q0 23 -16 38.5t-50 15.5q-35 0 -51 -15.5t-23 -40.5h-73q2 17 9.5 34.5t23 37.5t46 32.5t71.5 12.5q69 0 106 -31.5t37 -79.5q0 -31 -18 -51.5t-41 -29.5q31 -9 53.5 -34t22.5 -63q0 -51 -38.5 -88t-119.5 -37
q-45 0 -78 13t-49 34t-23.5 39.5t-9.5 36.5h76q4 -17 14.5 -30.5t29 -22.5t41.5 -9q24 0 41 8.5t25 22.5t8 32q0 60 -75 60h-38v68z" />
    <glyph glyph-name="oneeighth" unicode="&#x215b;" horiz-adv-x="809" 
d="M114 266v312q-14 -7 -40.5 -12.5t-41.5 -5.5v61q63 11 109 56h55v-411h-82zM99 1l438 671h75l-437 -671h-76zM610 -21q-76 0 -117 34.5t-41 85.5q0 36 19 60.5t50 37.5q-52 29 -52 85q0 49 36 80.5t110 31.5q28 0 51.5 -6.5t39 -17t26.5 -25t16 -29.5t5 -31
q0 -60 -54 -84q72 -28 72 -99q0 -55 -45 -89t-116 -34zM612 337q-32 0 -49 -14.5t-17 -39.5q0 -58 68 -58q14 0 25.5 4t19.5 11t12 18t4 25q0 24 -15.5 39t-47.5 15zM611 35q40 0 60 18t20 47q0 68 -80 68q-79 0 -79 -66q0 -29 21 -48t58 -19z" />
    <glyph glyph-name="threeeighths" unicode="&#x215c;" horiz-adv-x="925" 
d="M161 514h33q66 0 66 47q0 23 -16 38.5t-50 15.5q-24 0 -40.5 -9.5t-22.5 -20t-11 -26.5h-73q2 17 9.5 34.5t23 37.5t46 32.5t71.5 12.5q69 0 106 -31t37 -80q0 -31 -17.5 -51.5t-40.5 -29.5q30 -8 52.5 -33t22.5 -63q0 -52 -38.5 -89t-119.5 -37q-36 0 -65 9.5
t-45.5 22.5t-28 31t-16 32.5t-5.5 28.5h76q6 -27 28.5 -45t56.5 -18q36 0 55 17.5t19 46.5q0 60 -75 60h-38v67zM209 1l438 671h75l-436 -671h-77zM725 -5q-75 0 -116.5 35t-41.5 85q0 36 19.5 61t49.5 37q-52 29 -52 85q0 49 36.5 80.5t109.5 31.5q35 0 62.5 -9.5
t43.5 -25.5t24 -35t8 -39q0 -60 -54 -84q72 -27 72 -99q0 -55 -45 -89t-116 -34zM727 353q-32 0 -49 -14.5t-17 -39.5q0 -57 68 -57q14 0 25.5 3.5t19.5 10.5t12 18t4 25q0 25 -15.5 39.5t-47.5 14.5zM726 51q40 0 60 18.5t20 46.5q0 69 -80 69q-78 0 -78 -67q0 -18 8.5 -33
t27 -24.5t42.5 -9.5z" />
    <glyph glyph-name="fiveeighths" unicode="&#x215d;" horiz-adv-x="938" 
d="M219 1l438 671h75l-436 -671h-77zM343 605h-190q-4 -41 -15 -94q35 28 94 28q62 0 100 -36t38 -96q0 -41 -19 -74t-55 -52t-85 -19q-72 0 -113 35.5t-47 82.5h80q17 -55 80 -55q37 0 57 21t20 57q0 34 -19 54t-59 20q-54 0 -78 -38l-72 11q30 187 34 221h260zM735 -5
q-75 0 -116.5 35t-41.5 85q0 36 19.5 61t50.5 37q-52 29 -52 85q0 49 36 80.5t110 31.5q67 0 102 -32.5t35 -76.5q0 -60 -54 -84q73 -27 73 -99q0 -55 -45.5 -89t-116.5 -34zM737 353q-32 0 -49 -14.5t-17 -39.5q0 -57 69 -57q14 0 25 3.5t19 10.5t12.5 18t4.5 25
q0 25 -16 39.5t-48 14.5zM736 51q40 0 60 18.5t20 46.5q0 69 -80 69q-78 0 -78 -67q0 -18 9 -33t27 -24.5t42 -9.5z" />
    <glyph glyph-name="seveneighths" unicode="&#x215e;" horiz-adv-x="844" 
d="M119 1l438 671h75l-436 -671h-77zM342 671v-59q-110 -135 -160 -345h-87q16 86 62.5 181t98.5 157h-210v66h296zM647 -21q-76 0 -117 34.5t-41 85.5q0 36 19 60.5t50 37.5q-52 29 -52 85q0 31 14 55.5t48 40.5t84 16q35 0 62 -9.5t43 -25.5t24 -35t8 -39q0 -60 -54 -84
q73 -28 73 -99q0 -55 -45 -89t-116 -34zM649 337q-32 0 -49.5 -14.5t-17.5 -39.5q0 -58 69 -58q14 0 25.5 4t19 11t12 18t4.5 25q0 24 -16 39t-47 15zM648 35q40 0 59.5 18t19.5 47q0 68 -79 68t-79 -66q0 -29 21 -48t58 -19z" />
    <glyph glyph-name="arrowleft" unicode="&#x2190;" horiz-adv-x="893" 
d="M197 323q75 -65 339 -312l-55 -56l-434 408v2l434 413l55 -59q-36 -32 -107 -98.5t-132.5 -123.5t-99.5 -92h649v-82h-649z" />
    <glyph glyph-name="arrowup" unicode="&#x2191;" horiz-adv-x="876" 
d="M393 642q-178 -205 -290 -327l-56 57l388 425h2l392 -425l-58 -57q-50 55 -156.5 174.5t-136.5 152.5v-687h-85v687z" />
    <glyph glyph-name="arrowright" unicode="&#x2192;" horiz-adv-x="893" 
d="M697 410q-75 65 -339 312l54 56l435 -408v-2l-435 -413l-54 59q22 21 155 144.5t184 169.5h-649v82h649z" />
    <glyph glyph-name="arrowdown" unicode="&#x2193;" horiz-adv-x="876" 
d="M483 80q178 204 290 326l56 -57l-387 -424h-2l-393 424l58 57q50 -55 156.5 -174t136.5 -152v686h85v-686z" />
    <glyph glyph-name="partialdiff" unicode="&#x2202;" horiz-adv-x="554" 
d="M97 712q33 7 73 7q72 0 133 -24.5t107.5 -71.5t72.5 -123.5t26 -174.5q0 -54 -7 -100.5t-24.5 -90t-44.5 -74.5t-71 -49.5t-100 -18.5q-102 -1 -162 63t-60 155q0 98 63.5 159t155.5 61q105 0 152 -63v9q-3 110 -69.5 183.5t-180.5 73.5q-36 0 -64 -4v83zM271 69
q30 0 53 10.5t37.5 27.5t24 39t13.5 43.5t4 44.5q0 29 -15 55.5t-46 45t-72 18.5q-57 0 -93 -37.5t-36 -104.5q0 -66 37.5 -104t92.5 -38z" />
    <glyph glyph-name="uni2206" unicode="&#x2206;" horiz-adv-x="663" 
d="M23 0v66l244 643h129l244 -644v-65h-617zM522 90l-103 274q-70 184 -92 262h-3q-8 -38 -89 -262l-102 -274h389z" />
    <glyph glyph-name="product" unicode="&#x220f;" horiz-adv-x="718" 
d="M632 709v-811h-105v721h-336v-721h-104v811h545z" />
    <glyph glyph-name="summation" unicode="&#x2211;" horiz-adv-x="542" 
d="M14 -102v66l252 342l-237 336v67h482v-90h-347l218 -302l-239 -329h399l-14 -90h-514z" />
    <glyph glyph-name="minus" unicode="&#x2212;" horiz-adv-x="727" 
d="M84 243v87h560v-87h-560z" />
    <glyph glyph-name="uni2215" unicode="&#x2215;" horiz-adv-x="189" 
d="M-160 0l437 671h76l-437 -671h-76z" />
    <glyph glyph-name="uni2219" unicode="&#x2219;" horiz-adv-x="216" 
d="M55 204v156h106v-156h-106z" />
    <glyph glyph-name="radical" unicode="&#x221a;" horiz-adv-x="634" 
d="M386 -202h-77l-158 435l-96 -45l-24 67l180 87q117 -335 130 -404q6 79 197 931h82z" />
    <glyph glyph-name="infinity" unicode="&#x221e;" horiz-adv-x="826" 
d="M210 117q-69 0 -116 50.5t-47 127.5q0 73 48 125t123 52q32 0 59.5 -8.5t53 -28t41.5 -35.5t42 -45q28 30 45 46.5t43 35.5t54.5 27t61.5 8q70 0 115.5 -50t45.5 -127q0 -47 -21 -87.5t-61 -65.5t-89 -25q-38 0 -75 18t-61.5 40.5t-57.5 59.5q-28 -30 -44 -45t-43 -35
t-55.5 -29t-61.5 -9zM605 196q45 0 71 28t26 71q0 29 -11 51.5t-32.5 36.5t-50.5 14q-42 0 -73 -23t-78 -76q3 -3 9 -10q20 -23 31.5 -34.5t30.5 -27.5t37.5 -23t39.5 -7zM218 196q43 0 76 24.5t73 71.5q-5 5 -22.5 25.5t-27.5 30t-26.5 23t-33.5 19.5t-36 6
q-43 0 -70 -29.5t-27 -71.5q0 -44 26 -71.5t68 -27.5z" />
    <glyph glyph-name="integral" unicode="&#x222b;" horiz-adv-x="324" 
d="M330 767q-24 6 -46.5 6t-38 -9t-24 -22.5t-13 -38.5t-5.5 -47.5t-1 -59.5q0 -74 10 -281.5t10 -280.5q0 -45 -2.5 -78t-11.5 -68t-25 -56.5t-44.5 -35.5t-68.5 -14q-52 0 -81 12l13 89q27 -8 56 -8q18 0 31 6t20.5 19t12 25.5t6.5 33.5t2.5 33.5t0.5 35.5v10
q0 73 -11 287t-11 288q0 251 166 251q42 0 66 -11z" />
    <glyph glyph-name="approxequal" unicode="&#x2248;" horiz-adv-x="727" 
d="M87 329v23q0 129 127 129q46 0 100.5 -17.5t106 -35t91.5 -17.5q13 0 22 2.5t15 6.5t10 11.5t5.5 16.5t1.5 21v8h77v-23q0 -73 -33.5 -102.5t-92.5 -29.5q-39 0 -82 11.5t-75 25t-70.5 25t-69.5 11.5q-56 0 -56 -55v-11h-77zM87 103v23q0 46 17.5 75.5t45 41.5t63.5 12
q48 0 103 -18t106 -36t90 -18q30 0 42 14t12 43v10h77v-26q0 -36 -9.5 -62t-27 -40t-39 -20t-48.5 -6q-49 0 -105 18t-106.5 35.5t-87.5 17.5q-56 0 -56 -57v-7h-77z" />
    <glyph glyph-name="notequal" unicode="&#x2260;" horiz-adv-x="727" 
d="M481 460h163v-88h-203l-78 -167h281v-88h-321l-51 -109h-79l50 109h-159v88h200l76 167h-276v88h316l52 112h81z" />
    <glyph glyph-name="lessequal" unicode="&#x2264;" horiz-adv-x="692" 
d="M84 479l525 236v-97l-420 -180l420 -188v-97l-525 240v86zM84 0v89h525v-89h-525z" />
    <glyph glyph-name="greaterequal" unicode="&#x2265;" horiz-adv-x="692" 
d="M609 389l-525 -236v98l420 180l-420 188v96l525 -239v-87zM84 0v89h525v-89h-525z" />
    <glyph glyph-name="filledbox" unicode="&#x25a0;" horiz-adv-x="384" 
d="M72 381h241v-240h-241v240z" />
    <glyph glyph-name="triagup" unicode="&#x25b2;" horiz-adv-x="651" 
d="M37 0l283 623h3l292 -623h-578z" />
    <glyph glyph-name="uni25B3" unicode="&#x25b3;" horiz-adv-x="651" 
d="M37 0l283 623h3l292 -623h-578zM497 69l-177 396l-173 -396h350z" />
    <glyph glyph-name="uni25B6" unicode="&#x25b6;" horiz-adv-x="705" 
d="M52 592l623 -285v-2l-623 -292v579z" />
    <glyph glyph-name="uni25B7" unicode="&#x25b7;" horiz-adv-x="705" 
d="M52 592l623 -285v-2l-623 -292v579zM124 477v-349l392 176z" />
    <glyph glyph-name="triagdn" unicode="&#x25bc;" horiz-adv-x="651" 
d="M615 614l-285 -624h-2l-291 624h578z" />
    <glyph glyph-name="uni25BD" unicode="&#x25bd;" horiz-adv-x="651" 
d="M615 614l-285 -624h-2l-291 624h578zM155 544l175 -395l175 395h-350z" />
    <glyph glyph-name="uni25C0" unicode="&#x25c0;" horiz-adv-x="705" 
d="M655 13l-623 284v3l623 292v-579z" />
    <glyph glyph-name="uni25C1" unicode="&#x25c1;" horiz-adv-x="705" 
d="M655 13l-623 284v3l623 292v-579zM190 299l391 -174v350z" />
    <glyph glyph-name="uni25C6" unicode="&#x25c6;" horiz-adv-x="420" 
d="M209 434l168 -177l-165 -170l-169 175z" />
    <glyph glyph-name="uni25C9" unicode="&#x25c9;" horiz-adv-x="544" 
d="M493 259q-1 -97 -63.5 -163t-155.5 -66q-61 0 -112 29.5t-80 82.5t-29 117q0 95 64 161.5t158 66.5q92 0 155 -67t63 -161zM274 424q-67 0 -109.5 -48t-42.5 -117q0 -72 43 -120.5t109.5 -48.5t109 48.5t42.5 120.5q0 45 -19.5 82.5t-54.5 60t-78 22.5zM272.5 337
q33.5 0 55.5 -23t22 -55q0 -17 -6 -32.5t-15.5 -26.5t-24 -18t-30.5 -7q-23 0 -41 11.5t-27 30.5t-9 42q0 32 21 55t54.5 23z" />
    <glyph glyph-name="lozenge" unicode="&#x25ca;" horiz-adv-x="590" 
d="M336 -44h-88l-206 379l210 379h89l208 -378zM326 578q-15 26 -30 60h-2q-3 -5 -7 -13l-7.5 -15t-8 -16.5t-7.5 -15.5l-132 -240l130 -247q28 -53 30 -61h3q1 4 29 60l136 244z" />
    <glyph glyph-name="uni25FC" unicode="&#x25fc;" horiz-adv-x="520" 
d="M0 520h520v-520h-520v520z" />
    <glyph glyph-name="uni2610" unicode="&#x2610;" horiz-adv-x="1038" 
d="M932 797v-791l-66 -67h-760v797l58 61h768zM167 1h685v719h-685v-719z" />
    <glyph glyph-name="uni2611" unicode="&#x2611;" horiz-adv-x="1038" 
d="M932 797v-791l-66 -67h-760v797l58 61h768zM167 1h685v719h-685v-719zM782 656q-174 -221 -355 -604h-25q-93 139 -151 283l71 46q43 -137 91 -224q38 89 86.5 183t97.5 175.5t93 140.5h92z" />
    <glyph glyph-name="uni2713" unicode="&#x2713;" horiz-adv-x="712" 
d="M714 766q-220 -295 -472 -833h-31q-102 150 -181 355l87 55q43 -149 107 -274q84 194 183.5 380.5t192.5 316.5h114z" />
    <glyph glyph-name="uni2752" unicode="&#x2752;" horiz-adv-x="486" 
d="M146 446h274v-294l-74 -81h-281v293zM120 130h208v220h-208v-220z" />
    <glyph glyph-name="fi" unicode="&#xfb01;" horiz-adv-x="552" 
d="M91 0v440h-82v79h82v59q0 81 36.5 130.5t117.5 49.5q41 0 59 -6v-84q-15 4 -43 4q-26 0 -41 -10t-22 -32t-7 -59v-52h102v-79h-102v-440h-100zM378 632v116h100v-116h-100zM378 519h100v-519h-100v519z" />
    <glyph glyph-name="fl" unicode="&#xfb02;" horiz-adv-x="551" 
d="M91 0v440h-82v79h82v59q0 81 36.5 130.5t117.5 49.5q41 0 59 -6v-84q-15 4 -43 4q-26 0 -41 -10t-22 -32t-7 -59v-52h102v-79h-102v-440h-100zM377 0v748h100v-748h-100z" />
    <glyph glyph-name="G_tildecomb" horiz-adv-x="747" 
d="M198 779v26q0 54 23 77.5t66 23.5q35 0 91.5 -26t71.5 -26q30 0 30 43v10h69v-22q0 -59 -23 -84t-67 -25q-25 0 -57 13.5t-60.5 26.5t-44.5 13q-29 0 -29 -32v-18h-70zM674 0h-79q-7 21 -11 91q-64 -101 -217 -101q-99 0 -171.5 47.5t-107.5 127t-35 182.5
q0 107 37.5 190.5t114 132.5t182.5 49q81 0 144.5 -28.5t100.5 -77t46 -111.5h-105q-40 130 -188 130q-59 0 -102.5 -22t-69 -61.5t-38 -88.5t-12.5 -108q0 -55 12.5 -103t38 -87t68.5 -61.5t99 -22.5q190 0 190 211v7h-191v90h294v-386z" />
    <glyph glyph-name="g_tildecomb" horiz-adv-x="584" 
d="M130 614v26q0 101 85 101q32 0 79.5 -24.5t62.5 -24.5q10 0 16 3.5t9.5 12.5t3.5 24v11h67v-23q0 -107 -88 -107q-32 0 -76.5 24.5t-63.5 24.5q-26 0 -26 -32v-16h-69zM511 50q0 -129 -57.5 -196t-185.5 -67q-58 0 -101 15t-66.5 40t-35 50.5t-15.5 54.5h102
q22 -83 121 -83q42 0 70 12.5t43 38.5t21 58.5t6 78.5v39q-44 -88 -159 -88q-97 0 -156 71.5t-59 184.5q0 123 64 197.5t161 74.5q66 0 102.5 -23.5t46.5 -54.5q2 47 4 66h95q0 -14 -0.5 -68.5t-0.5 -81.5v-319zM143 263q0 -79 37 -127t98 -48q77 0 107.5 46t30.5 135
q0 90 -29 134.5t-105 44.5q-67 0 -103 -50.5t-36 -134.5z" />
    <glyph glyph-name="zero.slash" horiz-adv-x="576" 
d="M291 683q37 0 69 -9.5t56 -27.5t43 -43t31.5 -54.5t21 -64t12 -70t3.5 -73.5q0 -53 -6.5 -101t-23.5 -95t-43.5 -81t-69 -55t-96.5 -21q-53 0 -94 19t-68 51.5t-44.5 78t-25 94.5t-7.5 105q0 54 7.5 103t25.5 94.5t45.5 78t69 52t94.5 19.5zM292 603q-143 0 -143 -267
q0 -85 14 -145l212 375q-30 37 -83 37zM289 68q137 0 137 272q0 102 -18 161l-216 -382q34 -51 97 -51z" />
    <glyph glyph-name="zero.slashtab" horiz-adv-x="562" 
d="M284 683q43 0 79 -13t61.5 -37t44.5 -55.5t30 -70.5t16 -80t5 -86q0 -53 -6.5 -101t-23.5 -95t-43.5 -81t-69 -55t-97.5 -21q-52 0 -93 19t-68 51.5t-44.5 78t-25 94.5t-7.5 105q0 54 7.5 103t25.5 94.5t45 78t69 52t95 19.5zM285 603q-143 0 -143 -267q0 -85 14 -145
l212 375q-30 37 -83 37zM282 68q137 0 137 272q0 102 -18 161l-216 -382q34 -51 97 -51z" />
    <glyph glyph-name="zero.tab" horiz-adv-x="562" 
d="M284 683q52 0 93.5 -19t68 -51t43.5 -76.5t24 -92.5t7 -103t-6.5 -103t-23.5 -95t-43 -80.5t-69 -54t-98 -20.5q-53 0 -95 19.5t-68.5 52t-44 78t-24 94t-6.5 104.5q0 54 7 103t25 94.5t45 78t69 52t96 19.5zM285 600q-28 0 -49.5 -9t-36.5 -27t-25.5 -41t-16 -53.5
t-8 -62.5t-2.5 -71q0 -265 135 -265q33 0 57 15.5t38.5 39.5t23 60.5t11 72t2.5 81.5q0 54 -5 96t-18.5 81.5t-40 61t-65.5 21.5z" />
    <glyph glyph-name="one.tab" horiz-adv-x="562" 
d="M64 0v87h156v461q-21 -12 -63 -21t-75 -11v75q47 7 93.5 28.5t74.5 51.5h70v-584h149v-87h-405z" />
    <glyph glyph-name="two.tab" horiz-adv-x="562" 
d="M57 0v6q0 153 202 305q58 44 83 67t38 48.5t13 61.5q0 52 -27.5 82.5t-82.5 30.5q-58 0 -87.5 -29.5t-39.5 -90.5h-98q9 91 66.5 146.5t158.5 55.5q45 0 81.5 -11t60.5 -29.5t40 -43.5t23.5 -52t7.5 -56q0 -38 -8 -66t-30 -56t-49.5 -52t-79.5 -63q-68 -53 -104.5 -92.5
t-48.5 -74.5h346l-14 -87h-451z" />
    <glyph glyph-name="three.tab" horiz-adv-x="562" 
d="M61 509q4 33 18 62.5t39 55.5t66 41t94 15q101 0 154.5 -51t53.5 -124q0 -56 -26.5 -90.5t-62.5 -48.5v-2q50 -17 83 -58t33 -110q0 -41 -13 -77.5t-40 -67t-74 -48.5t-110 -18q-56 0 -100.5 16.5t-71.5 44.5t-42 60t-18 67h99q10 -46 44.5 -76.5t92.5 -30.5
q65 0 97.5 37t32.5 93q0 62 -35.5 93t-103.5 31h-50v81h43q63 0 92 24t29 76q0 44 -29 70.5t-81 26.5q-54 0 -80.5 -24.5t-36.5 -67.5h-97z" />
    <glyph glyph-name="four.tab" horiz-adv-x="562" 
d="M349 0v168h-313v90l301 413h108v-418h85l-11 -85h-74v-168h-96zM349 413q0 95 3 161q-22 -43 -220 -321h217v160z" />
    <glyph glyph-name="five.tab" horiz-adv-x="562" 
d="M479 585h-278q-5 -54 -28 -179q48 51 137 51q93 0 148 -60.5t55 -162.5q0 -51 -13.5 -94t-41 -78t-74 -54.5t-106.5 -19.5q-92 0 -153.5 48t-74.5 133h101q8 -30 24 -51.5t43.5 -35t63.5 -13.5q63 0 96 42t33 115q0 68 -30 107t-94 39q-55 0 -84.5 -20.5t-47.5 -62.5
l-93 16q27 120 56 366h376z" />
    <glyph glyph-name="six.tab" horiz-adv-x="562" 
d="M404 521q-22 82 -108 82q-141 0 -146 -234q54 88 166 88q96 0 151.5 -62t55.5 -161q0 -106 -61 -176t-169 -70q-243 0 -243 338q0 58 7.5 108.5t26 97t46.5 79.5t71.5 52.5t99.5 19.5q49 0 88 -14.5t62 -39t36 -52t16 -56.5h-99zM292 71q65 0 97 44t32 110q0 30 -6 55
t-20 47t-40 34.5t-61 12.5q-62 0 -98 -38t-36 -109q0 -12 2 -25.5t6 -29t11 -29.5t17.5 -27.5t23.5 -23t31.5 -15.5t40.5 -6z" />
    <glyph glyph-name="seven.tab" horiz-adv-x="562" 
d="M504 671v-80q-89 -121 -160.5 -284t-95.5 -307h-103q21 139 96 308t158 277h-341v86h446z" />
    <glyph glyph-name="eight.tab" horiz-adv-x="562" 
d="M275 -12q-66 0 -119 24t-84 70.5t-31 108.5q0 64 35 106.5t84 62.5q-91 47 -91 142q0 82 57 131.5t160 49.5q95 0 151.5 -49.5t56.5 -129.5q0 -53 -25 -88t-67 -51q49 -16 83 -62t34 -109q0 -96 -67 -151t-177 -55zM283 602q-59 0 -87.5 -26.5t-28.5 -74.5
q0 -43 29.5 -71t87.5 -28q112 0 112 97q0 45 -29 74t-84 29zM282 69q30 0 54.5 8t42.5 23.5t28 39.5t10 55q0 60 -36 91.5t-101 31.5q-67 0 -101.5 -34t-34.5 -89t37 -90.5t101 -35.5z" />
    <glyph glyph-name="nine.tab" horiz-adv-x="562" 
d="M161 151q10 -27 24 -44.5t36.5 -27t53.5 -9.5q30 0 53 12t37.5 34.5t24 46t14 55.5t6.5 52.5t3 47.5q-43 -75 -156 -75q-95 0 -151.5 60t-56.5 154q0 97 61.5 161.5t167.5 64.5q51 0 90.5 -15.5t66.5 -43t44.5 -66.5t25.5 -85t8 -100q0 -384 -242 -384q-50 0 -89 13.5
t-63.5 37.5t-39 51.5t-20.5 59.5h102zM277 601q-62 0 -93.5 -39t-31.5 -101q0 -41 15 -71.5t43 -47.5t65 -17q129 0 129 132q0 12 -2 25t-6.5 30.5t-13.5 32.5t-22.5 28t-34.5 20.5t-48 7.5z" />
    <glyph glyph-name="zero.slashcap" horiz-adv-x="607" 
d="M307 719q54 0 97.5 -20.5t71.5 -55t46.5 -81.5t26 -97t7.5 -106q0 -55 -7 -105t-25 -100t-45.5 -85.5t-72.5 -58t-103 -22.5q-56 0 -99.5 20.5t-71.5 55t-46.5 82.5t-26 99t-7.5 109q0 46 5.5 88.5t17.5 84.5t32.5 76t48 60.5t66 41t85.5 14.5zM307 636
q-42 0 -72.5 -21.5t-47.5 -61.5t-25 -89t-8 -109q0 -98 20 -168l225 405q-37 44 -92 44zM304 70q41 0 71.5 24t46.5 66t23.5 91t7.5 107q0 100 -22 168l-225 -406q38 -50 98 -50z" />
    <glyph glyph-name="zero.cap" horiz-adv-x="607" 
d="M307 719q54 0 97.5 -20.5t71.5 -55t46.5 -81.5t26 -97t7.5 -106q0 -55 -7 -105t-25 -100t-45.5 -85.5t-72.5 -58t-103 -22.5q-56 0 -99.5 20.5t-71.5 55t-46.5 82.5t-26 99t-7.5 109q0 46 5.5 88.5t17.5 84.5t32.5 76t48 60.5t66 41t85.5 14.5zM307 633q-149 0 -149 -278
q0 -56 7 -102.5t22.5 -88.5t45 -66.5t71.5 -24.5q145 0 145 285q0 275 -142 275z" />
    <glyph glyph-name="one.cap" horiz-adv-x="384" 
d="M183 0v580q-23 -16 -70 -31t-77 -19v79q48 11 96.5 38.5t78.5 61.5h77v-709h-105z" />
    <glyph glyph-name="two.cap" horiz-adv-x="570" 
d="M46 0v7q0 83 48.5 163.5t168.5 167.5l9 6q37 27 52.5 39t35.5 30t26.5 30.5t11.5 30t5 39.5q0 54 -31.5 87t-87.5 33q-61 0 -92.5 -32t-41.5 -94h-103q9 93 69.5 152t167.5 59q59 0 104 -17.5t70.5 -47.5t38 -64.5t12.5 -72.5q0 -41 -8.5 -70.5t-31.5 -58.5t-54 -53.5
t-86 -62.5q-138 -97 -163 -184h373l-15 -87h-478z" />
    <glyph glyph-name="three.cap" horiz-adv-x="593" 
d="M63 531q5 36 20 68t41.5 59.5t69.5 44t98 16.5q105 0 162 -53t57 -130q0 -106 -94 -145v-3q52 -19 87.5 -61.5t35.5 -115.5q0 -43 -14.5 -81.5t-43 -71.5t-78 -52t-114.5 -18q-58 0 -104.5 17t-75.5 46.5t-45 64t-20 74.5h101q11 -52 47.5 -85.5t101.5 -33.5
q70 0 105.5 37.5t35.5 99.5q0 135 -154 135h-41v81h36q69 0 100 26.5t31 77.5q0 48 -30 77.5t-87 29.5q-41 0 -69 -15t-40.5 -36.5t-20.5 -52.5h-98z" />
    <glyph glyph-name="four.cap" horiz-adv-x="584" 
d="M370 0v184h-332v89l319 436h111v-442h91l-11 -83h-80v-184h-98zM370 440q0 142 2 169q-12 -24 -55.5 -86t-100.5 -141t-81 -115h235v173z" />
    <glyph glyph-name="five.cap" horiz-adv-x="591" 
d="M511 622h-306q-13 -127 -25 -197q49 57 147 57t157.5 -64.5t59.5 -170.5q0 -116 -64 -187.5t-186 -71.5q-99 0 -163.5 51t-77.5 144h101q12 -49 46.5 -80t95.5 -31q74 0 109.5 44.5t35.5 121.5q0 68 -33.5 113.5t-104.5 45.5q-27 0 -48 -5.5t-35 -13t-25.5 -20.5
t-18 -23.5t-13.5 -26.5l-95 16q6 27 13 74t14 99.5t13.5 109.5t10.5 102h405z" />
    <glyph glyph-name="six.cap" horiz-adv-x="596" 
d="M429 551q-24 85 -117 87q-152 1 -158 -253q54 89 179 89q49 0 89.5 -16.5t69 -47t44 -73.5t15.5 -95q0 -70 -25.5 -126.5t-82 -92t-135.5 -35.5q-70 0 -120.5 25t-79.5 73.5t-42.5 111.5t-13.5 146q0 44 5 85.5t16 85t31.5 79t48.5 64.5t69 45t92 16q53 0 94 -15
t65.5 -40t38 -53.5t18.5 -59.5h-101zM308 72q66 0 103 45t37 118q0 66 -33.5 110.5t-104.5 44.5q-67 0 -105.5 -38.5t-38.5 -111.5q0 -27 7 -54t22 -54t44.5 -43.5t68.5 -16.5z" />
    <glyph glyph-name="seven.cap" horiz-adv-x="516" 
d="M490 709v-82q-95 -129 -166.5 -294t-101.5 -333h-113q28 163 105 333.5t166 287.5h-359v88h469z" />
    <glyph glyph-name="eight.cap" horiz-adv-x="599" 
d="M295 -12q-109 0 -177.5 58t-68.5 157q0 124 119 176q-88 47 -88 150q0 84 60.5 137t164.5 53q99 0 158.5 -51.5t59.5 -135.5q0 -109 -94 -147q34 -12 60.5 -34.5t44.5 -60t18 -83.5q0 -104 -71.5 -161.5t-185.5 -57.5zM302 636q-62 0 -93.5 -28t-31.5 -80q0 -48 33 -77.5
t93 -29.5q59 0 90 28t31 77q0 33 -14 58t-42 38.5t-66 13.5zM301 71q67 0 107 35.5t40 99.5q0 63 -39 97t-109 34q-76 0 -111.5 -34.5t-35.5 -94.5t40.5 -98.5t107.5 -38.5z" />
    <glyph glyph-name="nine.cap" horiz-adv-x="588" 
d="M160 159q28 -90 123 -90q31 0 55.5 12t40 34.5t26.5 47t16.5 58.5t8 60.5t4.5 59.5q-48 -80 -167 -80q-62 0 -112 26t-79 77t-29 120q0 101 64.5 168t173.5 67q127 0 189.5 -85t62.5 -243q0 -403 -260 -403q-97 0 -151.5 47t-68.5 124h103zM287 638q-41 0 -71.5 -17.5
t-47.5 -51.5t-17 -80q0 -68 37.5 -107t98.5 -39q135 0 135 137q0 30 -6.5 55.5t-21 49.5t-42 38.5t-65.5 14.5z" />
    <glyph glyph-name="period.sups" horiz-adv-x="160" 
d="M40 437v108h80v-108h-80z" />
    <glyph glyph-name="comma.sups" horiz-adv-x="154" 
d="M13 362q34 87 39 183h79q-5 -52 -18.5 -103t-30.5 -80h-69z" />
    <glyph glyph-name="dollar.sups" horiz-adv-x="399" 
d="M162 372v65q-58 6 -95 37.5t-45 80.5h82q7 -29 34 -45t64 -16q42 0 63 14.5t21 39.5q0 24 -20.5 38.5t-78.5 24.5q-84 15 -118 43.5t-34 74.5q0 43 32 75t95 39v48h69v-48q57 -9 89 -41t36 -70h-77q-14 54 -87 54q-41 0 -60 -13.5t-19 -34.5q0 -22 20.5 -33t78.5 -22
q85 -16 119.5 -48t34.5 -77q0 -50 -34.5 -82.5t-100.5 -38.5v-65h-69z" />
    <glyph glyph-name="cent.sups" horiz-adv-x="399" 
d="M370 581q-24 -90 -121 -105v-63h-69v62q-43 6 -74.5 28t-48.5 55.5t-17 75.5q0 68 38.5 110.5t101.5 52.5v53h69v-52q58 -9 87.5 -41.5t33.5 -66.5h-76q-17 53 -83 53q-43 0 -68.5 -28t-25.5 -77q0 -46 26.5 -77t68.5 -31q61 0 83 51h75z" />
    <glyph glyph-name="hyphen.sups" horiz-adv-x="233" 
d="M202 672v-68h-170v68h170z" />
    <glyph glyph-name="period.subs" horiz-adv-x="160" 
d="M40 -176v108h80v-108h-80z" />
    <glyph glyph-name="comma.subs" horiz-adv-x="154" 
d="M13 -251q34 87 39 183h79q-5 -52 -18.5 -103t-30.5 -80h-69z" />
    </font>
</defs>
</svg>
